G04 #@! TF.FileFunction,Soldermask,Bot*
%FSLAX46Y46*%
G04 Gerber Fmt 4.6, Leading zero omitted, Abs format (unit mm)*
G04 Created by KiCad (PCBNEW 4.0.7) date Sunday, September 23, 2018 'PMt' 12:44:32 PM*
%MOMM*%
%LPD*%
G01*
G04 APERTURE LIST*
%ADD10C,0.100000*%
%ADD11R,2.000000X2.000000*%
%ADD12C,2.000000*%
%ADD13C,1.600000*%
%ADD14R,4.000000X4.000000*%
%ADD15C,3.300000*%
%ADD16C,3.500000*%
%ADD17R,1.600000X1.600000*%
%ADD18O,1.600000X1.600000*%
%ADD19O,0.900000X1.500000*%
%ADD20R,0.900000X1.500000*%
%ADD21R,2.200000X2.200000*%
%ADD22C,2.200000*%
%ADD23C,2.700000*%
%ADD24R,2.600000X2.600000*%
%ADD25C,2.600000*%
%ADD26O,2.200000X2.200000*%
%ADD27C,2.800000*%
%ADD28R,1.500000X1.500000*%
%ADD29C,1.500000*%
G04 APERTURE END LIST*
D10*
D11*
X173990000Y-111760000D03*
D12*
X168990000Y-111760000D03*
D13*
X146050000Y-116840000D03*
X151050000Y-116840000D03*
X163830000Y-111125000D03*
X163830000Y-116125000D03*
X154305000Y-111125000D03*
X154305000Y-116125000D03*
D14*
X183515000Y-122555000D03*
D15*
X189515000Y-122555000D03*
D16*
X190515000Y-127055000D03*
X190515000Y-118055000D03*
D13*
X192515000Y-122555000D03*
D17*
X150495000Y-106045000D03*
D18*
X135255000Y-113665000D03*
X147955000Y-106045000D03*
X137795000Y-113665000D03*
X145415000Y-106045000D03*
X140335000Y-113665000D03*
X142875000Y-106045000D03*
X142875000Y-113665000D03*
X140335000Y-106045000D03*
X145415000Y-113665000D03*
X137795000Y-106045000D03*
X147955000Y-113665000D03*
X135255000Y-106045000D03*
X150495000Y-113665000D03*
D19*
X159004000Y-115570000D03*
X157734000Y-115570000D03*
D20*
X160274000Y-115570000D03*
D21*
X120650000Y-97790000D03*
D22*
X120650000Y-101290000D03*
X179150000Y-97790000D03*
D23*
X126000000Y-95340000D03*
X173800000Y-95340000D03*
X124800000Y-103740000D03*
X175000000Y-103740000D03*
D21*
X120650000Y-121920000D03*
D22*
X120650000Y-125420000D03*
X179150000Y-121920000D03*
D23*
X126000000Y-119470000D03*
X173800000Y-119470000D03*
X124800000Y-127870000D03*
X175000000Y-127870000D03*
D13*
X135255000Y-116840000D03*
X140255000Y-116840000D03*
X125730000Y-115570000D03*
X120730000Y-115570000D03*
D24*
X191770000Y-88900000D03*
D25*
X188270000Y-88900000D03*
X184770000Y-88900000D03*
X181270000Y-88900000D03*
D24*
X191008000Y-103632000D03*
D25*
X191008000Y-100132000D03*
X191008000Y-96632000D03*
D19*
X130175000Y-116205000D03*
X131445000Y-116205000D03*
D20*
X128905000Y-116205000D03*
D21*
X164465000Y-107315000D03*
D26*
X156845000Y-107315000D03*
D27*
X194310000Y-111125000D03*
X191910000Y-113125000D03*
X186410000Y-113125000D03*
D17*
X128270000Y-109220000D03*
D13*
X130770000Y-109220000D03*
D28*
X172720000Y-91440000D03*
D29*
X172720000Y-87640000D03*
X171450000Y-89540000D03*
X171450000Y-85740000D03*
X170180000Y-91440000D03*
X170180000Y-87640000D03*
X168910000Y-89540000D03*
X168910000Y-85740000D03*
X167640000Y-91440000D03*
X167640000Y-87640000D03*
X166370000Y-89540000D03*
X166370000Y-85740000D03*
X165100000Y-91440000D03*
X165100000Y-87640000D03*
X163830000Y-89540000D03*
X163830000Y-85740000D03*
X162560000Y-91440000D03*
X162560000Y-87640000D03*
X161290000Y-89540000D03*
X161290000Y-85740000D03*
X160020000Y-91440000D03*
X160020000Y-87640000D03*
X158750000Y-89540000D03*
X158750000Y-85740000D03*
X157480000Y-91440000D03*
X157480000Y-87640000D03*
X156210000Y-89540000D03*
X156210000Y-85740000D03*
X154940000Y-91440000D03*
X154940000Y-87640000D03*
X153670000Y-89540000D03*
X153670000Y-85740000D03*
X152400000Y-91440000D03*
X152400000Y-87640000D03*
X151130000Y-89540000D03*
X151130000Y-85740000D03*
X149860000Y-91440000D03*
X149860000Y-87640000D03*
X148590000Y-89540000D03*
X148590000Y-85740000D03*
X147320000Y-91440000D03*
X147320000Y-87640000D03*
X146050000Y-89540000D03*
X146050000Y-85740000D03*
X144780000Y-91440000D03*
X144780000Y-87640000D03*
X143510000Y-89540000D03*
X143510000Y-85740000D03*
X142240000Y-91440000D03*
X142240000Y-87640000D03*
X140970000Y-89540000D03*
X140970000Y-85740000D03*
X139700000Y-91440000D03*
X139700000Y-87640000D03*
X138430000Y-89540000D03*
X138430000Y-85740000D03*
X137160000Y-91440000D03*
X137160000Y-87640000D03*
X135890000Y-89540000D03*
X135890000Y-85740000D03*
X134620000Y-91440000D03*
X134620000Y-87640000D03*
X133350000Y-89540000D03*
X133350000Y-85740000D03*
X132080000Y-91440000D03*
X132080000Y-87640000D03*
X130810000Y-89540000D03*
X130810000Y-85740000D03*
X129540000Y-91440000D03*
X129540000Y-87640000D03*
X128270000Y-89540000D03*
X128270000Y-85740000D03*
X127000000Y-91440000D03*
X127000000Y-87640000D03*
X125730000Y-89540000D03*
X125730000Y-85740000D03*
X124460000Y-91440000D03*
X124460000Y-87640000D03*
X123190000Y-89540000D03*
X123190000Y-85740000D03*
D17*
X182626000Y-97028000D03*
D13*
X185126000Y-97028000D03*
D17*
X182626000Y-102870000D03*
D13*
X185126000Y-102870000D03*
X179070000Y-113030000D03*
X179070000Y-110530000D03*
X177165000Y-107315000D03*
D18*
X179705000Y-107315000D03*
D13*
X158115000Y-111760000D03*
D18*
X160655000Y-111760000D03*
D13*
X177165000Y-116205000D03*
D18*
X179705000Y-116205000D03*
M02*
