M48
;DRILL file {KiCad 4.0.7} date Sunday, September 23, 2018 'PMt' 12:44:49 PM
;FORMAT={3:3/ absolute / metric / suppress leading zeros}
FMAT,2
METRIC,TZ
T1C0.400
T2C0.600
T3C0.800
T4C1.000
T5C1.100
T6C1.200
T7C1.300
T8C1.700
T9C2.000
T10C2.300
T11C2.500
T12C3.000
%
G90
G05
M71
T1
X123190Y-123444
X133350Y-100965
X135255Y-93345
X137795Y-99060
X139065Y-97790
X140335Y-95250
X144103Y-112136
X146685Y-125730
X147955Y-101600
X151130Y-95250
X153670Y-97790
X154305Y-114300
X154940Y-101600
X161925Y-125095
X163830Y-114300
X164465Y-97790
X165100Y-121920
X165735Y-109855
X166457Y-109510
X176784Y-123444
X177165Y-99060
X177800Y-90805
X180340Y-104775
X184785Y-92710
X187436Y-110509
X193675Y-125095
T2
X128905Y-116205
X130175Y-116205
X131445Y-116205
X157734Y-115570
X159004Y-115570
X160274Y-115570
T3
X120730Y-115570
X125730Y-115570
X128270Y-109220
X130770Y-109220
X135255Y-106045
X135255Y-113665
X135255Y-116840
X137795Y-106045
X137795Y-113665
X140255Y-116840
X140335Y-106045
X140335Y-113665
X142875Y-106045
X142875Y-113665
X145415Y-106045
X145415Y-113665
X146050Y-116840
X147955Y-106045
X147955Y-113665
X150495Y-106045
X150495Y-113665
X151050Y-116840
X154305Y-111125
X154305Y-116125
X158115Y-111760
X160655Y-111760
X163830Y-111125
X163830Y-116125
X177165Y-107315
X177165Y-116205
X179070Y-110530
X179070Y-113030
X179705Y-107315
X179705Y-116205
X182626Y-97028
X182626Y-102870
X185126Y-97028
X185126Y-102870
T4
X123190Y-85740
X123190Y-89540
X124460Y-87640
X124460Y-91440
X125730Y-85740
X125730Y-89540
X127000Y-87640
X127000Y-91440
X128270Y-85740
X128270Y-89540
X129540Y-87640
X129540Y-91440
X130810Y-85740
X130810Y-89540
X132080Y-87640
X132080Y-91440
X133350Y-85740
X133350Y-89540
X134620Y-87640
X134620Y-91440
X135890Y-85740
X135890Y-89540
X137160Y-87640
X137160Y-91440
X138430Y-85740
X138430Y-89540
X139700Y-87640
X139700Y-91440
X140970Y-85740
X140970Y-89540
X142240Y-87640
X142240Y-91440
X143510Y-85740
X143510Y-89540
X144780Y-87640
X144780Y-91440
X146050Y-85740
X146050Y-89540
X147320Y-87640
X147320Y-91440
X148590Y-85740
X148590Y-89540
X149860Y-87640
X149860Y-91440
X151130Y-85740
X151130Y-89540
X152400Y-87640
X152400Y-91440
X153670Y-85740
X153670Y-89540
X154940Y-87640
X154940Y-91440
X156210Y-85740
X156210Y-89540
X157480Y-87640
X157480Y-91440
X158750Y-85740
X158750Y-89540
X160020Y-87640
X160020Y-91440
X161290Y-85740
X161290Y-89540
X162560Y-87640
X162560Y-91440
X163830Y-85740
X163830Y-89540
X165100Y-87640
X165100Y-91440
X166370Y-85740
X166370Y-89540
X167640Y-87640
X167640Y-91440
X168910Y-85740
X168910Y-89540
X168990Y-111760
X170180Y-87640
X170180Y-91440
X171450Y-85740
X171450Y-89540
X172720Y-87640
X172720Y-91440
X173990Y-111760
T5
X156845Y-107315
X164465Y-107315
T6
X120650Y-97790
X120650Y-101290
X120650Y-121920
X120650Y-125420
X179150Y-97790
X179150Y-121920
T7
X181270Y-88900
X184770Y-88900
X188270Y-88900
X191008Y-96632
X191008Y-100132
X191008Y-103632
X191770Y-88900
T8
X124800Y-103740
X124800Y-127870
X126000Y-95340
X126000Y-119470
X173800Y-95340
X173800Y-119470
X175000Y-103740
X175000Y-127870
T9
X186410Y-113125
X191910Y-113125
X194310Y-111125
T10
X189515Y-122555
T11
X190515Y-118055
X190515Y-127055
T12
X183515Y-122555
T0
M30
