M48
;DRILL file {KiCad 4.0.7} date Monday, September 03, 2018 'PMt' 09:43:11 PM
;FORMAT={3:3/ absolute / metric / suppress leading zeros}
FMAT,2
METRIC,TZ
T1C0.400
T2C0.600
T3C0.750
T4C0.800
T5C1.000
T6C1.200
T7C1.700
T8C2.300
T9C2.500
T10C3.000
%
G90
G05
M71
T1
X122555Y-111760
X132715Y-125095
X133985Y-111760
X134620Y-100965
X147320Y-123825
X157480Y-121920
X182880Y-125095
T2
X148590Y-113030
X149860Y-113030
X151130Y-113030
T3
X179070Y-87440
X179070Y-89440
X179070Y-91440
T4
X121285Y-107950
X121285Y-115570
X123825Y-107950
X123825Y-115570
X126365Y-107950
X126365Y-115570
X128905Y-107950
X128905Y-115570
X131445Y-107950
X131445Y-115570
X133985Y-107950
X133985Y-115570
X136525Y-107950
X136525Y-115570
X140335Y-109300
X140335Y-114300
X144780Y-111125
X144780Y-116125
X154940Y-111125
X154940Y-116125
X182880Y-95885
X182880Y-103505
T5
X123190Y-85740
X123190Y-89540
X124460Y-87640
X124460Y-91440
X125730Y-85740
X125730Y-89540
X127000Y-87640
X127000Y-91440
X128270Y-85740
X128270Y-89540
X129540Y-87640
X129540Y-91440
X130810Y-85740
X130810Y-89540
X132080Y-87640
X132080Y-91440
X133350Y-85740
X133350Y-89540
X134620Y-87640
X134620Y-91440
X135890Y-85740
X135890Y-89540
X137160Y-87640
X137160Y-91440
X138430Y-85740
X138430Y-89540
X139700Y-87640
X139700Y-91440
X140970Y-85740
X140970Y-89540
X142240Y-87640
X142240Y-91440
X143510Y-85740
X143510Y-89540
X144780Y-87640
X144780Y-91440
X146050Y-85740
X146050Y-89540
X147320Y-87640
X147320Y-91440
X148590Y-85740
X148590Y-89540
X149860Y-87640
X149860Y-91440
X151130Y-85740
X151130Y-89540
X152400Y-87640
X152400Y-91440
X153670Y-85740
X153670Y-89540
X154940Y-87640
X154940Y-91440
X156210Y-85740
X156210Y-89540
X157480Y-87640
X157480Y-91440
X158750Y-85740
X158750Y-89540
X160020Y-87640
X160020Y-91440
X161290Y-85740
X161290Y-89540
X161370Y-111760
X162560Y-87640
X162560Y-91440
X163830Y-85740
X163830Y-89540
X165100Y-87640
X165100Y-91440
X166370Y-85740
X166370Y-89540
X166370Y-111760
X167640Y-87640
X167640Y-91440
X168910Y-85740
X168910Y-89540
X170180Y-87640
X170180Y-91440
X171450Y-85740
X171450Y-89540
X172720Y-87640
X172720Y-91440
T6
X120650Y-97790
X120650Y-101290
X120650Y-121920
X120650Y-125420
X144780Y-107315
X154940Y-107315
X179150Y-97790
X179150Y-121920
T7
X124800Y-103740
X124800Y-127870
X126000Y-95340
X126000Y-119470
X173800Y-95340
X173800Y-119470
X175000Y-103740
X175000Y-127870
T8
X179355Y-111760
T9
X180355Y-107260
X180355Y-116260
T10
X173355Y-111760
T0
M30
