G04 #@! TF.FileFunction,Legend,Bot*
%FSLAX46Y46*%
G04 Gerber Fmt 4.6, Leading zero omitted, Abs format (unit mm)*
G04 Created by KiCad (PCBNEW 4.0.7) date Sunday, September 23, 2018 'PMt' 12:44:32 PM*
%MOMM*%
%LPD*%
G01*
G04 APERTURE LIST*
%ADD10C,0.100000*%
%ADD11C,0.200000*%
%ADD12C,0.300000*%
%ADD13C,0.010000*%
G04 APERTURE END LIST*
D10*
D11*
X120102381Y-111021666D02*
X120150000Y-111116904D01*
X120245238Y-111212142D01*
X120388095Y-111354999D01*
X120435714Y-111450238D01*
X120435714Y-111545476D01*
X120197619Y-111497857D02*
X120245238Y-111593095D01*
X120340476Y-111688333D01*
X120530952Y-111735952D01*
X120864286Y-111735952D01*
X121054762Y-111688333D01*
X121150000Y-111593095D01*
X121197619Y-111497857D01*
X121197619Y-111307380D01*
X121150000Y-111212142D01*
X121054762Y-111116904D01*
X120864286Y-111069285D01*
X120530952Y-111069285D01*
X120340476Y-111116904D01*
X120245238Y-111212142D01*
X120197619Y-111307380D01*
X120197619Y-111497857D01*
X121197619Y-110735952D02*
X120197619Y-110497857D01*
X120911905Y-110307380D01*
X120197619Y-110116904D01*
X121197619Y-109878809D01*
X120197619Y-109497857D02*
X121197619Y-109497857D01*
X120197619Y-109021667D02*
X121197619Y-109021667D01*
X120292857Y-107974048D02*
X120245238Y-108021667D01*
X120197619Y-108164524D01*
X120197619Y-108259762D01*
X120245238Y-108402620D01*
X120340476Y-108497858D01*
X120435714Y-108545477D01*
X120626190Y-108593096D01*
X120769048Y-108593096D01*
X120959524Y-108545477D01*
X121054762Y-108497858D01*
X121150000Y-108402620D01*
X121197619Y-108259762D01*
X121197619Y-108164524D01*
X121150000Y-108021667D01*
X121102381Y-107974048D01*
X189618572Y-91892381D02*
X189618572Y-90892381D01*
X189380477Y-90892381D01*
X189237619Y-90940000D01*
X189142381Y-91035238D01*
X189094762Y-91130476D01*
X189047143Y-91320952D01*
X189047143Y-91463810D01*
X189094762Y-91654286D01*
X189142381Y-91749524D01*
X189237619Y-91844762D01*
X189380477Y-91892381D01*
X189618572Y-91892381D01*
X188475715Y-91892381D02*
X188570953Y-91844762D01*
X188618572Y-91797143D01*
X188666191Y-91701905D01*
X188666191Y-91416190D01*
X188618572Y-91320952D01*
X188570953Y-91273333D01*
X188475715Y-91225714D01*
X188332857Y-91225714D01*
X188237619Y-91273333D01*
X188190000Y-91320952D01*
X188142381Y-91416190D01*
X188142381Y-91701905D01*
X188190000Y-91797143D01*
X188237619Y-91844762D01*
X188332857Y-91892381D01*
X188475715Y-91892381D01*
X187856667Y-91225714D02*
X187475715Y-91225714D01*
X187713810Y-90892381D02*
X187713810Y-91749524D01*
X187666191Y-91844762D01*
X187570953Y-91892381D01*
X187475715Y-91892381D01*
X187190000Y-91844762D02*
X187047143Y-91892381D01*
X186809047Y-91892381D01*
X186713809Y-91844762D01*
X186666190Y-91797143D01*
X186618571Y-91701905D01*
X186618571Y-91606667D01*
X186666190Y-91511429D01*
X186713809Y-91463810D01*
X186809047Y-91416190D01*
X186999524Y-91368571D01*
X187094762Y-91320952D01*
X187142381Y-91273333D01*
X187190000Y-91178095D01*
X187190000Y-91082857D01*
X187142381Y-90987619D01*
X187094762Y-90940000D01*
X186999524Y-90892381D01*
X186761428Y-90892381D01*
X186618571Y-90940000D01*
X186332857Y-91225714D02*
X185951905Y-91225714D01*
X186190000Y-90892381D02*
X186190000Y-91749524D01*
X186142381Y-91844762D01*
X186047143Y-91892381D01*
X185951905Y-91892381D01*
X185189999Y-91892381D02*
X185189999Y-91368571D01*
X185237618Y-91273333D01*
X185332856Y-91225714D01*
X185523333Y-91225714D01*
X185618571Y-91273333D01*
X185189999Y-91844762D02*
X185285237Y-91892381D01*
X185523333Y-91892381D01*
X185618571Y-91844762D01*
X185666190Y-91749524D01*
X185666190Y-91654286D01*
X185618571Y-91559048D01*
X185523333Y-91511429D01*
X185285237Y-91511429D01*
X185189999Y-91463810D01*
X184713809Y-91892381D02*
X184713809Y-91225714D01*
X184713809Y-91416190D02*
X184666190Y-91320952D01*
X184618571Y-91273333D01*
X184523333Y-91225714D01*
X184428094Y-91225714D01*
X184142380Y-91844762D02*
X184047142Y-91892381D01*
X183856666Y-91892381D01*
X183761427Y-91844762D01*
X183713808Y-91749524D01*
X183713808Y-91701905D01*
X183761427Y-91606667D01*
X183856666Y-91559048D01*
X183999523Y-91559048D01*
X184094761Y-91511429D01*
X184142380Y-91416190D01*
X184142380Y-91368571D01*
X184094761Y-91273333D01*
X183999523Y-91225714D01*
X183856666Y-91225714D01*
X183761427Y-91273333D01*
X180856000Y-85090286D02*
X180808381Y-84995048D01*
X180808381Y-84852191D01*
X180856000Y-84709333D01*
X180951238Y-84614095D01*
X181046476Y-84566476D01*
X181236952Y-84518857D01*
X181379810Y-84518857D01*
X181570286Y-84566476D01*
X181665524Y-84614095D01*
X181760762Y-84709333D01*
X181808381Y-84852191D01*
X181808381Y-84947429D01*
X181760762Y-85090286D01*
X181713143Y-85137905D01*
X181379810Y-85137905D01*
X181379810Y-84947429D01*
X181808381Y-85566476D02*
X180808381Y-85566476D01*
X181808381Y-86137905D01*
X180808381Y-86137905D01*
X181808381Y-86614095D02*
X180808381Y-86614095D01*
X180808381Y-86852190D01*
X180856000Y-86995048D01*
X180951238Y-87090286D01*
X181046476Y-87137905D01*
X181236952Y-87185524D01*
X181379810Y-87185524D01*
X181570286Y-87137905D01*
X181665524Y-87090286D01*
X181760762Y-86995048D01*
X181808381Y-86852190D01*
X181808381Y-86614095D01*
X185364381Y-84995047D02*
X184364381Y-84995047D01*
X184364381Y-85233142D01*
X184412000Y-85376000D01*
X184507238Y-85471238D01*
X184602476Y-85518857D01*
X184792952Y-85566476D01*
X184935810Y-85566476D01*
X185126286Y-85518857D01*
X185221524Y-85471238D01*
X185316762Y-85376000D01*
X185364381Y-85233142D01*
X185364381Y-84995047D01*
X185078667Y-85947428D02*
X185078667Y-86423619D01*
X185364381Y-85852190D02*
X184364381Y-86185523D01*
X185364381Y-86518857D01*
X184364381Y-86709333D02*
X184364381Y-87280762D01*
X185364381Y-86995047D02*
X184364381Y-86995047D01*
X188825143Y-85376000D02*
X188872762Y-85328381D01*
X188920381Y-85185524D01*
X188920381Y-85090286D01*
X188872762Y-84947428D01*
X188777524Y-84852190D01*
X188682286Y-84804571D01*
X188491810Y-84756952D01*
X188348952Y-84756952D01*
X188158476Y-84804571D01*
X188063238Y-84852190D01*
X187968000Y-84947428D01*
X187920381Y-85090286D01*
X187920381Y-85185524D01*
X187968000Y-85328381D01*
X188015619Y-85376000D01*
X188920381Y-86280762D02*
X188920381Y-85804571D01*
X187920381Y-85804571D01*
X188920381Y-86614095D02*
X187920381Y-86614095D01*
X188920381Y-87185524D02*
X188348952Y-86756952D01*
X187920381Y-87185524D02*
X188491810Y-86614095D01*
X191841429Y-85518857D02*
X191841429Y-86280762D01*
X192222381Y-85899810D02*
X191460476Y-85899810D01*
X191222381Y-86614095D02*
X192222381Y-86947428D01*
X191222381Y-87280762D01*
X194944477Y-108910381D02*
X194944477Y-107910381D01*
X194515905Y-108910381D02*
X194515905Y-108386571D01*
X194563524Y-108291333D01*
X194658762Y-108243714D01*
X194801620Y-108243714D01*
X194896858Y-108291333D01*
X194944477Y-108338952D01*
X193658762Y-108862762D02*
X193754000Y-108910381D01*
X193944477Y-108910381D01*
X194039715Y-108862762D01*
X194087334Y-108767524D01*
X194087334Y-108386571D01*
X194039715Y-108291333D01*
X193944477Y-108243714D01*
X193754000Y-108243714D01*
X193658762Y-108291333D01*
X193611143Y-108386571D01*
X193611143Y-108481810D01*
X194087334Y-108577048D01*
X192754000Y-108910381D02*
X192754000Y-108386571D01*
X192801619Y-108291333D01*
X192896857Y-108243714D01*
X193087334Y-108243714D01*
X193182572Y-108291333D01*
X192754000Y-108862762D02*
X192849238Y-108910381D01*
X193087334Y-108910381D01*
X193182572Y-108862762D01*
X193230191Y-108767524D01*
X193230191Y-108672286D01*
X193182572Y-108577048D01*
X193087334Y-108529429D01*
X192849238Y-108529429D01*
X192754000Y-108481810D01*
X191849238Y-108910381D02*
X191849238Y-107910381D01*
X191849238Y-108862762D02*
X191944476Y-108910381D01*
X192134953Y-108910381D01*
X192230191Y-108862762D01*
X192277810Y-108815143D01*
X192325429Y-108719905D01*
X192325429Y-108434190D01*
X192277810Y-108338952D01*
X192230191Y-108291333D01*
X192134953Y-108243714D01*
X191944476Y-108243714D01*
X191849238Y-108291333D01*
X191373048Y-108243714D02*
X191373048Y-109243714D01*
X191373048Y-108291333D02*
X191277810Y-108243714D01*
X191087333Y-108243714D01*
X190992095Y-108291333D01*
X190944476Y-108338952D01*
X190896857Y-108434190D01*
X190896857Y-108719905D01*
X190944476Y-108815143D01*
X190992095Y-108862762D01*
X191087333Y-108910381D01*
X191277810Y-108910381D01*
X191373048Y-108862762D01*
X190468286Y-108910381D02*
X190468286Y-107910381D01*
X190039714Y-108910381D02*
X190039714Y-108386571D01*
X190087333Y-108291333D01*
X190182571Y-108243714D01*
X190325429Y-108243714D01*
X190420667Y-108291333D01*
X190468286Y-108338952D01*
X189420667Y-108910381D02*
X189515905Y-108862762D01*
X189563524Y-108815143D01*
X189611143Y-108719905D01*
X189611143Y-108434190D01*
X189563524Y-108338952D01*
X189515905Y-108291333D01*
X189420667Y-108243714D01*
X189277809Y-108243714D01*
X189182571Y-108291333D01*
X189134952Y-108338952D01*
X189087333Y-108434190D01*
X189087333Y-108719905D01*
X189134952Y-108815143D01*
X189182571Y-108862762D01*
X189277809Y-108910381D01*
X189420667Y-108910381D01*
X188658762Y-108243714D02*
X188658762Y-108910381D01*
X188658762Y-108338952D02*
X188611143Y-108291333D01*
X188515905Y-108243714D01*
X188373047Y-108243714D01*
X188277809Y-108291333D01*
X188230190Y-108386571D01*
X188230190Y-108910381D01*
X187373047Y-108862762D02*
X187468285Y-108910381D01*
X187658762Y-108910381D01*
X187754000Y-108862762D01*
X187801619Y-108767524D01*
X187801619Y-108386571D01*
X187754000Y-108291333D01*
X187658762Y-108243714D01*
X187468285Y-108243714D01*
X187373047Y-108291333D01*
X187325428Y-108386571D01*
X187325428Y-108481810D01*
X187801619Y-108577048D01*
X186944476Y-108862762D02*
X186849238Y-108910381D01*
X186658762Y-108910381D01*
X186563523Y-108862762D01*
X186515904Y-108767524D01*
X186515904Y-108719905D01*
X186563523Y-108624667D01*
X186658762Y-108577048D01*
X186801619Y-108577048D01*
X186896857Y-108529429D01*
X186944476Y-108434190D01*
X186944476Y-108386571D01*
X186896857Y-108291333D01*
X186801619Y-108243714D01*
X186658762Y-108243714D01*
X186563523Y-108291333D01*
X188412381Y-96290238D02*
X187412381Y-96290238D01*
X188412381Y-96861667D01*
X187412381Y-96861667D01*
X188364762Y-97718810D02*
X188412381Y-97623572D01*
X188412381Y-97433095D01*
X188364762Y-97337857D01*
X188269524Y-97290238D01*
X187888571Y-97290238D01*
X187793333Y-97337857D01*
X187745714Y-97433095D01*
X187745714Y-97623572D01*
X187793333Y-97718810D01*
X187888571Y-97766429D01*
X187983810Y-97766429D01*
X188079048Y-97290238D01*
X188412381Y-98337857D02*
X188364762Y-98242619D01*
X188317143Y-98195000D01*
X188221905Y-98147381D01*
X187936190Y-98147381D01*
X187840952Y-98195000D01*
X187793333Y-98242619D01*
X187745714Y-98337857D01*
X187745714Y-98480715D01*
X187793333Y-98575953D01*
X187840952Y-98623572D01*
X187936190Y-98671191D01*
X188221905Y-98671191D01*
X188317143Y-98623572D01*
X188364762Y-98575953D01*
X188412381Y-98480715D01*
X188412381Y-98337857D01*
X188412381Y-99099762D02*
X187412381Y-99099762D01*
X187412381Y-99480715D01*
X187460000Y-99575953D01*
X187507619Y-99623572D01*
X187602857Y-99671191D01*
X187745714Y-99671191D01*
X187840952Y-99623572D01*
X187888571Y-99575953D01*
X187936190Y-99480715D01*
X187936190Y-99099762D01*
X188412381Y-100099762D02*
X187745714Y-100099762D01*
X187412381Y-100099762D02*
X187460000Y-100052143D01*
X187507619Y-100099762D01*
X187460000Y-100147381D01*
X187412381Y-100099762D01*
X187507619Y-100099762D01*
X188412381Y-100480714D02*
X187745714Y-101004524D01*
X187745714Y-100480714D02*
X188412381Y-101004524D01*
X188364762Y-101766429D02*
X188412381Y-101671191D01*
X188412381Y-101480714D01*
X188364762Y-101385476D01*
X188269524Y-101337857D01*
X187888571Y-101337857D01*
X187793333Y-101385476D01*
X187745714Y-101480714D01*
X187745714Y-101671191D01*
X187793333Y-101766429D01*
X187888571Y-101814048D01*
X187983810Y-101814048D01*
X188079048Y-101337857D01*
X188412381Y-102385476D02*
X188364762Y-102290238D01*
X188269524Y-102242619D01*
X187412381Y-102242619D01*
X188364762Y-102718810D02*
X188412381Y-102814048D01*
X188412381Y-103004524D01*
X188364762Y-103099763D01*
X188269524Y-103147382D01*
X188221905Y-103147382D01*
X188126667Y-103099763D01*
X188079048Y-103004524D01*
X188079048Y-102861667D01*
X188031429Y-102766429D01*
X187936190Y-102718810D01*
X187888571Y-102718810D01*
X187793333Y-102766429D01*
X187745714Y-102861667D01*
X187745714Y-103004524D01*
X187793333Y-103099763D01*
X194397381Y-118650239D02*
X194397381Y-118174048D01*
X194873571Y-118126429D01*
X194825952Y-118174048D01*
X194778333Y-118269286D01*
X194778333Y-118507382D01*
X194825952Y-118602620D01*
X194873571Y-118650239D01*
X194968810Y-118697858D01*
X195206905Y-118697858D01*
X195302143Y-118650239D01*
X195349762Y-118602620D01*
X195397381Y-118507382D01*
X195397381Y-118269286D01*
X195349762Y-118174048D01*
X195302143Y-118126429D01*
X195016429Y-119126429D02*
X195016429Y-119888334D01*
X195397381Y-120888334D02*
X195397381Y-120316905D01*
X195397381Y-120602619D02*
X194397381Y-120602619D01*
X194540238Y-120507381D01*
X194635476Y-120412143D01*
X194683095Y-120316905D01*
X194492619Y-121269286D02*
X194445000Y-121316905D01*
X194397381Y-121412143D01*
X194397381Y-121650239D01*
X194445000Y-121745477D01*
X194492619Y-121793096D01*
X194587857Y-121840715D01*
X194683095Y-121840715D01*
X194825952Y-121793096D01*
X195397381Y-121221667D01*
X195397381Y-121840715D01*
X194397381Y-122126429D02*
X195397381Y-122459762D01*
X194397381Y-122793096D01*
X195397381Y-123126429D02*
X194397381Y-123126429D01*
X194397381Y-123364524D01*
X194445000Y-123507382D01*
X194540238Y-123602620D01*
X194635476Y-123650239D01*
X194825952Y-123697858D01*
X194968810Y-123697858D01*
X195159286Y-123650239D01*
X195254524Y-123602620D01*
X195349762Y-123507382D01*
X195397381Y-123364524D01*
X195397381Y-123126429D01*
X195302143Y-124697858D02*
X195349762Y-124650239D01*
X195397381Y-124507382D01*
X195397381Y-124412144D01*
X195349762Y-124269286D01*
X195254524Y-124174048D01*
X195159286Y-124126429D01*
X194968810Y-124078810D01*
X194825952Y-124078810D01*
X194635476Y-124126429D01*
X194540238Y-124174048D01*
X194445000Y-124269286D01*
X194397381Y-124412144D01*
X194397381Y-124507382D01*
X194445000Y-124650239D01*
X194492619Y-124697858D01*
X195397381Y-125888334D02*
X194397381Y-125888334D01*
X195397381Y-126364524D02*
X194397381Y-126364524D01*
X195397381Y-126935953D01*
X194397381Y-126935953D01*
X195643096Y-100782381D02*
X195643096Y-99782381D01*
X195405001Y-99782381D01*
X195262143Y-99830000D01*
X195166905Y-99925238D01*
X195119286Y-100020476D01*
X195071667Y-100210952D01*
X195071667Y-100353810D01*
X195119286Y-100544286D01*
X195166905Y-100639524D01*
X195262143Y-100734762D01*
X195405001Y-100782381D01*
X195643096Y-100782381D01*
X194690715Y-100496667D02*
X194214524Y-100496667D01*
X194785953Y-100782381D02*
X194452620Y-99782381D01*
X194119286Y-100782381D01*
X193928810Y-99782381D02*
X193357381Y-99782381D01*
X193643096Y-100782381D02*
X193643096Y-99782381D01*
X193071667Y-100496667D02*
X192595476Y-100496667D01*
X193166905Y-100782381D02*
X192833572Y-99782381D01*
X192500238Y-100782381D01*
X194690714Y-96020000D02*
X194785952Y-95972381D01*
X194928809Y-95972381D01*
X195071667Y-96020000D01*
X195166905Y-96115238D01*
X195214524Y-96210476D01*
X195262143Y-96400952D01*
X195262143Y-96543810D01*
X195214524Y-96734286D01*
X195166905Y-96829524D01*
X195071667Y-96924762D01*
X194928809Y-96972381D01*
X194833571Y-96972381D01*
X194690714Y-96924762D01*
X194643095Y-96877143D01*
X194643095Y-96543810D01*
X194833571Y-96543810D01*
X194214524Y-96972381D02*
X194214524Y-95972381D01*
X193643095Y-96972381D01*
X193643095Y-95972381D01*
X193166905Y-96972381D02*
X193166905Y-95972381D01*
X192928810Y-95972381D01*
X192785952Y-96020000D01*
X192690714Y-96115238D01*
X192643095Y-96210476D01*
X192595476Y-96400952D01*
X192595476Y-96543810D01*
X192643095Y-96734286D01*
X192690714Y-96829524D01*
X192785952Y-96924762D01*
X192928810Y-96972381D01*
X193166905Y-96972381D01*
X194262143Y-103576429D02*
X193500238Y-103576429D01*
X193881190Y-103957381D02*
X193881190Y-103195476D01*
X193166905Y-102957381D02*
X192833572Y-103957381D01*
X192500238Y-102957381D01*
D12*
X162225713Y-95831429D02*
X162154284Y-95760000D01*
X162011427Y-95688571D01*
X161654284Y-95688571D01*
X161511427Y-95760000D01*
X161439998Y-95831429D01*
X161368570Y-95974286D01*
X161368570Y-96117143D01*
X161439998Y-96331429D01*
X162297141Y-97188571D01*
X161368570Y-97188571D01*
X160439999Y-95688571D02*
X160297142Y-95688571D01*
X160154285Y-95760000D01*
X160082856Y-95831429D01*
X160011427Y-95974286D01*
X159939999Y-96260000D01*
X159939999Y-96617143D01*
X160011427Y-96902857D01*
X160082856Y-97045714D01*
X160154285Y-97117143D01*
X160297142Y-97188571D01*
X160439999Y-97188571D01*
X160582856Y-97117143D01*
X160654285Y-97045714D01*
X160725713Y-96902857D01*
X160797142Y-96617143D01*
X160797142Y-96260000D01*
X160725713Y-95974286D01*
X160654285Y-95831429D01*
X160582856Y-95760000D01*
X160439999Y-95688571D01*
X158511428Y-97188571D02*
X159368571Y-97188571D01*
X158939999Y-97188571D02*
X158939999Y-95688571D01*
X159082856Y-95902857D01*
X159225714Y-96045714D01*
X159368571Y-96117143D01*
X157654285Y-96331429D02*
X157797143Y-96260000D01*
X157868571Y-96188571D01*
X157940000Y-96045714D01*
X157940000Y-95974286D01*
X157868571Y-95831429D01*
X157797143Y-95760000D01*
X157654285Y-95688571D01*
X157368571Y-95688571D01*
X157225714Y-95760000D01*
X157154285Y-95831429D01*
X157082857Y-95974286D01*
X157082857Y-96045714D01*
X157154285Y-96188571D01*
X157225714Y-96260000D01*
X157368571Y-96331429D01*
X157654285Y-96331429D01*
X157797143Y-96402857D01*
X157868571Y-96474286D01*
X157940000Y-96617143D01*
X157940000Y-96902857D01*
X157868571Y-97045714D01*
X157797143Y-97117143D01*
X157654285Y-97188571D01*
X157368571Y-97188571D01*
X157225714Y-97117143D01*
X157154285Y-97045714D01*
X157082857Y-96902857D01*
X157082857Y-96617143D01*
X157154285Y-96474286D01*
X157225714Y-96402857D01*
X157368571Y-96331429D01*
X156440000Y-96617143D02*
X155297143Y-96617143D01*
X154297143Y-95688571D02*
X154154286Y-95688571D01*
X154011429Y-95760000D01*
X153940000Y-95831429D01*
X153868571Y-95974286D01*
X153797143Y-96260000D01*
X153797143Y-96617143D01*
X153868571Y-96902857D01*
X153940000Y-97045714D01*
X154011429Y-97117143D01*
X154154286Y-97188571D01*
X154297143Y-97188571D01*
X154440000Y-97117143D01*
X154511429Y-97045714D01*
X154582857Y-96902857D01*
X154654286Y-96617143D01*
X154654286Y-96260000D01*
X154582857Y-95974286D01*
X154511429Y-95831429D01*
X154440000Y-95760000D01*
X154297143Y-95688571D01*
X153082858Y-97188571D02*
X152797143Y-97188571D01*
X152654286Y-97117143D01*
X152582858Y-97045714D01*
X152440000Y-96831429D01*
X152368572Y-96545714D01*
X152368572Y-95974286D01*
X152440000Y-95831429D01*
X152511429Y-95760000D01*
X152654286Y-95688571D01*
X152940000Y-95688571D01*
X153082858Y-95760000D01*
X153154286Y-95831429D01*
X153225715Y-95974286D01*
X153225715Y-96331429D01*
X153154286Y-96474286D01*
X153082858Y-96545714D01*
X152940000Y-96617143D01*
X152654286Y-96617143D01*
X152511429Y-96545714D01*
X152440000Y-96474286D01*
X152368572Y-96331429D01*
X151725715Y-96617143D02*
X150582858Y-96617143D01*
X149940001Y-95831429D02*
X149868572Y-95760000D01*
X149725715Y-95688571D01*
X149368572Y-95688571D01*
X149225715Y-95760000D01*
X149154286Y-95831429D01*
X149082858Y-95974286D01*
X149082858Y-96117143D01*
X149154286Y-96331429D01*
X150011429Y-97188571D01*
X149082858Y-97188571D01*
X148582858Y-95688571D02*
X147654287Y-95688571D01*
X148154287Y-96260000D01*
X147940001Y-96260000D01*
X147797144Y-96331429D01*
X147725715Y-96402857D01*
X147654287Y-96545714D01*
X147654287Y-96902857D01*
X147725715Y-97045714D01*
X147797144Y-97117143D01*
X147940001Y-97188571D01*
X148368573Y-97188571D01*
X148511430Y-97117143D01*
X148582858Y-97045714D01*
X174940002Y-99738571D02*
X174940002Y-98238571D01*
X174297145Y-99738571D02*
X174297145Y-98952857D01*
X174368574Y-98810000D01*
X174511431Y-98738571D01*
X174725716Y-98738571D01*
X174868574Y-98810000D01*
X174940002Y-98881429D01*
X173797145Y-98738571D02*
X173225716Y-98738571D01*
X173582859Y-98238571D02*
X173582859Y-99524286D01*
X173511431Y-99667143D01*
X173368573Y-99738571D01*
X173225716Y-99738571D01*
X172940002Y-98738571D02*
X172368573Y-98738571D01*
X172725716Y-98238571D02*
X172725716Y-99524286D01*
X172654288Y-99667143D01*
X172511430Y-99738571D01*
X172368573Y-99738571D01*
X171868573Y-98738571D02*
X171868573Y-100238571D01*
X171868573Y-98810000D02*
X171725716Y-98738571D01*
X171440002Y-98738571D01*
X171297145Y-98810000D01*
X171225716Y-98881429D01*
X171154287Y-99024286D01*
X171154287Y-99452857D01*
X171225716Y-99595714D01*
X171297145Y-99667143D01*
X171440002Y-99738571D01*
X171725716Y-99738571D01*
X171868573Y-99667143D01*
X170582859Y-99667143D02*
X170440002Y-99738571D01*
X170154287Y-99738571D01*
X170011430Y-99667143D01*
X169940002Y-99524286D01*
X169940002Y-99452857D01*
X170011430Y-99310000D01*
X170154287Y-99238571D01*
X170368573Y-99238571D01*
X170511430Y-99167143D01*
X170582859Y-99024286D01*
X170582859Y-98952857D01*
X170511430Y-98810000D01*
X170368573Y-98738571D01*
X170154287Y-98738571D01*
X170011430Y-98810000D01*
X169297144Y-99595714D02*
X169225716Y-99667143D01*
X169297144Y-99738571D01*
X169368573Y-99667143D01*
X169297144Y-99595714D01*
X169297144Y-99738571D01*
X169297144Y-98810000D02*
X169225716Y-98881429D01*
X169297144Y-98952857D01*
X169368573Y-98881429D01*
X169297144Y-98810000D01*
X169297144Y-98952857D01*
X167511430Y-98167143D02*
X168797144Y-100095714D01*
X165940001Y-98167143D02*
X167225715Y-100095714D01*
X164797143Y-98738571D02*
X164797143Y-99952857D01*
X164868572Y-100095714D01*
X164940000Y-100167143D01*
X165082857Y-100238571D01*
X165297143Y-100238571D01*
X165440000Y-100167143D01*
X164797143Y-99667143D02*
X164940000Y-99738571D01*
X165225714Y-99738571D01*
X165368572Y-99667143D01*
X165440000Y-99595714D01*
X165511429Y-99452857D01*
X165511429Y-99024286D01*
X165440000Y-98881429D01*
X165368572Y-98810000D01*
X165225714Y-98738571D01*
X164940000Y-98738571D01*
X164797143Y-98810000D01*
X164082857Y-99738571D02*
X164082857Y-98738571D01*
X164082857Y-98238571D02*
X164154286Y-98310000D01*
X164082857Y-98381429D01*
X164011429Y-98310000D01*
X164082857Y-98238571D01*
X164082857Y-98381429D01*
X163582857Y-98738571D02*
X163011428Y-98738571D01*
X163368571Y-98238571D02*
X163368571Y-99524286D01*
X163297143Y-99667143D01*
X163154285Y-99738571D01*
X163011428Y-99738571D01*
X162511428Y-99738571D02*
X162511428Y-98238571D01*
X161868571Y-99738571D02*
X161868571Y-98952857D01*
X161940000Y-98810000D01*
X162082857Y-98738571D01*
X162297142Y-98738571D01*
X162440000Y-98810000D01*
X162511428Y-98881429D01*
X160511428Y-98738571D02*
X160511428Y-99738571D01*
X161154285Y-98738571D02*
X161154285Y-99524286D01*
X161082857Y-99667143D01*
X160939999Y-99738571D01*
X160725714Y-99738571D01*
X160582857Y-99667143D01*
X160511428Y-99595714D01*
X159797142Y-99738571D02*
X159797142Y-98238571D01*
X159797142Y-98810000D02*
X159654285Y-98738571D01*
X159368571Y-98738571D01*
X159225714Y-98810000D01*
X159154285Y-98881429D01*
X159082856Y-99024286D01*
X159082856Y-99452857D01*
X159154285Y-99595714D01*
X159225714Y-99667143D01*
X159368571Y-99738571D01*
X159654285Y-99738571D01*
X159797142Y-99667143D01*
X158439999Y-99595714D02*
X158368571Y-99667143D01*
X158439999Y-99738571D01*
X158511428Y-99667143D01*
X158439999Y-99595714D01*
X158439999Y-99738571D01*
X157082856Y-99667143D02*
X157225713Y-99738571D01*
X157511427Y-99738571D01*
X157654285Y-99667143D01*
X157725713Y-99595714D01*
X157797142Y-99452857D01*
X157797142Y-99024286D01*
X157725713Y-98881429D01*
X157654285Y-98810000D01*
X157511427Y-98738571D01*
X157225713Y-98738571D01*
X157082856Y-98810000D01*
X156225713Y-99738571D02*
X156368571Y-99667143D01*
X156439999Y-99595714D01*
X156511428Y-99452857D01*
X156511428Y-99024286D01*
X156439999Y-98881429D01*
X156368571Y-98810000D01*
X156225713Y-98738571D01*
X156011428Y-98738571D01*
X155868571Y-98810000D01*
X155797142Y-98881429D01*
X155725713Y-99024286D01*
X155725713Y-99452857D01*
X155797142Y-99595714D01*
X155868571Y-99667143D01*
X156011428Y-99738571D01*
X156225713Y-99738571D01*
X155082856Y-99738571D02*
X155082856Y-98738571D01*
X155082856Y-98881429D02*
X155011428Y-98810000D01*
X154868570Y-98738571D01*
X154654285Y-98738571D01*
X154511428Y-98810000D01*
X154439999Y-98952857D01*
X154439999Y-99738571D01*
X154439999Y-98952857D02*
X154368570Y-98810000D01*
X154225713Y-98738571D01*
X154011428Y-98738571D01*
X153868570Y-98810000D01*
X153797142Y-98952857D01*
X153797142Y-99738571D01*
X152011428Y-98167143D02*
X153297142Y-100095714D01*
X151511427Y-98738571D02*
X151511427Y-100238571D01*
X151511427Y-98810000D02*
X151368570Y-98738571D01*
X151082856Y-98738571D01*
X150939999Y-98810000D01*
X150868570Y-98881429D01*
X150797141Y-99024286D01*
X150797141Y-99452857D01*
X150868570Y-99595714D01*
X150939999Y-99667143D01*
X151082856Y-99738571D01*
X151368570Y-99738571D01*
X151511427Y-99667143D01*
X150154284Y-98738571D02*
X150154284Y-100238571D01*
X150154284Y-98810000D02*
X150011427Y-98738571D01*
X149725713Y-98738571D01*
X149582856Y-98810000D01*
X149511427Y-98881429D01*
X149439998Y-99024286D01*
X149439998Y-99452857D01*
X149511427Y-99595714D01*
X149582856Y-99667143D01*
X149725713Y-99738571D01*
X150011427Y-99738571D01*
X150154284Y-99667143D01*
X148225713Y-99667143D02*
X148368570Y-99738571D01*
X148654284Y-99738571D01*
X148797141Y-99667143D01*
X148868570Y-99524286D01*
X148868570Y-98952857D01*
X148797141Y-98810000D01*
X148654284Y-98738571D01*
X148368570Y-98738571D01*
X148225713Y-98810000D01*
X148154284Y-98952857D01*
X148154284Y-99095714D01*
X148868570Y-99238571D01*
X147297141Y-99738571D02*
X147439999Y-99667143D01*
X147511427Y-99524286D01*
X147511427Y-98238571D01*
X146511427Y-99738571D02*
X146654285Y-99667143D01*
X146725713Y-99524286D01*
X146725713Y-98238571D01*
X145368571Y-99667143D02*
X145511428Y-99738571D01*
X145797142Y-99738571D01*
X145939999Y-99667143D01*
X146011428Y-99524286D01*
X146011428Y-98952857D01*
X145939999Y-98810000D01*
X145797142Y-98738571D01*
X145511428Y-98738571D01*
X145368571Y-98810000D01*
X145297142Y-98952857D01*
X145297142Y-99095714D01*
X146011428Y-99238571D01*
X144868571Y-98738571D02*
X144297142Y-98738571D01*
X144654285Y-98238571D02*
X144654285Y-99524286D01*
X144582857Y-99667143D01*
X144439999Y-99738571D01*
X144297142Y-99738571D01*
X143797142Y-99738571D02*
X143797142Y-98738571D01*
X143797142Y-98238571D02*
X143868571Y-98310000D01*
X143797142Y-98381429D01*
X143725714Y-98310000D01*
X143797142Y-98238571D01*
X143797142Y-98381429D01*
X142011428Y-98167143D02*
X143297142Y-100095714D01*
X141511427Y-99738571D02*
X141511427Y-98238571D01*
X140654284Y-99738571D01*
X140654284Y-98238571D01*
X139368570Y-99667143D02*
X139511427Y-99738571D01*
X139797141Y-99738571D01*
X139939998Y-99667143D01*
X140011427Y-99524286D01*
X140011427Y-98952857D01*
X139939998Y-98810000D01*
X139797141Y-98738571D01*
X139511427Y-98738571D01*
X139368570Y-98810000D01*
X139297141Y-98952857D01*
X139297141Y-99095714D01*
X140011427Y-99238571D01*
X138439998Y-99738571D02*
X138582856Y-99667143D01*
X138654284Y-99595714D01*
X138725713Y-99452857D01*
X138725713Y-99024286D01*
X138654284Y-98881429D01*
X138582856Y-98810000D01*
X138439998Y-98738571D01*
X138225713Y-98738571D01*
X138082856Y-98810000D01*
X138011427Y-98881429D01*
X137939998Y-99024286D01*
X137939998Y-99452857D01*
X138011427Y-99595714D01*
X138082856Y-99667143D01*
X138225713Y-99738571D01*
X138439998Y-99738571D01*
X136797141Y-98952857D02*
X136582855Y-99024286D01*
X136511427Y-99095714D01*
X136439998Y-99238571D01*
X136439998Y-99452857D01*
X136511427Y-99595714D01*
X136582855Y-99667143D01*
X136725713Y-99738571D01*
X137297141Y-99738571D01*
X137297141Y-98238571D01*
X136797141Y-98238571D01*
X136654284Y-98310000D01*
X136582855Y-98381429D01*
X136511427Y-98524286D01*
X136511427Y-98667143D01*
X136582855Y-98810000D01*
X136654284Y-98881429D01*
X136797141Y-98952857D01*
X137297141Y-98952857D01*
X135797141Y-99738571D02*
X135797141Y-98738571D01*
X135797141Y-98238571D02*
X135868570Y-98310000D01*
X135797141Y-98381429D01*
X135725713Y-98310000D01*
X135797141Y-98238571D01*
X135797141Y-98381429D01*
X135297141Y-98738571D02*
X134725712Y-98738571D01*
X135082855Y-98238571D02*
X135082855Y-99524286D01*
X135011427Y-99667143D01*
X134868569Y-99738571D01*
X134725712Y-99738571D01*
X170511428Y-102288571D02*
X170511428Y-100788571D01*
X170511428Y-102217143D02*
X170654285Y-102288571D01*
X170939999Y-102288571D01*
X171082857Y-102217143D01*
X171154285Y-102145714D01*
X171225714Y-102002857D01*
X171225714Y-101574286D01*
X171154285Y-101431429D01*
X171082857Y-101360000D01*
X170939999Y-101288571D01*
X170654285Y-101288571D01*
X170511428Y-101360000D01*
X169225714Y-102217143D02*
X169368571Y-102288571D01*
X169654285Y-102288571D01*
X169797142Y-102217143D01*
X169868571Y-102074286D01*
X169868571Y-101502857D01*
X169797142Y-101360000D01*
X169654285Y-101288571D01*
X169368571Y-101288571D01*
X169225714Y-101360000D01*
X169154285Y-101502857D01*
X169154285Y-101645714D01*
X169868571Y-101788571D01*
X168582857Y-102217143D02*
X168440000Y-102288571D01*
X168154285Y-102288571D01*
X168011428Y-102217143D01*
X167940000Y-102074286D01*
X167940000Y-102002857D01*
X168011428Y-101860000D01*
X168154285Y-101788571D01*
X168368571Y-101788571D01*
X168511428Y-101717143D01*
X168582857Y-101574286D01*
X168582857Y-101502857D01*
X168511428Y-101360000D01*
X168368571Y-101288571D01*
X168154285Y-101288571D01*
X168011428Y-101360000D01*
X167297142Y-102288571D02*
X167297142Y-101288571D01*
X167297142Y-100788571D02*
X167368571Y-100860000D01*
X167297142Y-100931429D01*
X167225714Y-100860000D01*
X167297142Y-100788571D01*
X167297142Y-100931429D01*
X165939999Y-101288571D02*
X165939999Y-102502857D01*
X166011428Y-102645714D01*
X166082856Y-102717143D01*
X166225713Y-102788571D01*
X166439999Y-102788571D01*
X166582856Y-102717143D01*
X165939999Y-102217143D02*
X166082856Y-102288571D01*
X166368570Y-102288571D01*
X166511428Y-102217143D01*
X166582856Y-102145714D01*
X166654285Y-102002857D01*
X166654285Y-101574286D01*
X166582856Y-101431429D01*
X166511428Y-101360000D01*
X166368570Y-101288571D01*
X166082856Y-101288571D01*
X165939999Y-101360000D01*
X165225713Y-101288571D02*
X165225713Y-102288571D01*
X165225713Y-101431429D02*
X165154285Y-101360000D01*
X165011427Y-101288571D01*
X164797142Y-101288571D01*
X164654285Y-101360000D01*
X164582856Y-101502857D01*
X164582856Y-102288571D01*
X163297142Y-102217143D02*
X163439999Y-102288571D01*
X163725713Y-102288571D01*
X163868570Y-102217143D01*
X163939999Y-102074286D01*
X163939999Y-101502857D01*
X163868570Y-101360000D01*
X163725713Y-101288571D01*
X163439999Y-101288571D01*
X163297142Y-101360000D01*
X163225713Y-101502857D01*
X163225713Y-101645714D01*
X163939999Y-101788571D01*
X161939999Y-102288571D02*
X161939999Y-100788571D01*
X161939999Y-102217143D02*
X162082856Y-102288571D01*
X162368570Y-102288571D01*
X162511428Y-102217143D01*
X162582856Y-102145714D01*
X162654285Y-102002857D01*
X162654285Y-101574286D01*
X162582856Y-101431429D01*
X162511428Y-101360000D01*
X162368570Y-101288571D01*
X162082856Y-101288571D01*
X161939999Y-101360000D01*
X160082856Y-102288571D02*
X160082856Y-100788571D01*
X160082856Y-101360000D02*
X159939999Y-101288571D01*
X159654285Y-101288571D01*
X159511428Y-101360000D01*
X159439999Y-101431429D01*
X159368570Y-101574286D01*
X159368570Y-102002857D01*
X159439999Y-102145714D01*
X159511428Y-102217143D01*
X159654285Y-102288571D01*
X159939999Y-102288571D01*
X160082856Y-102217143D01*
X158868570Y-101288571D02*
X158511427Y-102288571D01*
X158154285Y-101288571D02*
X158511427Y-102288571D01*
X158654285Y-102645714D01*
X158725713Y-102717143D01*
X158868570Y-102788571D01*
X156439999Y-102288571D02*
X156439999Y-100788571D01*
X155868571Y-100788571D01*
X155725713Y-100860000D01*
X155654285Y-100931429D01*
X155582856Y-101074286D01*
X155582856Y-101288571D01*
X155654285Y-101431429D01*
X155725713Y-101502857D01*
X155868571Y-101574286D01*
X156439999Y-101574286D01*
X154297142Y-102288571D02*
X154297142Y-101502857D01*
X154368571Y-101360000D01*
X154511428Y-101288571D01*
X154797142Y-101288571D01*
X154939999Y-101360000D01*
X154297142Y-102217143D02*
X154439999Y-102288571D01*
X154797142Y-102288571D01*
X154939999Y-102217143D01*
X155011428Y-102074286D01*
X155011428Y-101931429D01*
X154939999Y-101788571D01*
X154797142Y-101717143D01*
X154439999Y-101717143D01*
X154297142Y-101645714D01*
X153797142Y-101288571D02*
X153225713Y-101288571D01*
X153582856Y-100788571D02*
X153582856Y-102074286D01*
X153511428Y-102217143D01*
X153368570Y-102288571D01*
X153225713Y-102288571D01*
X152725713Y-102288571D02*
X152725713Y-101288571D01*
X152725713Y-101574286D02*
X152654285Y-101431429D01*
X152582856Y-101360000D01*
X152439999Y-101288571D01*
X152297142Y-101288571D01*
X151797142Y-102288571D02*
X151797142Y-101288571D01*
X151797142Y-100788571D02*
X151868571Y-100860000D01*
X151797142Y-100931429D01*
X151725714Y-100860000D01*
X151797142Y-100788571D01*
X151797142Y-100931429D01*
X150439999Y-102217143D02*
X150582856Y-102288571D01*
X150868570Y-102288571D01*
X151011428Y-102217143D01*
X151082856Y-102145714D01*
X151154285Y-102002857D01*
X151154285Y-101574286D01*
X151082856Y-101431429D01*
X151011428Y-101360000D01*
X150868570Y-101288571D01*
X150582856Y-101288571D01*
X150439999Y-101360000D01*
X149797142Y-102288571D02*
X149797142Y-100788571D01*
X149654285Y-101717143D02*
X149225714Y-102288571D01*
X149225714Y-101288571D02*
X149797142Y-101860000D01*
X147439999Y-102288571D02*
X147439999Y-100788571D01*
X146868571Y-100788571D01*
X146725713Y-100860000D01*
X146654285Y-100931429D01*
X146582856Y-101074286D01*
X146582856Y-101288571D01*
X146654285Y-101431429D01*
X146725713Y-101502857D01*
X146868571Y-101574286D01*
X147439999Y-101574286D01*
X145368571Y-102217143D02*
X145511428Y-102288571D01*
X145797142Y-102288571D01*
X145939999Y-102217143D01*
X146011428Y-102074286D01*
X146011428Y-101502857D01*
X145939999Y-101360000D01*
X145797142Y-101288571D01*
X145511428Y-101288571D01*
X145368571Y-101360000D01*
X145297142Y-101502857D01*
X145297142Y-101645714D01*
X146011428Y-101788571D01*
X144439999Y-102288571D02*
X144582857Y-102217143D01*
X144654285Y-102074286D01*
X144654285Y-100788571D01*
X143654285Y-102288571D02*
X143797143Y-102217143D01*
X143868571Y-102074286D01*
X143868571Y-100788571D01*
X142511429Y-102217143D02*
X142654286Y-102288571D01*
X142940000Y-102288571D01*
X143082857Y-102217143D01*
X143154286Y-102074286D01*
X143154286Y-101502857D01*
X143082857Y-101360000D01*
X142940000Y-101288571D01*
X142654286Y-101288571D01*
X142511429Y-101360000D01*
X142440000Y-101502857D01*
X142440000Y-101645714D01*
X143154286Y-101788571D01*
X142011429Y-101288571D02*
X141440000Y-101288571D01*
X141797143Y-100788571D02*
X141797143Y-102074286D01*
X141725715Y-102217143D01*
X141582857Y-102288571D01*
X141440000Y-102288571D01*
X140940000Y-102288571D02*
X140940000Y-101288571D01*
X140940000Y-100788571D02*
X141011429Y-100860000D01*
X140940000Y-100931429D01*
X140868572Y-100860000D01*
X140940000Y-100788571D01*
X140940000Y-100931429D01*
X139654286Y-102217143D02*
X139797143Y-102288571D01*
X140082857Y-102288571D01*
X140225714Y-102217143D01*
X140297143Y-102074286D01*
X140297143Y-101502857D01*
X140225714Y-101360000D01*
X140082857Y-101288571D01*
X139797143Y-101288571D01*
X139654286Y-101360000D01*
X139582857Y-101502857D01*
X139582857Y-101645714D01*
X140297143Y-101788571D01*
X138940000Y-102288571D02*
X138940000Y-101288571D01*
X138940000Y-101574286D02*
X138868572Y-101431429D01*
X138797143Y-101360000D01*
X138654286Y-101288571D01*
X138511429Y-101288571D01*
D13*
G36*
X161477474Y-126747699D02*
X161203228Y-126885071D01*
X160970051Y-127114071D01*
X160818370Y-127398218D01*
X160782317Y-127613833D01*
X160829814Y-127773909D01*
X160947533Y-127812107D01*
X161097200Y-127736559D01*
X161240540Y-127555396D01*
X161262943Y-127511722D01*
X161380237Y-127310629D01*
X161491671Y-127187714D01*
X161509786Y-127177933D01*
X161632247Y-127202577D01*
X161832048Y-127309974D01*
X161982713Y-127414854D01*
X162268593Y-127599747D01*
X162457637Y-127645825D01*
X162549969Y-127553098D01*
X162560000Y-127464775D01*
X162494486Y-127318658D01*
X162329183Y-127130023D01*
X162110952Y-126941014D01*
X161886656Y-126793774D01*
X161752362Y-126738439D01*
X161477474Y-126747699D01*
X161477474Y-126747699D01*
G37*
X161477474Y-126747699D02*
X161203228Y-126885071D01*
X160970051Y-127114071D01*
X160818370Y-127398218D01*
X160782317Y-127613833D01*
X160829814Y-127773909D01*
X160947533Y-127812107D01*
X161097200Y-127736559D01*
X161240540Y-127555396D01*
X161262943Y-127511722D01*
X161380237Y-127310629D01*
X161491671Y-127187714D01*
X161509786Y-127177933D01*
X161632247Y-127202577D01*
X161832048Y-127309974D01*
X161982713Y-127414854D01*
X162268593Y-127599747D01*
X162457637Y-127645825D01*
X162549969Y-127553098D01*
X162560000Y-127464775D01*
X162494486Y-127318658D01*
X162329183Y-127130023D01*
X162110952Y-126941014D01*
X161886656Y-126793774D01*
X161752362Y-126738439D01*
X161477474Y-126747699D01*
G36*
X160570742Y-125548794D02*
X160486988Y-125616837D01*
X160465586Y-125761831D01*
X160488546Y-125973686D01*
X160503726Y-126287781D01*
X160429285Y-126557083D01*
X160244589Y-126834649D01*
X160083307Y-127015586D01*
X159919594Y-127231651D01*
X159873832Y-127397370D01*
X159879143Y-127417753D01*
X159978063Y-127534663D01*
X160137473Y-127509829D01*
X160366486Y-127340544D01*
X160468706Y-127242738D01*
X160780208Y-126832163D01*
X160926452Y-126387313D01*
X160925506Y-126006210D01*
X160854370Y-125699038D01*
X160740651Y-125548631D01*
X160577571Y-125546249D01*
X160570742Y-125548794D01*
X160570742Y-125548794D01*
G37*
X160570742Y-125548794D02*
X160486988Y-125616837D01*
X160465586Y-125761831D01*
X160488546Y-125973686D01*
X160503726Y-126287781D01*
X160429285Y-126557083D01*
X160244589Y-126834649D01*
X160083307Y-127015586D01*
X159919594Y-127231651D01*
X159873832Y-127397370D01*
X159879143Y-127417753D01*
X159978063Y-127534663D01*
X160137473Y-127509829D01*
X160366486Y-127340544D01*
X160468706Y-127242738D01*
X160780208Y-126832163D01*
X160926452Y-126387313D01*
X160925506Y-126006210D01*
X160854370Y-125699038D01*
X160740651Y-125548631D01*
X160577571Y-125546249D01*
X160570742Y-125548794D01*
G36*
X161023693Y-122955231D02*
X160710645Y-123126908D01*
X160469407Y-123407555D01*
X160324412Y-123767771D01*
X160300092Y-124178156D01*
X160305162Y-124220275D01*
X160425304Y-124613071D01*
X160677755Y-125068168D01*
X161046584Y-125566029D01*
X161515857Y-126087114D01*
X162069642Y-126611882D01*
X162634261Y-127076660D01*
X162972805Y-127318771D01*
X163206443Y-127439769D01*
X163345752Y-127442383D01*
X163401309Y-127329344D01*
X163403262Y-127275167D01*
X163339105Y-127114388D01*
X163143384Y-126907973D01*
X162887718Y-126703667D01*
X162412664Y-126319029D01*
X161959356Y-125894332D01*
X161547190Y-125453328D01*
X161195563Y-125019768D01*
X160923871Y-124617405D01*
X160751509Y-124269991D01*
X160697333Y-124021353D01*
X160773564Y-123753493D01*
X160968514Y-123534011D01*
X161231574Y-123412153D01*
X161334170Y-123401667D01*
X161567900Y-123455510D01*
X161784714Y-123629072D01*
X162002878Y-123940402D01*
X162140962Y-124198697D01*
X162303110Y-124449298D01*
X162553442Y-124747824D01*
X162863228Y-125068647D01*
X163203739Y-125386141D01*
X163546243Y-125674680D01*
X163862010Y-125908636D01*
X164122312Y-126062384D01*
X164284856Y-126111000D01*
X164410887Y-126058117D01*
X164427369Y-125924908D01*
X164345730Y-125749533D01*
X164177397Y-125570152D01*
X164107380Y-125518333D01*
X163495169Y-125067722D01*
X163019334Y-124626473D01*
X162651277Y-124165789D01*
X162472639Y-123872380D01*
X162219878Y-123457121D01*
X161982163Y-123178853D01*
X161729454Y-123011343D01*
X161431709Y-122928363D01*
X161384118Y-122921925D01*
X161023693Y-122955231D01*
X161023693Y-122955231D01*
G37*
X161023693Y-122955231D02*
X160710645Y-123126908D01*
X160469407Y-123407555D01*
X160324412Y-123767771D01*
X160300092Y-124178156D01*
X160305162Y-124220275D01*
X160425304Y-124613071D01*
X160677755Y-125068168D01*
X161046584Y-125566029D01*
X161515857Y-126087114D01*
X162069642Y-126611882D01*
X162634261Y-127076660D01*
X162972805Y-127318771D01*
X163206443Y-127439769D01*
X163345752Y-127442383D01*
X163401309Y-127329344D01*
X163403262Y-127275167D01*
X163339105Y-127114388D01*
X163143384Y-126907973D01*
X162887718Y-126703667D01*
X162412664Y-126319029D01*
X161959356Y-125894332D01*
X161547190Y-125453328D01*
X161195563Y-125019768D01*
X160923871Y-124617405D01*
X160751509Y-124269991D01*
X160697333Y-124021353D01*
X160773564Y-123753493D01*
X160968514Y-123534011D01*
X161231574Y-123412153D01*
X161334170Y-123401667D01*
X161567900Y-123455510D01*
X161784714Y-123629072D01*
X162002878Y-123940402D01*
X162140962Y-124198697D01*
X162303110Y-124449298D01*
X162553442Y-124747824D01*
X162863228Y-125068647D01*
X163203739Y-125386141D01*
X163546243Y-125674680D01*
X163862010Y-125908636D01*
X164122312Y-126062384D01*
X164284856Y-126111000D01*
X164410887Y-126058117D01*
X164427369Y-125924908D01*
X164345730Y-125749533D01*
X164177397Y-125570152D01*
X164107380Y-125518333D01*
X163495169Y-125067722D01*
X163019334Y-124626473D01*
X162651277Y-124165789D01*
X162472639Y-123872380D01*
X162219878Y-123457121D01*
X161982163Y-123178853D01*
X161729454Y-123011343D01*
X161431709Y-122928363D01*
X161384118Y-122921925D01*
X161023693Y-122955231D01*
G36*
X161002317Y-122167338D02*
X160515173Y-122335067D01*
X160079392Y-122646369D01*
X159899660Y-122841140D01*
X159803601Y-122970497D01*
X159732016Y-123105432D01*
X159682804Y-123270013D01*
X159653861Y-123488311D01*
X159643084Y-123784395D01*
X159648370Y-124182333D01*
X159667616Y-124706196D01*
X159691333Y-125225434D01*
X159691308Y-125681277D01*
X159629304Y-126013903D01*
X159488063Y-126263418D01*
X159250328Y-126469927D01*
X159120640Y-126551664D01*
X158906520Y-126723098D01*
X158841258Y-126872253D01*
X158904398Y-126974218D01*
X159075487Y-127004086D01*
X159334068Y-126936946D01*
X159408861Y-126902645D01*
X159763028Y-126635606D01*
X160011280Y-126248210D01*
X160146330Y-125757743D01*
X160160896Y-125181489D01*
X160156330Y-125128958D01*
X160102460Y-124566065D01*
X160063815Y-124146474D01*
X160040957Y-123844792D01*
X160034447Y-123635626D01*
X160044846Y-123493580D01*
X160072714Y-123393260D01*
X160118612Y-123309274D01*
X160183103Y-123216225D01*
X160199093Y-123193109D01*
X160529890Y-122832615D01*
X160908744Y-122622784D01*
X161313641Y-122560123D01*
X161722568Y-122641140D01*
X162113511Y-122862342D01*
X162464456Y-123220237D01*
X162694738Y-123589041D01*
X162874793Y-123896064D01*
X163087398Y-124197383D01*
X163165642Y-124292509D01*
X163396814Y-124523731D01*
X163669485Y-124750096D01*
X163940670Y-124940666D01*
X164167383Y-125064507D01*
X164280697Y-125095000D01*
X164422560Y-125051706D01*
X164420070Y-124922953D01*
X164274055Y-124710431D01*
X163985346Y-124415831D01*
X163916032Y-124352171D01*
X163616439Y-124054134D01*
X163333777Y-123727639D01*
X163118949Y-123432589D01*
X163081369Y-123369983D01*
X162773655Y-122897575D01*
X162449518Y-122559025D01*
X162074821Y-122319786D01*
X162016370Y-122292244D01*
X161512242Y-122150593D01*
X161002317Y-122167338D01*
X161002317Y-122167338D01*
G37*
X161002317Y-122167338D02*
X160515173Y-122335067D01*
X160079392Y-122646369D01*
X159899660Y-122841140D01*
X159803601Y-122970497D01*
X159732016Y-123105432D01*
X159682804Y-123270013D01*
X159653861Y-123488311D01*
X159643084Y-123784395D01*
X159648370Y-124182333D01*
X159667616Y-124706196D01*
X159691333Y-125225434D01*
X159691308Y-125681277D01*
X159629304Y-126013903D01*
X159488063Y-126263418D01*
X159250328Y-126469927D01*
X159120640Y-126551664D01*
X158906520Y-126723098D01*
X158841258Y-126872253D01*
X158904398Y-126974218D01*
X159075487Y-127004086D01*
X159334068Y-126936946D01*
X159408861Y-126902645D01*
X159763028Y-126635606D01*
X160011280Y-126248210D01*
X160146330Y-125757743D01*
X160160896Y-125181489D01*
X160156330Y-125128958D01*
X160102460Y-124566065D01*
X160063815Y-124146474D01*
X160040957Y-123844792D01*
X160034447Y-123635626D01*
X160044846Y-123493580D01*
X160072714Y-123393260D01*
X160118612Y-123309274D01*
X160183103Y-123216225D01*
X160199093Y-123193109D01*
X160529890Y-122832615D01*
X160908744Y-122622784D01*
X161313641Y-122560123D01*
X161722568Y-122641140D01*
X162113511Y-122862342D01*
X162464456Y-123220237D01*
X162694738Y-123589041D01*
X162874793Y-123896064D01*
X163087398Y-124197383D01*
X163165642Y-124292509D01*
X163396814Y-124523731D01*
X163669485Y-124750096D01*
X163940670Y-124940666D01*
X164167383Y-125064507D01*
X164280697Y-125095000D01*
X164422560Y-125051706D01*
X164420070Y-124922953D01*
X164274055Y-124710431D01*
X163985346Y-124415831D01*
X163916032Y-124352171D01*
X163616439Y-124054134D01*
X163333777Y-123727639D01*
X163118949Y-123432589D01*
X163081369Y-123369983D01*
X162773655Y-122897575D01*
X162449518Y-122559025D01*
X162074821Y-122319786D01*
X162016370Y-122292244D01*
X161512242Y-122150593D01*
X161002317Y-122167338D01*
G36*
X161133419Y-123905188D02*
X161120667Y-124017012D01*
X161185197Y-124248578D01*
X161378202Y-124587976D01*
X161698802Y-125033761D01*
X161876249Y-125258514D01*
X162056906Y-125456943D01*
X162314423Y-125707189D01*
X162620462Y-125985338D01*
X162946687Y-126267473D01*
X163264759Y-126529678D01*
X163546340Y-126748038D01*
X163763094Y-126898635D01*
X163886682Y-126957554D01*
X163889536Y-126957667D01*
X164014050Y-126888782D01*
X164059930Y-126813603D01*
X164048344Y-126685212D01*
X163913510Y-126517479D01*
X163742849Y-126369103D01*
X163250462Y-125948569D01*
X162768818Y-125495053D01*
X162331784Y-125043180D01*
X161973229Y-124627575D01*
X161772000Y-124354167D01*
X161545859Y-124050017D01*
X161355227Y-123869237D01*
X161213336Y-123818678D01*
X161133419Y-123905188D01*
X161133419Y-123905188D01*
G37*
X161133419Y-123905188D02*
X161120667Y-124017012D01*
X161185197Y-124248578D01*
X161378202Y-124587976D01*
X161698802Y-125033761D01*
X161876249Y-125258514D01*
X162056906Y-125456943D01*
X162314423Y-125707189D01*
X162620462Y-125985338D01*
X162946687Y-126267473D01*
X163264759Y-126529678D01*
X163546340Y-126748038D01*
X163763094Y-126898635D01*
X163886682Y-126957554D01*
X163889536Y-126957667D01*
X164014050Y-126888782D01*
X164059930Y-126813603D01*
X164048344Y-126685212D01*
X163913510Y-126517479D01*
X163742849Y-126369103D01*
X163250462Y-125948569D01*
X162768818Y-125495053D01*
X162331784Y-125043180D01*
X161973229Y-124627575D01*
X161772000Y-124354167D01*
X161545859Y-124050017D01*
X161355227Y-123869237D01*
X161213336Y-123818678D01*
X161133419Y-123905188D01*
G36*
X160648193Y-121450189D02*
X160062155Y-121682283D01*
X159555069Y-122051736D01*
X159150116Y-122544338D01*
X159031046Y-122754501D01*
X158926092Y-122976828D01*
X158865370Y-123168284D01*
X158841269Y-123382882D01*
X158846182Y-123674630D01*
X158862585Y-123950278D01*
X158891658Y-124333299D01*
X158925067Y-124687336D01*
X158956950Y-124952464D01*
X158966344Y-125011381D01*
X158980799Y-125203524D01*
X158934547Y-125387115D01*
X158808747Y-125618020D01*
X158711790Y-125766206D01*
X158519961Y-126094125D01*
X158455887Y-126316883D01*
X158519862Y-126432482D01*
X158611572Y-126449667D01*
X158737008Y-126390203D01*
X158911539Y-126240343D01*
X158986267Y-126160595D01*
X159194849Y-125888366D01*
X159325882Y-125614117D01*
X159387669Y-125296875D01*
X159388513Y-124895666D01*
X159341464Y-124407846D01*
X159289898Y-123915155D01*
X159278708Y-123545687D01*
X159314229Y-123256790D01*
X159402795Y-123005811D01*
X159550739Y-122750098D01*
X159598051Y-122679989D01*
X159975688Y-122270461D01*
X160441087Y-121984532D01*
X160961206Y-121828918D01*
X161503002Y-121810336D01*
X162033434Y-121935502D01*
X162382907Y-122113942D01*
X162613074Y-122305427D01*
X162880521Y-122592182D01*
X163137748Y-122922897D01*
X163156221Y-122949367D01*
X163511295Y-123421920D01*
X163826582Y-123757903D01*
X164094035Y-123949695D01*
X164259830Y-123994333D01*
X164392031Y-123938393D01*
X164418390Y-123803800D01*
X164343351Y-123640396D01*
X164218026Y-123525484D01*
X164077406Y-123395703D01*
X163879659Y-123165776D01*
X163659896Y-122877562D01*
X163581152Y-122766152D01*
X163154511Y-122215085D01*
X162731363Y-121815411D01*
X162286341Y-121551667D01*
X161794076Y-121408393D01*
X161290000Y-121369667D01*
X160648193Y-121450189D01*
X160648193Y-121450189D01*
G37*
X160648193Y-121450189D02*
X160062155Y-121682283D01*
X159555069Y-122051736D01*
X159150116Y-122544338D01*
X159031046Y-122754501D01*
X158926092Y-122976828D01*
X158865370Y-123168284D01*
X158841269Y-123382882D01*
X158846182Y-123674630D01*
X158862585Y-123950278D01*
X158891658Y-124333299D01*
X158925067Y-124687336D01*
X158956950Y-124952464D01*
X158966344Y-125011381D01*
X158980799Y-125203524D01*
X158934547Y-125387115D01*
X158808747Y-125618020D01*
X158711790Y-125766206D01*
X158519961Y-126094125D01*
X158455887Y-126316883D01*
X158519862Y-126432482D01*
X158611572Y-126449667D01*
X158737008Y-126390203D01*
X158911539Y-126240343D01*
X158986267Y-126160595D01*
X159194849Y-125888366D01*
X159325882Y-125614117D01*
X159387669Y-125296875D01*
X159388513Y-124895666D01*
X159341464Y-124407846D01*
X159289898Y-123915155D01*
X159278708Y-123545687D01*
X159314229Y-123256790D01*
X159402795Y-123005811D01*
X159550739Y-122750098D01*
X159598051Y-122679989D01*
X159975688Y-122270461D01*
X160441087Y-121984532D01*
X160961206Y-121828918D01*
X161503002Y-121810336D01*
X162033434Y-121935502D01*
X162382907Y-122113942D01*
X162613074Y-122305427D01*
X162880521Y-122592182D01*
X163137748Y-122922897D01*
X163156221Y-122949367D01*
X163511295Y-123421920D01*
X163826582Y-123757903D01*
X164094035Y-123949695D01*
X164259830Y-123994333D01*
X164392031Y-123938393D01*
X164418390Y-123803800D01*
X164343351Y-123640396D01*
X164218026Y-123525484D01*
X164077406Y-123395703D01*
X163879659Y-123165776D01*
X163659896Y-122877562D01*
X163581152Y-122766152D01*
X163154511Y-122215085D01*
X162731363Y-121815411D01*
X162286341Y-121551667D01*
X161794076Y-121408393D01*
X161290000Y-121369667D01*
X160648193Y-121450189D01*
G36*
X158428062Y-122777960D02*
X158307306Y-122957419D01*
X158273936Y-123032492D01*
X158207415Y-123289077D01*
X158163386Y-123654091D01*
X158142197Y-124077968D01*
X158144193Y-124511140D01*
X158169720Y-124904041D01*
X158219125Y-125207101D01*
X158257955Y-125320346D01*
X158371822Y-125491489D01*
X158492018Y-125588643D01*
X158577129Y-125583776D01*
X158592143Y-125546555D01*
X158597766Y-125440014D01*
X158605127Y-125197594D01*
X158613363Y-124852731D01*
X158621610Y-124438858D01*
X158623495Y-124333000D01*
X158633229Y-123891930D01*
X158645752Y-123496636D01*
X158659569Y-123185950D01*
X158673184Y-122998704D01*
X158675519Y-122980975D01*
X158660335Y-122805006D01*
X158557902Y-122741626D01*
X158428062Y-122777960D01*
X158428062Y-122777960D01*
G37*
X158428062Y-122777960D02*
X158307306Y-122957419D01*
X158273936Y-123032492D01*
X158207415Y-123289077D01*
X158163386Y-123654091D01*
X158142197Y-124077968D01*
X158144193Y-124511140D01*
X158169720Y-124904041D01*
X158219125Y-125207101D01*
X158257955Y-125320346D01*
X158371822Y-125491489D01*
X158492018Y-125588643D01*
X158577129Y-125583776D01*
X158592143Y-125546555D01*
X158597766Y-125440014D01*
X158605127Y-125197594D01*
X158613363Y-124852731D01*
X158621610Y-124438858D01*
X158623495Y-124333000D01*
X158633229Y-123891930D01*
X158645752Y-123496636D01*
X158659569Y-123185950D01*
X158673184Y-122998704D01*
X158675519Y-122980975D01*
X158660335Y-122805006D01*
X158557902Y-122741626D01*
X158428062Y-122777960D01*
G36*
X160901391Y-120654449D02*
X160591082Y-120672253D01*
X160352812Y-120711562D01*
X160137986Y-120780149D01*
X159917385Y-120876676D01*
X159643516Y-121033637D01*
X159337329Y-121253631D01*
X159030600Y-121507802D01*
X158755104Y-121767294D01*
X158542616Y-122003255D01*
X158424912Y-122186828D01*
X158411333Y-122244311D01*
X158456118Y-122408586D01*
X158586015Y-122432615D01*
X158794338Y-122318442D01*
X159074403Y-122068115D01*
X159111455Y-122030122D01*
X159452556Y-121723407D01*
X159837277Y-121448896D01*
X160062333Y-121321942D01*
X160336298Y-121197974D01*
X160575218Y-121123477D01*
X160840727Y-121086447D01*
X161194460Y-121074879D01*
X161332333Y-121074587D01*
X161927939Y-121113869D01*
X162428571Y-121241790D01*
X162867294Y-121476697D01*
X163277174Y-121836934D01*
X163691276Y-122340847D01*
X163742967Y-122412045D01*
X163943265Y-122645771D01*
X164126045Y-122781479D01*
X164265194Y-122807928D01*
X164334601Y-122713874D01*
X164338000Y-122668246D01*
X164282273Y-122479616D01*
X164134278Y-122213820D01*
X163922798Y-121912100D01*
X163676611Y-121615702D01*
X163436479Y-121376333D01*
X163057947Y-121070704D01*
X162707261Y-120862043D01*
X162335874Y-120733601D01*
X161895242Y-120668631D01*
X161336818Y-120650382D01*
X161332333Y-120650380D01*
X160901391Y-120654449D01*
X160901391Y-120654449D01*
G37*
X160901391Y-120654449D02*
X160591082Y-120672253D01*
X160352812Y-120711562D01*
X160137986Y-120780149D01*
X159917385Y-120876676D01*
X159643516Y-121033637D01*
X159337329Y-121253631D01*
X159030600Y-121507802D01*
X158755104Y-121767294D01*
X158542616Y-122003255D01*
X158424912Y-122186828D01*
X158411333Y-122244311D01*
X158456118Y-122408586D01*
X158586015Y-122432615D01*
X158794338Y-122318442D01*
X159074403Y-122068115D01*
X159111455Y-122030122D01*
X159452556Y-121723407D01*
X159837277Y-121448896D01*
X160062333Y-121321942D01*
X160336298Y-121197974D01*
X160575218Y-121123477D01*
X160840727Y-121086447D01*
X161194460Y-121074879D01*
X161332333Y-121074587D01*
X161927939Y-121113869D01*
X162428571Y-121241790D01*
X162867294Y-121476697D01*
X163277174Y-121836934D01*
X163691276Y-122340847D01*
X163742967Y-122412045D01*
X163943265Y-122645771D01*
X164126045Y-122781479D01*
X164265194Y-122807928D01*
X164334601Y-122713874D01*
X164338000Y-122668246D01*
X164282273Y-122479616D01*
X164134278Y-122213820D01*
X163922798Y-121912100D01*
X163676611Y-121615702D01*
X163436479Y-121376333D01*
X163057947Y-121070704D01*
X162707261Y-120862043D01*
X162335874Y-120733601D01*
X161895242Y-120668631D01*
X161336818Y-120650382D01*
X161332333Y-120650380D01*
X160901391Y-120654449D01*
G36*
X160565026Y-119884202D02*
X160291556Y-119932426D01*
X159952891Y-120046951D01*
X159579015Y-120210192D01*
X159221439Y-120395821D01*
X158931674Y-120577507D01*
X158781553Y-120704245D01*
X158683677Y-120835504D01*
X158706440Y-120932989D01*
X158772911Y-121005530D01*
X158870188Y-121081967D01*
X158972725Y-121079786D01*
X159134109Y-120989278D01*
X159232918Y-120922183D01*
X159653058Y-120655585D01*
X160034587Y-120477281D01*
X160432305Y-120371353D01*
X160901007Y-120321879D01*
X161332333Y-120312245D01*
X161755938Y-120315378D01*
X162057047Y-120331056D01*
X162282436Y-120367223D01*
X162478881Y-120431823D01*
X162693156Y-120532803D01*
X162724016Y-120548633D01*
X163044198Y-120736157D01*
X163359092Y-120955966D01*
X163507426Y-121077800D01*
X163693722Y-121241597D01*
X163820295Y-121344393D01*
X163851411Y-121362982D01*
X163936682Y-121330202D01*
X163978167Y-121313593D01*
X164082034Y-121207307D01*
X164051431Y-121042944D01*
X163903271Y-120838307D01*
X163654468Y-120611195D01*
X163321935Y-120379408D01*
X162922584Y-120160746D01*
X162850418Y-120126690D01*
X162559115Y-120007364D01*
X162273006Y-119930884D01*
X161932402Y-119885311D01*
X161519223Y-119860400D01*
X161003076Y-119855533D01*
X160565026Y-119884202D01*
X160565026Y-119884202D01*
G37*
X160565026Y-119884202D02*
X160291556Y-119932426D01*
X159952891Y-120046951D01*
X159579015Y-120210192D01*
X159221439Y-120395821D01*
X158931674Y-120577507D01*
X158781553Y-120704245D01*
X158683677Y-120835504D01*
X158706440Y-120932989D01*
X158772911Y-121005530D01*
X158870188Y-121081967D01*
X158972725Y-121079786D01*
X159134109Y-120989278D01*
X159232918Y-120922183D01*
X159653058Y-120655585D01*
X160034587Y-120477281D01*
X160432305Y-120371353D01*
X160901007Y-120321879D01*
X161332333Y-120312245D01*
X161755938Y-120315378D01*
X162057047Y-120331056D01*
X162282436Y-120367223D01*
X162478881Y-120431823D01*
X162693156Y-120532803D01*
X162724016Y-120548633D01*
X163044198Y-120736157D01*
X163359092Y-120955966D01*
X163507426Y-121077800D01*
X163693722Y-121241597D01*
X163820295Y-121344393D01*
X163851411Y-121362982D01*
X163936682Y-121330202D01*
X163978167Y-121313593D01*
X164082034Y-121207307D01*
X164051431Y-121042944D01*
X163903271Y-120838307D01*
X163654468Y-120611195D01*
X163321935Y-120379408D01*
X162922584Y-120160746D01*
X162850418Y-120126690D01*
X162559115Y-120007364D01*
X162273006Y-119930884D01*
X161932402Y-119885311D01*
X161519223Y-119860400D01*
X161003076Y-119855533D01*
X160565026Y-119884202D01*
G36*
X140414186Y-121293931D02*
X140330365Y-121738555D01*
X140021080Y-121866053D01*
X139711794Y-121993551D01*
X139340754Y-121741246D01*
X139236843Y-121670996D01*
X139142913Y-121608272D01*
X139063348Y-121555938D01*
X139002530Y-121516857D01*
X138964843Y-121493893D01*
X138954579Y-121488942D01*
X138936090Y-121501676D01*
X138896580Y-121536882D01*
X138840478Y-121590062D01*
X138772213Y-121656718D01*
X138696214Y-121732354D01*
X138616908Y-121812472D01*
X138538725Y-121892574D01*
X138466093Y-121968164D01*
X138403441Y-122034745D01*
X138355197Y-122087818D01*
X138325790Y-122122887D01*
X138318759Y-122134623D01*
X138328877Y-122156260D01*
X138357241Y-122203662D01*
X138400871Y-122272193D01*
X138456782Y-122357215D01*
X138521994Y-122454093D01*
X138559781Y-122509350D01*
X138628657Y-122610248D01*
X138689860Y-122701299D01*
X138740422Y-122777970D01*
X138777372Y-122835728D01*
X138797742Y-122870043D01*
X138800803Y-122877254D01*
X138793864Y-122897748D01*
X138774949Y-122945513D01*
X138746913Y-123013832D01*
X138712609Y-123095989D01*
X138674891Y-123185270D01*
X138636613Y-123274958D01*
X138600630Y-123358338D01*
X138569794Y-123428694D01*
X138546961Y-123479310D01*
X138534983Y-123503471D01*
X138534276Y-123504422D01*
X138515469Y-123509036D01*
X138465382Y-123519328D01*
X138389207Y-123534287D01*
X138292135Y-123552901D01*
X138179357Y-123574159D01*
X138113558Y-123586418D01*
X137993050Y-123609362D01*
X137884203Y-123631195D01*
X137792524Y-123650722D01*
X137723519Y-123666748D01*
X137682696Y-123678079D01*
X137674489Y-123681674D01*
X137666452Y-123706006D01*
X137659967Y-123760959D01*
X137655030Y-123840108D01*
X137651636Y-123937026D01*
X137649782Y-124045287D01*
X137649462Y-124158465D01*
X137650673Y-124270135D01*
X137653410Y-124373868D01*
X137657669Y-124463241D01*
X137663445Y-124531826D01*
X137670733Y-124573197D01*
X137675105Y-124581810D01*
X137701236Y-124592133D01*
X137756607Y-124606892D01*
X137833893Y-124624352D01*
X137925770Y-124642780D01*
X137957842Y-124648741D01*
X138112476Y-124677066D01*
X138234625Y-124699876D01*
X138328327Y-124718080D01*
X138397616Y-124732583D01*
X138446529Y-124744292D01*
X138479103Y-124754115D01*
X138499372Y-124762956D01*
X138511374Y-124771724D01*
X138513053Y-124773457D01*
X138529816Y-124801371D01*
X138555386Y-124855695D01*
X138587212Y-124929777D01*
X138622740Y-125016965D01*
X138659417Y-125110608D01*
X138694689Y-125204052D01*
X138726004Y-125290647D01*
X138750807Y-125363740D01*
X138766546Y-125416678D01*
X138770668Y-125442811D01*
X138770324Y-125443726D01*
X138756359Y-125465086D01*
X138724678Y-125512084D01*
X138678609Y-125579827D01*
X138621482Y-125663423D01*
X138556627Y-125757982D01*
X138538157Y-125784854D01*
X138472301Y-125882275D01*
X138414350Y-125971163D01*
X138367462Y-126046412D01*
X138334793Y-126102920D01*
X138319500Y-126135581D01*
X138318759Y-126139593D01*
X138331608Y-126160684D01*
X138367112Y-126202464D01*
X138420707Y-126260445D01*
X138487829Y-126330135D01*
X138563913Y-126407045D01*
X138644396Y-126486683D01*
X138724713Y-126564561D01*
X138800301Y-126636186D01*
X138866595Y-126697070D01*
X138919031Y-126742721D01*
X138953045Y-126768650D01*
X138962455Y-126772883D01*
X138984357Y-126762912D01*
X139029200Y-126736020D01*
X139089679Y-126696736D01*
X139136211Y-126665117D01*
X139220525Y-126607098D01*
X139320374Y-126538784D01*
X139420527Y-126470579D01*
X139474373Y-126434075D01*
X139656629Y-126310800D01*
X139809619Y-126393520D01*
X139879318Y-126429759D01*
X139938586Y-126457926D01*
X139978689Y-126473991D01*
X139988897Y-126476226D01*
X140001171Y-126459722D01*
X140025387Y-126413082D01*
X140059737Y-126340609D01*
X140102412Y-126246606D01*
X140151606Y-126135374D01*
X140205510Y-126011215D01*
X140262316Y-125878432D01*
X140320218Y-125741327D01*
X140377407Y-125604202D01*
X140432076Y-125471358D01*
X140482416Y-125347098D01*
X140526620Y-125235725D01*
X140562881Y-125141539D01*
X140589391Y-125068844D01*
X140604342Y-125021941D01*
X140606746Y-125005833D01*
X140587689Y-124985286D01*
X140545964Y-124951933D01*
X140490294Y-124912702D01*
X140485622Y-124909599D01*
X140341736Y-124794423D01*
X140225717Y-124660053D01*
X140138570Y-124510784D01*
X140081301Y-124350913D01*
X140054914Y-124184737D01*
X140060415Y-124016552D01*
X140098810Y-123850655D01*
X140171105Y-123691342D01*
X140192374Y-123656487D01*
X140303004Y-123515737D01*
X140433698Y-123402714D01*
X140579936Y-123318003D01*
X140737192Y-123262194D01*
X140900943Y-123235874D01*
X141066667Y-123239630D01*
X141229838Y-123274050D01*
X141385935Y-123339723D01*
X141530433Y-123437235D01*
X141575131Y-123476813D01*
X141688888Y-123600703D01*
X141771782Y-123731124D01*
X141828644Y-123877315D01*
X141860313Y-124022088D01*
X141868131Y-124184860D01*
X141842062Y-124348440D01*
X141784755Y-124507298D01*
X141698856Y-124655906D01*
X141587014Y-124788735D01*
X141451877Y-124900256D01*
X141434117Y-124912011D01*
X141377850Y-124950508D01*
X141335077Y-124983863D01*
X141314628Y-125005160D01*
X141314331Y-125005833D01*
X141318721Y-125028871D01*
X141336124Y-125081157D01*
X141364732Y-125158390D01*
X141402735Y-125256268D01*
X141448326Y-125370491D01*
X141499697Y-125496758D01*
X141555038Y-125630767D01*
X141612542Y-125768218D01*
X141670399Y-125904808D01*
X141726802Y-126036237D01*
X141779942Y-126158205D01*
X141828010Y-126266409D01*
X141869199Y-126356549D01*
X141901699Y-126424323D01*
X141923703Y-126465430D01*
X141932564Y-126476226D01*
X141959640Y-126467819D01*
X142010303Y-126445272D01*
X142075817Y-126412613D01*
X142111841Y-126393520D01*
X142264832Y-126310800D01*
X142447088Y-126434075D01*
X142540125Y-126497228D01*
X142641985Y-126566727D01*
X142737438Y-126632165D01*
X142785250Y-126665117D01*
X142852495Y-126710273D01*
X142909436Y-126746057D01*
X142948646Y-126767938D01*
X142961381Y-126772563D01*
X142979917Y-126760085D01*
X143020941Y-126725252D01*
X143080475Y-126671678D01*
X143154542Y-126602983D01*
X143239165Y-126522781D01*
X143292685Y-126471286D01*
X143386319Y-126379286D01*
X143467241Y-126296999D01*
X143532177Y-126227945D01*
X143577858Y-126175644D01*
X143601011Y-126143616D01*
X143603232Y-126137116D01*
X143592924Y-126112394D01*
X143564439Y-126062405D01*
X143520937Y-125992212D01*
X143465577Y-125906875D01*
X143401520Y-125811456D01*
X143383303Y-125784854D01*
X143316927Y-125688167D01*
X143257378Y-125601117D01*
X143207984Y-125528595D01*
X143172075Y-125475493D01*
X143152981Y-125446703D01*
X143151136Y-125443726D01*
X143153895Y-125420782D01*
X143168538Y-125370336D01*
X143192513Y-125299041D01*
X143223266Y-125213547D01*
X143258244Y-125120507D01*
X143294893Y-125026574D01*
X143330661Y-124938399D01*
X143362994Y-124862634D01*
X143389338Y-124805931D01*
X143407142Y-124774943D01*
X143408407Y-124773457D01*
X143419294Y-124764601D01*
X143437682Y-124755843D01*
X143467606Y-124746277D01*
X143513103Y-124734996D01*
X143578209Y-124721093D01*
X143666961Y-124703663D01*
X143783393Y-124681798D01*
X143931542Y-124654591D01*
X143963618Y-124648741D01*
X144058686Y-124630374D01*
X144141565Y-124612405D01*
X144204930Y-124596569D01*
X144241458Y-124584600D01*
X144246356Y-124581810D01*
X144254427Y-124557072D01*
X144260987Y-124501790D01*
X144266033Y-124422389D01*
X144269559Y-124325296D01*
X144271561Y-124216938D01*
X144272036Y-124103740D01*
X144270977Y-123992128D01*
X144268382Y-123888529D01*
X144264246Y-123799368D01*
X144258563Y-123731072D01*
X144251331Y-123690066D01*
X144246971Y-123681674D01*
X144222698Y-123673208D01*
X144167426Y-123659435D01*
X144086662Y-123641550D01*
X143985912Y-123620748D01*
X143870683Y-123598223D01*
X143807902Y-123586418D01*
X143688787Y-123564151D01*
X143582565Y-123543979D01*
X143494427Y-123526915D01*
X143429566Y-123513969D01*
X143393174Y-123506155D01*
X143387184Y-123504422D01*
X143377061Y-123484890D01*
X143355662Y-123437843D01*
X143325839Y-123370003D01*
X143290445Y-123288091D01*
X143252332Y-123198828D01*
X143214353Y-123108935D01*
X143179360Y-123025135D01*
X143150206Y-122954147D01*
X143129743Y-122902694D01*
X143120823Y-122877497D01*
X143120657Y-122876396D01*
X143130769Y-122856519D01*
X143159117Y-122810777D01*
X143202723Y-122743717D01*
X143258606Y-122659884D01*
X143323787Y-122563826D01*
X143361679Y-122508650D01*
X143430725Y-122407481D01*
X143492050Y-122315630D01*
X143542663Y-122237744D01*
X143579571Y-122178469D01*
X143599782Y-122142451D01*
X143602701Y-122134377D01*
X143590153Y-122115584D01*
X143555463Y-122075457D01*
X143503063Y-122018493D01*
X143437384Y-121949185D01*
X143362856Y-121872031D01*
X143283913Y-121791525D01*
X143204983Y-121712163D01*
X143130500Y-121638440D01*
X143064894Y-121574852D01*
X143012596Y-121525894D01*
X142978039Y-121496061D01*
X142966478Y-121488942D01*
X142947654Y-121498953D01*
X142902631Y-121527078D01*
X142835787Y-121570454D01*
X142751499Y-121626218D01*
X142654144Y-121691506D01*
X142580707Y-121741246D01*
X142209667Y-121993551D01*
X141591095Y-121738555D01*
X141507275Y-121293931D01*
X141423454Y-120849307D01*
X140498006Y-120849307D01*
X140414186Y-121293931D01*
X140414186Y-121293931D01*
G37*
X140414186Y-121293931D02*
X140330365Y-121738555D01*
X140021080Y-121866053D01*
X139711794Y-121993551D01*
X139340754Y-121741246D01*
X139236843Y-121670996D01*
X139142913Y-121608272D01*
X139063348Y-121555938D01*
X139002530Y-121516857D01*
X138964843Y-121493893D01*
X138954579Y-121488942D01*
X138936090Y-121501676D01*
X138896580Y-121536882D01*
X138840478Y-121590062D01*
X138772213Y-121656718D01*
X138696214Y-121732354D01*
X138616908Y-121812472D01*
X138538725Y-121892574D01*
X138466093Y-121968164D01*
X138403441Y-122034745D01*
X138355197Y-122087818D01*
X138325790Y-122122887D01*
X138318759Y-122134623D01*
X138328877Y-122156260D01*
X138357241Y-122203662D01*
X138400871Y-122272193D01*
X138456782Y-122357215D01*
X138521994Y-122454093D01*
X138559781Y-122509350D01*
X138628657Y-122610248D01*
X138689860Y-122701299D01*
X138740422Y-122777970D01*
X138777372Y-122835728D01*
X138797742Y-122870043D01*
X138800803Y-122877254D01*
X138793864Y-122897748D01*
X138774949Y-122945513D01*
X138746913Y-123013832D01*
X138712609Y-123095989D01*
X138674891Y-123185270D01*
X138636613Y-123274958D01*
X138600630Y-123358338D01*
X138569794Y-123428694D01*
X138546961Y-123479310D01*
X138534983Y-123503471D01*
X138534276Y-123504422D01*
X138515469Y-123509036D01*
X138465382Y-123519328D01*
X138389207Y-123534287D01*
X138292135Y-123552901D01*
X138179357Y-123574159D01*
X138113558Y-123586418D01*
X137993050Y-123609362D01*
X137884203Y-123631195D01*
X137792524Y-123650722D01*
X137723519Y-123666748D01*
X137682696Y-123678079D01*
X137674489Y-123681674D01*
X137666452Y-123706006D01*
X137659967Y-123760959D01*
X137655030Y-123840108D01*
X137651636Y-123937026D01*
X137649782Y-124045287D01*
X137649462Y-124158465D01*
X137650673Y-124270135D01*
X137653410Y-124373868D01*
X137657669Y-124463241D01*
X137663445Y-124531826D01*
X137670733Y-124573197D01*
X137675105Y-124581810D01*
X137701236Y-124592133D01*
X137756607Y-124606892D01*
X137833893Y-124624352D01*
X137925770Y-124642780D01*
X137957842Y-124648741D01*
X138112476Y-124677066D01*
X138234625Y-124699876D01*
X138328327Y-124718080D01*
X138397616Y-124732583D01*
X138446529Y-124744292D01*
X138479103Y-124754115D01*
X138499372Y-124762956D01*
X138511374Y-124771724D01*
X138513053Y-124773457D01*
X138529816Y-124801371D01*
X138555386Y-124855695D01*
X138587212Y-124929777D01*
X138622740Y-125016965D01*
X138659417Y-125110608D01*
X138694689Y-125204052D01*
X138726004Y-125290647D01*
X138750807Y-125363740D01*
X138766546Y-125416678D01*
X138770668Y-125442811D01*
X138770324Y-125443726D01*
X138756359Y-125465086D01*
X138724678Y-125512084D01*
X138678609Y-125579827D01*
X138621482Y-125663423D01*
X138556627Y-125757982D01*
X138538157Y-125784854D01*
X138472301Y-125882275D01*
X138414350Y-125971163D01*
X138367462Y-126046412D01*
X138334793Y-126102920D01*
X138319500Y-126135581D01*
X138318759Y-126139593D01*
X138331608Y-126160684D01*
X138367112Y-126202464D01*
X138420707Y-126260445D01*
X138487829Y-126330135D01*
X138563913Y-126407045D01*
X138644396Y-126486683D01*
X138724713Y-126564561D01*
X138800301Y-126636186D01*
X138866595Y-126697070D01*
X138919031Y-126742721D01*
X138953045Y-126768650D01*
X138962455Y-126772883D01*
X138984357Y-126762912D01*
X139029200Y-126736020D01*
X139089679Y-126696736D01*
X139136211Y-126665117D01*
X139220525Y-126607098D01*
X139320374Y-126538784D01*
X139420527Y-126470579D01*
X139474373Y-126434075D01*
X139656629Y-126310800D01*
X139809619Y-126393520D01*
X139879318Y-126429759D01*
X139938586Y-126457926D01*
X139978689Y-126473991D01*
X139988897Y-126476226D01*
X140001171Y-126459722D01*
X140025387Y-126413082D01*
X140059737Y-126340609D01*
X140102412Y-126246606D01*
X140151606Y-126135374D01*
X140205510Y-126011215D01*
X140262316Y-125878432D01*
X140320218Y-125741327D01*
X140377407Y-125604202D01*
X140432076Y-125471358D01*
X140482416Y-125347098D01*
X140526620Y-125235725D01*
X140562881Y-125141539D01*
X140589391Y-125068844D01*
X140604342Y-125021941D01*
X140606746Y-125005833D01*
X140587689Y-124985286D01*
X140545964Y-124951933D01*
X140490294Y-124912702D01*
X140485622Y-124909599D01*
X140341736Y-124794423D01*
X140225717Y-124660053D01*
X140138570Y-124510784D01*
X140081301Y-124350913D01*
X140054914Y-124184737D01*
X140060415Y-124016552D01*
X140098810Y-123850655D01*
X140171105Y-123691342D01*
X140192374Y-123656487D01*
X140303004Y-123515737D01*
X140433698Y-123402714D01*
X140579936Y-123318003D01*
X140737192Y-123262194D01*
X140900943Y-123235874D01*
X141066667Y-123239630D01*
X141229838Y-123274050D01*
X141385935Y-123339723D01*
X141530433Y-123437235D01*
X141575131Y-123476813D01*
X141688888Y-123600703D01*
X141771782Y-123731124D01*
X141828644Y-123877315D01*
X141860313Y-124022088D01*
X141868131Y-124184860D01*
X141842062Y-124348440D01*
X141784755Y-124507298D01*
X141698856Y-124655906D01*
X141587014Y-124788735D01*
X141451877Y-124900256D01*
X141434117Y-124912011D01*
X141377850Y-124950508D01*
X141335077Y-124983863D01*
X141314628Y-125005160D01*
X141314331Y-125005833D01*
X141318721Y-125028871D01*
X141336124Y-125081157D01*
X141364732Y-125158390D01*
X141402735Y-125256268D01*
X141448326Y-125370491D01*
X141499697Y-125496758D01*
X141555038Y-125630767D01*
X141612542Y-125768218D01*
X141670399Y-125904808D01*
X141726802Y-126036237D01*
X141779942Y-126158205D01*
X141828010Y-126266409D01*
X141869199Y-126356549D01*
X141901699Y-126424323D01*
X141923703Y-126465430D01*
X141932564Y-126476226D01*
X141959640Y-126467819D01*
X142010303Y-126445272D01*
X142075817Y-126412613D01*
X142111841Y-126393520D01*
X142264832Y-126310800D01*
X142447088Y-126434075D01*
X142540125Y-126497228D01*
X142641985Y-126566727D01*
X142737438Y-126632165D01*
X142785250Y-126665117D01*
X142852495Y-126710273D01*
X142909436Y-126746057D01*
X142948646Y-126767938D01*
X142961381Y-126772563D01*
X142979917Y-126760085D01*
X143020941Y-126725252D01*
X143080475Y-126671678D01*
X143154542Y-126602983D01*
X143239165Y-126522781D01*
X143292685Y-126471286D01*
X143386319Y-126379286D01*
X143467241Y-126296999D01*
X143532177Y-126227945D01*
X143577858Y-126175644D01*
X143601011Y-126143616D01*
X143603232Y-126137116D01*
X143592924Y-126112394D01*
X143564439Y-126062405D01*
X143520937Y-125992212D01*
X143465577Y-125906875D01*
X143401520Y-125811456D01*
X143383303Y-125784854D01*
X143316927Y-125688167D01*
X143257378Y-125601117D01*
X143207984Y-125528595D01*
X143172075Y-125475493D01*
X143152981Y-125446703D01*
X143151136Y-125443726D01*
X143153895Y-125420782D01*
X143168538Y-125370336D01*
X143192513Y-125299041D01*
X143223266Y-125213547D01*
X143258244Y-125120507D01*
X143294893Y-125026574D01*
X143330661Y-124938399D01*
X143362994Y-124862634D01*
X143389338Y-124805931D01*
X143407142Y-124774943D01*
X143408407Y-124773457D01*
X143419294Y-124764601D01*
X143437682Y-124755843D01*
X143467606Y-124746277D01*
X143513103Y-124734996D01*
X143578209Y-124721093D01*
X143666961Y-124703663D01*
X143783393Y-124681798D01*
X143931542Y-124654591D01*
X143963618Y-124648741D01*
X144058686Y-124630374D01*
X144141565Y-124612405D01*
X144204930Y-124596569D01*
X144241458Y-124584600D01*
X144246356Y-124581810D01*
X144254427Y-124557072D01*
X144260987Y-124501790D01*
X144266033Y-124422389D01*
X144269559Y-124325296D01*
X144271561Y-124216938D01*
X144272036Y-124103740D01*
X144270977Y-123992128D01*
X144268382Y-123888529D01*
X144264246Y-123799368D01*
X144258563Y-123731072D01*
X144251331Y-123690066D01*
X144246971Y-123681674D01*
X144222698Y-123673208D01*
X144167426Y-123659435D01*
X144086662Y-123641550D01*
X143985912Y-123620748D01*
X143870683Y-123598223D01*
X143807902Y-123586418D01*
X143688787Y-123564151D01*
X143582565Y-123543979D01*
X143494427Y-123526915D01*
X143429566Y-123513969D01*
X143393174Y-123506155D01*
X143387184Y-123504422D01*
X143377061Y-123484890D01*
X143355662Y-123437843D01*
X143325839Y-123370003D01*
X143290445Y-123288091D01*
X143252332Y-123198828D01*
X143214353Y-123108935D01*
X143179360Y-123025135D01*
X143150206Y-122954147D01*
X143129743Y-122902694D01*
X143120823Y-122877497D01*
X143120657Y-122876396D01*
X143130769Y-122856519D01*
X143159117Y-122810777D01*
X143202723Y-122743717D01*
X143258606Y-122659884D01*
X143323787Y-122563826D01*
X143361679Y-122508650D01*
X143430725Y-122407481D01*
X143492050Y-122315630D01*
X143542663Y-122237744D01*
X143579571Y-122178469D01*
X143599782Y-122142451D01*
X143602701Y-122134377D01*
X143590153Y-122115584D01*
X143555463Y-122075457D01*
X143503063Y-122018493D01*
X143437384Y-121949185D01*
X143362856Y-121872031D01*
X143283913Y-121791525D01*
X143204983Y-121712163D01*
X143130500Y-121638440D01*
X143064894Y-121574852D01*
X143012596Y-121525894D01*
X142978039Y-121496061D01*
X142966478Y-121488942D01*
X142947654Y-121498953D01*
X142902631Y-121527078D01*
X142835787Y-121570454D01*
X142751499Y-121626218D01*
X142654144Y-121691506D01*
X142580707Y-121741246D01*
X142209667Y-121993551D01*
X141591095Y-121738555D01*
X141507275Y-121293931D01*
X141423454Y-120849307D01*
X140498006Y-120849307D01*
X140414186Y-121293931D01*
M02*
