G04 #@! TF.FileFunction,Legend,Top*
%FSLAX46Y46*%
G04 Gerber Fmt 4.6, Leading zero omitted, Abs format (unit mm)*
G04 Created by KiCad (PCBNEW 4.0.7) date Sunday, September 23, 2018 'PMt' 12:44:32 PM*
%MOMM*%
%LPD*%
G01*
G04 APERTURE LIST*
%ADD10C,0.100000*%
%ADD11C,0.120000*%
%ADD12C,0.150000*%
G04 APERTURE END LIST*
D10*
D11*
X166591563Y-113143264D02*
G75*
G03X176389357Y-113140000I4898437J1383264D01*
G01*
X166591563Y-110376736D02*
G75*
G02X176389357Y-110380000I4898437J-1383264D01*
G01*
X166591563Y-110376736D02*
G75*
G03X166590643Y-113140000I4898437J-1383264D01*
G01*
X171490000Y-116810000D02*
X171490000Y-106710000D01*
X171450000Y-116810000D02*
X171450000Y-106710000D01*
X171410000Y-116810000D02*
X171410000Y-106710000D01*
X171370000Y-116809000D02*
X171370000Y-106711000D01*
X171330000Y-116808000D02*
X171330000Y-106712000D01*
X171290000Y-116807000D02*
X171290000Y-106713000D01*
X171250000Y-116805000D02*
X171250000Y-106715000D01*
X171210000Y-116803000D02*
X171210000Y-106717000D01*
X171170000Y-116800000D02*
X171170000Y-106720000D01*
X171130000Y-116798000D02*
X171130000Y-106722000D01*
X171090000Y-116795000D02*
X171090000Y-106725000D01*
X171050000Y-116791000D02*
X171050000Y-106729000D01*
X171010000Y-116788000D02*
X171010000Y-106732000D01*
X170970000Y-116784000D02*
X170970000Y-106736000D01*
X170930000Y-116780000D02*
X170930000Y-106740000D01*
X170890000Y-116775000D02*
X170890000Y-106745000D01*
X170850000Y-116770000D02*
X170850000Y-106750000D01*
X170810000Y-116765000D02*
X170810000Y-106755000D01*
X170769000Y-116759000D02*
X170769000Y-106761000D01*
X170729000Y-116753000D02*
X170729000Y-106767000D01*
X170689000Y-116747000D02*
X170689000Y-106773000D01*
X170649000Y-116741000D02*
X170649000Y-106779000D01*
X170609000Y-116734000D02*
X170609000Y-106786000D01*
X170569000Y-116727000D02*
X170569000Y-106793000D01*
X170529000Y-116719000D02*
X170529000Y-106801000D01*
X170489000Y-116711000D02*
X170489000Y-106809000D01*
X170449000Y-116703000D02*
X170449000Y-106817000D01*
X170409000Y-116695000D02*
X170409000Y-106825000D01*
X170369000Y-116686000D02*
X170369000Y-106834000D01*
X170329000Y-116677000D02*
X170329000Y-106843000D01*
X170289000Y-116667000D02*
X170289000Y-106853000D01*
X170249000Y-116657000D02*
X170249000Y-106863000D01*
X170209000Y-116647000D02*
X170209000Y-106873000D01*
X170169000Y-116636000D02*
X170169000Y-112941000D01*
X170169000Y-110579000D02*
X170169000Y-106884000D01*
X170129000Y-116625000D02*
X170129000Y-112941000D01*
X170129000Y-110579000D02*
X170129000Y-106895000D01*
X170089000Y-116614000D02*
X170089000Y-112941000D01*
X170089000Y-110579000D02*
X170089000Y-106906000D01*
X170049000Y-116603000D02*
X170049000Y-112941000D01*
X170049000Y-110579000D02*
X170049000Y-106917000D01*
X170009000Y-116591000D02*
X170009000Y-112941000D01*
X170009000Y-110579000D02*
X170009000Y-106929000D01*
X169969000Y-116578000D02*
X169969000Y-112941000D01*
X169969000Y-110579000D02*
X169969000Y-106942000D01*
X169929000Y-116566000D02*
X169929000Y-112941000D01*
X169929000Y-110579000D02*
X169929000Y-106954000D01*
X169889000Y-116552000D02*
X169889000Y-112941000D01*
X169889000Y-110579000D02*
X169889000Y-106968000D01*
X169849000Y-116539000D02*
X169849000Y-112941000D01*
X169849000Y-110579000D02*
X169849000Y-106981000D01*
X169809000Y-116525000D02*
X169809000Y-112941000D01*
X169809000Y-110579000D02*
X169809000Y-106995000D01*
X169769000Y-116511000D02*
X169769000Y-112941000D01*
X169769000Y-110579000D02*
X169769000Y-107009000D01*
X169729000Y-116497000D02*
X169729000Y-112941000D01*
X169729000Y-110579000D02*
X169729000Y-107023000D01*
X169689000Y-116482000D02*
X169689000Y-112941000D01*
X169689000Y-110579000D02*
X169689000Y-107038000D01*
X169649000Y-116466000D02*
X169649000Y-112941000D01*
X169649000Y-110579000D02*
X169649000Y-107054000D01*
X169609000Y-116451000D02*
X169609000Y-112941000D01*
X169609000Y-110579000D02*
X169609000Y-107069000D01*
X169569000Y-116434000D02*
X169569000Y-112941000D01*
X169569000Y-110579000D02*
X169569000Y-107086000D01*
X169529000Y-116418000D02*
X169529000Y-112941000D01*
X169529000Y-110579000D02*
X169529000Y-107102000D01*
X169489000Y-116401000D02*
X169489000Y-112941000D01*
X169489000Y-110579000D02*
X169489000Y-107119000D01*
X169449000Y-116384000D02*
X169449000Y-112941000D01*
X169449000Y-110579000D02*
X169449000Y-107136000D01*
X169409000Y-116366000D02*
X169409000Y-112941000D01*
X169409000Y-110579000D02*
X169409000Y-107154000D01*
X169369000Y-116348000D02*
X169369000Y-112941000D01*
X169369000Y-110579000D02*
X169369000Y-107172000D01*
X169329000Y-116329000D02*
X169329000Y-112941000D01*
X169329000Y-110579000D02*
X169329000Y-107191000D01*
X169289000Y-116310000D02*
X169289000Y-112941000D01*
X169289000Y-110579000D02*
X169289000Y-107210000D01*
X169249000Y-116291000D02*
X169249000Y-112941000D01*
X169249000Y-110579000D02*
X169249000Y-107229000D01*
X169209000Y-116271000D02*
X169209000Y-112941000D01*
X169209000Y-110579000D02*
X169209000Y-107249000D01*
X169169000Y-116251000D02*
X169169000Y-112941000D01*
X169169000Y-110579000D02*
X169169000Y-107269000D01*
X169129000Y-116230000D02*
X169129000Y-112941000D01*
X169129000Y-110579000D02*
X169129000Y-107290000D01*
X169089000Y-116209000D02*
X169089000Y-112941000D01*
X169089000Y-110579000D02*
X169089000Y-107311000D01*
X169049000Y-116188000D02*
X169049000Y-112941000D01*
X169049000Y-110579000D02*
X169049000Y-107332000D01*
X169009000Y-116165000D02*
X169009000Y-112941000D01*
X169009000Y-110579000D02*
X169009000Y-107355000D01*
X168969000Y-116143000D02*
X168969000Y-112941000D01*
X168969000Y-110579000D02*
X168969000Y-107377000D01*
X168929000Y-116120000D02*
X168929000Y-112941000D01*
X168929000Y-110579000D02*
X168929000Y-107400000D01*
X168889000Y-116096000D02*
X168889000Y-112941000D01*
X168889000Y-110579000D02*
X168889000Y-107424000D01*
X168849000Y-116072000D02*
X168849000Y-112941000D01*
X168849000Y-110579000D02*
X168849000Y-107448000D01*
X168809000Y-116048000D02*
X168809000Y-112941000D01*
X168809000Y-110579000D02*
X168809000Y-107472000D01*
X168769000Y-116023000D02*
X168769000Y-112941000D01*
X168769000Y-110579000D02*
X168769000Y-107497000D01*
X168729000Y-115997000D02*
X168729000Y-112941000D01*
X168729000Y-110579000D02*
X168729000Y-107523000D01*
X168689000Y-115971000D02*
X168689000Y-112941000D01*
X168689000Y-110579000D02*
X168689000Y-107549000D01*
X168649000Y-115945000D02*
X168649000Y-112941000D01*
X168649000Y-110579000D02*
X168649000Y-107575000D01*
X168609000Y-115917000D02*
X168609000Y-112941000D01*
X168609000Y-110579000D02*
X168609000Y-107603000D01*
X168569000Y-115890000D02*
X168569000Y-112941000D01*
X168569000Y-110579000D02*
X168569000Y-107630000D01*
X168529000Y-115861000D02*
X168529000Y-112941000D01*
X168529000Y-110579000D02*
X168529000Y-107659000D01*
X168489000Y-115832000D02*
X168489000Y-112941000D01*
X168489000Y-110579000D02*
X168489000Y-107688000D01*
X168449000Y-115803000D02*
X168449000Y-112941000D01*
X168449000Y-110579000D02*
X168449000Y-107717000D01*
X168409000Y-115773000D02*
X168409000Y-112941000D01*
X168409000Y-110579000D02*
X168409000Y-107747000D01*
X168369000Y-115742000D02*
X168369000Y-112941000D01*
X168369000Y-110579000D02*
X168369000Y-107778000D01*
X168329000Y-115711000D02*
X168329000Y-112941000D01*
X168329000Y-110579000D02*
X168329000Y-107809000D01*
X168289000Y-115679000D02*
X168289000Y-112941000D01*
X168289000Y-110579000D02*
X168289000Y-107841000D01*
X168249000Y-115646000D02*
X168249000Y-112941000D01*
X168249000Y-110579000D02*
X168249000Y-107874000D01*
X168209000Y-115613000D02*
X168209000Y-112941000D01*
X168209000Y-110579000D02*
X168209000Y-107907000D01*
X168169000Y-115579000D02*
X168169000Y-112941000D01*
X168169000Y-110579000D02*
X168169000Y-107941000D01*
X168129000Y-115544000D02*
X168129000Y-112941000D01*
X168129000Y-110579000D02*
X168129000Y-107976000D01*
X168089000Y-115508000D02*
X168089000Y-112941000D01*
X168089000Y-110579000D02*
X168089000Y-108012000D01*
X168049000Y-115472000D02*
X168049000Y-112941000D01*
X168049000Y-110579000D02*
X168049000Y-108048000D01*
X168009000Y-115435000D02*
X168009000Y-112941000D01*
X168009000Y-110579000D02*
X168009000Y-108085000D01*
X167969000Y-115397000D02*
X167969000Y-112941000D01*
X167969000Y-110579000D02*
X167969000Y-108123000D01*
X167929000Y-115358000D02*
X167929000Y-112941000D01*
X167929000Y-110579000D02*
X167929000Y-108162000D01*
X167889000Y-115319000D02*
X167889000Y-112941000D01*
X167889000Y-110579000D02*
X167889000Y-108201000D01*
X167849000Y-115278000D02*
X167849000Y-112941000D01*
X167849000Y-110579000D02*
X167849000Y-108242000D01*
X167809000Y-115237000D02*
X167809000Y-108283000D01*
X167769000Y-115195000D02*
X167769000Y-108325000D01*
X167729000Y-115151000D02*
X167729000Y-108369000D01*
X167689000Y-115107000D02*
X167689000Y-108413000D01*
X167649000Y-115062000D02*
X167649000Y-108458000D01*
X167609000Y-115015000D02*
X167609000Y-108505000D01*
X167569000Y-114967000D02*
X167569000Y-108553000D01*
X167529000Y-114918000D02*
X167529000Y-108602000D01*
X167489000Y-114868000D02*
X167489000Y-108652000D01*
X167449000Y-114817000D02*
X167449000Y-108703000D01*
X167409000Y-114764000D02*
X167409000Y-108756000D01*
X167369000Y-114709000D02*
X167369000Y-108811000D01*
X167329000Y-114654000D02*
X167329000Y-108866000D01*
X167289000Y-114596000D02*
X167289000Y-108924000D01*
X167249000Y-114537000D02*
X167249000Y-108983000D01*
X167209000Y-114475000D02*
X167209000Y-109045000D01*
X167169000Y-114412000D02*
X167169000Y-109108000D01*
X167129000Y-114347000D02*
X167129000Y-109173000D01*
X167089000Y-114279000D02*
X167089000Y-109241000D01*
X167049000Y-114209000D02*
X167049000Y-109311000D01*
X167009000Y-114137000D02*
X167009000Y-109383000D01*
X166969000Y-114061000D02*
X166969000Y-109459000D01*
X166929000Y-113982000D02*
X166929000Y-109538000D01*
X166889000Y-113900000D02*
X166889000Y-109620000D01*
X166849000Y-113813000D02*
X166849000Y-109707000D01*
X166809000Y-113722000D02*
X166809000Y-109798000D01*
X166769000Y-113626000D02*
X166769000Y-109894000D01*
X166729000Y-113523000D02*
X166729000Y-109997000D01*
X166689000Y-113414000D02*
X166689000Y-110106000D01*
X166649000Y-113296000D02*
X166649000Y-110224000D01*
X166609000Y-113167000D02*
X166609000Y-110353000D01*
X166569000Y-113025000D02*
X166569000Y-110495000D01*
X166529000Y-112864000D02*
X166529000Y-110656000D01*
X166489000Y-112673000D02*
X166489000Y-110847000D01*
X166449000Y-112432000D02*
X166449000Y-111088000D01*
X166409000Y-112039000D02*
X166409000Y-111481000D01*
X176690000Y-111760000D02*
X175190000Y-111760000D01*
X175940000Y-112510000D02*
X175940000Y-111010000D01*
X144990000Y-115530000D02*
X152110000Y-115530000D01*
X144990000Y-118150000D02*
X152110000Y-118150000D01*
X144990000Y-115530000D02*
X144990000Y-118150000D01*
X152110000Y-115530000D02*
X152110000Y-118150000D01*
X165140000Y-110065000D02*
X165140000Y-117185000D01*
X162520000Y-110065000D02*
X162520000Y-117185000D01*
X165140000Y-110065000D02*
X162520000Y-110065000D01*
X165140000Y-117185000D02*
X162520000Y-117185000D01*
X155615000Y-110065000D02*
X155615000Y-117185000D01*
X152995000Y-110065000D02*
X152995000Y-117185000D01*
X155615000Y-110065000D02*
X152995000Y-110065000D01*
X155615000Y-117185000D02*
X152995000Y-117185000D01*
X188465000Y-127665000D02*
X182405000Y-127665000D01*
X182405000Y-127665000D02*
X182405000Y-124855000D01*
X182405000Y-120255000D02*
X182405000Y-117445000D01*
X182405000Y-117445000D02*
X188465000Y-117445000D01*
X192565000Y-117445000D02*
X195625000Y-117445000D01*
X195625000Y-117445000D02*
X195625000Y-127665000D01*
X195625000Y-127665000D02*
X192565000Y-127665000D01*
X181215000Y-123555000D02*
X181215000Y-121555000D01*
X151825000Y-110855000D02*
G75*
G02X151825000Y-108855000I0J1000000D01*
G01*
X151825000Y-108855000D02*
X151825000Y-107205000D01*
X151825000Y-107205000D02*
X133925000Y-107205000D01*
X133925000Y-107205000D02*
X133925000Y-112505000D01*
X133925000Y-112505000D02*
X151825000Y-112505000D01*
X151825000Y-112505000D02*
X151825000Y-110855000D01*
X160804000Y-113720000D02*
X157204000Y-113720000D01*
X160842478Y-113731522D02*
G75*
G02X159004000Y-118170000I-1838478J-1838478D01*
G01*
X157165522Y-113731522D02*
G75*
G03X159004000Y-118170000I1838478J-1838478D01*
G01*
X119780000Y-94920000D02*
X124365000Y-94920000D01*
X127636000Y-94920000D02*
X172165000Y-94920000D01*
X175436000Y-94920000D02*
X180020000Y-94920000D01*
X119780000Y-104160000D02*
X123165000Y-104160000D01*
X126436000Y-104160000D02*
X173365000Y-104160000D01*
X176636000Y-104160000D02*
X180020000Y-104160000D01*
X119780000Y-94920000D02*
X119780000Y-96390000D01*
X119780000Y-99190000D02*
X119780000Y-100138000D01*
X119780000Y-102443000D02*
X119780000Y-104160000D01*
X180020000Y-94920000D02*
X180020000Y-96637000D01*
X180020000Y-98943000D02*
X180020000Y-104160000D01*
X119540000Y-95920000D02*
X119540000Y-94680000D01*
X119540000Y-94680000D02*
X120780000Y-94680000D01*
X119780000Y-119050000D02*
X124365000Y-119050000D01*
X127636000Y-119050000D02*
X172165000Y-119050000D01*
X175436000Y-119050000D02*
X180020000Y-119050000D01*
X119780000Y-128290000D02*
X123165000Y-128290000D01*
X126436000Y-128290000D02*
X173365000Y-128290000D01*
X176636000Y-128290000D02*
X180020000Y-128290000D01*
X119780000Y-119050000D02*
X119780000Y-120520000D01*
X119780000Y-123320000D02*
X119780000Y-124268000D01*
X119780000Y-126573000D02*
X119780000Y-128290000D01*
X180020000Y-119050000D02*
X180020000Y-120767000D01*
X180020000Y-123073000D02*
X180020000Y-128290000D01*
X119540000Y-120050000D02*
X119540000Y-118810000D01*
X119540000Y-118810000D02*
X120780000Y-118810000D01*
X134195000Y-115530000D02*
X141315000Y-115530000D01*
X134195000Y-118150000D02*
X141315000Y-118150000D01*
X134195000Y-115530000D02*
X134195000Y-118150000D01*
X141315000Y-115530000D02*
X141315000Y-118150000D01*
X126790000Y-116880000D02*
X119670000Y-116880000D01*
X126790000Y-114260000D02*
X119670000Y-114260000D01*
X126790000Y-116880000D02*
X126790000Y-114260000D01*
X119670000Y-116880000D02*
X119670000Y-114260000D01*
X124992500Y-107355000D02*
G75*
G03X124992500Y-107355000I-250000J0D01*
G01*
X119917500Y-107955000D02*
X119917500Y-111755000D01*
X121817500Y-106855000D02*
X124167500Y-106855000D01*
X124167500Y-106855000D02*
X124167500Y-107755000D01*
X124167500Y-107355000D02*
X122967500Y-107355000D01*
X122967500Y-107355000D02*
X122967500Y-107355000D01*
X122967500Y-107355000D02*
X124167500Y-107355000D01*
X124167500Y-107355000D02*
X124167500Y-107355000D01*
X123667500Y-107355000D02*
X123667500Y-107355000D01*
X123667500Y-107355000D02*
X123667500Y-106855000D01*
X123667500Y-106855000D02*
X123667500Y-106855000D01*
X123667500Y-106855000D02*
X123667500Y-107355000D01*
X122967500Y-107355000D02*
X122967500Y-107355000D01*
X122967500Y-107355000D02*
X122967500Y-106855000D01*
X122967500Y-106855000D02*
X122967500Y-106855000D01*
X122967500Y-106855000D02*
X122967500Y-107355000D01*
X121817500Y-112855000D02*
X124167500Y-112855000D01*
X124167500Y-112855000D02*
X124167500Y-111955000D01*
X124167500Y-112355000D02*
X122967500Y-112355000D01*
X122967500Y-112355000D02*
X122967500Y-112355000D01*
X122967500Y-112355000D02*
X124167500Y-112355000D01*
X124167500Y-112355000D02*
X124167500Y-112355000D01*
X123667500Y-112355000D02*
X123667500Y-112355000D01*
X123667500Y-112355000D02*
X123667500Y-112855000D01*
X123667500Y-112855000D02*
X123667500Y-112855000D01*
X123667500Y-112855000D02*
X123667500Y-112355000D01*
X122967500Y-112355000D02*
X122967500Y-112355000D01*
X122967500Y-112355000D02*
X122967500Y-112855000D01*
X122967500Y-112855000D02*
X122967500Y-112855000D01*
X122967500Y-112855000D02*
X122967500Y-112355000D01*
X192767890Y-90429434D02*
G75*
G02X190772000Y-90431000I-997890J-70566D01*
G01*
X189209915Y-90157767D02*
G75*
G02X187330000Y-90158000I-939915J-342233D01*
G01*
X185709915Y-90157767D02*
G75*
G02X183830000Y-90158000I-939915J-342233D01*
G01*
X182209915Y-90157767D02*
G75*
G02X180330000Y-90158000I-939915J-342233D01*
G01*
X194080000Y-87799000D02*
X193310000Y-87799000D01*
X190230000Y-87799000D02*
X189403000Y-87799000D01*
X187136000Y-87799000D02*
X185903000Y-87799000D01*
X183636000Y-87799000D02*
X182403000Y-87799000D01*
X180136000Y-87799000D02*
X178960000Y-87799000D01*
X194080000Y-92660000D02*
X178960000Y-92660000D01*
X194080000Y-84240000D02*
X178960000Y-84240000D01*
X194080000Y-92660000D02*
X194080000Y-84240000D01*
X178960000Y-92660000D02*
X178960000Y-84240000D01*
X193170000Y-91900000D02*
X190370000Y-91900000D01*
X193170000Y-91900000D02*
X193170000Y-90440000D01*
X190370000Y-91900000D02*
X190370000Y-90440000D01*
X189670000Y-91900000D02*
X186870000Y-91900000D01*
X189670000Y-88150000D02*
X189669000Y-88150000D01*
X186870000Y-88150000D02*
X186870000Y-88150000D01*
X189670000Y-91900000D02*
X189670000Y-89589000D01*
X189670000Y-88211000D02*
X189670000Y-88150000D01*
X186870000Y-91900000D02*
X186870000Y-89589000D01*
X186870000Y-88211000D02*
X186870000Y-88150000D01*
X186170000Y-91900000D02*
X183370000Y-91900000D01*
X186170000Y-88150000D02*
X186169000Y-88150000D01*
X183370000Y-88150000D02*
X183370000Y-88150000D01*
X186170000Y-91900000D02*
X186170000Y-89589000D01*
X186170000Y-88211000D02*
X186170000Y-88150000D01*
X183370000Y-91900000D02*
X183370000Y-89589000D01*
X183370000Y-88211000D02*
X183370000Y-88150000D01*
X182670000Y-91900000D02*
X179870000Y-91900000D01*
X182670000Y-88150000D02*
X182669000Y-88150000D01*
X179870000Y-88150000D02*
X179870000Y-88150000D01*
X182670000Y-91900000D02*
X182670000Y-89589000D01*
X182670000Y-88211000D02*
X182670000Y-88150000D01*
X179870000Y-91900000D02*
X179870000Y-89589000D01*
X179870000Y-88211000D02*
X179870000Y-88150000D01*
X194320000Y-86240000D02*
X194320000Y-84000000D01*
X194320000Y-84000000D02*
X192320000Y-84000000D01*
X189478566Y-104629890D02*
G75*
G02X189477000Y-102634000I-70566J997890D01*
G01*
X189750233Y-101071915D02*
G75*
G02X189750000Y-99192000I-342233J939915D01*
G01*
X189750233Y-97571915D02*
G75*
G02X189750000Y-95692000I-342233J939915D01*
G01*
X192109000Y-105942000D02*
X192109000Y-105172000D01*
X192109000Y-102092000D02*
X192109000Y-101265000D01*
X192109000Y-98998000D02*
X192109000Y-97765000D01*
X192109000Y-95498000D02*
X192109000Y-94322000D01*
X187248000Y-105942000D02*
X187248000Y-94322000D01*
X195668000Y-105942000D02*
X195668000Y-94322000D01*
X187248000Y-105942000D02*
X195668000Y-105942000D01*
X187248000Y-94322000D02*
X195668000Y-94322000D01*
X188008000Y-105032000D02*
X188008000Y-102232000D01*
X188008000Y-105032000D02*
X189468000Y-105032000D01*
X188008000Y-102232000D02*
X189468000Y-102232000D01*
X188008000Y-101532000D02*
X188008000Y-98732000D01*
X191758000Y-101532000D02*
X191758000Y-101531000D01*
X191758000Y-98732000D02*
X191758000Y-98732000D01*
X188008000Y-101532000D02*
X190319000Y-101532000D01*
X191697000Y-101532000D02*
X191758000Y-101532000D01*
X188008000Y-98732000D02*
X190319000Y-98732000D01*
X191697000Y-98732000D02*
X191758000Y-98732000D01*
X188008000Y-98032000D02*
X188008000Y-95232000D01*
X191758000Y-98032000D02*
X191758000Y-98031000D01*
X191758000Y-95232000D02*
X191758000Y-95232000D01*
X188008000Y-98032000D02*
X190319000Y-98032000D01*
X191697000Y-98032000D02*
X191758000Y-98032000D01*
X188008000Y-95232000D02*
X190319000Y-95232000D01*
X191697000Y-95232000D02*
X191758000Y-95232000D01*
X193668000Y-106182000D02*
X195908000Y-106182000D01*
X195908000Y-106182000D02*
X195908000Y-104182000D01*
X128375000Y-118055000D02*
X131975000Y-118055000D01*
X128336522Y-118043478D02*
G75*
G02X130175000Y-113605000I1838478J1838478D01*
G01*
X132013478Y-118043478D02*
G75*
G03X130175000Y-113605000I-1838478J1838478D01*
G01*
X163315000Y-108595000D02*
X163315000Y-108725000D01*
X163315000Y-108725000D02*
X157995000Y-108725000D01*
X157995000Y-108725000D02*
X157995000Y-108595000D01*
X163315000Y-106035000D02*
X163315000Y-105905000D01*
X163315000Y-105905000D02*
X157995000Y-105905000D01*
X157995000Y-105905000D02*
X157995000Y-106035000D01*
X162475000Y-108725000D02*
X162475000Y-105905000D01*
X199630000Y-108905000D02*
X199630000Y-115145000D01*
X199630000Y-115145000D02*
X195630000Y-115145000D01*
X195630000Y-115145000D02*
X195630000Y-115445000D01*
X195630000Y-115445000D02*
X181390000Y-115445000D01*
X181390000Y-115445000D02*
X181390000Y-107005000D01*
X181390000Y-107005000D02*
X195630000Y-107005000D01*
X195630000Y-107005000D02*
X195630000Y-108905000D01*
X195630000Y-108905000D02*
X199630000Y-108905000D01*
X132537820Y-108040864D02*
G75*
G03X126502518Y-108040000I-3017820J-1179136D01*
G01*
X132537820Y-110399136D02*
G75*
G02X126502518Y-110400000I-3017820J1179136D01*
G01*
X132537820Y-110399136D02*
G75*
G03X132537482Y-108040000I-3017820J1179136D01*
G01*
X129520000Y-106020000D02*
X129520000Y-112420000D01*
X129560000Y-106020000D02*
X129560000Y-112420000D01*
X129600000Y-106020000D02*
X129600000Y-112420000D01*
X129640000Y-106022000D02*
X129640000Y-112418000D01*
X129680000Y-106023000D02*
X129680000Y-112417000D01*
X129720000Y-106026000D02*
X129720000Y-112414000D01*
X129760000Y-106028000D02*
X129760000Y-112412000D01*
X129800000Y-106032000D02*
X129800000Y-108240000D01*
X129800000Y-110200000D02*
X129800000Y-112408000D01*
X129840000Y-106035000D02*
X129840000Y-108240000D01*
X129840000Y-110200000D02*
X129840000Y-112405000D01*
X129880000Y-106040000D02*
X129880000Y-108240000D01*
X129880000Y-110200000D02*
X129880000Y-112400000D01*
X129920000Y-106044000D02*
X129920000Y-108240000D01*
X129920000Y-110200000D02*
X129920000Y-112396000D01*
X129960000Y-106050000D02*
X129960000Y-108240000D01*
X129960000Y-110200000D02*
X129960000Y-112390000D01*
X130000000Y-106055000D02*
X130000000Y-108240000D01*
X130000000Y-110200000D02*
X130000000Y-112385000D01*
X130040000Y-106062000D02*
X130040000Y-108240000D01*
X130040000Y-110200000D02*
X130040000Y-112378000D01*
X130080000Y-106068000D02*
X130080000Y-108240000D01*
X130080000Y-110200000D02*
X130080000Y-112372000D01*
X130120000Y-106076000D02*
X130120000Y-108240000D01*
X130120000Y-110200000D02*
X130120000Y-112364000D01*
X130160000Y-106083000D02*
X130160000Y-108240000D01*
X130160000Y-110200000D02*
X130160000Y-112357000D01*
X130200000Y-106092000D02*
X130200000Y-108240000D01*
X130200000Y-110200000D02*
X130200000Y-112348000D01*
X130241000Y-106101000D02*
X130241000Y-108240000D01*
X130241000Y-110200000D02*
X130241000Y-112339000D01*
X130281000Y-106110000D02*
X130281000Y-108240000D01*
X130281000Y-110200000D02*
X130281000Y-112330000D01*
X130321000Y-106120000D02*
X130321000Y-108240000D01*
X130321000Y-110200000D02*
X130321000Y-112320000D01*
X130361000Y-106130000D02*
X130361000Y-108240000D01*
X130361000Y-110200000D02*
X130361000Y-112310000D01*
X130401000Y-106141000D02*
X130401000Y-108240000D01*
X130401000Y-110200000D02*
X130401000Y-112299000D01*
X130441000Y-106153000D02*
X130441000Y-108240000D01*
X130441000Y-110200000D02*
X130441000Y-112287000D01*
X130481000Y-106165000D02*
X130481000Y-108240000D01*
X130481000Y-110200000D02*
X130481000Y-112275000D01*
X130521000Y-106178000D02*
X130521000Y-108240000D01*
X130521000Y-110200000D02*
X130521000Y-112262000D01*
X130561000Y-106191000D02*
X130561000Y-108240000D01*
X130561000Y-110200000D02*
X130561000Y-112249000D01*
X130601000Y-106205000D02*
X130601000Y-108240000D01*
X130601000Y-110200000D02*
X130601000Y-112235000D01*
X130641000Y-106219000D02*
X130641000Y-108240000D01*
X130641000Y-110200000D02*
X130641000Y-112221000D01*
X130681000Y-106234000D02*
X130681000Y-108240000D01*
X130681000Y-110200000D02*
X130681000Y-112206000D01*
X130721000Y-106250000D02*
X130721000Y-108240000D01*
X130721000Y-110200000D02*
X130721000Y-112190000D01*
X130761000Y-106266000D02*
X130761000Y-108240000D01*
X130761000Y-110200000D02*
X130761000Y-112174000D01*
X130801000Y-106283000D02*
X130801000Y-108240000D01*
X130801000Y-110200000D02*
X130801000Y-112157000D01*
X130841000Y-106301000D02*
X130841000Y-108240000D01*
X130841000Y-110200000D02*
X130841000Y-112139000D01*
X130881000Y-106319000D02*
X130881000Y-108240000D01*
X130881000Y-110200000D02*
X130881000Y-112121000D01*
X130921000Y-106338000D02*
X130921000Y-108240000D01*
X130921000Y-110200000D02*
X130921000Y-112102000D01*
X130961000Y-106357000D02*
X130961000Y-108240000D01*
X130961000Y-110200000D02*
X130961000Y-112083000D01*
X131001000Y-106377000D02*
X131001000Y-108240000D01*
X131001000Y-110200000D02*
X131001000Y-112063000D01*
X131041000Y-106398000D02*
X131041000Y-108240000D01*
X131041000Y-110200000D02*
X131041000Y-112042000D01*
X131081000Y-106420000D02*
X131081000Y-108240000D01*
X131081000Y-110200000D02*
X131081000Y-112020000D01*
X131121000Y-106442000D02*
X131121000Y-108240000D01*
X131121000Y-110200000D02*
X131121000Y-111998000D01*
X131161000Y-106465000D02*
X131161000Y-108240000D01*
X131161000Y-110200000D02*
X131161000Y-111975000D01*
X131201000Y-106489000D02*
X131201000Y-108240000D01*
X131201000Y-110200000D02*
X131201000Y-111951000D01*
X131241000Y-106514000D02*
X131241000Y-108240000D01*
X131241000Y-110200000D02*
X131241000Y-111926000D01*
X131281000Y-106539000D02*
X131281000Y-108240000D01*
X131281000Y-110200000D02*
X131281000Y-111901000D01*
X131321000Y-106566000D02*
X131321000Y-108240000D01*
X131321000Y-110200000D02*
X131321000Y-111874000D01*
X131361000Y-106593000D02*
X131361000Y-108240000D01*
X131361000Y-110200000D02*
X131361000Y-111847000D01*
X131401000Y-106621000D02*
X131401000Y-108240000D01*
X131401000Y-110200000D02*
X131401000Y-111819000D01*
X131441000Y-106650000D02*
X131441000Y-108240000D01*
X131441000Y-110200000D02*
X131441000Y-111790000D01*
X131481000Y-106680000D02*
X131481000Y-108240000D01*
X131481000Y-110200000D02*
X131481000Y-111760000D01*
X131521000Y-106710000D02*
X131521000Y-108240000D01*
X131521000Y-110200000D02*
X131521000Y-111730000D01*
X131561000Y-106742000D02*
X131561000Y-108240000D01*
X131561000Y-110200000D02*
X131561000Y-111698000D01*
X131601000Y-106775000D02*
X131601000Y-108240000D01*
X131601000Y-110200000D02*
X131601000Y-111665000D01*
X131641000Y-106809000D02*
X131641000Y-108240000D01*
X131641000Y-110200000D02*
X131641000Y-111631000D01*
X131681000Y-106845000D02*
X131681000Y-108240000D01*
X131681000Y-110200000D02*
X131681000Y-111595000D01*
X131721000Y-106881000D02*
X131721000Y-108240000D01*
X131721000Y-110200000D02*
X131721000Y-111559000D01*
X131761000Y-106919000D02*
X131761000Y-111521000D01*
X131801000Y-106958000D02*
X131801000Y-111482000D01*
X131841000Y-106998000D02*
X131841000Y-111442000D01*
X131881000Y-107040000D02*
X131881000Y-111400000D01*
X131921000Y-107083000D02*
X131921000Y-111357000D01*
X131961000Y-107128000D02*
X131961000Y-111312000D01*
X132001000Y-107175000D02*
X132001000Y-111265000D01*
X132041000Y-107223000D02*
X132041000Y-111217000D01*
X132081000Y-107274000D02*
X132081000Y-111166000D01*
X132121000Y-107326000D02*
X132121000Y-111114000D01*
X132161000Y-107381000D02*
X132161000Y-111059000D01*
X132201000Y-107439000D02*
X132201000Y-111001000D01*
X132241000Y-107499000D02*
X132241000Y-110941000D01*
X132281000Y-107562000D02*
X132281000Y-110878000D01*
X132321000Y-107629000D02*
X132321000Y-110811000D01*
X132361000Y-107700000D02*
X132361000Y-110740000D01*
X132401000Y-107775000D02*
X132401000Y-110665000D01*
X132441000Y-107856000D02*
X132441000Y-110584000D01*
X132481000Y-107942000D02*
X132481000Y-110498000D01*
X132521000Y-108036000D02*
X132521000Y-110404000D01*
X132561000Y-108139000D02*
X132561000Y-110301000D01*
X132601000Y-108254000D02*
X132601000Y-110186000D01*
X132641000Y-108386000D02*
X132641000Y-110054000D01*
X132681000Y-108544000D02*
X132681000Y-109896000D01*
X132721000Y-108752000D02*
X132721000Y-109688000D01*
X126070000Y-109220000D02*
X127270000Y-109220000D01*
X126670000Y-108570000D02*
X126670000Y-109870000D01*
X176520000Y-93080000D02*
X176520000Y-71470000D01*
X176520000Y-71470000D02*
X119390000Y-71470000D01*
X119390000Y-71470000D02*
X119390000Y-93080000D01*
X119390000Y-93080000D02*
X176520000Y-93080000D01*
X176520000Y-85590000D02*
X172506000Y-85590000D01*
X170393000Y-85590000D02*
X169966000Y-85590000D01*
X167853000Y-85590000D02*
X167426000Y-85590000D01*
X165313000Y-85590000D02*
X164886000Y-85590000D01*
X162773000Y-85590000D02*
X162346000Y-85590000D01*
X160233000Y-85590000D02*
X159806000Y-85590000D01*
X157693000Y-85590000D02*
X157266000Y-85590000D01*
X155153000Y-85590000D02*
X154726000Y-85590000D01*
X152613000Y-85590000D02*
X152186000Y-85590000D01*
X150073000Y-85590000D02*
X149646000Y-85590000D01*
X147533000Y-85590000D02*
X147106000Y-85590000D01*
X144993000Y-85590000D02*
X144566000Y-85590000D01*
X142453000Y-85590000D02*
X142026000Y-85590000D01*
X139913000Y-85590000D02*
X139486000Y-85590000D01*
X137373000Y-85590000D02*
X136946000Y-85590000D01*
X134833000Y-85590000D02*
X134406000Y-85590000D01*
X132293000Y-85590000D02*
X131866000Y-85590000D01*
X129753000Y-85590000D02*
X129326000Y-85590000D01*
X127213000Y-85590000D02*
X126786000Y-85590000D01*
X124673000Y-85590000D02*
X124246000Y-85590000D01*
X122133000Y-85590000D02*
X119390000Y-85590000D01*
X172720000Y-93320000D02*
X173220000Y-93820000D01*
X173220000Y-93820000D02*
X172220000Y-93820000D01*
X172220000Y-93820000D02*
X172720000Y-93320000D01*
X186181722Y-95848277D02*
G75*
G03X181570420Y-95848000I-2305722J-1179723D01*
G01*
X186181722Y-98207723D02*
G75*
G02X181570420Y-98208000I-2305722J1179723D01*
G01*
X186181722Y-98207723D02*
G75*
G03X186181580Y-95848000I-2305722J1179723D01*
G01*
X183876000Y-94478000D02*
X183876000Y-99578000D01*
X183916000Y-94478000D02*
X183916000Y-99578000D01*
X183956000Y-94479000D02*
X183956000Y-99577000D01*
X183996000Y-94480000D02*
X183996000Y-99576000D01*
X184036000Y-94482000D02*
X184036000Y-99574000D01*
X184076000Y-94485000D02*
X184076000Y-99571000D01*
X184116000Y-94489000D02*
X184116000Y-99567000D01*
X184156000Y-94493000D02*
X184156000Y-96048000D01*
X184156000Y-98008000D02*
X184156000Y-99563000D01*
X184196000Y-94497000D02*
X184196000Y-96048000D01*
X184196000Y-98008000D02*
X184196000Y-99559000D01*
X184236000Y-94503000D02*
X184236000Y-96048000D01*
X184236000Y-98008000D02*
X184236000Y-99553000D01*
X184276000Y-94509000D02*
X184276000Y-96048000D01*
X184276000Y-98008000D02*
X184276000Y-99547000D01*
X184316000Y-94515000D02*
X184316000Y-96048000D01*
X184316000Y-98008000D02*
X184316000Y-99541000D01*
X184356000Y-94522000D02*
X184356000Y-96048000D01*
X184356000Y-98008000D02*
X184356000Y-99534000D01*
X184396000Y-94530000D02*
X184396000Y-96048000D01*
X184396000Y-98008000D02*
X184396000Y-99526000D01*
X184436000Y-94539000D02*
X184436000Y-96048000D01*
X184436000Y-98008000D02*
X184436000Y-99517000D01*
X184476000Y-94548000D02*
X184476000Y-96048000D01*
X184476000Y-98008000D02*
X184476000Y-99508000D01*
X184516000Y-94558000D02*
X184516000Y-96048000D01*
X184516000Y-98008000D02*
X184516000Y-99498000D01*
X184556000Y-94568000D02*
X184556000Y-96048000D01*
X184556000Y-98008000D02*
X184556000Y-99488000D01*
X184597000Y-94580000D02*
X184597000Y-96048000D01*
X184597000Y-98008000D02*
X184597000Y-99476000D01*
X184637000Y-94592000D02*
X184637000Y-96048000D01*
X184637000Y-98008000D02*
X184637000Y-99464000D01*
X184677000Y-94604000D02*
X184677000Y-96048000D01*
X184677000Y-98008000D02*
X184677000Y-99452000D01*
X184717000Y-94618000D02*
X184717000Y-96048000D01*
X184717000Y-98008000D02*
X184717000Y-99438000D01*
X184757000Y-94632000D02*
X184757000Y-96048000D01*
X184757000Y-98008000D02*
X184757000Y-99424000D01*
X184797000Y-94646000D02*
X184797000Y-96048000D01*
X184797000Y-98008000D02*
X184797000Y-99410000D01*
X184837000Y-94662000D02*
X184837000Y-96048000D01*
X184837000Y-98008000D02*
X184837000Y-99394000D01*
X184877000Y-94678000D02*
X184877000Y-96048000D01*
X184877000Y-98008000D02*
X184877000Y-99378000D01*
X184917000Y-94695000D02*
X184917000Y-96048000D01*
X184917000Y-98008000D02*
X184917000Y-99361000D01*
X184957000Y-94713000D02*
X184957000Y-96048000D01*
X184957000Y-98008000D02*
X184957000Y-99343000D01*
X184997000Y-94732000D02*
X184997000Y-96048000D01*
X184997000Y-98008000D02*
X184997000Y-99324000D01*
X185037000Y-94752000D02*
X185037000Y-96048000D01*
X185037000Y-98008000D02*
X185037000Y-99304000D01*
X185077000Y-94772000D02*
X185077000Y-96048000D01*
X185077000Y-98008000D02*
X185077000Y-99284000D01*
X185117000Y-94794000D02*
X185117000Y-96048000D01*
X185117000Y-98008000D02*
X185117000Y-99262000D01*
X185157000Y-94816000D02*
X185157000Y-96048000D01*
X185157000Y-98008000D02*
X185157000Y-99240000D01*
X185197000Y-94839000D02*
X185197000Y-96048000D01*
X185197000Y-98008000D02*
X185197000Y-99217000D01*
X185237000Y-94863000D02*
X185237000Y-96048000D01*
X185237000Y-98008000D02*
X185237000Y-99193000D01*
X185277000Y-94888000D02*
X185277000Y-96048000D01*
X185277000Y-98008000D02*
X185277000Y-99168000D01*
X185317000Y-94915000D02*
X185317000Y-96048000D01*
X185317000Y-98008000D02*
X185317000Y-99141000D01*
X185357000Y-94942000D02*
X185357000Y-96048000D01*
X185357000Y-98008000D02*
X185357000Y-99114000D01*
X185397000Y-94970000D02*
X185397000Y-96048000D01*
X185397000Y-98008000D02*
X185397000Y-99086000D01*
X185437000Y-95000000D02*
X185437000Y-96048000D01*
X185437000Y-98008000D02*
X185437000Y-99056000D01*
X185477000Y-95031000D02*
X185477000Y-96048000D01*
X185477000Y-98008000D02*
X185477000Y-99025000D01*
X185517000Y-95063000D02*
X185517000Y-96048000D01*
X185517000Y-98008000D02*
X185517000Y-98993000D01*
X185557000Y-95096000D02*
X185557000Y-96048000D01*
X185557000Y-98008000D02*
X185557000Y-98960000D01*
X185597000Y-95131000D02*
X185597000Y-96048000D01*
X185597000Y-98008000D02*
X185597000Y-98925000D01*
X185637000Y-95167000D02*
X185637000Y-96048000D01*
X185637000Y-98008000D02*
X185637000Y-98889000D01*
X185677000Y-95205000D02*
X185677000Y-96048000D01*
X185677000Y-98008000D02*
X185677000Y-98851000D01*
X185717000Y-95245000D02*
X185717000Y-96048000D01*
X185717000Y-98008000D02*
X185717000Y-98811000D01*
X185757000Y-95286000D02*
X185757000Y-96048000D01*
X185757000Y-98008000D02*
X185757000Y-98770000D01*
X185797000Y-95329000D02*
X185797000Y-96048000D01*
X185797000Y-98008000D02*
X185797000Y-98727000D01*
X185837000Y-95374000D02*
X185837000Y-96048000D01*
X185837000Y-98008000D02*
X185837000Y-98682000D01*
X185877000Y-95422000D02*
X185877000Y-96048000D01*
X185877000Y-98008000D02*
X185877000Y-98634000D01*
X185917000Y-95472000D02*
X185917000Y-96048000D01*
X185917000Y-98008000D02*
X185917000Y-98584000D01*
X185957000Y-95524000D02*
X185957000Y-96048000D01*
X185957000Y-98008000D02*
X185957000Y-98532000D01*
X185997000Y-95580000D02*
X185997000Y-96048000D01*
X185997000Y-98008000D02*
X185997000Y-98476000D01*
X186037000Y-95638000D02*
X186037000Y-96048000D01*
X186037000Y-98008000D02*
X186037000Y-98418000D01*
X186077000Y-95701000D02*
X186077000Y-96048000D01*
X186077000Y-98008000D02*
X186077000Y-98355000D01*
X186117000Y-95767000D02*
X186117000Y-98289000D01*
X186157000Y-95839000D02*
X186157000Y-98217000D01*
X186197000Y-95916000D02*
X186197000Y-98140000D01*
X186237000Y-96000000D02*
X186237000Y-98056000D01*
X186277000Y-96094000D02*
X186277000Y-97962000D01*
X186317000Y-96199000D02*
X186317000Y-97857000D01*
X186357000Y-96321000D02*
X186357000Y-97735000D01*
X186397000Y-96469000D02*
X186397000Y-97587000D01*
X186437000Y-96674000D02*
X186437000Y-97382000D01*
X180426000Y-97028000D02*
X181626000Y-97028000D01*
X181026000Y-96378000D02*
X181026000Y-97678000D01*
X186181722Y-101690277D02*
G75*
G03X181570420Y-101690000I-2305722J-1179723D01*
G01*
X186181722Y-104049723D02*
G75*
G02X181570420Y-104050000I-2305722J1179723D01*
G01*
X186181722Y-104049723D02*
G75*
G03X186181580Y-101690000I-2305722J1179723D01*
G01*
X183876000Y-100320000D02*
X183876000Y-105420000D01*
X183916000Y-100320000D02*
X183916000Y-105420000D01*
X183956000Y-100321000D02*
X183956000Y-105419000D01*
X183996000Y-100322000D02*
X183996000Y-105418000D01*
X184036000Y-100324000D02*
X184036000Y-105416000D01*
X184076000Y-100327000D02*
X184076000Y-105413000D01*
X184116000Y-100331000D02*
X184116000Y-105409000D01*
X184156000Y-100335000D02*
X184156000Y-101890000D01*
X184156000Y-103850000D02*
X184156000Y-105405000D01*
X184196000Y-100339000D02*
X184196000Y-101890000D01*
X184196000Y-103850000D02*
X184196000Y-105401000D01*
X184236000Y-100345000D02*
X184236000Y-101890000D01*
X184236000Y-103850000D02*
X184236000Y-105395000D01*
X184276000Y-100351000D02*
X184276000Y-101890000D01*
X184276000Y-103850000D02*
X184276000Y-105389000D01*
X184316000Y-100357000D02*
X184316000Y-101890000D01*
X184316000Y-103850000D02*
X184316000Y-105383000D01*
X184356000Y-100364000D02*
X184356000Y-101890000D01*
X184356000Y-103850000D02*
X184356000Y-105376000D01*
X184396000Y-100372000D02*
X184396000Y-101890000D01*
X184396000Y-103850000D02*
X184396000Y-105368000D01*
X184436000Y-100381000D02*
X184436000Y-101890000D01*
X184436000Y-103850000D02*
X184436000Y-105359000D01*
X184476000Y-100390000D02*
X184476000Y-101890000D01*
X184476000Y-103850000D02*
X184476000Y-105350000D01*
X184516000Y-100400000D02*
X184516000Y-101890000D01*
X184516000Y-103850000D02*
X184516000Y-105340000D01*
X184556000Y-100410000D02*
X184556000Y-101890000D01*
X184556000Y-103850000D02*
X184556000Y-105330000D01*
X184597000Y-100422000D02*
X184597000Y-101890000D01*
X184597000Y-103850000D02*
X184597000Y-105318000D01*
X184637000Y-100434000D02*
X184637000Y-101890000D01*
X184637000Y-103850000D02*
X184637000Y-105306000D01*
X184677000Y-100446000D02*
X184677000Y-101890000D01*
X184677000Y-103850000D02*
X184677000Y-105294000D01*
X184717000Y-100460000D02*
X184717000Y-101890000D01*
X184717000Y-103850000D02*
X184717000Y-105280000D01*
X184757000Y-100474000D02*
X184757000Y-101890000D01*
X184757000Y-103850000D02*
X184757000Y-105266000D01*
X184797000Y-100488000D02*
X184797000Y-101890000D01*
X184797000Y-103850000D02*
X184797000Y-105252000D01*
X184837000Y-100504000D02*
X184837000Y-101890000D01*
X184837000Y-103850000D02*
X184837000Y-105236000D01*
X184877000Y-100520000D02*
X184877000Y-101890000D01*
X184877000Y-103850000D02*
X184877000Y-105220000D01*
X184917000Y-100537000D02*
X184917000Y-101890000D01*
X184917000Y-103850000D02*
X184917000Y-105203000D01*
X184957000Y-100555000D02*
X184957000Y-101890000D01*
X184957000Y-103850000D02*
X184957000Y-105185000D01*
X184997000Y-100574000D02*
X184997000Y-101890000D01*
X184997000Y-103850000D02*
X184997000Y-105166000D01*
X185037000Y-100594000D02*
X185037000Y-101890000D01*
X185037000Y-103850000D02*
X185037000Y-105146000D01*
X185077000Y-100614000D02*
X185077000Y-101890000D01*
X185077000Y-103850000D02*
X185077000Y-105126000D01*
X185117000Y-100636000D02*
X185117000Y-101890000D01*
X185117000Y-103850000D02*
X185117000Y-105104000D01*
X185157000Y-100658000D02*
X185157000Y-101890000D01*
X185157000Y-103850000D02*
X185157000Y-105082000D01*
X185197000Y-100681000D02*
X185197000Y-101890000D01*
X185197000Y-103850000D02*
X185197000Y-105059000D01*
X185237000Y-100705000D02*
X185237000Y-101890000D01*
X185237000Y-103850000D02*
X185237000Y-105035000D01*
X185277000Y-100730000D02*
X185277000Y-101890000D01*
X185277000Y-103850000D02*
X185277000Y-105010000D01*
X185317000Y-100757000D02*
X185317000Y-101890000D01*
X185317000Y-103850000D02*
X185317000Y-104983000D01*
X185357000Y-100784000D02*
X185357000Y-101890000D01*
X185357000Y-103850000D02*
X185357000Y-104956000D01*
X185397000Y-100812000D02*
X185397000Y-101890000D01*
X185397000Y-103850000D02*
X185397000Y-104928000D01*
X185437000Y-100842000D02*
X185437000Y-101890000D01*
X185437000Y-103850000D02*
X185437000Y-104898000D01*
X185477000Y-100873000D02*
X185477000Y-101890000D01*
X185477000Y-103850000D02*
X185477000Y-104867000D01*
X185517000Y-100905000D02*
X185517000Y-101890000D01*
X185517000Y-103850000D02*
X185517000Y-104835000D01*
X185557000Y-100938000D02*
X185557000Y-101890000D01*
X185557000Y-103850000D02*
X185557000Y-104802000D01*
X185597000Y-100973000D02*
X185597000Y-101890000D01*
X185597000Y-103850000D02*
X185597000Y-104767000D01*
X185637000Y-101009000D02*
X185637000Y-101890000D01*
X185637000Y-103850000D02*
X185637000Y-104731000D01*
X185677000Y-101047000D02*
X185677000Y-101890000D01*
X185677000Y-103850000D02*
X185677000Y-104693000D01*
X185717000Y-101087000D02*
X185717000Y-101890000D01*
X185717000Y-103850000D02*
X185717000Y-104653000D01*
X185757000Y-101128000D02*
X185757000Y-101890000D01*
X185757000Y-103850000D02*
X185757000Y-104612000D01*
X185797000Y-101171000D02*
X185797000Y-101890000D01*
X185797000Y-103850000D02*
X185797000Y-104569000D01*
X185837000Y-101216000D02*
X185837000Y-101890000D01*
X185837000Y-103850000D02*
X185837000Y-104524000D01*
X185877000Y-101264000D02*
X185877000Y-101890000D01*
X185877000Y-103850000D02*
X185877000Y-104476000D01*
X185917000Y-101314000D02*
X185917000Y-101890000D01*
X185917000Y-103850000D02*
X185917000Y-104426000D01*
X185957000Y-101366000D02*
X185957000Y-101890000D01*
X185957000Y-103850000D02*
X185957000Y-104374000D01*
X185997000Y-101422000D02*
X185997000Y-101890000D01*
X185997000Y-103850000D02*
X185997000Y-104318000D01*
X186037000Y-101480000D02*
X186037000Y-101890000D01*
X186037000Y-103850000D02*
X186037000Y-104260000D01*
X186077000Y-101543000D02*
X186077000Y-101890000D01*
X186077000Y-103850000D02*
X186077000Y-104197000D01*
X186117000Y-101609000D02*
X186117000Y-104131000D01*
X186157000Y-101681000D02*
X186157000Y-104059000D01*
X186197000Y-101758000D02*
X186197000Y-103982000D01*
X186237000Y-101842000D02*
X186237000Y-103898000D01*
X186277000Y-101936000D02*
X186277000Y-103804000D01*
X186317000Y-102041000D02*
X186317000Y-103699000D01*
X186357000Y-102163000D02*
X186357000Y-103577000D01*
X186397000Y-102311000D02*
X186397000Y-103429000D01*
X186437000Y-102516000D02*
X186437000Y-103224000D01*
X180426000Y-102870000D02*
X181626000Y-102870000D01*
X181026000Y-102220000D02*
X181026000Y-103520000D01*
X177710000Y-113740000D02*
X177710000Y-109820000D01*
X180430000Y-113740000D02*
X180430000Y-109820000D01*
X177710000Y-113740000D02*
X178320000Y-113740000D01*
X179820000Y-113740000D02*
X180430000Y-113740000D01*
X177710000Y-109820000D02*
X178320000Y-109820000D01*
X179820000Y-109820000D02*
X180430000Y-109820000D01*
X178475000Y-107315000D02*
G75*
G03X178475000Y-107315000I-1310000J0D01*
G01*
X178475000Y-107315000D02*
X178605000Y-107315000D01*
X159425000Y-111760000D02*
G75*
G03X159425000Y-111760000I-1310000J0D01*
G01*
X159425000Y-111760000D02*
X159555000Y-111760000D01*
X178475000Y-116205000D02*
G75*
G03X178475000Y-116205000I-1310000J0D01*
G01*
X178475000Y-116205000D02*
X178605000Y-116205000D01*
D12*
X166965334Y-116435143D02*
X166917715Y-116482762D01*
X166774858Y-116530381D01*
X166679620Y-116530381D01*
X166536762Y-116482762D01*
X166441524Y-116387524D01*
X166393905Y-116292286D01*
X166346286Y-116101810D01*
X166346286Y-115958952D01*
X166393905Y-115768476D01*
X166441524Y-115673238D01*
X166536762Y-115578000D01*
X166679620Y-115530381D01*
X166774858Y-115530381D01*
X166917715Y-115578000D01*
X166965334Y-115625619D01*
X167917715Y-116530381D02*
X167346286Y-116530381D01*
X167632000Y-116530381D02*
X167632000Y-115530381D01*
X167536762Y-115673238D01*
X167441524Y-115768476D01*
X167346286Y-115816095D01*
X143343334Y-116562143D02*
X143295715Y-116609762D01*
X143152858Y-116657381D01*
X143057620Y-116657381D01*
X142914762Y-116609762D01*
X142819524Y-116514524D01*
X142771905Y-116419286D01*
X142724286Y-116228810D01*
X142724286Y-116085952D01*
X142771905Y-115895476D01*
X142819524Y-115800238D01*
X142914762Y-115705000D01*
X143057620Y-115657381D01*
X143152858Y-115657381D01*
X143295715Y-115705000D01*
X143343334Y-115752619D01*
X143724286Y-115752619D02*
X143771905Y-115705000D01*
X143867143Y-115657381D01*
X144105239Y-115657381D01*
X144200477Y-115705000D01*
X144248096Y-115752619D01*
X144295715Y-115847857D01*
X144295715Y-115943095D01*
X144248096Y-116085952D01*
X143676667Y-116657381D01*
X144295715Y-116657381D01*
X163663334Y-118467143D02*
X163615715Y-118514762D01*
X163472858Y-118562381D01*
X163377620Y-118562381D01*
X163234762Y-118514762D01*
X163139524Y-118419524D01*
X163091905Y-118324286D01*
X163044286Y-118133810D01*
X163044286Y-117990952D01*
X163091905Y-117800476D01*
X163139524Y-117705238D01*
X163234762Y-117610000D01*
X163377620Y-117562381D01*
X163472858Y-117562381D01*
X163615715Y-117610000D01*
X163663334Y-117657619D01*
X163996667Y-117562381D02*
X164615715Y-117562381D01*
X164282381Y-117943333D01*
X164425239Y-117943333D01*
X164520477Y-117990952D01*
X164568096Y-118038571D01*
X164615715Y-118133810D01*
X164615715Y-118371905D01*
X164568096Y-118467143D01*
X164520477Y-118514762D01*
X164425239Y-118562381D01*
X164139524Y-118562381D01*
X164044286Y-118514762D01*
X163996667Y-118467143D01*
X154265334Y-118467143D02*
X154217715Y-118514762D01*
X154074858Y-118562381D01*
X153979620Y-118562381D01*
X153836762Y-118514762D01*
X153741524Y-118419524D01*
X153693905Y-118324286D01*
X153646286Y-118133810D01*
X153646286Y-117990952D01*
X153693905Y-117800476D01*
X153741524Y-117705238D01*
X153836762Y-117610000D01*
X153979620Y-117562381D01*
X154074858Y-117562381D01*
X154217715Y-117610000D01*
X154265334Y-117657619D01*
X155122477Y-117895714D02*
X155122477Y-118562381D01*
X154884381Y-117514762D02*
X154646286Y-118229048D01*
X155265334Y-118229048D01*
X181062381Y-119078333D02*
X181776667Y-119078333D01*
X181919524Y-119125953D01*
X182014762Y-119221191D01*
X182062381Y-119364048D01*
X182062381Y-119459286D01*
X181157619Y-118649762D02*
X181110000Y-118602143D01*
X181062381Y-118506905D01*
X181062381Y-118268809D01*
X181110000Y-118173571D01*
X181157619Y-118125952D01*
X181252857Y-118078333D01*
X181348095Y-118078333D01*
X181490952Y-118125952D01*
X182062381Y-118697381D01*
X182062381Y-118078333D01*
X152487381Y-109346905D02*
X153296905Y-109346905D01*
X153392143Y-109299286D01*
X153439762Y-109251667D01*
X153487381Y-109156429D01*
X153487381Y-108965952D01*
X153439762Y-108870714D01*
X153392143Y-108823095D01*
X153296905Y-108775476D01*
X152487381Y-108775476D01*
X153487381Y-107775476D02*
X153487381Y-108346905D01*
X153487381Y-108061191D02*
X152487381Y-108061191D01*
X152630238Y-108156429D01*
X152725476Y-108251667D01*
X152773095Y-108346905D01*
X160782095Y-117562381D02*
X160782095Y-118371905D01*
X160829714Y-118467143D01*
X160877333Y-118514762D01*
X160972571Y-118562381D01*
X161163048Y-118562381D01*
X161258286Y-118514762D01*
X161305905Y-118467143D01*
X161353524Y-118371905D01*
X161353524Y-117562381D01*
X161782095Y-117657619D02*
X161829714Y-117610000D01*
X161924952Y-117562381D01*
X162163048Y-117562381D01*
X162258286Y-117610000D01*
X162305905Y-117657619D01*
X162353524Y-117752857D01*
X162353524Y-117848095D01*
X162305905Y-117990952D01*
X161734476Y-118562381D01*
X162353524Y-118562381D01*
X167679762Y-105862381D02*
X167346428Y-105386190D01*
X167108333Y-105862381D02*
X167108333Y-104862381D01*
X167489286Y-104862381D01*
X167584524Y-104910000D01*
X167632143Y-104957619D01*
X167679762Y-105052857D01*
X167679762Y-105195714D01*
X167632143Y-105290952D01*
X167584524Y-105338571D01*
X167489286Y-105386190D01*
X167108333Y-105386190D01*
X167965476Y-104862381D02*
X168298809Y-105862381D01*
X168632143Y-104862381D01*
X169489286Y-105862381D02*
X168917857Y-105862381D01*
X169203571Y-105862381D02*
X169203571Y-104862381D01*
X169108333Y-105005238D01*
X169013095Y-105100476D01*
X168917857Y-105148095D01*
X167044762Y-118562381D02*
X166711428Y-118086190D01*
X166473333Y-118562381D02*
X166473333Y-117562381D01*
X166854286Y-117562381D01*
X166949524Y-117610000D01*
X166997143Y-117657619D01*
X167044762Y-117752857D01*
X167044762Y-117895714D01*
X166997143Y-117990952D01*
X166949524Y-118038571D01*
X166854286Y-118086190D01*
X166473333Y-118086190D01*
X167330476Y-117562381D02*
X167663809Y-118562381D01*
X167997143Y-117562381D01*
X168282857Y-117657619D02*
X168330476Y-117610000D01*
X168425714Y-117562381D01*
X168663810Y-117562381D01*
X168759048Y-117610000D01*
X168806667Y-117657619D01*
X168854286Y-117752857D01*
X168854286Y-117848095D01*
X168806667Y-117990952D01*
X168235238Y-118562381D01*
X168854286Y-118562381D01*
X142708334Y-117832143D02*
X142660715Y-117879762D01*
X142517858Y-117927381D01*
X142422620Y-117927381D01*
X142279762Y-117879762D01*
X142184524Y-117784524D01*
X142136905Y-117689286D01*
X142089286Y-117498810D01*
X142089286Y-117355952D01*
X142136905Y-117165476D01*
X142184524Y-117070238D01*
X142279762Y-116975000D01*
X142422620Y-116927381D01*
X142517858Y-116927381D01*
X142660715Y-116975000D01*
X142708334Y-117022619D01*
X143613096Y-116927381D02*
X143136905Y-116927381D01*
X143089286Y-117403571D01*
X143136905Y-117355952D01*
X143232143Y-117308333D01*
X143470239Y-117308333D01*
X143565477Y-117355952D01*
X143613096Y-117403571D01*
X143660715Y-117498810D01*
X143660715Y-117736905D01*
X143613096Y-117832143D01*
X143565477Y-117879762D01*
X143470239Y-117927381D01*
X143232143Y-117927381D01*
X143136905Y-117879762D01*
X143089286Y-117832143D01*
X123023334Y-118467143D02*
X122975715Y-118514762D01*
X122832858Y-118562381D01*
X122737620Y-118562381D01*
X122594762Y-118514762D01*
X122499524Y-118419524D01*
X122451905Y-118324286D01*
X122404286Y-118133810D01*
X122404286Y-117990952D01*
X122451905Y-117800476D01*
X122499524Y-117705238D01*
X122594762Y-117610000D01*
X122737620Y-117562381D01*
X122832858Y-117562381D01*
X122975715Y-117610000D01*
X123023334Y-117657619D01*
X123880477Y-117562381D02*
X123690000Y-117562381D01*
X123594762Y-117610000D01*
X123547143Y-117657619D01*
X123451905Y-117800476D01*
X123404286Y-117990952D01*
X123404286Y-118371905D01*
X123451905Y-118467143D01*
X123499524Y-118514762D01*
X123594762Y-118562381D01*
X123785239Y-118562381D01*
X123880477Y-118514762D01*
X123928096Y-118467143D01*
X123975715Y-118371905D01*
X123975715Y-118133810D01*
X123928096Y-118038571D01*
X123880477Y-117990952D01*
X123785239Y-117943333D01*
X123594762Y-117943333D01*
X123499524Y-117990952D01*
X123451905Y-118038571D01*
X123404286Y-118133810D01*
X125182381Y-113363333D02*
X125896667Y-113363333D01*
X126039524Y-113410953D01*
X126134762Y-113506191D01*
X126182381Y-113649048D01*
X126182381Y-113744286D01*
X125182381Y-112982381D02*
X125182381Y-112363333D01*
X125563333Y-112696667D01*
X125563333Y-112553809D01*
X125610952Y-112458571D01*
X125658571Y-112410952D01*
X125753810Y-112363333D01*
X125991905Y-112363333D01*
X126087143Y-112410952D01*
X126134762Y-112458571D01*
X126182381Y-112553809D01*
X126182381Y-112839524D01*
X126134762Y-112934762D01*
X126087143Y-112982381D01*
X180260667Y-92924381D02*
X180260667Y-93638667D01*
X180213047Y-93781524D01*
X180117809Y-93876762D01*
X179974952Y-93924381D01*
X179879714Y-93924381D01*
X181165429Y-93257714D02*
X181165429Y-93924381D01*
X180927333Y-92876762D02*
X180689238Y-93591048D01*
X181308286Y-93591048D01*
X186102667Y-93940381D02*
X186102667Y-94654667D01*
X186055047Y-94797524D01*
X185959809Y-94892762D01*
X185816952Y-94940381D01*
X185721714Y-94940381D01*
X187007429Y-93940381D02*
X186816952Y-93940381D01*
X186721714Y-93988000D01*
X186674095Y-94035619D01*
X186578857Y-94178476D01*
X186531238Y-94368952D01*
X186531238Y-94749905D01*
X186578857Y-94845143D01*
X186626476Y-94892762D01*
X186721714Y-94940381D01*
X186912191Y-94940381D01*
X187007429Y-94892762D01*
X187055048Y-94845143D01*
X187102667Y-94749905D01*
X187102667Y-94511810D01*
X187055048Y-94416571D01*
X187007429Y-94368952D01*
X186912191Y-94321333D01*
X186721714Y-94321333D01*
X186626476Y-94368952D01*
X186578857Y-94416571D01*
X186531238Y-94511810D01*
X131953095Y-113117381D02*
X131953095Y-113926905D01*
X132000714Y-114022143D01*
X132048333Y-114069762D01*
X132143571Y-114117381D01*
X132334048Y-114117381D01*
X132429286Y-114069762D01*
X132476905Y-114022143D01*
X132524524Y-113926905D01*
X132524524Y-113117381D01*
X132905476Y-113117381D02*
X133524524Y-113117381D01*
X133191190Y-113498333D01*
X133334048Y-113498333D01*
X133429286Y-113545952D01*
X133476905Y-113593571D01*
X133524524Y-113688810D01*
X133524524Y-113926905D01*
X133476905Y-114022143D01*
X133429286Y-114069762D01*
X133334048Y-114117381D01*
X133048333Y-114117381D01*
X132953095Y-114069762D01*
X132905476Y-114022143D01*
X153566905Y-107132381D02*
X153566905Y-106132381D01*
X153805000Y-106132381D01*
X153947858Y-106180000D01*
X154043096Y-106275238D01*
X154090715Y-106370476D01*
X154138334Y-106560952D01*
X154138334Y-106703810D01*
X154090715Y-106894286D01*
X154043096Y-106989524D01*
X153947858Y-107084762D01*
X153805000Y-107132381D01*
X153566905Y-107132381D01*
X155090715Y-107132381D02*
X154519286Y-107132381D01*
X154805000Y-107132381D02*
X154805000Y-106132381D01*
X154709762Y-106275238D01*
X154614524Y-106370476D01*
X154519286Y-106418095D01*
X182332381Y-117173333D02*
X183046667Y-117173333D01*
X183189524Y-117220953D01*
X183284762Y-117316191D01*
X183332381Y-117459048D01*
X183332381Y-117554286D01*
X183332381Y-116173333D02*
X183332381Y-116744762D01*
X183332381Y-116459048D02*
X182332381Y-116459048D01*
X182475238Y-116554286D01*
X182570476Y-116649524D01*
X182618095Y-116744762D01*
X131913334Y-106402143D02*
X131865715Y-106449762D01*
X131722858Y-106497381D01*
X131627620Y-106497381D01*
X131484762Y-106449762D01*
X131389524Y-106354524D01*
X131341905Y-106259286D01*
X131294286Y-106068810D01*
X131294286Y-105925952D01*
X131341905Y-105735476D01*
X131389524Y-105640238D01*
X131484762Y-105545000D01*
X131627620Y-105497381D01*
X131722858Y-105497381D01*
X131865715Y-105545000D01*
X131913334Y-105592619D01*
X132246667Y-105497381D02*
X132913334Y-105497381D01*
X132484762Y-106497381D01*
X147621667Y-93432381D02*
X147621667Y-94146667D01*
X147574047Y-94289524D01*
X147478809Y-94384762D01*
X147335952Y-94432381D01*
X147240714Y-94432381D01*
X148574048Y-93432381D02*
X148097857Y-93432381D01*
X148050238Y-93908571D01*
X148097857Y-93860952D01*
X148193095Y-93813333D01*
X148431191Y-93813333D01*
X148526429Y-93860952D01*
X148574048Y-93908571D01*
X148621667Y-94003810D01*
X148621667Y-94241905D01*
X148574048Y-94337143D01*
X148526429Y-94384762D01*
X148431191Y-94432381D01*
X148193095Y-94432381D01*
X148097857Y-94384762D01*
X148050238Y-94337143D01*
X181189334Y-99925143D02*
X181141715Y-99972762D01*
X180998858Y-100020381D01*
X180903620Y-100020381D01*
X180760762Y-99972762D01*
X180665524Y-99877524D01*
X180617905Y-99782286D01*
X180570286Y-99591810D01*
X180570286Y-99448952D01*
X180617905Y-99258476D01*
X180665524Y-99163238D01*
X180760762Y-99068000D01*
X180903620Y-99020381D01*
X180998858Y-99020381D01*
X181141715Y-99068000D01*
X181189334Y-99115619D01*
X181760762Y-99448952D02*
X181665524Y-99401333D01*
X181617905Y-99353714D01*
X181570286Y-99258476D01*
X181570286Y-99210857D01*
X181617905Y-99115619D01*
X181665524Y-99068000D01*
X181760762Y-99020381D01*
X181951239Y-99020381D01*
X182046477Y-99068000D01*
X182094096Y-99115619D01*
X182141715Y-99210857D01*
X182141715Y-99258476D01*
X182094096Y-99353714D01*
X182046477Y-99401333D01*
X181951239Y-99448952D01*
X181760762Y-99448952D01*
X181665524Y-99496571D01*
X181617905Y-99544190D01*
X181570286Y-99639429D01*
X181570286Y-99829905D01*
X181617905Y-99925143D01*
X181665524Y-99972762D01*
X181760762Y-100020381D01*
X181951239Y-100020381D01*
X182046477Y-99972762D01*
X182094096Y-99925143D01*
X182141715Y-99829905D01*
X182141715Y-99639429D01*
X182094096Y-99544190D01*
X182046477Y-99496571D01*
X181951239Y-99448952D01*
X181189334Y-105767143D02*
X181141715Y-105814762D01*
X180998858Y-105862381D01*
X180903620Y-105862381D01*
X180760762Y-105814762D01*
X180665524Y-105719524D01*
X180617905Y-105624286D01*
X180570286Y-105433810D01*
X180570286Y-105290952D01*
X180617905Y-105100476D01*
X180665524Y-105005238D01*
X180760762Y-104910000D01*
X180903620Y-104862381D01*
X180998858Y-104862381D01*
X181141715Y-104910000D01*
X181189334Y-104957619D01*
X181665524Y-105862381D02*
X181856000Y-105862381D01*
X181951239Y-105814762D01*
X181998858Y-105767143D01*
X182094096Y-105624286D01*
X182141715Y-105433810D01*
X182141715Y-105052857D01*
X182094096Y-104957619D01*
X182046477Y-104910000D01*
X181951239Y-104862381D01*
X181760762Y-104862381D01*
X181665524Y-104910000D01*
X181617905Y-104957619D01*
X181570286Y-105052857D01*
X181570286Y-105290952D01*
X181617905Y-105386190D01*
X181665524Y-105433810D01*
X181760762Y-105481429D01*
X181951239Y-105481429D01*
X182046477Y-105433810D01*
X182094096Y-105386190D01*
X182141715Y-105290952D01*
X178935143Y-114911143D02*
X178887524Y-114958762D01*
X178744667Y-115006381D01*
X178649429Y-115006381D01*
X178506571Y-114958762D01*
X178411333Y-114863524D01*
X178363714Y-114768286D01*
X178316095Y-114577810D01*
X178316095Y-114434952D01*
X178363714Y-114244476D01*
X178411333Y-114149238D01*
X178506571Y-114054000D01*
X178649429Y-114006381D01*
X178744667Y-114006381D01*
X178887524Y-114054000D01*
X178935143Y-114101619D01*
X179887524Y-115006381D02*
X179316095Y-115006381D01*
X179601809Y-115006381D02*
X179601809Y-114006381D01*
X179506571Y-114149238D01*
X179411333Y-114244476D01*
X179316095Y-114292095D01*
X180506571Y-114006381D02*
X180601810Y-114006381D01*
X180697048Y-114054000D01*
X180744667Y-114101619D01*
X180792286Y-114196857D01*
X180839905Y-114387333D01*
X180839905Y-114625429D01*
X180792286Y-114815905D01*
X180744667Y-114911143D01*
X180697048Y-114958762D01*
X180601810Y-115006381D01*
X180506571Y-115006381D01*
X180411333Y-114958762D01*
X180363714Y-114911143D01*
X180316095Y-114815905D01*
X180268476Y-114625429D01*
X180268476Y-114387333D01*
X180316095Y-114196857D01*
X180363714Y-114101619D01*
X180411333Y-114054000D01*
X180506571Y-114006381D01*
X178903334Y-106116381D02*
X178570000Y-105640190D01*
X178331905Y-106116381D02*
X178331905Y-105116381D01*
X178712858Y-105116381D01*
X178808096Y-105164000D01*
X178855715Y-105211619D01*
X178903334Y-105306857D01*
X178903334Y-105449714D01*
X178855715Y-105544952D01*
X178808096Y-105592571D01*
X178712858Y-105640190D01*
X178331905Y-105640190D01*
X179855715Y-106116381D02*
X179284286Y-106116381D01*
X179570000Y-106116381D02*
X179570000Y-105116381D01*
X179474762Y-105259238D01*
X179379524Y-105354476D01*
X179284286Y-105402095D01*
X159853334Y-110434381D02*
X159520000Y-109958190D01*
X159281905Y-110434381D02*
X159281905Y-109434381D01*
X159662858Y-109434381D01*
X159758096Y-109482000D01*
X159805715Y-109529619D01*
X159853334Y-109624857D01*
X159853334Y-109767714D01*
X159805715Y-109862952D01*
X159758096Y-109910571D01*
X159662858Y-109958190D01*
X159281905Y-109958190D01*
X160234286Y-109529619D02*
X160281905Y-109482000D01*
X160377143Y-109434381D01*
X160615239Y-109434381D01*
X160710477Y-109482000D01*
X160758096Y-109529619D01*
X160805715Y-109624857D01*
X160805715Y-109720095D01*
X160758096Y-109862952D01*
X160186667Y-110434381D01*
X160805715Y-110434381D01*
X179157334Y-118562381D02*
X178824000Y-118086190D01*
X178585905Y-118562381D02*
X178585905Y-117562381D01*
X178966858Y-117562381D01*
X179062096Y-117610000D01*
X179109715Y-117657619D01*
X179157334Y-117752857D01*
X179157334Y-117895714D01*
X179109715Y-117990952D01*
X179062096Y-118038571D01*
X178966858Y-118086190D01*
X178585905Y-118086190D01*
X179490667Y-117562381D02*
X180109715Y-117562381D01*
X179776381Y-117943333D01*
X179919239Y-117943333D01*
X180014477Y-117990952D01*
X180062096Y-118038571D01*
X180109715Y-118133810D01*
X180109715Y-118371905D01*
X180062096Y-118467143D01*
X180014477Y-118514762D01*
X179919239Y-118562381D01*
X179633524Y-118562381D01*
X179538286Y-118514762D01*
X179490667Y-118467143D01*
M02*
