G04 #@! TF.FileFunction,Soldermask,Bot*
%FSLAX46Y46*%
G04 Gerber Fmt 4.6, Leading zero omitted, Abs format (unit mm)*
G04 Created by KiCad (PCBNEW 4.0.7) date Monday, September 03, 2018 'PMt' 09:42:47 PM*
%MOMM*%
%LPD*%
G01*
G04 APERTURE LIST*
%ADD10C,0.100000*%
%ADD11R,2.000000X2.000000*%
%ADD12C,2.000000*%
%ADD13C,1.600000*%
%ADD14R,2.400000X2.400000*%
%ADD15O,2.400000X2.400000*%
%ADD16R,4.000000X4.000000*%
%ADD17C,3.300000*%
%ADD18C,3.500000*%
%ADD19R,1.700000X1.200000*%
%ADD20O,1.700000X1.200000*%
%ADD21O,1.600000X1.600000*%
%ADD22R,1.600000X1.600000*%
%ADD23O,0.900000X1.500000*%
%ADD24R,0.900000X1.500000*%
%ADD25R,1.500000X1.500000*%
%ADD26C,1.500000*%
%ADD27R,2.200000X2.200000*%
%ADD28C,2.200000*%
%ADD29C,2.700000*%
G04 APERTURE END LIST*
D10*
D11*
X166370000Y-111760000D03*
D12*
X161370000Y-111760000D03*
D13*
X140335000Y-114300000D03*
X140335000Y-109300000D03*
X154940000Y-111125000D03*
X154940000Y-116125000D03*
X144780000Y-111125000D03*
X144780000Y-116125000D03*
D14*
X154940000Y-107315000D03*
D15*
X144780000Y-107315000D03*
D16*
X173355000Y-111760000D03*
D17*
X179355000Y-111760000D03*
D18*
X180355000Y-116260000D03*
X180355000Y-107260000D03*
D13*
X182355000Y-111760000D03*
D19*
X179070000Y-91440000D03*
D20*
X179070000Y-89440000D03*
X179070000Y-87440000D03*
D13*
X182880000Y-103505000D03*
D21*
X182880000Y-95885000D03*
D22*
X136525000Y-107950000D03*
D21*
X121285000Y-115570000D03*
X133985000Y-107950000D03*
X123825000Y-115570000D03*
X131445000Y-107950000D03*
X126365000Y-115570000D03*
X128905000Y-107950000D03*
X128905000Y-115570000D03*
X126365000Y-107950000D03*
X131445000Y-115570000D03*
X123825000Y-107950000D03*
X133985000Y-115570000D03*
X121285000Y-107950000D03*
X136525000Y-115570000D03*
D23*
X149860000Y-113030000D03*
X148590000Y-113030000D03*
D24*
X151130000Y-113030000D03*
D25*
X172720000Y-91440000D03*
D26*
X172720000Y-87640000D03*
X171450000Y-89540000D03*
X171450000Y-85740000D03*
X170180000Y-91440000D03*
X170180000Y-87640000D03*
X168910000Y-89540000D03*
X168910000Y-85740000D03*
X167640000Y-91440000D03*
X167640000Y-87640000D03*
X166370000Y-89540000D03*
X166370000Y-85740000D03*
X165100000Y-91440000D03*
X165100000Y-87640000D03*
X163830000Y-89540000D03*
X163830000Y-85740000D03*
X162560000Y-91440000D03*
X162560000Y-87640000D03*
X161290000Y-89540000D03*
X161290000Y-85740000D03*
X160020000Y-91440000D03*
X160020000Y-87640000D03*
X158750000Y-89540000D03*
X158750000Y-85740000D03*
X157480000Y-91440000D03*
X157480000Y-87640000D03*
X156210000Y-89540000D03*
X156210000Y-85740000D03*
X154940000Y-91440000D03*
X154940000Y-87640000D03*
X153670000Y-89540000D03*
X153670000Y-85740000D03*
X152400000Y-91440000D03*
X152400000Y-87640000D03*
X151130000Y-89540000D03*
X151130000Y-85740000D03*
X149860000Y-91440000D03*
X149860000Y-87640000D03*
X148590000Y-89540000D03*
X148590000Y-85740000D03*
X147320000Y-91440000D03*
X147320000Y-87640000D03*
X146050000Y-89540000D03*
X146050000Y-85740000D03*
X144780000Y-91440000D03*
X144780000Y-87640000D03*
X143510000Y-89540000D03*
X143510000Y-85740000D03*
X142240000Y-91440000D03*
X142240000Y-87640000D03*
X140970000Y-89540000D03*
X140970000Y-85740000D03*
X139700000Y-91440000D03*
X139700000Y-87640000D03*
X138430000Y-89540000D03*
X138430000Y-85740000D03*
X137160000Y-91440000D03*
X137160000Y-87640000D03*
X135890000Y-89540000D03*
X135890000Y-85740000D03*
X134620000Y-91440000D03*
X134620000Y-87640000D03*
X133350000Y-89540000D03*
X133350000Y-85740000D03*
X132080000Y-91440000D03*
X132080000Y-87640000D03*
X130810000Y-89540000D03*
X130810000Y-85740000D03*
X129540000Y-91440000D03*
X129540000Y-87640000D03*
X128270000Y-89540000D03*
X128270000Y-85740000D03*
X127000000Y-91440000D03*
X127000000Y-87640000D03*
X125730000Y-89540000D03*
X125730000Y-85740000D03*
X124460000Y-91440000D03*
X124460000Y-87640000D03*
X123190000Y-89540000D03*
X123190000Y-85740000D03*
D27*
X120650000Y-97790000D03*
D28*
X120650000Y-101290000D03*
X179150000Y-97790000D03*
D29*
X126000000Y-95340000D03*
X173800000Y-95340000D03*
X124800000Y-103740000D03*
X175000000Y-103740000D03*
D27*
X120650000Y-121920000D03*
D28*
X120650000Y-125420000D03*
X179150000Y-121920000D03*
D29*
X126000000Y-119470000D03*
X173800000Y-119470000D03*
X124800000Y-127870000D03*
X175000000Y-127870000D03*
M02*
