G04 #@! TF.FileFunction,Copper,L2,Bot,Signal*
%FSLAX46Y46*%
G04 Gerber Fmt 4.6, Leading zero omitted, Abs format (unit mm)*
G04 Created by KiCad (PCBNEW 4.0.7) date Monday, September 03, 2018 'PMt' 09:42:47 PM*
%MOMM*%
%LPD*%
G01*
G04 APERTURE LIST*
%ADD10C,0.100000*%
%ADD11R,2.000000X2.000000*%
%ADD12C,2.000000*%
%ADD13C,1.600000*%
%ADD14R,2.400000X2.400000*%
%ADD15O,2.400000X2.400000*%
%ADD16R,4.000000X4.000000*%
%ADD17C,3.300000*%
%ADD18C,3.500000*%
%ADD19R,1.700000X1.200000*%
%ADD20O,1.700000X1.200000*%
%ADD21O,1.600000X1.600000*%
%ADD22R,1.600000X1.600000*%
%ADD23O,0.900000X1.500000*%
%ADD24R,0.900000X1.500000*%
%ADD25R,1.500000X1.500000*%
%ADD26C,1.500000*%
%ADD27R,2.200000X2.200000*%
%ADD28C,2.200000*%
%ADD29C,2.700000*%
%ADD30C,0.600000*%
%ADD31C,0.508000*%
%ADD32C,0.250000*%
%ADD33C,0.254000*%
G04 APERTURE END LIST*
D10*
D11*
X166370000Y-111760000D03*
D12*
X161370000Y-111760000D03*
D13*
X140335000Y-114300000D03*
X140335000Y-109300000D03*
X154940000Y-111125000D03*
X154940000Y-116125000D03*
X144780000Y-111125000D03*
X144780000Y-116125000D03*
D14*
X154940000Y-107315000D03*
D15*
X144780000Y-107315000D03*
D16*
X173355000Y-111760000D03*
D17*
X179355000Y-111760000D03*
D18*
X180355000Y-116260000D03*
X180355000Y-107260000D03*
D19*
X179070000Y-91440000D03*
D20*
X179070000Y-89440000D03*
X179070000Y-87440000D03*
D13*
X182880000Y-103505000D03*
D21*
X182880000Y-95885000D03*
D22*
X136525000Y-107950000D03*
D21*
X121285000Y-115570000D03*
X133985000Y-107950000D03*
X123825000Y-115570000D03*
X131445000Y-107950000D03*
X126365000Y-115570000D03*
X128905000Y-107950000D03*
X128905000Y-115570000D03*
X126365000Y-107950000D03*
X131445000Y-115570000D03*
X123825000Y-107950000D03*
X133985000Y-115570000D03*
X121285000Y-107950000D03*
X136525000Y-115570000D03*
D23*
X149860000Y-113030000D03*
X148590000Y-113030000D03*
D24*
X151130000Y-113030000D03*
D25*
X172720000Y-91440000D03*
D26*
X172720000Y-87640000D03*
X171450000Y-89540000D03*
X171450000Y-85740000D03*
X170180000Y-91440000D03*
X170180000Y-87640000D03*
X168910000Y-89540000D03*
X168910000Y-85740000D03*
X167640000Y-91440000D03*
X167640000Y-87640000D03*
X166370000Y-89540000D03*
X166370000Y-85740000D03*
X165100000Y-91440000D03*
X165100000Y-87640000D03*
X163830000Y-89540000D03*
X163830000Y-85740000D03*
X162560000Y-91440000D03*
X162560000Y-87640000D03*
X161290000Y-89540000D03*
X161290000Y-85740000D03*
X160020000Y-91440000D03*
X160020000Y-87640000D03*
X158750000Y-89540000D03*
X158750000Y-85740000D03*
X157480000Y-91440000D03*
X157480000Y-87640000D03*
X156210000Y-89540000D03*
X156210000Y-85740000D03*
X154940000Y-91440000D03*
X154940000Y-87640000D03*
X153670000Y-89540000D03*
X153670000Y-85740000D03*
X152400000Y-91440000D03*
X152400000Y-87640000D03*
X151130000Y-89540000D03*
X151130000Y-85740000D03*
X149860000Y-91440000D03*
X149860000Y-87640000D03*
X148590000Y-89540000D03*
X148590000Y-85740000D03*
X147320000Y-91440000D03*
X147320000Y-87640000D03*
X146050000Y-89540000D03*
X146050000Y-85740000D03*
X144780000Y-91440000D03*
X144780000Y-87640000D03*
X143510000Y-89540000D03*
X143510000Y-85740000D03*
X142240000Y-91440000D03*
X142240000Y-87640000D03*
X140970000Y-89540000D03*
X140970000Y-85740000D03*
X139700000Y-91440000D03*
X139700000Y-87640000D03*
X138430000Y-89540000D03*
X138430000Y-85740000D03*
X137160000Y-91440000D03*
X137160000Y-87640000D03*
X135890000Y-89540000D03*
X135890000Y-85740000D03*
X134620000Y-91440000D03*
X134620000Y-87640000D03*
X133350000Y-89540000D03*
X133350000Y-85740000D03*
X132080000Y-91440000D03*
X132080000Y-87640000D03*
X130810000Y-89540000D03*
X130810000Y-85740000D03*
X129540000Y-91440000D03*
X129540000Y-87640000D03*
X128270000Y-89540000D03*
X128270000Y-85740000D03*
X127000000Y-91440000D03*
X127000000Y-87640000D03*
X125730000Y-89540000D03*
X125730000Y-85740000D03*
X124460000Y-91440000D03*
X124460000Y-87640000D03*
X123190000Y-89540000D03*
X123190000Y-85740000D03*
D27*
X120650000Y-97790000D03*
D28*
X120650000Y-101290000D03*
X179150000Y-97790000D03*
D29*
X126000000Y-95340000D03*
X173800000Y-95340000D03*
X124800000Y-103740000D03*
X175000000Y-103740000D03*
D27*
X120650000Y-121920000D03*
D28*
X120650000Y-125420000D03*
X179150000Y-121920000D03*
D29*
X126000000Y-119470000D03*
X173800000Y-119470000D03*
X124800000Y-127870000D03*
X175000000Y-127870000D03*
D30*
X157480000Y-121920000D03*
X133985000Y-111760000D03*
X122555000Y-111760000D03*
X134620000Y-100965000D03*
X147320000Y-123825000D03*
X132715000Y-125095000D03*
X182880000Y-125095000D03*
D31*
X167640000Y-91440000D02*
X167640000Y-90810000D01*
X167640000Y-90810000D02*
X166370000Y-89540000D01*
X170180000Y-91440000D02*
X170180000Y-90810000D01*
X170180000Y-90810000D02*
X168910000Y-89540000D01*
X172720000Y-91440000D02*
X172720000Y-90810000D01*
X172720000Y-90810000D02*
X171450000Y-89540000D01*
X144780000Y-111125000D02*
X144780000Y-107315000D01*
X179150000Y-121920000D02*
X183609001Y-117460999D01*
X183609001Y-117460999D02*
X183609001Y-106089923D01*
X183609001Y-106089923D02*
X179150000Y-101630922D01*
X179150000Y-101630922D02*
X179150000Y-99345634D01*
X179150000Y-99345634D02*
X179150000Y-97790000D01*
X154940000Y-107315000D02*
X154940000Y-109023000D01*
X154940000Y-109023000D02*
X157480000Y-111563000D01*
X157480000Y-111563000D02*
X157480000Y-121920000D01*
X162560000Y-91440000D02*
X162560000Y-90810000D01*
X162560000Y-90810000D02*
X161290000Y-89540000D01*
X160020000Y-91440000D02*
X160020000Y-90810000D01*
X160020000Y-90810000D02*
X158750000Y-89540000D01*
X157480000Y-91440000D02*
X157480000Y-90810000D01*
X157480000Y-90810000D02*
X156210000Y-89540000D01*
X154940000Y-107315000D02*
X154940000Y-93980000D01*
X154940000Y-93980000D02*
X157480000Y-91440000D01*
D32*
X127000000Y-91440000D02*
X127000000Y-90810000D01*
X127000000Y-90810000D02*
X128270000Y-89540000D01*
X124460000Y-91440000D02*
X124460000Y-90810000D01*
X124460000Y-90810000D02*
X125730000Y-89540000D01*
X133985000Y-111760000D02*
X133985000Y-107950000D01*
X124460000Y-91440000D02*
X122555000Y-93345000D01*
X122555000Y-93345000D02*
X122555000Y-96305998D01*
X122555000Y-96305998D02*
X122555000Y-111760000D01*
X137160000Y-91440000D02*
X137160000Y-90810000D01*
X137160000Y-90810000D02*
X138430000Y-89540000D01*
X134620000Y-91440000D02*
X134620000Y-90810000D01*
X134620000Y-90810000D02*
X135890000Y-89540000D01*
X134620000Y-100965000D02*
X134620000Y-91440000D01*
X149860000Y-91440000D02*
X149860000Y-90810000D01*
X149860000Y-90810000D02*
X148590000Y-89540000D01*
X147320000Y-91440000D02*
X147320000Y-90810000D01*
X147320000Y-90810000D02*
X146050000Y-89540000D01*
X147320000Y-123825000D02*
X147320000Y-91440000D01*
X184188012Y-104813012D02*
X184188012Y-123786988D01*
X182880000Y-103505000D02*
X184188012Y-104813012D01*
X183179999Y-124795001D02*
X182880000Y-125095000D01*
X184188012Y-123786988D02*
X183179999Y-124795001D01*
X132715000Y-125095000D02*
X132715000Y-109220000D01*
X132715000Y-109220000D02*
X131445000Y-107950000D01*
X182880000Y-95885000D02*
X179070000Y-92075000D01*
X179070000Y-92075000D02*
X179070000Y-91440000D01*
D33*
G36*
X184289272Y-84490741D02*
X184945668Y-84929332D01*
X185384259Y-85585728D01*
X185548200Y-86409916D01*
X185548200Y-126950084D01*
X185384259Y-127774272D01*
X184945668Y-128430668D01*
X184289272Y-128869259D01*
X183465084Y-129033200D01*
X176540160Y-129033200D01*
X176708782Y-128954522D01*
X176993737Y-128218045D01*
X176975164Y-127428582D01*
X176708782Y-126785478D01*
X176405593Y-126644012D01*
X175179605Y-127870000D01*
X175193748Y-127884143D01*
X175014143Y-128063748D01*
X175000000Y-128049605D01*
X174985858Y-128063748D01*
X174806253Y-127884143D01*
X174820395Y-127870000D01*
X173594407Y-126644012D01*
X173291218Y-126785478D01*
X173006263Y-127521955D01*
X173024836Y-128311418D01*
X173291218Y-128954522D01*
X173459840Y-129033200D01*
X126340160Y-129033200D01*
X126508782Y-128954522D01*
X126793737Y-128218045D01*
X126775164Y-127428582D01*
X126508782Y-126785478D01*
X126205593Y-126644012D01*
X124979605Y-127870000D01*
X124993748Y-127884143D01*
X124814143Y-128063748D01*
X124800000Y-128049605D01*
X124785858Y-128063748D01*
X124606253Y-127884143D01*
X124620395Y-127870000D01*
X123394407Y-126644012D01*
X123091218Y-126785478D01*
X122806263Y-127521955D01*
X122824836Y-128311418D01*
X123091218Y-128954522D01*
X123259840Y-129033200D01*
X121334916Y-129033200D01*
X120510728Y-128869259D01*
X119854332Y-128430668D01*
X119415741Y-127774272D01*
X119251800Y-126950084D01*
X119251800Y-126047337D01*
X119350646Y-126286562D01*
X119781172Y-126717840D01*
X120343969Y-126951534D01*
X120953357Y-126952066D01*
X121516562Y-126719354D01*
X121771954Y-126464407D01*
X123574012Y-126464407D01*
X124800000Y-127690395D01*
X126025988Y-126464407D01*
X173774012Y-126464407D01*
X175000000Y-127690395D01*
X176225988Y-126464407D01*
X176084522Y-126161218D01*
X175348045Y-125876263D01*
X174558582Y-125894836D01*
X173915478Y-126161218D01*
X173774012Y-126464407D01*
X126025988Y-126464407D01*
X125884522Y-126161218D01*
X125148045Y-125876263D01*
X124358582Y-125894836D01*
X123715478Y-126161218D01*
X123574012Y-126464407D01*
X121771954Y-126464407D01*
X121947840Y-126288828D01*
X122181534Y-125726031D01*
X122182066Y-125116643D01*
X121949354Y-124553438D01*
X121518828Y-124122160D01*
X120956031Y-123888466D01*
X120346643Y-123887934D01*
X119783438Y-124120646D01*
X119352160Y-124551172D01*
X119251800Y-124792865D01*
X119251800Y-123583800D01*
X119423691Y-123655000D01*
X120364250Y-123655000D01*
X120523000Y-123496250D01*
X120523000Y-122047000D01*
X120777000Y-122047000D01*
X120777000Y-123496250D01*
X120935750Y-123655000D01*
X121876309Y-123655000D01*
X122109698Y-123558327D01*
X122288327Y-123379699D01*
X122385000Y-123146310D01*
X122385000Y-122205750D01*
X122226250Y-122047000D01*
X120777000Y-122047000D01*
X120523000Y-122047000D01*
X120503000Y-122047000D01*
X120503000Y-121793000D01*
X120523000Y-121793000D01*
X120523000Y-120343750D01*
X120777000Y-120343750D01*
X120777000Y-121793000D01*
X122226250Y-121793000D01*
X122385000Y-121634250D01*
X122385000Y-120875593D01*
X124774012Y-120875593D01*
X124915478Y-121178782D01*
X125651955Y-121463737D01*
X126441418Y-121445164D01*
X127084522Y-121178782D01*
X127225988Y-120875593D01*
X126000000Y-119649605D01*
X124774012Y-120875593D01*
X122385000Y-120875593D01*
X122385000Y-120693690D01*
X122288327Y-120460301D01*
X122109698Y-120281673D01*
X121876309Y-120185000D01*
X120935750Y-120185000D01*
X120777000Y-120343750D01*
X120523000Y-120343750D01*
X120364250Y-120185000D01*
X119423691Y-120185000D01*
X119251800Y-120256200D01*
X119251800Y-119121955D01*
X124006263Y-119121955D01*
X124024836Y-119911418D01*
X124291218Y-120554522D01*
X124594407Y-120695988D01*
X125820395Y-119470000D01*
X126179605Y-119470000D01*
X127405593Y-120695988D01*
X127708782Y-120554522D01*
X127993737Y-119818045D01*
X127975164Y-119028582D01*
X127708782Y-118385478D01*
X127405593Y-118244012D01*
X126179605Y-119470000D01*
X125820395Y-119470000D01*
X124594407Y-118244012D01*
X124291218Y-118385478D01*
X124006263Y-119121955D01*
X119251800Y-119121955D01*
X119251800Y-118064407D01*
X124774012Y-118064407D01*
X126000000Y-119290395D01*
X127225988Y-118064407D01*
X127084522Y-117761218D01*
X126348045Y-117476263D01*
X125558582Y-117494836D01*
X124915478Y-117761218D01*
X124774012Y-118064407D01*
X119251800Y-118064407D01*
X119251800Y-115545868D01*
X120053200Y-115545868D01*
X120053200Y-115594132D01*
X120146965Y-116065521D01*
X120413986Y-116465146D01*
X120813611Y-116732167D01*
X121285000Y-116825932D01*
X121756389Y-116732167D01*
X122156014Y-116465146D01*
X122423035Y-116065521D01*
X122446524Y-115947434D01*
X122672611Y-116425134D01*
X123087577Y-116801041D01*
X123475961Y-116961904D01*
X123698000Y-116839915D01*
X123698000Y-115697000D01*
X123952000Y-115697000D01*
X123952000Y-116839915D01*
X124174039Y-116961904D01*
X124562423Y-116801041D01*
X124977389Y-116425134D01*
X125095000Y-116176633D01*
X125212611Y-116425134D01*
X125627577Y-116801041D01*
X126015961Y-116961904D01*
X126238000Y-116839915D01*
X126238000Y-115697000D01*
X123952000Y-115697000D01*
X123698000Y-115697000D01*
X123678000Y-115697000D01*
X123678000Y-115443000D01*
X123698000Y-115443000D01*
X123698000Y-114300085D01*
X123952000Y-114300085D01*
X123952000Y-115443000D01*
X126238000Y-115443000D01*
X126238000Y-114300085D01*
X126492000Y-114300085D01*
X126492000Y-115443000D01*
X126512000Y-115443000D01*
X126512000Y-115697000D01*
X126492000Y-115697000D01*
X126492000Y-116839915D01*
X126714039Y-116961904D01*
X127102423Y-116801041D01*
X127517389Y-116425134D01*
X127743476Y-115947434D01*
X127766965Y-116065521D01*
X128033986Y-116465146D01*
X128433611Y-116732167D01*
X128905000Y-116825932D01*
X129376389Y-116732167D01*
X129776014Y-116465146D01*
X130043035Y-116065521D01*
X130066524Y-115947434D01*
X130292611Y-116425134D01*
X130707577Y-116801041D01*
X131095961Y-116961904D01*
X131318000Y-116839915D01*
X131318000Y-115697000D01*
X131298000Y-115697000D01*
X131298000Y-115443000D01*
X131318000Y-115443000D01*
X131318000Y-114300085D01*
X131095961Y-114178096D01*
X130707577Y-114338959D01*
X130292611Y-114714866D01*
X130066524Y-115192566D01*
X130043035Y-115074479D01*
X129776014Y-114674854D01*
X129376389Y-114407833D01*
X128905000Y-114314068D01*
X128433611Y-114407833D01*
X128033986Y-114674854D01*
X127766965Y-115074479D01*
X127743476Y-115192566D01*
X127517389Y-114714866D01*
X127102423Y-114338959D01*
X126714039Y-114178096D01*
X126492000Y-114300085D01*
X126238000Y-114300085D01*
X126015961Y-114178096D01*
X125627577Y-114338959D01*
X125212611Y-114714866D01*
X125095000Y-114963367D01*
X124977389Y-114714866D01*
X124562423Y-114338959D01*
X124174039Y-114178096D01*
X123952000Y-114300085D01*
X123698000Y-114300085D01*
X123475961Y-114178096D01*
X123087577Y-114338959D01*
X122672611Y-114714866D01*
X122446524Y-115192566D01*
X122423035Y-115074479D01*
X122156014Y-114674854D01*
X121756389Y-114407833D01*
X121285000Y-114314068D01*
X120813611Y-114407833D01*
X120413986Y-114674854D01*
X120146965Y-115074479D01*
X120053200Y-115545868D01*
X119251800Y-115545868D01*
X119251800Y-108299041D01*
X119893086Y-108299041D01*
X120132611Y-108805134D01*
X120547577Y-109181041D01*
X120935961Y-109341904D01*
X121158000Y-109219915D01*
X121158000Y-108077000D01*
X120014371Y-108077000D01*
X119893086Y-108299041D01*
X119251800Y-108299041D01*
X119251800Y-107600959D01*
X119893086Y-107600959D01*
X120014371Y-107823000D01*
X121158000Y-107823000D01*
X121158000Y-106680085D01*
X120935961Y-106558096D01*
X120547577Y-106718959D01*
X120132611Y-107094866D01*
X119893086Y-107600959D01*
X119251800Y-107600959D01*
X119251800Y-101917337D01*
X119350646Y-102156562D01*
X119781172Y-102587840D01*
X120343969Y-102821534D01*
X120953357Y-102822066D01*
X121516562Y-102589354D01*
X121947840Y-102158828D01*
X121998200Y-102037548D01*
X121998200Y-106708926D01*
X121634039Y-106558096D01*
X121412000Y-106680085D01*
X121412000Y-107823000D01*
X121432000Y-107823000D01*
X121432000Y-108077000D01*
X121412000Y-108077000D01*
X121412000Y-109219915D01*
X121634039Y-109341904D01*
X121998200Y-109191074D01*
X121998200Y-111281809D01*
X121934972Y-111344927D01*
X121823327Y-111613797D01*
X121823073Y-111904925D01*
X121934248Y-112173990D01*
X122139927Y-112380028D01*
X122408797Y-112491673D01*
X122699925Y-112491927D01*
X122968990Y-112380752D01*
X123175028Y-112175073D01*
X123286673Y-111906203D01*
X123286927Y-111615075D01*
X123175752Y-111346010D01*
X123111800Y-111281946D01*
X123111800Y-108950594D01*
X123353611Y-109112167D01*
X123825000Y-109205932D01*
X124296389Y-109112167D01*
X124696014Y-108845146D01*
X124963035Y-108445521D01*
X124986524Y-108327434D01*
X125212611Y-108805134D01*
X125627577Y-109181041D01*
X126015961Y-109341904D01*
X126238000Y-109219915D01*
X126238000Y-108077000D01*
X126492000Y-108077000D01*
X126492000Y-109219915D01*
X126714039Y-109341904D01*
X127102423Y-109181041D01*
X127517389Y-108805134D01*
X127635000Y-108556633D01*
X127752611Y-108805134D01*
X128167577Y-109181041D01*
X128555961Y-109341904D01*
X128778000Y-109219915D01*
X128778000Y-108077000D01*
X126492000Y-108077000D01*
X126238000Y-108077000D01*
X126218000Y-108077000D01*
X126218000Y-107823000D01*
X126238000Y-107823000D01*
X126238000Y-106680085D01*
X126492000Y-106680085D01*
X126492000Y-107823000D01*
X128778000Y-107823000D01*
X128778000Y-106680085D01*
X129032000Y-106680085D01*
X129032000Y-107823000D01*
X129052000Y-107823000D01*
X129052000Y-108077000D01*
X129032000Y-108077000D01*
X129032000Y-109219915D01*
X129254039Y-109341904D01*
X129642423Y-109181041D01*
X130057389Y-108805134D01*
X130283476Y-108327434D01*
X130306965Y-108445521D01*
X130573986Y-108845146D01*
X130973611Y-109112167D01*
X131445000Y-109205932D01*
X131835769Y-109128203D01*
X132158200Y-109450634D01*
X132158200Y-114328926D01*
X131794039Y-114178096D01*
X131572000Y-114300085D01*
X131572000Y-115443000D01*
X131592000Y-115443000D01*
X131592000Y-115697000D01*
X131572000Y-115697000D01*
X131572000Y-116839915D01*
X131794039Y-116961904D01*
X132158200Y-116811074D01*
X132158200Y-124616809D01*
X132094972Y-124679927D01*
X131983327Y-124948797D01*
X131983073Y-125239925D01*
X132094248Y-125508990D01*
X132299927Y-125715028D01*
X132568797Y-125826673D01*
X132859925Y-125826927D01*
X133128990Y-125715752D01*
X133335028Y-125510073D01*
X133446673Y-125241203D01*
X133446927Y-124950075D01*
X133335752Y-124681010D01*
X133271800Y-124616946D01*
X133271800Y-117132745D01*
X143951861Y-117132745D01*
X144025995Y-117378864D01*
X144563223Y-117571965D01*
X145133454Y-117544778D01*
X145534005Y-117378864D01*
X145608139Y-117132745D01*
X144780000Y-116304605D01*
X143951861Y-117132745D01*
X133271800Y-117132745D01*
X133271800Y-116811074D01*
X133635961Y-116961904D01*
X133858000Y-116839915D01*
X133858000Y-115697000D01*
X133838000Y-115697000D01*
X133838000Y-115443000D01*
X133858000Y-115443000D01*
X133858000Y-114300085D01*
X134112000Y-114300085D01*
X134112000Y-115443000D01*
X134132000Y-115443000D01*
X134132000Y-115697000D01*
X134112000Y-115697000D01*
X134112000Y-116839915D01*
X134334039Y-116961904D01*
X134722423Y-116801041D01*
X135137389Y-116425134D01*
X135363476Y-115947434D01*
X135386965Y-116065521D01*
X135653986Y-116465146D01*
X136053611Y-116732167D01*
X136525000Y-116825932D01*
X136996389Y-116732167D01*
X137396014Y-116465146D01*
X137663035Y-116065521D01*
X137694323Y-115908223D01*
X143333035Y-115908223D01*
X143360222Y-116478454D01*
X143526136Y-116879005D01*
X143772255Y-116953139D01*
X144600395Y-116125000D01*
X144959605Y-116125000D01*
X145787745Y-116953139D01*
X146033864Y-116879005D01*
X146226965Y-116341777D01*
X146199778Y-115771546D01*
X146033864Y-115370995D01*
X145787745Y-115296861D01*
X144959605Y-116125000D01*
X144600395Y-116125000D01*
X143772255Y-115296861D01*
X143526136Y-115370995D01*
X143333035Y-115908223D01*
X137694323Y-115908223D01*
X137756800Y-115594132D01*
X137756800Y-115545868D01*
X137663035Y-115074479D01*
X137396014Y-114674854D01*
X137200095Y-114543945D01*
X139102987Y-114543945D01*
X139290122Y-114996847D01*
X139636331Y-115343660D01*
X140088905Y-115531585D01*
X140578945Y-115532013D01*
X141031847Y-115344878D01*
X141259867Y-115117255D01*
X143951861Y-115117255D01*
X144780000Y-115945395D01*
X145608139Y-115117255D01*
X145534005Y-114871136D01*
X144996777Y-114678035D01*
X144426546Y-114705222D01*
X144025995Y-114871136D01*
X143951861Y-115117255D01*
X141259867Y-115117255D01*
X141378660Y-114998669D01*
X141566585Y-114546095D01*
X141567013Y-114056055D01*
X141379878Y-113603153D01*
X141033669Y-113256340D01*
X140581095Y-113068415D01*
X140091055Y-113067987D01*
X139638153Y-113255122D01*
X139291340Y-113601331D01*
X139103415Y-114053905D01*
X139102987Y-114543945D01*
X137200095Y-114543945D01*
X136996389Y-114407833D01*
X136525000Y-114314068D01*
X136053611Y-114407833D01*
X135653986Y-114674854D01*
X135386965Y-115074479D01*
X135363476Y-115192566D01*
X135137389Y-114714866D01*
X134722423Y-114338959D01*
X134334039Y-114178096D01*
X134112000Y-114300085D01*
X133858000Y-114300085D01*
X133635961Y-114178096D01*
X133271800Y-114328926D01*
X133271800Y-111950248D01*
X133364248Y-112173990D01*
X133569927Y-112380028D01*
X133838797Y-112491673D01*
X134129925Y-112491927D01*
X134398990Y-112380752D01*
X134605028Y-112175073D01*
X134716673Y-111906203D01*
X134716927Y-111615075D01*
X134605752Y-111346010D01*
X134541800Y-111281946D01*
X134541800Y-110307745D01*
X139506861Y-110307745D01*
X139580995Y-110553864D01*
X140118223Y-110746965D01*
X140688454Y-110719778D01*
X141089005Y-110553864D01*
X141163139Y-110307745D01*
X140335000Y-109479605D01*
X139506861Y-110307745D01*
X134541800Y-110307745D01*
X134541800Y-109055097D01*
X134856014Y-108845146D01*
X135090000Y-108494961D01*
X135090000Y-108876309D01*
X135186673Y-109109698D01*
X135365301Y-109288327D01*
X135598690Y-109385000D01*
X136239250Y-109385000D01*
X136398000Y-109226250D01*
X136398000Y-108077000D01*
X136652000Y-108077000D01*
X136652000Y-109226250D01*
X136810750Y-109385000D01*
X137451310Y-109385000D01*
X137684699Y-109288327D01*
X137863327Y-109109698D01*
X137874293Y-109083223D01*
X138888035Y-109083223D01*
X138915222Y-109653454D01*
X139081136Y-110054005D01*
X139327255Y-110128139D01*
X140155395Y-109300000D01*
X140514605Y-109300000D01*
X141342745Y-110128139D01*
X141588864Y-110054005D01*
X141781965Y-109516777D01*
X141754778Y-108946546D01*
X141588864Y-108545995D01*
X141342745Y-108471861D01*
X140514605Y-109300000D01*
X140155395Y-109300000D01*
X139327255Y-108471861D01*
X139081136Y-108545995D01*
X138888035Y-109083223D01*
X137874293Y-109083223D01*
X137960000Y-108876309D01*
X137960000Y-108292255D01*
X139506861Y-108292255D01*
X140335000Y-109120395D01*
X141163139Y-108292255D01*
X141089005Y-108046136D01*
X140551777Y-107853035D01*
X139981546Y-107880222D01*
X139580995Y-108046136D01*
X139506861Y-108292255D01*
X137960000Y-108292255D01*
X137960000Y-108235750D01*
X137801250Y-108077000D01*
X136652000Y-108077000D01*
X136398000Y-108077000D01*
X136378000Y-108077000D01*
X136378000Y-107823000D01*
X136398000Y-107823000D01*
X136398000Y-106673750D01*
X136652000Y-106673750D01*
X136652000Y-107823000D01*
X137801250Y-107823000D01*
X137960000Y-107664250D01*
X137960000Y-107315000D01*
X143116231Y-107315000D01*
X143240444Y-107939463D01*
X143594174Y-108468857D01*
X144094200Y-108802964D01*
X144094200Y-110075557D01*
X144083153Y-110080122D01*
X143736340Y-110426331D01*
X143548415Y-110878905D01*
X143547987Y-111368945D01*
X143735122Y-111821847D01*
X144081331Y-112168660D01*
X144533905Y-112356585D01*
X145023945Y-112357013D01*
X145476847Y-112169878D01*
X145823660Y-111823669D01*
X146011585Y-111371095D01*
X146012013Y-110881055D01*
X145824878Y-110428153D01*
X145478669Y-110081340D01*
X145465800Y-110075996D01*
X145465800Y-108802964D01*
X145965826Y-108468857D01*
X146319556Y-107939463D01*
X146443769Y-107315000D01*
X146319556Y-106690537D01*
X145965826Y-106161143D01*
X145436432Y-105807413D01*
X144811969Y-105683200D01*
X144748031Y-105683200D01*
X144123568Y-105807413D01*
X143594174Y-106161143D01*
X143240444Y-106690537D01*
X143116231Y-107315000D01*
X137960000Y-107315000D01*
X137960000Y-107023691D01*
X137863327Y-106790302D01*
X137684699Y-106611673D01*
X137451310Y-106515000D01*
X136810750Y-106515000D01*
X136652000Y-106673750D01*
X136398000Y-106673750D01*
X136239250Y-106515000D01*
X135598690Y-106515000D01*
X135365301Y-106611673D01*
X135186673Y-106790302D01*
X135090000Y-107023691D01*
X135090000Y-107405039D01*
X134856014Y-107054854D01*
X134456389Y-106787833D01*
X133985000Y-106694068D01*
X133513611Y-106787833D01*
X133113986Y-107054854D01*
X132846965Y-107454479D01*
X132753200Y-107925868D01*
X132753200Y-107974132D01*
X132846965Y-108445521D01*
X133086612Y-108804178D01*
X132607079Y-108324645D01*
X132676800Y-107974132D01*
X132676800Y-107925868D01*
X132583035Y-107454479D01*
X132316014Y-107054854D01*
X131916389Y-106787833D01*
X131445000Y-106694068D01*
X130973611Y-106787833D01*
X130573986Y-107054854D01*
X130306965Y-107454479D01*
X130283476Y-107572566D01*
X130057389Y-107094866D01*
X129642423Y-106718959D01*
X129254039Y-106558096D01*
X129032000Y-106680085D01*
X128778000Y-106680085D01*
X128555961Y-106558096D01*
X128167577Y-106718959D01*
X127752611Y-107094866D01*
X127635000Y-107343367D01*
X127517389Y-107094866D01*
X127102423Y-106718959D01*
X126714039Y-106558096D01*
X126492000Y-106680085D01*
X126238000Y-106680085D01*
X126015961Y-106558096D01*
X125627577Y-106718959D01*
X125212611Y-107094866D01*
X124986524Y-107572566D01*
X124963035Y-107454479D01*
X124696014Y-107054854D01*
X124296389Y-106787833D01*
X123825000Y-106694068D01*
X123353611Y-106787833D01*
X123111800Y-106949406D01*
X123111800Y-105145593D01*
X123574012Y-105145593D01*
X123715478Y-105448782D01*
X124451955Y-105733737D01*
X125241418Y-105715164D01*
X125884522Y-105448782D01*
X126025988Y-105145593D01*
X124800000Y-103919605D01*
X123574012Y-105145593D01*
X123111800Y-105145593D01*
X123111800Y-104834125D01*
X123394407Y-104965988D01*
X124620395Y-103740000D01*
X124979605Y-103740000D01*
X126205593Y-104965988D01*
X126508782Y-104824522D01*
X126793737Y-104088045D01*
X126775164Y-103298582D01*
X126508782Y-102655478D01*
X126205593Y-102514012D01*
X124979605Y-103740000D01*
X124620395Y-103740000D01*
X123394407Y-102514012D01*
X123111800Y-102645875D01*
X123111800Y-102334407D01*
X123574012Y-102334407D01*
X124800000Y-103560395D01*
X126025988Y-102334407D01*
X125884522Y-102031218D01*
X125148045Y-101746263D01*
X124358582Y-101764836D01*
X123715478Y-102031218D01*
X123574012Y-102334407D01*
X123111800Y-102334407D01*
X123111800Y-96745593D01*
X124774012Y-96745593D01*
X124915478Y-97048782D01*
X125651955Y-97333737D01*
X126441418Y-97315164D01*
X127084522Y-97048782D01*
X127225988Y-96745593D01*
X126000000Y-95519605D01*
X124774012Y-96745593D01*
X123111800Y-96745593D01*
X123111800Y-94991955D01*
X124006263Y-94991955D01*
X124024836Y-95781418D01*
X124291218Y-96424522D01*
X124594407Y-96565988D01*
X125820395Y-95340000D01*
X126179605Y-95340000D01*
X127405593Y-96565988D01*
X127708782Y-96424522D01*
X127993737Y-95688045D01*
X127975164Y-94898582D01*
X127708782Y-94255478D01*
X127405593Y-94114012D01*
X126179605Y-95340000D01*
X125820395Y-95340000D01*
X124594407Y-94114012D01*
X124291218Y-94255478D01*
X124006263Y-94991955D01*
X123111800Y-94991955D01*
X123111800Y-93934407D01*
X124774012Y-93934407D01*
X126000000Y-95160395D01*
X127225988Y-93934407D01*
X127084522Y-93631218D01*
X126348045Y-93346263D01*
X125558582Y-93364836D01*
X124915478Y-93631218D01*
X124774012Y-93934407D01*
X123111800Y-93934407D01*
X123111800Y-93575634D01*
X124112213Y-92575221D01*
X124223894Y-92621595D01*
X124694043Y-92622005D01*
X125128561Y-92442466D01*
X125461297Y-92110310D01*
X125641595Y-91676106D01*
X125642005Y-91205957D01*
X125462466Y-90771439D01*
X125374307Y-90683127D01*
X125382213Y-90675221D01*
X125493894Y-90721595D01*
X125964043Y-90722005D01*
X126104685Y-90663893D01*
X125998703Y-90769690D01*
X125818405Y-91203894D01*
X125817995Y-91674043D01*
X125997534Y-92108561D01*
X126329690Y-92441297D01*
X126763894Y-92621595D01*
X127234043Y-92622005D01*
X127668561Y-92442466D01*
X128001297Y-92110310D01*
X128181595Y-91676106D01*
X128182005Y-91205957D01*
X128002466Y-90771439D01*
X127914307Y-90683127D01*
X127922213Y-90675221D01*
X128033894Y-90721595D01*
X128504043Y-90722005D01*
X128644685Y-90663893D01*
X128538703Y-90769690D01*
X128358405Y-91203894D01*
X128357995Y-91674043D01*
X128537534Y-92108561D01*
X128869690Y-92441297D01*
X129303894Y-92621595D01*
X129774043Y-92622005D01*
X130208561Y-92442466D01*
X130541297Y-92110310D01*
X130721595Y-91676106D01*
X130722005Y-91205957D01*
X130542466Y-90771439D01*
X130435231Y-90664017D01*
X130573894Y-90721595D01*
X131044043Y-90722005D01*
X131184685Y-90663893D01*
X131078703Y-90769690D01*
X130898405Y-91203894D01*
X130897995Y-91674043D01*
X131077534Y-92108561D01*
X131409690Y-92441297D01*
X131843894Y-92621595D01*
X132314043Y-92622005D01*
X132748561Y-92442466D01*
X133081297Y-92110310D01*
X133261595Y-91676106D01*
X133262005Y-91205957D01*
X133082466Y-90771439D01*
X132975231Y-90664017D01*
X133113894Y-90721595D01*
X133584043Y-90722005D01*
X133724685Y-90663893D01*
X133618703Y-90769690D01*
X133438405Y-91203894D01*
X133437995Y-91674043D01*
X133617534Y-92108561D01*
X133949690Y-92441297D01*
X134063200Y-92488431D01*
X134063200Y-100486809D01*
X133999972Y-100549927D01*
X133888327Y-100818797D01*
X133888073Y-101109925D01*
X133999248Y-101378990D01*
X134204927Y-101585028D01*
X134473797Y-101696673D01*
X134764925Y-101696927D01*
X135033990Y-101585752D01*
X135240028Y-101380073D01*
X135351673Y-101111203D01*
X135351927Y-100820075D01*
X135240752Y-100551010D01*
X135176800Y-100486946D01*
X135176800Y-92488645D01*
X135288561Y-92442466D01*
X135621297Y-92110310D01*
X135801595Y-91676106D01*
X135802005Y-91205957D01*
X135622466Y-90771439D01*
X135534307Y-90683127D01*
X135542213Y-90675221D01*
X135653894Y-90721595D01*
X136124043Y-90722005D01*
X136264685Y-90663893D01*
X136158703Y-90769690D01*
X135978405Y-91203894D01*
X135977995Y-91674043D01*
X136157534Y-92108561D01*
X136489690Y-92441297D01*
X136923894Y-92621595D01*
X137394043Y-92622005D01*
X137828561Y-92442466D01*
X138161297Y-92110310D01*
X138341595Y-91676106D01*
X138342005Y-91205957D01*
X138162466Y-90771439D01*
X138074307Y-90683127D01*
X138082213Y-90675221D01*
X138193894Y-90721595D01*
X138664043Y-90722005D01*
X138804685Y-90663893D01*
X138698703Y-90769690D01*
X138518405Y-91203894D01*
X138517995Y-91674043D01*
X138697534Y-92108561D01*
X139029690Y-92441297D01*
X139463894Y-92621595D01*
X139934043Y-92622005D01*
X140368561Y-92442466D01*
X140701297Y-92110310D01*
X140881595Y-91676106D01*
X140882005Y-91205957D01*
X140702466Y-90771439D01*
X140595231Y-90664017D01*
X140733894Y-90721595D01*
X141204043Y-90722005D01*
X141344685Y-90663893D01*
X141238703Y-90769690D01*
X141058405Y-91203894D01*
X141057995Y-91674043D01*
X141237534Y-92108561D01*
X141569690Y-92441297D01*
X142003894Y-92621595D01*
X142474043Y-92622005D01*
X142908561Y-92442466D01*
X143241297Y-92110310D01*
X143421595Y-91676106D01*
X143422005Y-91205957D01*
X143242466Y-90771439D01*
X143135231Y-90664017D01*
X143273894Y-90721595D01*
X143744043Y-90722005D01*
X143884685Y-90663893D01*
X143778703Y-90769690D01*
X143598405Y-91203894D01*
X143597995Y-91674043D01*
X143777534Y-92108561D01*
X144109690Y-92441297D01*
X144543894Y-92621595D01*
X145014043Y-92622005D01*
X145448561Y-92442466D01*
X145781297Y-92110310D01*
X145961595Y-91676106D01*
X145962005Y-91205957D01*
X145782466Y-90771439D01*
X145675231Y-90664017D01*
X145813894Y-90721595D01*
X146284043Y-90722005D01*
X146397636Y-90675070D01*
X146405555Y-90682989D01*
X146318703Y-90769690D01*
X146138405Y-91203894D01*
X146137995Y-91674043D01*
X146317534Y-92108561D01*
X146649690Y-92441297D01*
X146763200Y-92488431D01*
X146763200Y-123346809D01*
X146699972Y-123409927D01*
X146588327Y-123678797D01*
X146588073Y-123969925D01*
X146699248Y-124238990D01*
X146904927Y-124445028D01*
X147173797Y-124556673D01*
X147464925Y-124556927D01*
X147733990Y-124445752D01*
X147940028Y-124240073D01*
X148051673Y-123971203D01*
X148051927Y-123680075D01*
X147940752Y-123411010D01*
X147876800Y-123346946D01*
X147876800Y-117132745D01*
X154111861Y-117132745D01*
X154185995Y-117378864D01*
X154723223Y-117571965D01*
X155293454Y-117544778D01*
X155694005Y-117378864D01*
X155768139Y-117132745D01*
X154940000Y-116304605D01*
X154111861Y-117132745D01*
X147876800Y-117132745D01*
X147876800Y-115908223D01*
X153493035Y-115908223D01*
X153520222Y-116478454D01*
X153686136Y-116879005D01*
X153932255Y-116953139D01*
X154760395Y-116125000D01*
X155119605Y-116125000D01*
X155947745Y-116953139D01*
X156193864Y-116879005D01*
X156386965Y-116341777D01*
X156359778Y-115771546D01*
X156193864Y-115370995D01*
X155947745Y-115296861D01*
X155119605Y-116125000D01*
X154760395Y-116125000D01*
X153932255Y-115296861D01*
X153686136Y-115370995D01*
X153493035Y-115908223D01*
X147876800Y-115908223D01*
X147876800Y-115117255D01*
X154111861Y-115117255D01*
X154940000Y-115945395D01*
X155768139Y-115117255D01*
X155694005Y-114871136D01*
X155156777Y-114678035D01*
X154586546Y-114705222D01*
X154185995Y-114871136D01*
X154111861Y-115117255D01*
X147876800Y-115117255D01*
X147876800Y-113842474D01*
X147966473Y-113976680D01*
X148252550Y-114167830D01*
X148590000Y-114234953D01*
X148927450Y-114167830D01*
X149213527Y-113976680D01*
X149225000Y-113959509D01*
X149236473Y-113976680D01*
X149522550Y-114167830D01*
X149860000Y-114234953D01*
X150174391Y-114172417D01*
X150320302Y-114318327D01*
X150553691Y-114415000D01*
X150844250Y-114415000D01*
X151003000Y-114256250D01*
X151003000Y-113157000D01*
X151257000Y-113157000D01*
X151257000Y-114256250D01*
X151415750Y-114415000D01*
X151706309Y-114415000D01*
X151939698Y-114318327D01*
X152118327Y-114139699D01*
X152215000Y-113906310D01*
X152215000Y-113315750D01*
X152056250Y-113157000D01*
X151257000Y-113157000D01*
X151003000Y-113157000D01*
X150983000Y-113157000D01*
X150983000Y-112903000D01*
X151003000Y-112903000D01*
X151003000Y-111803750D01*
X151257000Y-111803750D01*
X151257000Y-112903000D01*
X152056250Y-112903000D01*
X152215000Y-112744250D01*
X152215000Y-112153690D01*
X152118327Y-111920301D01*
X151939698Y-111741673D01*
X151706309Y-111645000D01*
X151415750Y-111645000D01*
X151257000Y-111803750D01*
X151003000Y-111803750D01*
X150844250Y-111645000D01*
X150553691Y-111645000D01*
X150320302Y-111741673D01*
X150174391Y-111887583D01*
X149860000Y-111825047D01*
X149522550Y-111892170D01*
X149236473Y-112083320D01*
X149225000Y-112100491D01*
X149213527Y-112083320D01*
X148927450Y-111892170D01*
X148590000Y-111825047D01*
X148252550Y-111892170D01*
X147966473Y-112083320D01*
X147876800Y-112217526D01*
X147876800Y-92488645D01*
X147988561Y-92442466D01*
X148321297Y-92110310D01*
X148501595Y-91676106D01*
X148502005Y-91205957D01*
X148322466Y-90771439D01*
X148215231Y-90664017D01*
X148353894Y-90721595D01*
X148824043Y-90722005D01*
X148937636Y-90675070D01*
X148945555Y-90682989D01*
X148858703Y-90769690D01*
X148678405Y-91203894D01*
X148677995Y-91674043D01*
X148857534Y-92108561D01*
X149189690Y-92441297D01*
X149623894Y-92621595D01*
X150094043Y-92622005D01*
X150528561Y-92442466D01*
X150861297Y-92110310D01*
X151041595Y-91676106D01*
X151042005Y-91205957D01*
X150862466Y-90771439D01*
X150755231Y-90664017D01*
X150893894Y-90721595D01*
X151364043Y-90722005D01*
X151504685Y-90663893D01*
X151398703Y-90769690D01*
X151218405Y-91203894D01*
X151217995Y-91674043D01*
X151397534Y-92108561D01*
X151729690Y-92441297D01*
X152163894Y-92621595D01*
X152634043Y-92622005D01*
X153068561Y-92442466D01*
X153401297Y-92110310D01*
X153581595Y-91676106D01*
X153582005Y-91205957D01*
X153402466Y-90771439D01*
X153295231Y-90664017D01*
X153433894Y-90721595D01*
X153904043Y-90722005D01*
X154044685Y-90663893D01*
X153938703Y-90769690D01*
X153758405Y-91203894D01*
X153757995Y-91674043D01*
X153937534Y-92108561D01*
X154269690Y-92441297D01*
X154703894Y-92621595D01*
X155174043Y-92622005D01*
X155436623Y-92513509D01*
X154455066Y-93495066D01*
X154306403Y-93717555D01*
X154306403Y-93717556D01*
X154254200Y-93980000D01*
X154254200Y-105674741D01*
X153740000Y-105674741D01*
X153579985Y-105704850D01*
X153433020Y-105799419D01*
X153334427Y-105943715D01*
X153299741Y-106115000D01*
X153299741Y-108515000D01*
X153329850Y-108675015D01*
X153424419Y-108821980D01*
X153568715Y-108920573D01*
X153740000Y-108955259D01*
X154254200Y-108955259D01*
X154254200Y-109023000D01*
X154306403Y-109285445D01*
X154455066Y-109507934D01*
X154840245Y-109893113D01*
X154696055Y-109892987D01*
X154243153Y-110080122D01*
X153896340Y-110426331D01*
X153708415Y-110878905D01*
X153707987Y-111368945D01*
X153895122Y-111821847D01*
X154241331Y-112168660D01*
X154693905Y-112356585D01*
X155183945Y-112357013D01*
X155636847Y-112169878D01*
X155983660Y-111823669D01*
X156171585Y-111371095D01*
X156171713Y-111224581D01*
X156794200Y-111847068D01*
X156794200Y-121663323D01*
X156748327Y-121773797D01*
X156748073Y-122064925D01*
X156859248Y-122333990D01*
X157064927Y-122540028D01*
X157333797Y-122651673D01*
X157624925Y-122651927D01*
X157893990Y-122540752D01*
X158100028Y-122335073D01*
X158211673Y-122066203D01*
X158211927Y-121775075D01*
X158165800Y-121663439D01*
X158165800Y-120875593D01*
X172574012Y-120875593D01*
X172715478Y-121178782D01*
X173451955Y-121463737D01*
X174241418Y-121445164D01*
X174884522Y-121178782D01*
X175025988Y-120875593D01*
X173800000Y-119649605D01*
X172574012Y-120875593D01*
X158165800Y-120875593D01*
X158165800Y-119121955D01*
X171806263Y-119121955D01*
X171824836Y-119911418D01*
X172091218Y-120554522D01*
X172394407Y-120695988D01*
X173620395Y-119470000D01*
X173979605Y-119470000D01*
X175205593Y-120695988D01*
X175508782Y-120554522D01*
X175793737Y-119818045D01*
X175775164Y-119028582D01*
X175508782Y-118385478D01*
X175205593Y-118244012D01*
X173979605Y-119470000D01*
X173620395Y-119470000D01*
X172394407Y-118244012D01*
X172091218Y-118385478D01*
X171806263Y-119121955D01*
X158165800Y-119121955D01*
X158165800Y-118064407D01*
X172574012Y-118064407D01*
X173800000Y-119290395D01*
X175025988Y-118064407D01*
X174974720Y-117954528D01*
X178840077Y-117954528D01*
X179030364Y-118299271D01*
X179911591Y-118650956D01*
X180860323Y-118638641D01*
X181679636Y-118299271D01*
X181869923Y-117954528D01*
X180355000Y-116439605D01*
X178840077Y-117954528D01*
X174974720Y-117954528D01*
X174884522Y-117761218D01*
X174148045Y-117476263D01*
X173358582Y-117494836D01*
X172715478Y-117761218D01*
X172574012Y-118064407D01*
X158165800Y-118064407D01*
X158165800Y-115816591D01*
X177964044Y-115816591D01*
X177976359Y-116765323D01*
X178315729Y-117584636D01*
X178660472Y-117774923D01*
X180175395Y-116260000D01*
X180534605Y-116260000D01*
X182049528Y-117774923D01*
X182394271Y-117584636D01*
X182745956Y-116703409D01*
X182733641Y-115754677D01*
X182394271Y-114935364D01*
X182049528Y-114745077D01*
X180534605Y-116260000D01*
X180175395Y-116260000D01*
X178660472Y-114745077D01*
X178315729Y-114935364D01*
X177964044Y-115816591D01*
X158165800Y-115816591D01*
X158165800Y-112912532D01*
X160397073Y-112912532D01*
X160495736Y-113179387D01*
X161105461Y-113405908D01*
X161755460Y-113381856D01*
X162244264Y-113179387D01*
X162342927Y-112912532D01*
X161370000Y-111939605D01*
X160397073Y-112912532D01*
X158165800Y-112912532D01*
X158165800Y-111563000D01*
X158152366Y-111495461D01*
X159724092Y-111495461D01*
X159748144Y-112145460D01*
X159950613Y-112634264D01*
X160217468Y-112732927D01*
X161190395Y-111760000D01*
X161549605Y-111760000D01*
X162522532Y-112732927D01*
X162789387Y-112634264D01*
X163015908Y-112024539D01*
X162991856Y-111374540D01*
X162789387Y-110885736D01*
X162522532Y-110787073D01*
X161549605Y-111760000D01*
X161190395Y-111760000D01*
X160217468Y-110787073D01*
X159950613Y-110885736D01*
X159724092Y-111495461D01*
X158152366Y-111495461D01*
X158113597Y-111300556D01*
X157964934Y-111078066D01*
X157494336Y-110607468D01*
X160397073Y-110607468D01*
X161370000Y-111580395D01*
X162190395Y-110760000D01*
X164929741Y-110760000D01*
X164929741Y-112760000D01*
X164959850Y-112920015D01*
X165054419Y-113066980D01*
X165198715Y-113165573D01*
X165370000Y-113200259D01*
X167370000Y-113200259D01*
X167530015Y-113170150D01*
X167676980Y-113075581D01*
X167775573Y-112931285D01*
X167810259Y-112760000D01*
X167810259Y-110760000D01*
X167780150Y-110599985D01*
X167685581Y-110453020D01*
X167541285Y-110354427D01*
X167370000Y-110319741D01*
X165370000Y-110319741D01*
X165209985Y-110349850D01*
X165063020Y-110444419D01*
X164964427Y-110588715D01*
X164929741Y-110760000D01*
X162190395Y-110760000D01*
X162342927Y-110607468D01*
X162244264Y-110340613D01*
X161634539Y-110114092D01*
X160984540Y-110138144D01*
X160495736Y-110340613D01*
X160397073Y-110607468D01*
X157494336Y-110607468D01*
X156646868Y-109760000D01*
X170914741Y-109760000D01*
X170914741Y-113760000D01*
X170944850Y-113920015D01*
X171039419Y-114066980D01*
X171183715Y-114165573D01*
X171355000Y-114200259D01*
X175355000Y-114200259D01*
X175515015Y-114170150D01*
X175661980Y-114075581D01*
X175760573Y-113931285D01*
X175795259Y-113760000D01*
X175795259Y-113382314D01*
X177912291Y-113382314D01*
X178090379Y-113716666D01*
X178935426Y-114051673D01*
X179457757Y-114043697D01*
X179030364Y-114220729D01*
X178840077Y-114565472D01*
X180355000Y-116080395D01*
X181869923Y-114565472D01*
X181679636Y-114220729D01*
X180798409Y-113869044D01*
X180234063Y-113876369D01*
X180619621Y-113716666D01*
X180797709Y-113382314D01*
X179355000Y-111939605D01*
X177912291Y-113382314D01*
X175795259Y-113382314D01*
X175795259Y-111340426D01*
X177063327Y-111340426D01*
X177077206Y-112249350D01*
X177398334Y-113024621D01*
X177732686Y-113202709D01*
X179175395Y-111760000D01*
X177732686Y-110317291D01*
X177398334Y-110495379D01*
X177063327Y-111340426D01*
X175795259Y-111340426D01*
X175795259Y-110137686D01*
X177912291Y-110137686D01*
X179355000Y-111580395D01*
X180797709Y-110137686D01*
X180619621Y-109803334D01*
X180224990Y-109646888D01*
X180860323Y-109638641D01*
X181679636Y-109299271D01*
X181869923Y-108954528D01*
X180355000Y-107439605D01*
X178840077Y-108954528D01*
X179030364Y-109299271D01*
X179465787Y-109473042D01*
X178865650Y-109482206D01*
X178090379Y-109803334D01*
X177912291Y-110137686D01*
X175795259Y-110137686D01*
X175795259Y-109760000D01*
X175765150Y-109599985D01*
X175670581Y-109453020D01*
X175526285Y-109354427D01*
X175355000Y-109319741D01*
X171355000Y-109319741D01*
X171194985Y-109349850D01*
X171048020Y-109444419D01*
X170949427Y-109588715D01*
X170914741Y-109760000D01*
X156646868Y-109760000D01*
X155842127Y-108955259D01*
X156140000Y-108955259D01*
X156300015Y-108925150D01*
X156446980Y-108830581D01*
X156545573Y-108686285D01*
X156580259Y-108515000D01*
X156580259Y-106816591D01*
X177964044Y-106816591D01*
X177976359Y-107765323D01*
X178315729Y-108584636D01*
X178660472Y-108774923D01*
X180175395Y-107260000D01*
X180534605Y-107260000D01*
X182049528Y-108774923D01*
X182394271Y-108584636D01*
X182745956Y-107703409D01*
X182733641Y-106754677D01*
X182394271Y-105935364D01*
X182049528Y-105745077D01*
X180534605Y-107260000D01*
X180175395Y-107260000D01*
X178660472Y-105745077D01*
X178315729Y-105935364D01*
X177964044Y-106816591D01*
X156580259Y-106816591D01*
X156580259Y-106115000D01*
X156550150Y-105954985D01*
X156455581Y-105808020D01*
X156311285Y-105709427D01*
X156140000Y-105674741D01*
X155625800Y-105674741D01*
X155625800Y-105145593D01*
X173774012Y-105145593D01*
X173915478Y-105448782D01*
X174651955Y-105733737D01*
X175441418Y-105715164D01*
X175802806Y-105565472D01*
X178840077Y-105565472D01*
X180355000Y-107080395D01*
X181869923Y-105565472D01*
X181679636Y-105220729D01*
X180798409Y-104869044D01*
X179849677Y-104881359D01*
X179030364Y-105220729D01*
X178840077Y-105565472D01*
X175802806Y-105565472D01*
X176084522Y-105448782D01*
X176225988Y-105145593D01*
X175000000Y-103919605D01*
X173774012Y-105145593D01*
X155625800Y-105145593D01*
X155625800Y-103391955D01*
X173006263Y-103391955D01*
X173024836Y-104181418D01*
X173291218Y-104824522D01*
X173594407Y-104965988D01*
X174820395Y-103740000D01*
X175179605Y-103740000D01*
X176405593Y-104965988D01*
X176708782Y-104824522D01*
X176993737Y-104088045D01*
X176975164Y-103298582D01*
X176708782Y-102655478D01*
X176405593Y-102514012D01*
X175179605Y-103740000D01*
X174820395Y-103740000D01*
X173594407Y-102514012D01*
X173291218Y-102655478D01*
X173006263Y-103391955D01*
X155625800Y-103391955D01*
X155625800Y-102334407D01*
X173774012Y-102334407D01*
X175000000Y-103560395D01*
X176225988Y-102334407D01*
X176084522Y-102031218D01*
X175348045Y-101746263D01*
X174558582Y-101764836D01*
X173915478Y-102031218D01*
X173774012Y-102334407D01*
X155625800Y-102334407D01*
X155625800Y-98093357D01*
X177617934Y-98093357D01*
X177850646Y-98656562D01*
X178281172Y-99087840D01*
X178464200Y-99163840D01*
X178464200Y-101630922D01*
X178516403Y-101893367D01*
X178665066Y-102115856D01*
X182923201Y-106373991D01*
X182923201Y-110662165D01*
X182601095Y-110528415D01*
X182111055Y-110527987D01*
X181658153Y-110715122D01*
X181477419Y-110895541D01*
X181311666Y-110495379D01*
X180977314Y-110317291D01*
X179534605Y-111760000D01*
X180977314Y-113202709D01*
X181311666Y-113024621D01*
X181472333Y-112619341D01*
X181656331Y-112803660D01*
X182108905Y-112991585D01*
X182598945Y-112992013D01*
X182923201Y-112858033D01*
X182923201Y-117176931D01*
X179636662Y-120463470D01*
X179456031Y-120388466D01*
X178846643Y-120387934D01*
X178283438Y-120620646D01*
X177852160Y-121051172D01*
X177618466Y-121613969D01*
X177617934Y-122223357D01*
X177850646Y-122786562D01*
X178281172Y-123217840D01*
X178843969Y-123451534D01*
X179453357Y-123452066D01*
X180016562Y-123219354D01*
X180447840Y-122788828D01*
X180681534Y-122226031D01*
X180682066Y-121616643D01*
X180606385Y-121433483D01*
X183631212Y-118408656D01*
X183631212Y-123556354D01*
X182824415Y-124363151D01*
X182735075Y-124363073D01*
X182466010Y-124474248D01*
X182259972Y-124679927D01*
X182148327Y-124948797D01*
X182148073Y-125239925D01*
X182259248Y-125508990D01*
X182464927Y-125715028D01*
X182733797Y-125826673D01*
X183024925Y-125826927D01*
X183293990Y-125715752D01*
X183500028Y-125510073D01*
X183611673Y-125241203D01*
X183611752Y-125150682D01*
X184581729Y-124180705D01*
X184702428Y-124000066D01*
X184744812Y-123786988D01*
X184744812Y-104813012D01*
X184702428Y-104599934D01*
X184581729Y-104419295D01*
X184053475Y-103891041D01*
X184111585Y-103751095D01*
X184112013Y-103261055D01*
X183924878Y-102808153D01*
X183578669Y-102461340D01*
X183126095Y-102273415D01*
X182636055Y-102272987D01*
X182183153Y-102460122D01*
X181836340Y-102806331D01*
X181677590Y-103188644D01*
X179835800Y-101346854D01*
X179835800Y-99164043D01*
X180016562Y-99089354D01*
X180447840Y-98658828D01*
X180681534Y-98096031D01*
X180682066Y-97486643D01*
X180449354Y-96923438D01*
X180018828Y-96492160D01*
X179456031Y-96258466D01*
X178846643Y-96257934D01*
X178283438Y-96490646D01*
X177852160Y-96921172D01*
X177618466Y-97483969D01*
X177617934Y-98093357D01*
X155625800Y-98093357D01*
X155625800Y-96745593D01*
X172574012Y-96745593D01*
X172715478Y-97048782D01*
X173451955Y-97333737D01*
X174241418Y-97315164D01*
X174884522Y-97048782D01*
X175025988Y-96745593D01*
X173800000Y-95519605D01*
X172574012Y-96745593D01*
X155625800Y-96745593D01*
X155625800Y-94991955D01*
X171806263Y-94991955D01*
X171824836Y-95781418D01*
X172091218Y-96424522D01*
X172394407Y-96565988D01*
X173620395Y-95340000D01*
X173979605Y-95340000D01*
X175205593Y-96565988D01*
X175508782Y-96424522D01*
X175793737Y-95688045D01*
X175775164Y-94898582D01*
X175508782Y-94255478D01*
X175205593Y-94114012D01*
X173979605Y-95340000D01*
X173620395Y-95340000D01*
X172394407Y-94114012D01*
X172091218Y-94255478D01*
X171806263Y-94991955D01*
X155625800Y-94991955D01*
X155625800Y-94264068D01*
X155955461Y-93934407D01*
X172574012Y-93934407D01*
X173800000Y-95160395D01*
X175025988Y-93934407D01*
X174884522Y-93631218D01*
X174148045Y-93346263D01*
X173358582Y-93364836D01*
X172715478Y-93631218D01*
X172574012Y-93934407D01*
X155955461Y-93934407D01*
X157268252Y-92621616D01*
X157714043Y-92622005D01*
X158148561Y-92442466D01*
X158481297Y-92110310D01*
X158661595Y-91676106D01*
X158662005Y-91205957D01*
X158482466Y-90771439D01*
X158375231Y-90664017D01*
X158513894Y-90721595D01*
X158962118Y-90721986D01*
X159016097Y-90775965D01*
X158838405Y-91203894D01*
X158837995Y-91674043D01*
X159017534Y-92108561D01*
X159349690Y-92441297D01*
X159783894Y-92621595D01*
X160254043Y-92622005D01*
X160688561Y-92442466D01*
X161021297Y-92110310D01*
X161201595Y-91676106D01*
X161202005Y-91205957D01*
X161022466Y-90771439D01*
X160915231Y-90664017D01*
X161053894Y-90721595D01*
X161502118Y-90721986D01*
X161556097Y-90775965D01*
X161378405Y-91203894D01*
X161377995Y-91674043D01*
X161557534Y-92108561D01*
X161889690Y-92441297D01*
X162323894Y-92621595D01*
X162794043Y-92622005D01*
X163228561Y-92442466D01*
X163561297Y-92110310D01*
X163741595Y-91676106D01*
X163742005Y-91205957D01*
X163562466Y-90771439D01*
X163455231Y-90664017D01*
X163593894Y-90721595D01*
X164064043Y-90722005D01*
X164204685Y-90663893D01*
X164098703Y-90769690D01*
X163918405Y-91203894D01*
X163917995Y-91674043D01*
X164097534Y-92108561D01*
X164429690Y-92441297D01*
X164863894Y-92621595D01*
X165334043Y-92622005D01*
X165768561Y-92442466D01*
X165799564Y-92411517D01*
X166848088Y-92411517D01*
X166916077Y-92652460D01*
X167435171Y-92837201D01*
X167985448Y-92809230D01*
X168363923Y-92652460D01*
X168431912Y-92411517D01*
X169388088Y-92411517D01*
X169456077Y-92652460D01*
X169975171Y-92837201D01*
X170525448Y-92809230D01*
X170903923Y-92652460D01*
X170971912Y-92411517D01*
X170180000Y-91619605D01*
X169388088Y-92411517D01*
X168431912Y-92411517D01*
X167640000Y-91619605D01*
X166848088Y-92411517D01*
X165799564Y-92411517D01*
X166101297Y-92110310D01*
X166266999Y-91711257D01*
X166270770Y-91785448D01*
X166427540Y-92163923D01*
X166668483Y-92231912D01*
X167460395Y-91440000D01*
X167446253Y-91425858D01*
X167625858Y-91246253D01*
X167640000Y-91260395D01*
X167654143Y-91246253D01*
X167833748Y-91425858D01*
X167819605Y-91440000D01*
X168611517Y-92231912D01*
X168852460Y-92163923D01*
X168905642Y-92014489D01*
X168967540Y-92163923D01*
X169208483Y-92231912D01*
X170000395Y-91440000D01*
X169986253Y-91425858D01*
X170165858Y-91246253D01*
X170180000Y-91260395D01*
X170194143Y-91246253D01*
X170373748Y-91425858D01*
X170359605Y-91440000D01*
X171151517Y-92231912D01*
X171335000Y-92180137D01*
X171335000Y-92316310D01*
X171431673Y-92549699D01*
X171610302Y-92728327D01*
X171843691Y-92825000D01*
X172434250Y-92825000D01*
X172593000Y-92666250D01*
X172593000Y-91567000D01*
X172847000Y-91567000D01*
X172847000Y-92666250D01*
X173005750Y-92825000D01*
X173596309Y-92825000D01*
X173829698Y-92728327D01*
X174008327Y-92549699D01*
X174105000Y-92316310D01*
X174105000Y-91725750D01*
X173946250Y-91567000D01*
X172847000Y-91567000D01*
X172593000Y-91567000D01*
X172573000Y-91567000D01*
X172573000Y-91313000D01*
X172593000Y-91313000D01*
X172593000Y-91293000D01*
X172847000Y-91293000D01*
X172847000Y-91313000D01*
X173946250Y-91313000D01*
X174105000Y-91154250D01*
X174105000Y-90563690D01*
X174008327Y-90330301D01*
X173829698Y-90151673D01*
X173596309Y-90055000D01*
X173005750Y-90055000D01*
X172847002Y-90213748D01*
X172847002Y-90055000D01*
X172736814Y-90055000D01*
X172842652Y-89757609D01*
X177626538Y-89757609D01*
X177641714Y-89849376D01*
X177888067Y-90269125D01*
X178092548Y-90423723D01*
X178059985Y-90429850D01*
X177913020Y-90524419D01*
X177814427Y-90668715D01*
X177779741Y-90840000D01*
X177779741Y-92040000D01*
X177809850Y-92200015D01*
X177904419Y-92346980D01*
X178048715Y-92445573D01*
X178220000Y-92480259D01*
X178687825Y-92480259D01*
X181717921Y-95510355D01*
X181648200Y-95860868D01*
X181648200Y-95909132D01*
X181741965Y-96380521D01*
X182008986Y-96780146D01*
X182408611Y-97047167D01*
X182880000Y-97140932D01*
X183351389Y-97047167D01*
X183751014Y-96780146D01*
X184018035Y-96380521D01*
X184111800Y-95909132D01*
X184111800Y-95860868D01*
X184018035Y-95389479D01*
X183751014Y-94989854D01*
X183351389Y-94722833D01*
X182880000Y-94629068D01*
X182489231Y-94706797D01*
X180172848Y-92390414D01*
X180226980Y-92355581D01*
X180325573Y-92211285D01*
X180360259Y-92040000D01*
X180360259Y-90840000D01*
X180330150Y-90679985D01*
X180235581Y-90533020D01*
X180091285Y-90434427D01*
X180045545Y-90425164D01*
X180251933Y-90269125D01*
X180498286Y-89849376D01*
X180513462Y-89757609D01*
X180388731Y-89567000D01*
X179197000Y-89567000D01*
X179197000Y-89587000D01*
X178943000Y-89587000D01*
X178943000Y-89567000D01*
X177751269Y-89567000D01*
X177626538Y-89757609D01*
X172842652Y-89757609D01*
X172847201Y-89744829D01*
X172819230Y-89194552D01*
X172789340Y-89122391D01*
X177626538Y-89122391D01*
X177751269Y-89313000D01*
X178943000Y-89313000D01*
X178943000Y-89293000D01*
X179197000Y-89293000D01*
X179197000Y-89313000D01*
X180388731Y-89313000D01*
X180513462Y-89122391D01*
X180498286Y-89030624D01*
X180251933Y-88610875D01*
X179863701Y-88317353D01*
X179856408Y-88315454D01*
X180074705Y-88169593D01*
X180298371Y-87834853D01*
X180376912Y-87440000D01*
X180298371Y-87045147D01*
X180074705Y-86710407D01*
X179739965Y-86486741D01*
X179345112Y-86408200D01*
X178794888Y-86408200D01*
X178400035Y-86486741D01*
X178065295Y-86710407D01*
X177841629Y-87045147D01*
X177763088Y-87440000D01*
X177841629Y-87834853D01*
X178065295Y-88169593D01*
X178283592Y-88315454D01*
X178276299Y-88317353D01*
X177888067Y-88610875D01*
X177641714Y-89030624D01*
X177626538Y-89122391D01*
X172789340Y-89122391D01*
X172664811Y-88821753D01*
X172954043Y-88822005D01*
X173388561Y-88642466D01*
X173721297Y-88310310D01*
X173901595Y-87876106D01*
X173902005Y-87405957D01*
X173722466Y-86971439D01*
X173390310Y-86638703D01*
X172956106Y-86458405D01*
X172485957Y-86457995D01*
X172345315Y-86516107D01*
X172451297Y-86410310D01*
X172631595Y-85976106D01*
X172632005Y-85505957D01*
X172452466Y-85071439D01*
X172120310Y-84738703D01*
X171686106Y-84558405D01*
X171215957Y-84557995D01*
X170781439Y-84737534D01*
X170448703Y-85069690D01*
X170268405Y-85503894D01*
X170267995Y-85974043D01*
X170447534Y-86408561D01*
X170554769Y-86515983D01*
X170416106Y-86458405D01*
X169945957Y-86457995D01*
X169805315Y-86516107D01*
X169911297Y-86410310D01*
X170091595Y-85976106D01*
X170092005Y-85505957D01*
X169912466Y-85071439D01*
X169580310Y-84738703D01*
X169146106Y-84558405D01*
X168675957Y-84557995D01*
X168241439Y-84737534D01*
X167908703Y-85069690D01*
X167728405Y-85503894D01*
X167727995Y-85974043D01*
X167907534Y-86408561D01*
X168014769Y-86515983D01*
X167876106Y-86458405D01*
X167405957Y-86457995D01*
X167265315Y-86516107D01*
X167371297Y-86410310D01*
X167551595Y-85976106D01*
X167552005Y-85505957D01*
X167372466Y-85071439D01*
X167040310Y-84738703D01*
X166606106Y-84558405D01*
X166135957Y-84557995D01*
X165701439Y-84737534D01*
X165368703Y-85069690D01*
X165188405Y-85503894D01*
X165187995Y-85974043D01*
X165367534Y-86408561D01*
X165474769Y-86515983D01*
X165336106Y-86458405D01*
X164865957Y-86457995D01*
X164725315Y-86516107D01*
X164831297Y-86410310D01*
X165011595Y-85976106D01*
X165012005Y-85505957D01*
X164832466Y-85071439D01*
X164500310Y-84738703D01*
X164066106Y-84558405D01*
X163595957Y-84557995D01*
X163161439Y-84737534D01*
X162828703Y-85069690D01*
X162648405Y-85503894D01*
X162647995Y-85974043D01*
X162827534Y-86408561D01*
X162934769Y-86515983D01*
X162796106Y-86458405D01*
X162325957Y-86457995D01*
X162185315Y-86516107D01*
X162291297Y-86410310D01*
X162471595Y-85976106D01*
X162472005Y-85505957D01*
X162292466Y-85071439D01*
X161960310Y-84738703D01*
X161526106Y-84558405D01*
X161055957Y-84557995D01*
X160621439Y-84737534D01*
X160288703Y-85069690D01*
X160108405Y-85503894D01*
X160107995Y-85974043D01*
X160287534Y-86408561D01*
X160394769Y-86515983D01*
X160256106Y-86458405D01*
X159785957Y-86457995D01*
X159645315Y-86516107D01*
X159751297Y-86410310D01*
X159931595Y-85976106D01*
X159932005Y-85505957D01*
X159752466Y-85071439D01*
X159420310Y-84738703D01*
X158986106Y-84558405D01*
X158515957Y-84557995D01*
X158081439Y-84737534D01*
X157748703Y-85069690D01*
X157568405Y-85503894D01*
X157567995Y-85974043D01*
X157747534Y-86408561D01*
X157854769Y-86515983D01*
X157716106Y-86458405D01*
X157245957Y-86457995D01*
X157105315Y-86516107D01*
X157211297Y-86410310D01*
X157391595Y-85976106D01*
X157392005Y-85505957D01*
X157212466Y-85071439D01*
X156880310Y-84738703D01*
X156446106Y-84558405D01*
X155975957Y-84557995D01*
X155541439Y-84737534D01*
X155208703Y-85069690D01*
X155028405Y-85503894D01*
X155027995Y-85974043D01*
X155207534Y-86408561D01*
X155314769Y-86515983D01*
X155176106Y-86458405D01*
X154705957Y-86457995D01*
X154565315Y-86516107D01*
X154671297Y-86410310D01*
X154851595Y-85976106D01*
X154852005Y-85505957D01*
X154672466Y-85071439D01*
X154340310Y-84738703D01*
X153906106Y-84558405D01*
X153435957Y-84557995D01*
X153001439Y-84737534D01*
X152668703Y-85069690D01*
X152488405Y-85503894D01*
X152487995Y-85974043D01*
X152667534Y-86408561D01*
X152774769Y-86515983D01*
X152636106Y-86458405D01*
X152165957Y-86457995D01*
X152025315Y-86516107D01*
X152131297Y-86410310D01*
X152311595Y-85976106D01*
X152312005Y-85505957D01*
X152132466Y-85071439D01*
X151800310Y-84738703D01*
X151366106Y-84558405D01*
X150895957Y-84557995D01*
X150461439Y-84737534D01*
X150128703Y-85069690D01*
X149948405Y-85503894D01*
X149947995Y-85974043D01*
X150127534Y-86408561D01*
X150234769Y-86515983D01*
X150096106Y-86458405D01*
X149625957Y-86457995D01*
X149485315Y-86516107D01*
X149591297Y-86410310D01*
X149771595Y-85976106D01*
X149772005Y-85505957D01*
X149592466Y-85071439D01*
X149260310Y-84738703D01*
X148826106Y-84558405D01*
X148355957Y-84557995D01*
X147921439Y-84737534D01*
X147588703Y-85069690D01*
X147408405Y-85503894D01*
X147407995Y-85974043D01*
X147587534Y-86408561D01*
X147694769Y-86515983D01*
X147556106Y-86458405D01*
X147085957Y-86457995D01*
X146945315Y-86516107D01*
X147051297Y-86410310D01*
X147231595Y-85976106D01*
X147232005Y-85505957D01*
X147052466Y-85071439D01*
X146720310Y-84738703D01*
X146286106Y-84558405D01*
X145815957Y-84557995D01*
X145381439Y-84737534D01*
X145048703Y-85069690D01*
X144868405Y-85503894D01*
X144867995Y-85974043D01*
X145047534Y-86408561D01*
X145154769Y-86515983D01*
X145016106Y-86458405D01*
X144545957Y-86457995D01*
X144405315Y-86516107D01*
X144511297Y-86410310D01*
X144691595Y-85976106D01*
X144692005Y-85505957D01*
X144512466Y-85071439D01*
X144180310Y-84738703D01*
X143746106Y-84558405D01*
X143275957Y-84557995D01*
X142841439Y-84737534D01*
X142508703Y-85069690D01*
X142328405Y-85503894D01*
X142327995Y-85974043D01*
X142507534Y-86408561D01*
X142614769Y-86515983D01*
X142476106Y-86458405D01*
X142005957Y-86457995D01*
X141865315Y-86516107D01*
X141971297Y-86410310D01*
X142151595Y-85976106D01*
X142152005Y-85505957D01*
X141972466Y-85071439D01*
X141640310Y-84738703D01*
X141206106Y-84558405D01*
X140735957Y-84557995D01*
X140301439Y-84737534D01*
X139968703Y-85069690D01*
X139788405Y-85503894D01*
X139787995Y-85974043D01*
X139967534Y-86408561D01*
X140074769Y-86515983D01*
X139936106Y-86458405D01*
X139465957Y-86457995D01*
X139325315Y-86516107D01*
X139431297Y-86410310D01*
X139611595Y-85976106D01*
X139612005Y-85505957D01*
X139432466Y-85071439D01*
X139100310Y-84738703D01*
X138666106Y-84558405D01*
X138195957Y-84557995D01*
X137761439Y-84737534D01*
X137428703Y-85069690D01*
X137248405Y-85503894D01*
X137247995Y-85974043D01*
X137427534Y-86408561D01*
X137534769Y-86515983D01*
X137396106Y-86458405D01*
X136925957Y-86457995D01*
X136785315Y-86516107D01*
X136891297Y-86410310D01*
X137071595Y-85976106D01*
X137072005Y-85505957D01*
X136892466Y-85071439D01*
X136560310Y-84738703D01*
X136126106Y-84558405D01*
X135655957Y-84557995D01*
X135221439Y-84737534D01*
X134888703Y-85069690D01*
X134708405Y-85503894D01*
X134707995Y-85974043D01*
X134887534Y-86408561D01*
X134994769Y-86515983D01*
X134856106Y-86458405D01*
X134385957Y-86457995D01*
X134245315Y-86516107D01*
X134351297Y-86410310D01*
X134531595Y-85976106D01*
X134532005Y-85505957D01*
X134352466Y-85071439D01*
X134020310Y-84738703D01*
X133586106Y-84558405D01*
X133115957Y-84557995D01*
X132681439Y-84737534D01*
X132348703Y-85069690D01*
X132168405Y-85503894D01*
X132167995Y-85974043D01*
X132347534Y-86408561D01*
X132454769Y-86515983D01*
X132316106Y-86458405D01*
X131845957Y-86457995D01*
X131705315Y-86516107D01*
X131811297Y-86410310D01*
X131991595Y-85976106D01*
X131992005Y-85505957D01*
X131812466Y-85071439D01*
X131480310Y-84738703D01*
X131046106Y-84558405D01*
X130575957Y-84557995D01*
X130141439Y-84737534D01*
X129808703Y-85069690D01*
X129628405Y-85503894D01*
X129627995Y-85974043D01*
X129807534Y-86408561D01*
X129914769Y-86515983D01*
X129776106Y-86458405D01*
X129305957Y-86457995D01*
X129165315Y-86516107D01*
X129271297Y-86410310D01*
X129451595Y-85976106D01*
X129452005Y-85505957D01*
X129272466Y-85071439D01*
X128940310Y-84738703D01*
X128506106Y-84558405D01*
X128035957Y-84557995D01*
X127601439Y-84737534D01*
X127268703Y-85069690D01*
X127088405Y-85503894D01*
X127087995Y-85974043D01*
X127267534Y-86408561D01*
X127374769Y-86515983D01*
X127236106Y-86458405D01*
X126765957Y-86457995D01*
X126625315Y-86516107D01*
X126731297Y-86410310D01*
X126911595Y-85976106D01*
X126912005Y-85505957D01*
X126732466Y-85071439D01*
X126400310Y-84738703D01*
X125966106Y-84558405D01*
X125495957Y-84557995D01*
X125061439Y-84737534D01*
X124728703Y-85069690D01*
X124548405Y-85503894D01*
X124547995Y-85974043D01*
X124727534Y-86408561D01*
X124834769Y-86515983D01*
X124696106Y-86458405D01*
X124225957Y-86457995D01*
X124085315Y-86516107D01*
X124191297Y-86410310D01*
X124371595Y-85976106D01*
X124372005Y-85505957D01*
X124192466Y-85071439D01*
X123860310Y-84738703D01*
X123426106Y-84558405D01*
X122955957Y-84557995D01*
X122521439Y-84737534D01*
X122188703Y-85069690D01*
X122008405Y-85503894D01*
X122007995Y-85974043D01*
X122187534Y-86408561D01*
X122519690Y-86741297D01*
X122953894Y-86921595D01*
X123424043Y-86922005D01*
X123564685Y-86863893D01*
X123458703Y-86969690D01*
X123278405Y-87403894D01*
X123277995Y-87874043D01*
X123457534Y-88308561D01*
X123564769Y-88415983D01*
X123426106Y-88358405D01*
X122955957Y-88357995D01*
X122521439Y-88537534D01*
X122188703Y-88869690D01*
X122008405Y-89303894D01*
X122007995Y-89774043D01*
X122187534Y-90208561D01*
X122519690Y-90541297D01*
X122953894Y-90721595D01*
X123424043Y-90722005D01*
X123564685Y-90663893D01*
X123458703Y-90769690D01*
X123278405Y-91203894D01*
X123277995Y-91674043D01*
X123324930Y-91787636D01*
X122161283Y-92951283D01*
X122040584Y-93131922D01*
X121998200Y-93345000D01*
X121998200Y-96105489D01*
X121876309Y-96055000D01*
X120935750Y-96055000D01*
X120777000Y-96213750D01*
X120777000Y-97663000D01*
X120797000Y-97663000D01*
X120797000Y-97917000D01*
X120777000Y-97917000D01*
X120777000Y-99366250D01*
X120935750Y-99525000D01*
X121876309Y-99525000D01*
X121998200Y-99474511D01*
X121998200Y-100541654D01*
X121949354Y-100423438D01*
X121518828Y-99992160D01*
X120956031Y-99758466D01*
X120346643Y-99757934D01*
X119783438Y-99990646D01*
X119352160Y-100421172D01*
X119251800Y-100662865D01*
X119251800Y-99453800D01*
X119423691Y-99525000D01*
X120364250Y-99525000D01*
X120523000Y-99366250D01*
X120523000Y-97917000D01*
X120503000Y-97917000D01*
X120503000Y-97663000D01*
X120523000Y-97663000D01*
X120523000Y-96213750D01*
X120364250Y-96055000D01*
X119423691Y-96055000D01*
X119251800Y-96126200D01*
X119251800Y-86409916D01*
X119415741Y-85585728D01*
X119854332Y-84929332D01*
X120510728Y-84490741D01*
X121334916Y-84326800D01*
X183465084Y-84326800D01*
X184289272Y-84490741D01*
X184289272Y-84490741D01*
G37*
X184289272Y-84490741D02*
X184945668Y-84929332D01*
X185384259Y-85585728D01*
X185548200Y-86409916D01*
X185548200Y-126950084D01*
X185384259Y-127774272D01*
X184945668Y-128430668D01*
X184289272Y-128869259D01*
X183465084Y-129033200D01*
X176540160Y-129033200D01*
X176708782Y-128954522D01*
X176993737Y-128218045D01*
X176975164Y-127428582D01*
X176708782Y-126785478D01*
X176405593Y-126644012D01*
X175179605Y-127870000D01*
X175193748Y-127884143D01*
X175014143Y-128063748D01*
X175000000Y-128049605D01*
X174985858Y-128063748D01*
X174806253Y-127884143D01*
X174820395Y-127870000D01*
X173594407Y-126644012D01*
X173291218Y-126785478D01*
X173006263Y-127521955D01*
X173024836Y-128311418D01*
X173291218Y-128954522D01*
X173459840Y-129033200D01*
X126340160Y-129033200D01*
X126508782Y-128954522D01*
X126793737Y-128218045D01*
X126775164Y-127428582D01*
X126508782Y-126785478D01*
X126205593Y-126644012D01*
X124979605Y-127870000D01*
X124993748Y-127884143D01*
X124814143Y-128063748D01*
X124800000Y-128049605D01*
X124785858Y-128063748D01*
X124606253Y-127884143D01*
X124620395Y-127870000D01*
X123394407Y-126644012D01*
X123091218Y-126785478D01*
X122806263Y-127521955D01*
X122824836Y-128311418D01*
X123091218Y-128954522D01*
X123259840Y-129033200D01*
X121334916Y-129033200D01*
X120510728Y-128869259D01*
X119854332Y-128430668D01*
X119415741Y-127774272D01*
X119251800Y-126950084D01*
X119251800Y-126047337D01*
X119350646Y-126286562D01*
X119781172Y-126717840D01*
X120343969Y-126951534D01*
X120953357Y-126952066D01*
X121516562Y-126719354D01*
X121771954Y-126464407D01*
X123574012Y-126464407D01*
X124800000Y-127690395D01*
X126025988Y-126464407D01*
X173774012Y-126464407D01*
X175000000Y-127690395D01*
X176225988Y-126464407D01*
X176084522Y-126161218D01*
X175348045Y-125876263D01*
X174558582Y-125894836D01*
X173915478Y-126161218D01*
X173774012Y-126464407D01*
X126025988Y-126464407D01*
X125884522Y-126161218D01*
X125148045Y-125876263D01*
X124358582Y-125894836D01*
X123715478Y-126161218D01*
X123574012Y-126464407D01*
X121771954Y-126464407D01*
X121947840Y-126288828D01*
X122181534Y-125726031D01*
X122182066Y-125116643D01*
X121949354Y-124553438D01*
X121518828Y-124122160D01*
X120956031Y-123888466D01*
X120346643Y-123887934D01*
X119783438Y-124120646D01*
X119352160Y-124551172D01*
X119251800Y-124792865D01*
X119251800Y-123583800D01*
X119423691Y-123655000D01*
X120364250Y-123655000D01*
X120523000Y-123496250D01*
X120523000Y-122047000D01*
X120777000Y-122047000D01*
X120777000Y-123496250D01*
X120935750Y-123655000D01*
X121876309Y-123655000D01*
X122109698Y-123558327D01*
X122288327Y-123379699D01*
X122385000Y-123146310D01*
X122385000Y-122205750D01*
X122226250Y-122047000D01*
X120777000Y-122047000D01*
X120523000Y-122047000D01*
X120503000Y-122047000D01*
X120503000Y-121793000D01*
X120523000Y-121793000D01*
X120523000Y-120343750D01*
X120777000Y-120343750D01*
X120777000Y-121793000D01*
X122226250Y-121793000D01*
X122385000Y-121634250D01*
X122385000Y-120875593D01*
X124774012Y-120875593D01*
X124915478Y-121178782D01*
X125651955Y-121463737D01*
X126441418Y-121445164D01*
X127084522Y-121178782D01*
X127225988Y-120875593D01*
X126000000Y-119649605D01*
X124774012Y-120875593D01*
X122385000Y-120875593D01*
X122385000Y-120693690D01*
X122288327Y-120460301D01*
X122109698Y-120281673D01*
X121876309Y-120185000D01*
X120935750Y-120185000D01*
X120777000Y-120343750D01*
X120523000Y-120343750D01*
X120364250Y-120185000D01*
X119423691Y-120185000D01*
X119251800Y-120256200D01*
X119251800Y-119121955D01*
X124006263Y-119121955D01*
X124024836Y-119911418D01*
X124291218Y-120554522D01*
X124594407Y-120695988D01*
X125820395Y-119470000D01*
X126179605Y-119470000D01*
X127405593Y-120695988D01*
X127708782Y-120554522D01*
X127993737Y-119818045D01*
X127975164Y-119028582D01*
X127708782Y-118385478D01*
X127405593Y-118244012D01*
X126179605Y-119470000D01*
X125820395Y-119470000D01*
X124594407Y-118244012D01*
X124291218Y-118385478D01*
X124006263Y-119121955D01*
X119251800Y-119121955D01*
X119251800Y-118064407D01*
X124774012Y-118064407D01*
X126000000Y-119290395D01*
X127225988Y-118064407D01*
X127084522Y-117761218D01*
X126348045Y-117476263D01*
X125558582Y-117494836D01*
X124915478Y-117761218D01*
X124774012Y-118064407D01*
X119251800Y-118064407D01*
X119251800Y-115545868D01*
X120053200Y-115545868D01*
X120053200Y-115594132D01*
X120146965Y-116065521D01*
X120413986Y-116465146D01*
X120813611Y-116732167D01*
X121285000Y-116825932D01*
X121756389Y-116732167D01*
X122156014Y-116465146D01*
X122423035Y-116065521D01*
X122446524Y-115947434D01*
X122672611Y-116425134D01*
X123087577Y-116801041D01*
X123475961Y-116961904D01*
X123698000Y-116839915D01*
X123698000Y-115697000D01*
X123952000Y-115697000D01*
X123952000Y-116839915D01*
X124174039Y-116961904D01*
X124562423Y-116801041D01*
X124977389Y-116425134D01*
X125095000Y-116176633D01*
X125212611Y-116425134D01*
X125627577Y-116801041D01*
X126015961Y-116961904D01*
X126238000Y-116839915D01*
X126238000Y-115697000D01*
X123952000Y-115697000D01*
X123698000Y-115697000D01*
X123678000Y-115697000D01*
X123678000Y-115443000D01*
X123698000Y-115443000D01*
X123698000Y-114300085D01*
X123952000Y-114300085D01*
X123952000Y-115443000D01*
X126238000Y-115443000D01*
X126238000Y-114300085D01*
X126492000Y-114300085D01*
X126492000Y-115443000D01*
X126512000Y-115443000D01*
X126512000Y-115697000D01*
X126492000Y-115697000D01*
X126492000Y-116839915D01*
X126714039Y-116961904D01*
X127102423Y-116801041D01*
X127517389Y-116425134D01*
X127743476Y-115947434D01*
X127766965Y-116065521D01*
X128033986Y-116465146D01*
X128433611Y-116732167D01*
X128905000Y-116825932D01*
X129376389Y-116732167D01*
X129776014Y-116465146D01*
X130043035Y-116065521D01*
X130066524Y-115947434D01*
X130292611Y-116425134D01*
X130707577Y-116801041D01*
X131095961Y-116961904D01*
X131318000Y-116839915D01*
X131318000Y-115697000D01*
X131298000Y-115697000D01*
X131298000Y-115443000D01*
X131318000Y-115443000D01*
X131318000Y-114300085D01*
X131095961Y-114178096D01*
X130707577Y-114338959D01*
X130292611Y-114714866D01*
X130066524Y-115192566D01*
X130043035Y-115074479D01*
X129776014Y-114674854D01*
X129376389Y-114407833D01*
X128905000Y-114314068D01*
X128433611Y-114407833D01*
X128033986Y-114674854D01*
X127766965Y-115074479D01*
X127743476Y-115192566D01*
X127517389Y-114714866D01*
X127102423Y-114338959D01*
X126714039Y-114178096D01*
X126492000Y-114300085D01*
X126238000Y-114300085D01*
X126015961Y-114178096D01*
X125627577Y-114338959D01*
X125212611Y-114714866D01*
X125095000Y-114963367D01*
X124977389Y-114714866D01*
X124562423Y-114338959D01*
X124174039Y-114178096D01*
X123952000Y-114300085D01*
X123698000Y-114300085D01*
X123475961Y-114178096D01*
X123087577Y-114338959D01*
X122672611Y-114714866D01*
X122446524Y-115192566D01*
X122423035Y-115074479D01*
X122156014Y-114674854D01*
X121756389Y-114407833D01*
X121285000Y-114314068D01*
X120813611Y-114407833D01*
X120413986Y-114674854D01*
X120146965Y-115074479D01*
X120053200Y-115545868D01*
X119251800Y-115545868D01*
X119251800Y-108299041D01*
X119893086Y-108299041D01*
X120132611Y-108805134D01*
X120547577Y-109181041D01*
X120935961Y-109341904D01*
X121158000Y-109219915D01*
X121158000Y-108077000D01*
X120014371Y-108077000D01*
X119893086Y-108299041D01*
X119251800Y-108299041D01*
X119251800Y-107600959D01*
X119893086Y-107600959D01*
X120014371Y-107823000D01*
X121158000Y-107823000D01*
X121158000Y-106680085D01*
X120935961Y-106558096D01*
X120547577Y-106718959D01*
X120132611Y-107094866D01*
X119893086Y-107600959D01*
X119251800Y-107600959D01*
X119251800Y-101917337D01*
X119350646Y-102156562D01*
X119781172Y-102587840D01*
X120343969Y-102821534D01*
X120953357Y-102822066D01*
X121516562Y-102589354D01*
X121947840Y-102158828D01*
X121998200Y-102037548D01*
X121998200Y-106708926D01*
X121634039Y-106558096D01*
X121412000Y-106680085D01*
X121412000Y-107823000D01*
X121432000Y-107823000D01*
X121432000Y-108077000D01*
X121412000Y-108077000D01*
X121412000Y-109219915D01*
X121634039Y-109341904D01*
X121998200Y-109191074D01*
X121998200Y-111281809D01*
X121934972Y-111344927D01*
X121823327Y-111613797D01*
X121823073Y-111904925D01*
X121934248Y-112173990D01*
X122139927Y-112380028D01*
X122408797Y-112491673D01*
X122699925Y-112491927D01*
X122968990Y-112380752D01*
X123175028Y-112175073D01*
X123286673Y-111906203D01*
X123286927Y-111615075D01*
X123175752Y-111346010D01*
X123111800Y-111281946D01*
X123111800Y-108950594D01*
X123353611Y-109112167D01*
X123825000Y-109205932D01*
X124296389Y-109112167D01*
X124696014Y-108845146D01*
X124963035Y-108445521D01*
X124986524Y-108327434D01*
X125212611Y-108805134D01*
X125627577Y-109181041D01*
X126015961Y-109341904D01*
X126238000Y-109219915D01*
X126238000Y-108077000D01*
X126492000Y-108077000D01*
X126492000Y-109219915D01*
X126714039Y-109341904D01*
X127102423Y-109181041D01*
X127517389Y-108805134D01*
X127635000Y-108556633D01*
X127752611Y-108805134D01*
X128167577Y-109181041D01*
X128555961Y-109341904D01*
X128778000Y-109219915D01*
X128778000Y-108077000D01*
X126492000Y-108077000D01*
X126238000Y-108077000D01*
X126218000Y-108077000D01*
X126218000Y-107823000D01*
X126238000Y-107823000D01*
X126238000Y-106680085D01*
X126492000Y-106680085D01*
X126492000Y-107823000D01*
X128778000Y-107823000D01*
X128778000Y-106680085D01*
X129032000Y-106680085D01*
X129032000Y-107823000D01*
X129052000Y-107823000D01*
X129052000Y-108077000D01*
X129032000Y-108077000D01*
X129032000Y-109219915D01*
X129254039Y-109341904D01*
X129642423Y-109181041D01*
X130057389Y-108805134D01*
X130283476Y-108327434D01*
X130306965Y-108445521D01*
X130573986Y-108845146D01*
X130973611Y-109112167D01*
X131445000Y-109205932D01*
X131835769Y-109128203D01*
X132158200Y-109450634D01*
X132158200Y-114328926D01*
X131794039Y-114178096D01*
X131572000Y-114300085D01*
X131572000Y-115443000D01*
X131592000Y-115443000D01*
X131592000Y-115697000D01*
X131572000Y-115697000D01*
X131572000Y-116839915D01*
X131794039Y-116961904D01*
X132158200Y-116811074D01*
X132158200Y-124616809D01*
X132094972Y-124679927D01*
X131983327Y-124948797D01*
X131983073Y-125239925D01*
X132094248Y-125508990D01*
X132299927Y-125715028D01*
X132568797Y-125826673D01*
X132859925Y-125826927D01*
X133128990Y-125715752D01*
X133335028Y-125510073D01*
X133446673Y-125241203D01*
X133446927Y-124950075D01*
X133335752Y-124681010D01*
X133271800Y-124616946D01*
X133271800Y-117132745D01*
X143951861Y-117132745D01*
X144025995Y-117378864D01*
X144563223Y-117571965D01*
X145133454Y-117544778D01*
X145534005Y-117378864D01*
X145608139Y-117132745D01*
X144780000Y-116304605D01*
X143951861Y-117132745D01*
X133271800Y-117132745D01*
X133271800Y-116811074D01*
X133635961Y-116961904D01*
X133858000Y-116839915D01*
X133858000Y-115697000D01*
X133838000Y-115697000D01*
X133838000Y-115443000D01*
X133858000Y-115443000D01*
X133858000Y-114300085D01*
X134112000Y-114300085D01*
X134112000Y-115443000D01*
X134132000Y-115443000D01*
X134132000Y-115697000D01*
X134112000Y-115697000D01*
X134112000Y-116839915D01*
X134334039Y-116961904D01*
X134722423Y-116801041D01*
X135137389Y-116425134D01*
X135363476Y-115947434D01*
X135386965Y-116065521D01*
X135653986Y-116465146D01*
X136053611Y-116732167D01*
X136525000Y-116825932D01*
X136996389Y-116732167D01*
X137396014Y-116465146D01*
X137663035Y-116065521D01*
X137694323Y-115908223D01*
X143333035Y-115908223D01*
X143360222Y-116478454D01*
X143526136Y-116879005D01*
X143772255Y-116953139D01*
X144600395Y-116125000D01*
X144959605Y-116125000D01*
X145787745Y-116953139D01*
X146033864Y-116879005D01*
X146226965Y-116341777D01*
X146199778Y-115771546D01*
X146033864Y-115370995D01*
X145787745Y-115296861D01*
X144959605Y-116125000D01*
X144600395Y-116125000D01*
X143772255Y-115296861D01*
X143526136Y-115370995D01*
X143333035Y-115908223D01*
X137694323Y-115908223D01*
X137756800Y-115594132D01*
X137756800Y-115545868D01*
X137663035Y-115074479D01*
X137396014Y-114674854D01*
X137200095Y-114543945D01*
X139102987Y-114543945D01*
X139290122Y-114996847D01*
X139636331Y-115343660D01*
X140088905Y-115531585D01*
X140578945Y-115532013D01*
X141031847Y-115344878D01*
X141259867Y-115117255D01*
X143951861Y-115117255D01*
X144780000Y-115945395D01*
X145608139Y-115117255D01*
X145534005Y-114871136D01*
X144996777Y-114678035D01*
X144426546Y-114705222D01*
X144025995Y-114871136D01*
X143951861Y-115117255D01*
X141259867Y-115117255D01*
X141378660Y-114998669D01*
X141566585Y-114546095D01*
X141567013Y-114056055D01*
X141379878Y-113603153D01*
X141033669Y-113256340D01*
X140581095Y-113068415D01*
X140091055Y-113067987D01*
X139638153Y-113255122D01*
X139291340Y-113601331D01*
X139103415Y-114053905D01*
X139102987Y-114543945D01*
X137200095Y-114543945D01*
X136996389Y-114407833D01*
X136525000Y-114314068D01*
X136053611Y-114407833D01*
X135653986Y-114674854D01*
X135386965Y-115074479D01*
X135363476Y-115192566D01*
X135137389Y-114714866D01*
X134722423Y-114338959D01*
X134334039Y-114178096D01*
X134112000Y-114300085D01*
X133858000Y-114300085D01*
X133635961Y-114178096D01*
X133271800Y-114328926D01*
X133271800Y-111950248D01*
X133364248Y-112173990D01*
X133569927Y-112380028D01*
X133838797Y-112491673D01*
X134129925Y-112491927D01*
X134398990Y-112380752D01*
X134605028Y-112175073D01*
X134716673Y-111906203D01*
X134716927Y-111615075D01*
X134605752Y-111346010D01*
X134541800Y-111281946D01*
X134541800Y-110307745D01*
X139506861Y-110307745D01*
X139580995Y-110553864D01*
X140118223Y-110746965D01*
X140688454Y-110719778D01*
X141089005Y-110553864D01*
X141163139Y-110307745D01*
X140335000Y-109479605D01*
X139506861Y-110307745D01*
X134541800Y-110307745D01*
X134541800Y-109055097D01*
X134856014Y-108845146D01*
X135090000Y-108494961D01*
X135090000Y-108876309D01*
X135186673Y-109109698D01*
X135365301Y-109288327D01*
X135598690Y-109385000D01*
X136239250Y-109385000D01*
X136398000Y-109226250D01*
X136398000Y-108077000D01*
X136652000Y-108077000D01*
X136652000Y-109226250D01*
X136810750Y-109385000D01*
X137451310Y-109385000D01*
X137684699Y-109288327D01*
X137863327Y-109109698D01*
X137874293Y-109083223D01*
X138888035Y-109083223D01*
X138915222Y-109653454D01*
X139081136Y-110054005D01*
X139327255Y-110128139D01*
X140155395Y-109300000D01*
X140514605Y-109300000D01*
X141342745Y-110128139D01*
X141588864Y-110054005D01*
X141781965Y-109516777D01*
X141754778Y-108946546D01*
X141588864Y-108545995D01*
X141342745Y-108471861D01*
X140514605Y-109300000D01*
X140155395Y-109300000D01*
X139327255Y-108471861D01*
X139081136Y-108545995D01*
X138888035Y-109083223D01*
X137874293Y-109083223D01*
X137960000Y-108876309D01*
X137960000Y-108292255D01*
X139506861Y-108292255D01*
X140335000Y-109120395D01*
X141163139Y-108292255D01*
X141089005Y-108046136D01*
X140551777Y-107853035D01*
X139981546Y-107880222D01*
X139580995Y-108046136D01*
X139506861Y-108292255D01*
X137960000Y-108292255D01*
X137960000Y-108235750D01*
X137801250Y-108077000D01*
X136652000Y-108077000D01*
X136398000Y-108077000D01*
X136378000Y-108077000D01*
X136378000Y-107823000D01*
X136398000Y-107823000D01*
X136398000Y-106673750D01*
X136652000Y-106673750D01*
X136652000Y-107823000D01*
X137801250Y-107823000D01*
X137960000Y-107664250D01*
X137960000Y-107315000D01*
X143116231Y-107315000D01*
X143240444Y-107939463D01*
X143594174Y-108468857D01*
X144094200Y-108802964D01*
X144094200Y-110075557D01*
X144083153Y-110080122D01*
X143736340Y-110426331D01*
X143548415Y-110878905D01*
X143547987Y-111368945D01*
X143735122Y-111821847D01*
X144081331Y-112168660D01*
X144533905Y-112356585D01*
X145023945Y-112357013D01*
X145476847Y-112169878D01*
X145823660Y-111823669D01*
X146011585Y-111371095D01*
X146012013Y-110881055D01*
X145824878Y-110428153D01*
X145478669Y-110081340D01*
X145465800Y-110075996D01*
X145465800Y-108802964D01*
X145965826Y-108468857D01*
X146319556Y-107939463D01*
X146443769Y-107315000D01*
X146319556Y-106690537D01*
X145965826Y-106161143D01*
X145436432Y-105807413D01*
X144811969Y-105683200D01*
X144748031Y-105683200D01*
X144123568Y-105807413D01*
X143594174Y-106161143D01*
X143240444Y-106690537D01*
X143116231Y-107315000D01*
X137960000Y-107315000D01*
X137960000Y-107023691D01*
X137863327Y-106790302D01*
X137684699Y-106611673D01*
X137451310Y-106515000D01*
X136810750Y-106515000D01*
X136652000Y-106673750D01*
X136398000Y-106673750D01*
X136239250Y-106515000D01*
X135598690Y-106515000D01*
X135365301Y-106611673D01*
X135186673Y-106790302D01*
X135090000Y-107023691D01*
X135090000Y-107405039D01*
X134856014Y-107054854D01*
X134456389Y-106787833D01*
X133985000Y-106694068D01*
X133513611Y-106787833D01*
X133113986Y-107054854D01*
X132846965Y-107454479D01*
X132753200Y-107925868D01*
X132753200Y-107974132D01*
X132846965Y-108445521D01*
X133086612Y-108804178D01*
X132607079Y-108324645D01*
X132676800Y-107974132D01*
X132676800Y-107925868D01*
X132583035Y-107454479D01*
X132316014Y-107054854D01*
X131916389Y-106787833D01*
X131445000Y-106694068D01*
X130973611Y-106787833D01*
X130573986Y-107054854D01*
X130306965Y-107454479D01*
X130283476Y-107572566D01*
X130057389Y-107094866D01*
X129642423Y-106718959D01*
X129254039Y-106558096D01*
X129032000Y-106680085D01*
X128778000Y-106680085D01*
X128555961Y-106558096D01*
X128167577Y-106718959D01*
X127752611Y-107094866D01*
X127635000Y-107343367D01*
X127517389Y-107094866D01*
X127102423Y-106718959D01*
X126714039Y-106558096D01*
X126492000Y-106680085D01*
X126238000Y-106680085D01*
X126015961Y-106558096D01*
X125627577Y-106718959D01*
X125212611Y-107094866D01*
X124986524Y-107572566D01*
X124963035Y-107454479D01*
X124696014Y-107054854D01*
X124296389Y-106787833D01*
X123825000Y-106694068D01*
X123353611Y-106787833D01*
X123111800Y-106949406D01*
X123111800Y-105145593D01*
X123574012Y-105145593D01*
X123715478Y-105448782D01*
X124451955Y-105733737D01*
X125241418Y-105715164D01*
X125884522Y-105448782D01*
X126025988Y-105145593D01*
X124800000Y-103919605D01*
X123574012Y-105145593D01*
X123111800Y-105145593D01*
X123111800Y-104834125D01*
X123394407Y-104965988D01*
X124620395Y-103740000D01*
X124979605Y-103740000D01*
X126205593Y-104965988D01*
X126508782Y-104824522D01*
X126793737Y-104088045D01*
X126775164Y-103298582D01*
X126508782Y-102655478D01*
X126205593Y-102514012D01*
X124979605Y-103740000D01*
X124620395Y-103740000D01*
X123394407Y-102514012D01*
X123111800Y-102645875D01*
X123111800Y-102334407D01*
X123574012Y-102334407D01*
X124800000Y-103560395D01*
X126025988Y-102334407D01*
X125884522Y-102031218D01*
X125148045Y-101746263D01*
X124358582Y-101764836D01*
X123715478Y-102031218D01*
X123574012Y-102334407D01*
X123111800Y-102334407D01*
X123111800Y-96745593D01*
X124774012Y-96745593D01*
X124915478Y-97048782D01*
X125651955Y-97333737D01*
X126441418Y-97315164D01*
X127084522Y-97048782D01*
X127225988Y-96745593D01*
X126000000Y-95519605D01*
X124774012Y-96745593D01*
X123111800Y-96745593D01*
X123111800Y-94991955D01*
X124006263Y-94991955D01*
X124024836Y-95781418D01*
X124291218Y-96424522D01*
X124594407Y-96565988D01*
X125820395Y-95340000D01*
X126179605Y-95340000D01*
X127405593Y-96565988D01*
X127708782Y-96424522D01*
X127993737Y-95688045D01*
X127975164Y-94898582D01*
X127708782Y-94255478D01*
X127405593Y-94114012D01*
X126179605Y-95340000D01*
X125820395Y-95340000D01*
X124594407Y-94114012D01*
X124291218Y-94255478D01*
X124006263Y-94991955D01*
X123111800Y-94991955D01*
X123111800Y-93934407D01*
X124774012Y-93934407D01*
X126000000Y-95160395D01*
X127225988Y-93934407D01*
X127084522Y-93631218D01*
X126348045Y-93346263D01*
X125558582Y-93364836D01*
X124915478Y-93631218D01*
X124774012Y-93934407D01*
X123111800Y-93934407D01*
X123111800Y-93575634D01*
X124112213Y-92575221D01*
X124223894Y-92621595D01*
X124694043Y-92622005D01*
X125128561Y-92442466D01*
X125461297Y-92110310D01*
X125641595Y-91676106D01*
X125642005Y-91205957D01*
X125462466Y-90771439D01*
X125374307Y-90683127D01*
X125382213Y-90675221D01*
X125493894Y-90721595D01*
X125964043Y-90722005D01*
X126104685Y-90663893D01*
X125998703Y-90769690D01*
X125818405Y-91203894D01*
X125817995Y-91674043D01*
X125997534Y-92108561D01*
X126329690Y-92441297D01*
X126763894Y-92621595D01*
X127234043Y-92622005D01*
X127668561Y-92442466D01*
X128001297Y-92110310D01*
X128181595Y-91676106D01*
X128182005Y-91205957D01*
X128002466Y-90771439D01*
X127914307Y-90683127D01*
X127922213Y-90675221D01*
X128033894Y-90721595D01*
X128504043Y-90722005D01*
X128644685Y-90663893D01*
X128538703Y-90769690D01*
X128358405Y-91203894D01*
X128357995Y-91674043D01*
X128537534Y-92108561D01*
X128869690Y-92441297D01*
X129303894Y-92621595D01*
X129774043Y-92622005D01*
X130208561Y-92442466D01*
X130541297Y-92110310D01*
X130721595Y-91676106D01*
X130722005Y-91205957D01*
X130542466Y-90771439D01*
X130435231Y-90664017D01*
X130573894Y-90721595D01*
X131044043Y-90722005D01*
X131184685Y-90663893D01*
X131078703Y-90769690D01*
X130898405Y-91203894D01*
X130897995Y-91674043D01*
X131077534Y-92108561D01*
X131409690Y-92441297D01*
X131843894Y-92621595D01*
X132314043Y-92622005D01*
X132748561Y-92442466D01*
X133081297Y-92110310D01*
X133261595Y-91676106D01*
X133262005Y-91205957D01*
X133082466Y-90771439D01*
X132975231Y-90664017D01*
X133113894Y-90721595D01*
X133584043Y-90722005D01*
X133724685Y-90663893D01*
X133618703Y-90769690D01*
X133438405Y-91203894D01*
X133437995Y-91674043D01*
X133617534Y-92108561D01*
X133949690Y-92441297D01*
X134063200Y-92488431D01*
X134063200Y-100486809D01*
X133999972Y-100549927D01*
X133888327Y-100818797D01*
X133888073Y-101109925D01*
X133999248Y-101378990D01*
X134204927Y-101585028D01*
X134473797Y-101696673D01*
X134764925Y-101696927D01*
X135033990Y-101585752D01*
X135240028Y-101380073D01*
X135351673Y-101111203D01*
X135351927Y-100820075D01*
X135240752Y-100551010D01*
X135176800Y-100486946D01*
X135176800Y-92488645D01*
X135288561Y-92442466D01*
X135621297Y-92110310D01*
X135801595Y-91676106D01*
X135802005Y-91205957D01*
X135622466Y-90771439D01*
X135534307Y-90683127D01*
X135542213Y-90675221D01*
X135653894Y-90721595D01*
X136124043Y-90722005D01*
X136264685Y-90663893D01*
X136158703Y-90769690D01*
X135978405Y-91203894D01*
X135977995Y-91674043D01*
X136157534Y-92108561D01*
X136489690Y-92441297D01*
X136923894Y-92621595D01*
X137394043Y-92622005D01*
X137828561Y-92442466D01*
X138161297Y-92110310D01*
X138341595Y-91676106D01*
X138342005Y-91205957D01*
X138162466Y-90771439D01*
X138074307Y-90683127D01*
X138082213Y-90675221D01*
X138193894Y-90721595D01*
X138664043Y-90722005D01*
X138804685Y-90663893D01*
X138698703Y-90769690D01*
X138518405Y-91203894D01*
X138517995Y-91674043D01*
X138697534Y-92108561D01*
X139029690Y-92441297D01*
X139463894Y-92621595D01*
X139934043Y-92622005D01*
X140368561Y-92442466D01*
X140701297Y-92110310D01*
X140881595Y-91676106D01*
X140882005Y-91205957D01*
X140702466Y-90771439D01*
X140595231Y-90664017D01*
X140733894Y-90721595D01*
X141204043Y-90722005D01*
X141344685Y-90663893D01*
X141238703Y-90769690D01*
X141058405Y-91203894D01*
X141057995Y-91674043D01*
X141237534Y-92108561D01*
X141569690Y-92441297D01*
X142003894Y-92621595D01*
X142474043Y-92622005D01*
X142908561Y-92442466D01*
X143241297Y-92110310D01*
X143421595Y-91676106D01*
X143422005Y-91205957D01*
X143242466Y-90771439D01*
X143135231Y-90664017D01*
X143273894Y-90721595D01*
X143744043Y-90722005D01*
X143884685Y-90663893D01*
X143778703Y-90769690D01*
X143598405Y-91203894D01*
X143597995Y-91674043D01*
X143777534Y-92108561D01*
X144109690Y-92441297D01*
X144543894Y-92621595D01*
X145014043Y-92622005D01*
X145448561Y-92442466D01*
X145781297Y-92110310D01*
X145961595Y-91676106D01*
X145962005Y-91205957D01*
X145782466Y-90771439D01*
X145675231Y-90664017D01*
X145813894Y-90721595D01*
X146284043Y-90722005D01*
X146397636Y-90675070D01*
X146405555Y-90682989D01*
X146318703Y-90769690D01*
X146138405Y-91203894D01*
X146137995Y-91674043D01*
X146317534Y-92108561D01*
X146649690Y-92441297D01*
X146763200Y-92488431D01*
X146763200Y-123346809D01*
X146699972Y-123409927D01*
X146588327Y-123678797D01*
X146588073Y-123969925D01*
X146699248Y-124238990D01*
X146904927Y-124445028D01*
X147173797Y-124556673D01*
X147464925Y-124556927D01*
X147733990Y-124445752D01*
X147940028Y-124240073D01*
X148051673Y-123971203D01*
X148051927Y-123680075D01*
X147940752Y-123411010D01*
X147876800Y-123346946D01*
X147876800Y-117132745D01*
X154111861Y-117132745D01*
X154185995Y-117378864D01*
X154723223Y-117571965D01*
X155293454Y-117544778D01*
X155694005Y-117378864D01*
X155768139Y-117132745D01*
X154940000Y-116304605D01*
X154111861Y-117132745D01*
X147876800Y-117132745D01*
X147876800Y-115908223D01*
X153493035Y-115908223D01*
X153520222Y-116478454D01*
X153686136Y-116879005D01*
X153932255Y-116953139D01*
X154760395Y-116125000D01*
X155119605Y-116125000D01*
X155947745Y-116953139D01*
X156193864Y-116879005D01*
X156386965Y-116341777D01*
X156359778Y-115771546D01*
X156193864Y-115370995D01*
X155947745Y-115296861D01*
X155119605Y-116125000D01*
X154760395Y-116125000D01*
X153932255Y-115296861D01*
X153686136Y-115370995D01*
X153493035Y-115908223D01*
X147876800Y-115908223D01*
X147876800Y-115117255D01*
X154111861Y-115117255D01*
X154940000Y-115945395D01*
X155768139Y-115117255D01*
X155694005Y-114871136D01*
X155156777Y-114678035D01*
X154586546Y-114705222D01*
X154185995Y-114871136D01*
X154111861Y-115117255D01*
X147876800Y-115117255D01*
X147876800Y-113842474D01*
X147966473Y-113976680D01*
X148252550Y-114167830D01*
X148590000Y-114234953D01*
X148927450Y-114167830D01*
X149213527Y-113976680D01*
X149225000Y-113959509D01*
X149236473Y-113976680D01*
X149522550Y-114167830D01*
X149860000Y-114234953D01*
X150174391Y-114172417D01*
X150320302Y-114318327D01*
X150553691Y-114415000D01*
X150844250Y-114415000D01*
X151003000Y-114256250D01*
X151003000Y-113157000D01*
X151257000Y-113157000D01*
X151257000Y-114256250D01*
X151415750Y-114415000D01*
X151706309Y-114415000D01*
X151939698Y-114318327D01*
X152118327Y-114139699D01*
X152215000Y-113906310D01*
X152215000Y-113315750D01*
X152056250Y-113157000D01*
X151257000Y-113157000D01*
X151003000Y-113157000D01*
X150983000Y-113157000D01*
X150983000Y-112903000D01*
X151003000Y-112903000D01*
X151003000Y-111803750D01*
X151257000Y-111803750D01*
X151257000Y-112903000D01*
X152056250Y-112903000D01*
X152215000Y-112744250D01*
X152215000Y-112153690D01*
X152118327Y-111920301D01*
X151939698Y-111741673D01*
X151706309Y-111645000D01*
X151415750Y-111645000D01*
X151257000Y-111803750D01*
X151003000Y-111803750D01*
X150844250Y-111645000D01*
X150553691Y-111645000D01*
X150320302Y-111741673D01*
X150174391Y-111887583D01*
X149860000Y-111825047D01*
X149522550Y-111892170D01*
X149236473Y-112083320D01*
X149225000Y-112100491D01*
X149213527Y-112083320D01*
X148927450Y-111892170D01*
X148590000Y-111825047D01*
X148252550Y-111892170D01*
X147966473Y-112083320D01*
X147876800Y-112217526D01*
X147876800Y-92488645D01*
X147988561Y-92442466D01*
X148321297Y-92110310D01*
X148501595Y-91676106D01*
X148502005Y-91205957D01*
X148322466Y-90771439D01*
X148215231Y-90664017D01*
X148353894Y-90721595D01*
X148824043Y-90722005D01*
X148937636Y-90675070D01*
X148945555Y-90682989D01*
X148858703Y-90769690D01*
X148678405Y-91203894D01*
X148677995Y-91674043D01*
X148857534Y-92108561D01*
X149189690Y-92441297D01*
X149623894Y-92621595D01*
X150094043Y-92622005D01*
X150528561Y-92442466D01*
X150861297Y-92110310D01*
X151041595Y-91676106D01*
X151042005Y-91205957D01*
X150862466Y-90771439D01*
X150755231Y-90664017D01*
X150893894Y-90721595D01*
X151364043Y-90722005D01*
X151504685Y-90663893D01*
X151398703Y-90769690D01*
X151218405Y-91203894D01*
X151217995Y-91674043D01*
X151397534Y-92108561D01*
X151729690Y-92441297D01*
X152163894Y-92621595D01*
X152634043Y-92622005D01*
X153068561Y-92442466D01*
X153401297Y-92110310D01*
X153581595Y-91676106D01*
X153582005Y-91205957D01*
X153402466Y-90771439D01*
X153295231Y-90664017D01*
X153433894Y-90721595D01*
X153904043Y-90722005D01*
X154044685Y-90663893D01*
X153938703Y-90769690D01*
X153758405Y-91203894D01*
X153757995Y-91674043D01*
X153937534Y-92108561D01*
X154269690Y-92441297D01*
X154703894Y-92621595D01*
X155174043Y-92622005D01*
X155436623Y-92513509D01*
X154455066Y-93495066D01*
X154306403Y-93717555D01*
X154306403Y-93717556D01*
X154254200Y-93980000D01*
X154254200Y-105674741D01*
X153740000Y-105674741D01*
X153579985Y-105704850D01*
X153433020Y-105799419D01*
X153334427Y-105943715D01*
X153299741Y-106115000D01*
X153299741Y-108515000D01*
X153329850Y-108675015D01*
X153424419Y-108821980D01*
X153568715Y-108920573D01*
X153740000Y-108955259D01*
X154254200Y-108955259D01*
X154254200Y-109023000D01*
X154306403Y-109285445D01*
X154455066Y-109507934D01*
X154840245Y-109893113D01*
X154696055Y-109892987D01*
X154243153Y-110080122D01*
X153896340Y-110426331D01*
X153708415Y-110878905D01*
X153707987Y-111368945D01*
X153895122Y-111821847D01*
X154241331Y-112168660D01*
X154693905Y-112356585D01*
X155183945Y-112357013D01*
X155636847Y-112169878D01*
X155983660Y-111823669D01*
X156171585Y-111371095D01*
X156171713Y-111224581D01*
X156794200Y-111847068D01*
X156794200Y-121663323D01*
X156748327Y-121773797D01*
X156748073Y-122064925D01*
X156859248Y-122333990D01*
X157064927Y-122540028D01*
X157333797Y-122651673D01*
X157624925Y-122651927D01*
X157893990Y-122540752D01*
X158100028Y-122335073D01*
X158211673Y-122066203D01*
X158211927Y-121775075D01*
X158165800Y-121663439D01*
X158165800Y-120875593D01*
X172574012Y-120875593D01*
X172715478Y-121178782D01*
X173451955Y-121463737D01*
X174241418Y-121445164D01*
X174884522Y-121178782D01*
X175025988Y-120875593D01*
X173800000Y-119649605D01*
X172574012Y-120875593D01*
X158165800Y-120875593D01*
X158165800Y-119121955D01*
X171806263Y-119121955D01*
X171824836Y-119911418D01*
X172091218Y-120554522D01*
X172394407Y-120695988D01*
X173620395Y-119470000D01*
X173979605Y-119470000D01*
X175205593Y-120695988D01*
X175508782Y-120554522D01*
X175793737Y-119818045D01*
X175775164Y-119028582D01*
X175508782Y-118385478D01*
X175205593Y-118244012D01*
X173979605Y-119470000D01*
X173620395Y-119470000D01*
X172394407Y-118244012D01*
X172091218Y-118385478D01*
X171806263Y-119121955D01*
X158165800Y-119121955D01*
X158165800Y-118064407D01*
X172574012Y-118064407D01*
X173800000Y-119290395D01*
X175025988Y-118064407D01*
X174974720Y-117954528D01*
X178840077Y-117954528D01*
X179030364Y-118299271D01*
X179911591Y-118650956D01*
X180860323Y-118638641D01*
X181679636Y-118299271D01*
X181869923Y-117954528D01*
X180355000Y-116439605D01*
X178840077Y-117954528D01*
X174974720Y-117954528D01*
X174884522Y-117761218D01*
X174148045Y-117476263D01*
X173358582Y-117494836D01*
X172715478Y-117761218D01*
X172574012Y-118064407D01*
X158165800Y-118064407D01*
X158165800Y-115816591D01*
X177964044Y-115816591D01*
X177976359Y-116765323D01*
X178315729Y-117584636D01*
X178660472Y-117774923D01*
X180175395Y-116260000D01*
X180534605Y-116260000D01*
X182049528Y-117774923D01*
X182394271Y-117584636D01*
X182745956Y-116703409D01*
X182733641Y-115754677D01*
X182394271Y-114935364D01*
X182049528Y-114745077D01*
X180534605Y-116260000D01*
X180175395Y-116260000D01*
X178660472Y-114745077D01*
X178315729Y-114935364D01*
X177964044Y-115816591D01*
X158165800Y-115816591D01*
X158165800Y-112912532D01*
X160397073Y-112912532D01*
X160495736Y-113179387D01*
X161105461Y-113405908D01*
X161755460Y-113381856D01*
X162244264Y-113179387D01*
X162342927Y-112912532D01*
X161370000Y-111939605D01*
X160397073Y-112912532D01*
X158165800Y-112912532D01*
X158165800Y-111563000D01*
X158152366Y-111495461D01*
X159724092Y-111495461D01*
X159748144Y-112145460D01*
X159950613Y-112634264D01*
X160217468Y-112732927D01*
X161190395Y-111760000D01*
X161549605Y-111760000D01*
X162522532Y-112732927D01*
X162789387Y-112634264D01*
X163015908Y-112024539D01*
X162991856Y-111374540D01*
X162789387Y-110885736D01*
X162522532Y-110787073D01*
X161549605Y-111760000D01*
X161190395Y-111760000D01*
X160217468Y-110787073D01*
X159950613Y-110885736D01*
X159724092Y-111495461D01*
X158152366Y-111495461D01*
X158113597Y-111300556D01*
X157964934Y-111078066D01*
X157494336Y-110607468D01*
X160397073Y-110607468D01*
X161370000Y-111580395D01*
X162190395Y-110760000D01*
X164929741Y-110760000D01*
X164929741Y-112760000D01*
X164959850Y-112920015D01*
X165054419Y-113066980D01*
X165198715Y-113165573D01*
X165370000Y-113200259D01*
X167370000Y-113200259D01*
X167530015Y-113170150D01*
X167676980Y-113075581D01*
X167775573Y-112931285D01*
X167810259Y-112760000D01*
X167810259Y-110760000D01*
X167780150Y-110599985D01*
X167685581Y-110453020D01*
X167541285Y-110354427D01*
X167370000Y-110319741D01*
X165370000Y-110319741D01*
X165209985Y-110349850D01*
X165063020Y-110444419D01*
X164964427Y-110588715D01*
X164929741Y-110760000D01*
X162190395Y-110760000D01*
X162342927Y-110607468D01*
X162244264Y-110340613D01*
X161634539Y-110114092D01*
X160984540Y-110138144D01*
X160495736Y-110340613D01*
X160397073Y-110607468D01*
X157494336Y-110607468D01*
X156646868Y-109760000D01*
X170914741Y-109760000D01*
X170914741Y-113760000D01*
X170944850Y-113920015D01*
X171039419Y-114066980D01*
X171183715Y-114165573D01*
X171355000Y-114200259D01*
X175355000Y-114200259D01*
X175515015Y-114170150D01*
X175661980Y-114075581D01*
X175760573Y-113931285D01*
X175795259Y-113760000D01*
X175795259Y-113382314D01*
X177912291Y-113382314D01*
X178090379Y-113716666D01*
X178935426Y-114051673D01*
X179457757Y-114043697D01*
X179030364Y-114220729D01*
X178840077Y-114565472D01*
X180355000Y-116080395D01*
X181869923Y-114565472D01*
X181679636Y-114220729D01*
X180798409Y-113869044D01*
X180234063Y-113876369D01*
X180619621Y-113716666D01*
X180797709Y-113382314D01*
X179355000Y-111939605D01*
X177912291Y-113382314D01*
X175795259Y-113382314D01*
X175795259Y-111340426D01*
X177063327Y-111340426D01*
X177077206Y-112249350D01*
X177398334Y-113024621D01*
X177732686Y-113202709D01*
X179175395Y-111760000D01*
X177732686Y-110317291D01*
X177398334Y-110495379D01*
X177063327Y-111340426D01*
X175795259Y-111340426D01*
X175795259Y-110137686D01*
X177912291Y-110137686D01*
X179355000Y-111580395D01*
X180797709Y-110137686D01*
X180619621Y-109803334D01*
X180224990Y-109646888D01*
X180860323Y-109638641D01*
X181679636Y-109299271D01*
X181869923Y-108954528D01*
X180355000Y-107439605D01*
X178840077Y-108954528D01*
X179030364Y-109299271D01*
X179465787Y-109473042D01*
X178865650Y-109482206D01*
X178090379Y-109803334D01*
X177912291Y-110137686D01*
X175795259Y-110137686D01*
X175795259Y-109760000D01*
X175765150Y-109599985D01*
X175670581Y-109453020D01*
X175526285Y-109354427D01*
X175355000Y-109319741D01*
X171355000Y-109319741D01*
X171194985Y-109349850D01*
X171048020Y-109444419D01*
X170949427Y-109588715D01*
X170914741Y-109760000D01*
X156646868Y-109760000D01*
X155842127Y-108955259D01*
X156140000Y-108955259D01*
X156300015Y-108925150D01*
X156446980Y-108830581D01*
X156545573Y-108686285D01*
X156580259Y-108515000D01*
X156580259Y-106816591D01*
X177964044Y-106816591D01*
X177976359Y-107765323D01*
X178315729Y-108584636D01*
X178660472Y-108774923D01*
X180175395Y-107260000D01*
X180534605Y-107260000D01*
X182049528Y-108774923D01*
X182394271Y-108584636D01*
X182745956Y-107703409D01*
X182733641Y-106754677D01*
X182394271Y-105935364D01*
X182049528Y-105745077D01*
X180534605Y-107260000D01*
X180175395Y-107260000D01*
X178660472Y-105745077D01*
X178315729Y-105935364D01*
X177964044Y-106816591D01*
X156580259Y-106816591D01*
X156580259Y-106115000D01*
X156550150Y-105954985D01*
X156455581Y-105808020D01*
X156311285Y-105709427D01*
X156140000Y-105674741D01*
X155625800Y-105674741D01*
X155625800Y-105145593D01*
X173774012Y-105145593D01*
X173915478Y-105448782D01*
X174651955Y-105733737D01*
X175441418Y-105715164D01*
X175802806Y-105565472D01*
X178840077Y-105565472D01*
X180355000Y-107080395D01*
X181869923Y-105565472D01*
X181679636Y-105220729D01*
X180798409Y-104869044D01*
X179849677Y-104881359D01*
X179030364Y-105220729D01*
X178840077Y-105565472D01*
X175802806Y-105565472D01*
X176084522Y-105448782D01*
X176225988Y-105145593D01*
X175000000Y-103919605D01*
X173774012Y-105145593D01*
X155625800Y-105145593D01*
X155625800Y-103391955D01*
X173006263Y-103391955D01*
X173024836Y-104181418D01*
X173291218Y-104824522D01*
X173594407Y-104965988D01*
X174820395Y-103740000D01*
X175179605Y-103740000D01*
X176405593Y-104965988D01*
X176708782Y-104824522D01*
X176993737Y-104088045D01*
X176975164Y-103298582D01*
X176708782Y-102655478D01*
X176405593Y-102514012D01*
X175179605Y-103740000D01*
X174820395Y-103740000D01*
X173594407Y-102514012D01*
X173291218Y-102655478D01*
X173006263Y-103391955D01*
X155625800Y-103391955D01*
X155625800Y-102334407D01*
X173774012Y-102334407D01*
X175000000Y-103560395D01*
X176225988Y-102334407D01*
X176084522Y-102031218D01*
X175348045Y-101746263D01*
X174558582Y-101764836D01*
X173915478Y-102031218D01*
X173774012Y-102334407D01*
X155625800Y-102334407D01*
X155625800Y-98093357D01*
X177617934Y-98093357D01*
X177850646Y-98656562D01*
X178281172Y-99087840D01*
X178464200Y-99163840D01*
X178464200Y-101630922D01*
X178516403Y-101893367D01*
X178665066Y-102115856D01*
X182923201Y-106373991D01*
X182923201Y-110662165D01*
X182601095Y-110528415D01*
X182111055Y-110527987D01*
X181658153Y-110715122D01*
X181477419Y-110895541D01*
X181311666Y-110495379D01*
X180977314Y-110317291D01*
X179534605Y-111760000D01*
X180977314Y-113202709D01*
X181311666Y-113024621D01*
X181472333Y-112619341D01*
X181656331Y-112803660D01*
X182108905Y-112991585D01*
X182598945Y-112992013D01*
X182923201Y-112858033D01*
X182923201Y-117176931D01*
X179636662Y-120463470D01*
X179456031Y-120388466D01*
X178846643Y-120387934D01*
X178283438Y-120620646D01*
X177852160Y-121051172D01*
X177618466Y-121613969D01*
X177617934Y-122223357D01*
X177850646Y-122786562D01*
X178281172Y-123217840D01*
X178843969Y-123451534D01*
X179453357Y-123452066D01*
X180016562Y-123219354D01*
X180447840Y-122788828D01*
X180681534Y-122226031D01*
X180682066Y-121616643D01*
X180606385Y-121433483D01*
X183631212Y-118408656D01*
X183631212Y-123556354D01*
X182824415Y-124363151D01*
X182735075Y-124363073D01*
X182466010Y-124474248D01*
X182259972Y-124679927D01*
X182148327Y-124948797D01*
X182148073Y-125239925D01*
X182259248Y-125508990D01*
X182464927Y-125715028D01*
X182733797Y-125826673D01*
X183024925Y-125826927D01*
X183293990Y-125715752D01*
X183500028Y-125510073D01*
X183611673Y-125241203D01*
X183611752Y-125150682D01*
X184581729Y-124180705D01*
X184702428Y-124000066D01*
X184744812Y-123786988D01*
X184744812Y-104813012D01*
X184702428Y-104599934D01*
X184581729Y-104419295D01*
X184053475Y-103891041D01*
X184111585Y-103751095D01*
X184112013Y-103261055D01*
X183924878Y-102808153D01*
X183578669Y-102461340D01*
X183126095Y-102273415D01*
X182636055Y-102272987D01*
X182183153Y-102460122D01*
X181836340Y-102806331D01*
X181677590Y-103188644D01*
X179835800Y-101346854D01*
X179835800Y-99164043D01*
X180016562Y-99089354D01*
X180447840Y-98658828D01*
X180681534Y-98096031D01*
X180682066Y-97486643D01*
X180449354Y-96923438D01*
X180018828Y-96492160D01*
X179456031Y-96258466D01*
X178846643Y-96257934D01*
X178283438Y-96490646D01*
X177852160Y-96921172D01*
X177618466Y-97483969D01*
X177617934Y-98093357D01*
X155625800Y-98093357D01*
X155625800Y-96745593D01*
X172574012Y-96745593D01*
X172715478Y-97048782D01*
X173451955Y-97333737D01*
X174241418Y-97315164D01*
X174884522Y-97048782D01*
X175025988Y-96745593D01*
X173800000Y-95519605D01*
X172574012Y-96745593D01*
X155625800Y-96745593D01*
X155625800Y-94991955D01*
X171806263Y-94991955D01*
X171824836Y-95781418D01*
X172091218Y-96424522D01*
X172394407Y-96565988D01*
X173620395Y-95340000D01*
X173979605Y-95340000D01*
X175205593Y-96565988D01*
X175508782Y-96424522D01*
X175793737Y-95688045D01*
X175775164Y-94898582D01*
X175508782Y-94255478D01*
X175205593Y-94114012D01*
X173979605Y-95340000D01*
X173620395Y-95340000D01*
X172394407Y-94114012D01*
X172091218Y-94255478D01*
X171806263Y-94991955D01*
X155625800Y-94991955D01*
X155625800Y-94264068D01*
X155955461Y-93934407D01*
X172574012Y-93934407D01*
X173800000Y-95160395D01*
X175025988Y-93934407D01*
X174884522Y-93631218D01*
X174148045Y-93346263D01*
X173358582Y-93364836D01*
X172715478Y-93631218D01*
X172574012Y-93934407D01*
X155955461Y-93934407D01*
X157268252Y-92621616D01*
X157714043Y-92622005D01*
X158148561Y-92442466D01*
X158481297Y-92110310D01*
X158661595Y-91676106D01*
X158662005Y-91205957D01*
X158482466Y-90771439D01*
X158375231Y-90664017D01*
X158513894Y-90721595D01*
X158962118Y-90721986D01*
X159016097Y-90775965D01*
X158838405Y-91203894D01*
X158837995Y-91674043D01*
X159017534Y-92108561D01*
X159349690Y-92441297D01*
X159783894Y-92621595D01*
X160254043Y-92622005D01*
X160688561Y-92442466D01*
X161021297Y-92110310D01*
X161201595Y-91676106D01*
X161202005Y-91205957D01*
X161022466Y-90771439D01*
X160915231Y-90664017D01*
X161053894Y-90721595D01*
X161502118Y-90721986D01*
X161556097Y-90775965D01*
X161378405Y-91203894D01*
X161377995Y-91674043D01*
X161557534Y-92108561D01*
X161889690Y-92441297D01*
X162323894Y-92621595D01*
X162794043Y-92622005D01*
X163228561Y-92442466D01*
X163561297Y-92110310D01*
X163741595Y-91676106D01*
X163742005Y-91205957D01*
X163562466Y-90771439D01*
X163455231Y-90664017D01*
X163593894Y-90721595D01*
X164064043Y-90722005D01*
X164204685Y-90663893D01*
X164098703Y-90769690D01*
X163918405Y-91203894D01*
X163917995Y-91674043D01*
X164097534Y-92108561D01*
X164429690Y-92441297D01*
X164863894Y-92621595D01*
X165334043Y-92622005D01*
X165768561Y-92442466D01*
X165799564Y-92411517D01*
X166848088Y-92411517D01*
X166916077Y-92652460D01*
X167435171Y-92837201D01*
X167985448Y-92809230D01*
X168363923Y-92652460D01*
X168431912Y-92411517D01*
X169388088Y-92411517D01*
X169456077Y-92652460D01*
X169975171Y-92837201D01*
X170525448Y-92809230D01*
X170903923Y-92652460D01*
X170971912Y-92411517D01*
X170180000Y-91619605D01*
X169388088Y-92411517D01*
X168431912Y-92411517D01*
X167640000Y-91619605D01*
X166848088Y-92411517D01*
X165799564Y-92411517D01*
X166101297Y-92110310D01*
X166266999Y-91711257D01*
X166270770Y-91785448D01*
X166427540Y-92163923D01*
X166668483Y-92231912D01*
X167460395Y-91440000D01*
X167446253Y-91425858D01*
X167625858Y-91246253D01*
X167640000Y-91260395D01*
X167654143Y-91246253D01*
X167833748Y-91425858D01*
X167819605Y-91440000D01*
X168611517Y-92231912D01*
X168852460Y-92163923D01*
X168905642Y-92014489D01*
X168967540Y-92163923D01*
X169208483Y-92231912D01*
X170000395Y-91440000D01*
X169986253Y-91425858D01*
X170165858Y-91246253D01*
X170180000Y-91260395D01*
X170194143Y-91246253D01*
X170373748Y-91425858D01*
X170359605Y-91440000D01*
X171151517Y-92231912D01*
X171335000Y-92180137D01*
X171335000Y-92316310D01*
X171431673Y-92549699D01*
X171610302Y-92728327D01*
X171843691Y-92825000D01*
X172434250Y-92825000D01*
X172593000Y-92666250D01*
X172593000Y-91567000D01*
X172847000Y-91567000D01*
X172847000Y-92666250D01*
X173005750Y-92825000D01*
X173596309Y-92825000D01*
X173829698Y-92728327D01*
X174008327Y-92549699D01*
X174105000Y-92316310D01*
X174105000Y-91725750D01*
X173946250Y-91567000D01*
X172847000Y-91567000D01*
X172593000Y-91567000D01*
X172573000Y-91567000D01*
X172573000Y-91313000D01*
X172593000Y-91313000D01*
X172593000Y-91293000D01*
X172847000Y-91293000D01*
X172847000Y-91313000D01*
X173946250Y-91313000D01*
X174105000Y-91154250D01*
X174105000Y-90563690D01*
X174008327Y-90330301D01*
X173829698Y-90151673D01*
X173596309Y-90055000D01*
X173005750Y-90055000D01*
X172847002Y-90213748D01*
X172847002Y-90055000D01*
X172736814Y-90055000D01*
X172842652Y-89757609D01*
X177626538Y-89757609D01*
X177641714Y-89849376D01*
X177888067Y-90269125D01*
X178092548Y-90423723D01*
X178059985Y-90429850D01*
X177913020Y-90524419D01*
X177814427Y-90668715D01*
X177779741Y-90840000D01*
X177779741Y-92040000D01*
X177809850Y-92200015D01*
X177904419Y-92346980D01*
X178048715Y-92445573D01*
X178220000Y-92480259D01*
X178687825Y-92480259D01*
X181717921Y-95510355D01*
X181648200Y-95860868D01*
X181648200Y-95909132D01*
X181741965Y-96380521D01*
X182008986Y-96780146D01*
X182408611Y-97047167D01*
X182880000Y-97140932D01*
X183351389Y-97047167D01*
X183751014Y-96780146D01*
X184018035Y-96380521D01*
X184111800Y-95909132D01*
X184111800Y-95860868D01*
X184018035Y-95389479D01*
X183751014Y-94989854D01*
X183351389Y-94722833D01*
X182880000Y-94629068D01*
X182489231Y-94706797D01*
X180172848Y-92390414D01*
X180226980Y-92355581D01*
X180325573Y-92211285D01*
X180360259Y-92040000D01*
X180360259Y-90840000D01*
X180330150Y-90679985D01*
X180235581Y-90533020D01*
X180091285Y-90434427D01*
X180045545Y-90425164D01*
X180251933Y-90269125D01*
X180498286Y-89849376D01*
X180513462Y-89757609D01*
X180388731Y-89567000D01*
X179197000Y-89567000D01*
X179197000Y-89587000D01*
X178943000Y-89587000D01*
X178943000Y-89567000D01*
X177751269Y-89567000D01*
X177626538Y-89757609D01*
X172842652Y-89757609D01*
X172847201Y-89744829D01*
X172819230Y-89194552D01*
X172789340Y-89122391D01*
X177626538Y-89122391D01*
X177751269Y-89313000D01*
X178943000Y-89313000D01*
X178943000Y-89293000D01*
X179197000Y-89293000D01*
X179197000Y-89313000D01*
X180388731Y-89313000D01*
X180513462Y-89122391D01*
X180498286Y-89030624D01*
X180251933Y-88610875D01*
X179863701Y-88317353D01*
X179856408Y-88315454D01*
X180074705Y-88169593D01*
X180298371Y-87834853D01*
X180376912Y-87440000D01*
X180298371Y-87045147D01*
X180074705Y-86710407D01*
X179739965Y-86486741D01*
X179345112Y-86408200D01*
X178794888Y-86408200D01*
X178400035Y-86486741D01*
X178065295Y-86710407D01*
X177841629Y-87045147D01*
X177763088Y-87440000D01*
X177841629Y-87834853D01*
X178065295Y-88169593D01*
X178283592Y-88315454D01*
X178276299Y-88317353D01*
X177888067Y-88610875D01*
X177641714Y-89030624D01*
X177626538Y-89122391D01*
X172789340Y-89122391D01*
X172664811Y-88821753D01*
X172954043Y-88822005D01*
X173388561Y-88642466D01*
X173721297Y-88310310D01*
X173901595Y-87876106D01*
X173902005Y-87405957D01*
X173722466Y-86971439D01*
X173390310Y-86638703D01*
X172956106Y-86458405D01*
X172485957Y-86457995D01*
X172345315Y-86516107D01*
X172451297Y-86410310D01*
X172631595Y-85976106D01*
X172632005Y-85505957D01*
X172452466Y-85071439D01*
X172120310Y-84738703D01*
X171686106Y-84558405D01*
X171215957Y-84557995D01*
X170781439Y-84737534D01*
X170448703Y-85069690D01*
X170268405Y-85503894D01*
X170267995Y-85974043D01*
X170447534Y-86408561D01*
X170554769Y-86515983D01*
X170416106Y-86458405D01*
X169945957Y-86457995D01*
X169805315Y-86516107D01*
X169911297Y-86410310D01*
X170091595Y-85976106D01*
X170092005Y-85505957D01*
X169912466Y-85071439D01*
X169580310Y-84738703D01*
X169146106Y-84558405D01*
X168675957Y-84557995D01*
X168241439Y-84737534D01*
X167908703Y-85069690D01*
X167728405Y-85503894D01*
X167727995Y-85974043D01*
X167907534Y-86408561D01*
X168014769Y-86515983D01*
X167876106Y-86458405D01*
X167405957Y-86457995D01*
X167265315Y-86516107D01*
X167371297Y-86410310D01*
X167551595Y-85976106D01*
X167552005Y-85505957D01*
X167372466Y-85071439D01*
X167040310Y-84738703D01*
X166606106Y-84558405D01*
X166135957Y-84557995D01*
X165701439Y-84737534D01*
X165368703Y-85069690D01*
X165188405Y-85503894D01*
X165187995Y-85974043D01*
X165367534Y-86408561D01*
X165474769Y-86515983D01*
X165336106Y-86458405D01*
X164865957Y-86457995D01*
X164725315Y-86516107D01*
X164831297Y-86410310D01*
X165011595Y-85976106D01*
X165012005Y-85505957D01*
X164832466Y-85071439D01*
X164500310Y-84738703D01*
X164066106Y-84558405D01*
X163595957Y-84557995D01*
X163161439Y-84737534D01*
X162828703Y-85069690D01*
X162648405Y-85503894D01*
X162647995Y-85974043D01*
X162827534Y-86408561D01*
X162934769Y-86515983D01*
X162796106Y-86458405D01*
X162325957Y-86457995D01*
X162185315Y-86516107D01*
X162291297Y-86410310D01*
X162471595Y-85976106D01*
X162472005Y-85505957D01*
X162292466Y-85071439D01*
X161960310Y-84738703D01*
X161526106Y-84558405D01*
X161055957Y-84557995D01*
X160621439Y-84737534D01*
X160288703Y-85069690D01*
X160108405Y-85503894D01*
X160107995Y-85974043D01*
X160287534Y-86408561D01*
X160394769Y-86515983D01*
X160256106Y-86458405D01*
X159785957Y-86457995D01*
X159645315Y-86516107D01*
X159751297Y-86410310D01*
X159931595Y-85976106D01*
X159932005Y-85505957D01*
X159752466Y-85071439D01*
X159420310Y-84738703D01*
X158986106Y-84558405D01*
X158515957Y-84557995D01*
X158081439Y-84737534D01*
X157748703Y-85069690D01*
X157568405Y-85503894D01*
X157567995Y-85974043D01*
X157747534Y-86408561D01*
X157854769Y-86515983D01*
X157716106Y-86458405D01*
X157245957Y-86457995D01*
X157105315Y-86516107D01*
X157211297Y-86410310D01*
X157391595Y-85976106D01*
X157392005Y-85505957D01*
X157212466Y-85071439D01*
X156880310Y-84738703D01*
X156446106Y-84558405D01*
X155975957Y-84557995D01*
X155541439Y-84737534D01*
X155208703Y-85069690D01*
X155028405Y-85503894D01*
X155027995Y-85974043D01*
X155207534Y-86408561D01*
X155314769Y-86515983D01*
X155176106Y-86458405D01*
X154705957Y-86457995D01*
X154565315Y-86516107D01*
X154671297Y-86410310D01*
X154851595Y-85976106D01*
X154852005Y-85505957D01*
X154672466Y-85071439D01*
X154340310Y-84738703D01*
X153906106Y-84558405D01*
X153435957Y-84557995D01*
X153001439Y-84737534D01*
X152668703Y-85069690D01*
X152488405Y-85503894D01*
X152487995Y-85974043D01*
X152667534Y-86408561D01*
X152774769Y-86515983D01*
X152636106Y-86458405D01*
X152165957Y-86457995D01*
X152025315Y-86516107D01*
X152131297Y-86410310D01*
X152311595Y-85976106D01*
X152312005Y-85505957D01*
X152132466Y-85071439D01*
X151800310Y-84738703D01*
X151366106Y-84558405D01*
X150895957Y-84557995D01*
X150461439Y-84737534D01*
X150128703Y-85069690D01*
X149948405Y-85503894D01*
X149947995Y-85974043D01*
X150127534Y-86408561D01*
X150234769Y-86515983D01*
X150096106Y-86458405D01*
X149625957Y-86457995D01*
X149485315Y-86516107D01*
X149591297Y-86410310D01*
X149771595Y-85976106D01*
X149772005Y-85505957D01*
X149592466Y-85071439D01*
X149260310Y-84738703D01*
X148826106Y-84558405D01*
X148355957Y-84557995D01*
X147921439Y-84737534D01*
X147588703Y-85069690D01*
X147408405Y-85503894D01*
X147407995Y-85974043D01*
X147587534Y-86408561D01*
X147694769Y-86515983D01*
X147556106Y-86458405D01*
X147085957Y-86457995D01*
X146945315Y-86516107D01*
X147051297Y-86410310D01*
X147231595Y-85976106D01*
X147232005Y-85505957D01*
X147052466Y-85071439D01*
X146720310Y-84738703D01*
X146286106Y-84558405D01*
X145815957Y-84557995D01*
X145381439Y-84737534D01*
X145048703Y-85069690D01*
X144868405Y-85503894D01*
X144867995Y-85974043D01*
X145047534Y-86408561D01*
X145154769Y-86515983D01*
X145016106Y-86458405D01*
X144545957Y-86457995D01*
X144405315Y-86516107D01*
X144511297Y-86410310D01*
X144691595Y-85976106D01*
X144692005Y-85505957D01*
X144512466Y-85071439D01*
X144180310Y-84738703D01*
X143746106Y-84558405D01*
X143275957Y-84557995D01*
X142841439Y-84737534D01*
X142508703Y-85069690D01*
X142328405Y-85503894D01*
X142327995Y-85974043D01*
X142507534Y-86408561D01*
X142614769Y-86515983D01*
X142476106Y-86458405D01*
X142005957Y-86457995D01*
X141865315Y-86516107D01*
X141971297Y-86410310D01*
X142151595Y-85976106D01*
X142152005Y-85505957D01*
X141972466Y-85071439D01*
X141640310Y-84738703D01*
X141206106Y-84558405D01*
X140735957Y-84557995D01*
X140301439Y-84737534D01*
X139968703Y-85069690D01*
X139788405Y-85503894D01*
X139787995Y-85974043D01*
X139967534Y-86408561D01*
X140074769Y-86515983D01*
X139936106Y-86458405D01*
X139465957Y-86457995D01*
X139325315Y-86516107D01*
X139431297Y-86410310D01*
X139611595Y-85976106D01*
X139612005Y-85505957D01*
X139432466Y-85071439D01*
X139100310Y-84738703D01*
X138666106Y-84558405D01*
X138195957Y-84557995D01*
X137761439Y-84737534D01*
X137428703Y-85069690D01*
X137248405Y-85503894D01*
X137247995Y-85974043D01*
X137427534Y-86408561D01*
X137534769Y-86515983D01*
X137396106Y-86458405D01*
X136925957Y-86457995D01*
X136785315Y-86516107D01*
X136891297Y-86410310D01*
X137071595Y-85976106D01*
X137072005Y-85505957D01*
X136892466Y-85071439D01*
X136560310Y-84738703D01*
X136126106Y-84558405D01*
X135655957Y-84557995D01*
X135221439Y-84737534D01*
X134888703Y-85069690D01*
X134708405Y-85503894D01*
X134707995Y-85974043D01*
X134887534Y-86408561D01*
X134994769Y-86515983D01*
X134856106Y-86458405D01*
X134385957Y-86457995D01*
X134245315Y-86516107D01*
X134351297Y-86410310D01*
X134531595Y-85976106D01*
X134532005Y-85505957D01*
X134352466Y-85071439D01*
X134020310Y-84738703D01*
X133586106Y-84558405D01*
X133115957Y-84557995D01*
X132681439Y-84737534D01*
X132348703Y-85069690D01*
X132168405Y-85503894D01*
X132167995Y-85974043D01*
X132347534Y-86408561D01*
X132454769Y-86515983D01*
X132316106Y-86458405D01*
X131845957Y-86457995D01*
X131705315Y-86516107D01*
X131811297Y-86410310D01*
X131991595Y-85976106D01*
X131992005Y-85505957D01*
X131812466Y-85071439D01*
X131480310Y-84738703D01*
X131046106Y-84558405D01*
X130575957Y-84557995D01*
X130141439Y-84737534D01*
X129808703Y-85069690D01*
X129628405Y-85503894D01*
X129627995Y-85974043D01*
X129807534Y-86408561D01*
X129914769Y-86515983D01*
X129776106Y-86458405D01*
X129305957Y-86457995D01*
X129165315Y-86516107D01*
X129271297Y-86410310D01*
X129451595Y-85976106D01*
X129452005Y-85505957D01*
X129272466Y-85071439D01*
X128940310Y-84738703D01*
X128506106Y-84558405D01*
X128035957Y-84557995D01*
X127601439Y-84737534D01*
X127268703Y-85069690D01*
X127088405Y-85503894D01*
X127087995Y-85974043D01*
X127267534Y-86408561D01*
X127374769Y-86515983D01*
X127236106Y-86458405D01*
X126765957Y-86457995D01*
X126625315Y-86516107D01*
X126731297Y-86410310D01*
X126911595Y-85976106D01*
X126912005Y-85505957D01*
X126732466Y-85071439D01*
X126400310Y-84738703D01*
X125966106Y-84558405D01*
X125495957Y-84557995D01*
X125061439Y-84737534D01*
X124728703Y-85069690D01*
X124548405Y-85503894D01*
X124547995Y-85974043D01*
X124727534Y-86408561D01*
X124834769Y-86515983D01*
X124696106Y-86458405D01*
X124225957Y-86457995D01*
X124085315Y-86516107D01*
X124191297Y-86410310D01*
X124371595Y-85976106D01*
X124372005Y-85505957D01*
X124192466Y-85071439D01*
X123860310Y-84738703D01*
X123426106Y-84558405D01*
X122955957Y-84557995D01*
X122521439Y-84737534D01*
X122188703Y-85069690D01*
X122008405Y-85503894D01*
X122007995Y-85974043D01*
X122187534Y-86408561D01*
X122519690Y-86741297D01*
X122953894Y-86921595D01*
X123424043Y-86922005D01*
X123564685Y-86863893D01*
X123458703Y-86969690D01*
X123278405Y-87403894D01*
X123277995Y-87874043D01*
X123457534Y-88308561D01*
X123564769Y-88415983D01*
X123426106Y-88358405D01*
X122955957Y-88357995D01*
X122521439Y-88537534D01*
X122188703Y-88869690D01*
X122008405Y-89303894D01*
X122007995Y-89774043D01*
X122187534Y-90208561D01*
X122519690Y-90541297D01*
X122953894Y-90721595D01*
X123424043Y-90722005D01*
X123564685Y-90663893D01*
X123458703Y-90769690D01*
X123278405Y-91203894D01*
X123277995Y-91674043D01*
X123324930Y-91787636D01*
X122161283Y-92951283D01*
X122040584Y-93131922D01*
X121998200Y-93345000D01*
X121998200Y-96105489D01*
X121876309Y-96055000D01*
X120935750Y-96055000D01*
X120777000Y-96213750D01*
X120777000Y-97663000D01*
X120797000Y-97663000D01*
X120797000Y-97917000D01*
X120777000Y-97917000D01*
X120777000Y-99366250D01*
X120935750Y-99525000D01*
X121876309Y-99525000D01*
X121998200Y-99474511D01*
X121998200Y-100541654D01*
X121949354Y-100423438D01*
X121518828Y-99992160D01*
X120956031Y-99758466D01*
X120346643Y-99757934D01*
X119783438Y-99990646D01*
X119352160Y-100421172D01*
X119251800Y-100662865D01*
X119251800Y-99453800D01*
X119423691Y-99525000D01*
X120364250Y-99525000D01*
X120523000Y-99366250D01*
X120523000Y-97917000D01*
X120503000Y-97917000D01*
X120503000Y-97663000D01*
X120523000Y-97663000D01*
X120523000Y-96213750D01*
X120364250Y-96055000D01*
X119423691Y-96055000D01*
X119251800Y-96126200D01*
X119251800Y-86409916D01*
X119415741Y-85585728D01*
X119854332Y-84929332D01*
X120510728Y-84490741D01*
X121334916Y-84326800D01*
X183465084Y-84326800D01*
X184289272Y-84490741D01*
G36*
X171643748Y-89525858D02*
X171629605Y-89540000D01*
X171643748Y-89554143D01*
X171464143Y-89733748D01*
X171450000Y-89719605D01*
X171435858Y-89733748D01*
X171256253Y-89554143D01*
X171270395Y-89540000D01*
X171256253Y-89525858D01*
X171435858Y-89346253D01*
X171450000Y-89360395D01*
X171464143Y-89346253D01*
X171643748Y-89525858D01*
X171643748Y-89525858D01*
G37*
X171643748Y-89525858D02*
X171629605Y-89540000D01*
X171643748Y-89554143D01*
X171464143Y-89733748D01*
X171450000Y-89719605D01*
X171435858Y-89733748D01*
X171256253Y-89554143D01*
X171270395Y-89540000D01*
X171256253Y-89525858D01*
X171435858Y-89346253D01*
X171450000Y-89360395D01*
X171464143Y-89346253D01*
X171643748Y-89525858D01*
G36*
X169103748Y-89525858D02*
X169089605Y-89540000D01*
X169103748Y-89554143D01*
X168924143Y-89733748D01*
X168910000Y-89719605D01*
X168895858Y-89733748D01*
X168716253Y-89554143D01*
X168730395Y-89540000D01*
X168716253Y-89525858D01*
X168895858Y-89346253D01*
X168910000Y-89360395D01*
X168924143Y-89346253D01*
X169103748Y-89525858D01*
X169103748Y-89525858D01*
G37*
X169103748Y-89525858D02*
X169089605Y-89540000D01*
X169103748Y-89554143D01*
X168924143Y-89733748D01*
X168910000Y-89719605D01*
X168895858Y-89733748D01*
X168716253Y-89554143D01*
X168730395Y-89540000D01*
X168716253Y-89525858D01*
X168895858Y-89346253D01*
X168910000Y-89360395D01*
X168924143Y-89346253D01*
X169103748Y-89525858D01*
G36*
X166563748Y-89525858D02*
X166549605Y-89540000D01*
X166563748Y-89554143D01*
X166384143Y-89733748D01*
X166370000Y-89719605D01*
X166355858Y-89733748D01*
X166176253Y-89554143D01*
X166190395Y-89540000D01*
X166176253Y-89525858D01*
X166355858Y-89346253D01*
X166370000Y-89360395D01*
X166384143Y-89346253D01*
X166563748Y-89525858D01*
X166563748Y-89525858D01*
G37*
X166563748Y-89525858D02*
X166549605Y-89540000D01*
X166563748Y-89554143D01*
X166384143Y-89733748D01*
X166370000Y-89719605D01*
X166355858Y-89733748D01*
X166176253Y-89554143D01*
X166190395Y-89540000D01*
X166176253Y-89525858D01*
X166355858Y-89346253D01*
X166370000Y-89360395D01*
X166384143Y-89346253D01*
X166563748Y-89525858D01*
M02*
