G04 #@! TF.FileFunction,Copper,L2,Bot,Signal*
%FSLAX46Y46*%
G04 Gerber Fmt 4.6, Leading zero omitted, Abs format (unit mm)*
G04 Created by KiCad (PCBNEW 4.0.7) date Sunday, September 23, 2018 'PMt' 12:44:32 PM*
%MOMM*%
%LPD*%
G01*
G04 APERTURE LIST*
%ADD10C,0.100000*%
%ADD11R,2.000000X2.000000*%
%ADD12C,2.000000*%
%ADD13C,1.600000*%
%ADD14R,4.000000X4.000000*%
%ADD15C,3.300000*%
%ADD16C,3.500000*%
%ADD17R,1.600000X1.600000*%
%ADD18O,1.600000X1.600000*%
%ADD19O,0.900000X1.500000*%
%ADD20R,0.900000X1.500000*%
%ADD21R,2.200000X2.200000*%
%ADD22C,2.200000*%
%ADD23C,2.700000*%
%ADD24R,2.600000X2.600000*%
%ADD25C,2.600000*%
%ADD26O,2.200000X2.200000*%
%ADD27C,2.800000*%
%ADD28R,1.500000X1.500000*%
%ADD29C,1.500000*%
%ADD30C,0.600000*%
%ADD31C,0.508000*%
%ADD32C,0.250000*%
%ADD33C,0.254000*%
G04 APERTURE END LIST*
D10*
D11*
X173990000Y-111760000D03*
D12*
X168990000Y-111760000D03*
D13*
X146050000Y-116840000D03*
X151050000Y-116840000D03*
X163830000Y-111125000D03*
X163830000Y-116125000D03*
X154305000Y-111125000D03*
X154305000Y-116125000D03*
D14*
X183515000Y-122555000D03*
D15*
X189515000Y-122555000D03*
D16*
X190515000Y-127055000D03*
X190515000Y-118055000D03*
D17*
X150495000Y-106045000D03*
D18*
X135255000Y-113665000D03*
X147955000Y-106045000D03*
X137795000Y-113665000D03*
X145415000Y-106045000D03*
X140335000Y-113665000D03*
X142875000Y-106045000D03*
X142875000Y-113665000D03*
X140335000Y-106045000D03*
X145415000Y-113665000D03*
X137795000Y-106045000D03*
X147955000Y-113665000D03*
X135255000Y-106045000D03*
X150495000Y-113665000D03*
D19*
X159004000Y-115570000D03*
X157734000Y-115570000D03*
D20*
X160274000Y-115570000D03*
D21*
X120650000Y-97790000D03*
D22*
X120650000Y-101290000D03*
X179150000Y-97790000D03*
D23*
X126000000Y-95340000D03*
X173800000Y-95340000D03*
X124800000Y-103740000D03*
X175000000Y-103740000D03*
D21*
X120650000Y-121920000D03*
D22*
X120650000Y-125420000D03*
X179150000Y-121920000D03*
D23*
X126000000Y-119470000D03*
X173800000Y-119470000D03*
X124800000Y-127870000D03*
X175000000Y-127870000D03*
D13*
X135255000Y-116840000D03*
X140255000Y-116840000D03*
X125730000Y-115570000D03*
X120730000Y-115570000D03*
D24*
X191770000Y-88900000D03*
D25*
X188270000Y-88900000D03*
X184770000Y-88900000D03*
X181270000Y-88900000D03*
D24*
X191008000Y-103632000D03*
D25*
X191008000Y-100132000D03*
X191008000Y-96632000D03*
D19*
X130175000Y-116205000D03*
X131445000Y-116205000D03*
D20*
X128905000Y-116205000D03*
D21*
X164465000Y-107315000D03*
D26*
X156845000Y-107315000D03*
D27*
X194310000Y-111125000D03*
X191910000Y-113125000D03*
X186410000Y-113125000D03*
D17*
X128270000Y-109220000D03*
D13*
X130770000Y-109220000D03*
D28*
X172720000Y-91440000D03*
D29*
X172720000Y-87640000D03*
X171450000Y-89540000D03*
X171450000Y-85740000D03*
X170180000Y-91440000D03*
X170180000Y-87640000D03*
X168910000Y-89540000D03*
X168910000Y-85740000D03*
X167640000Y-91440000D03*
X167640000Y-87640000D03*
X166370000Y-89540000D03*
X166370000Y-85740000D03*
X165100000Y-91440000D03*
X165100000Y-87640000D03*
X163830000Y-89540000D03*
X163830000Y-85740000D03*
X162560000Y-91440000D03*
X162560000Y-87640000D03*
X161290000Y-89540000D03*
X161290000Y-85740000D03*
X160020000Y-91440000D03*
X160020000Y-87640000D03*
X158750000Y-89540000D03*
X158750000Y-85740000D03*
X157480000Y-91440000D03*
X157480000Y-87640000D03*
X156210000Y-89540000D03*
X156210000Y-85740000D03*
X154940000Y-91440000D03*
X154940000Y-87640000D03*
X153670000Y-89540000D03*
X153670000Y-85740000D03*
X152400000Y-91440000D03*
X152400000Y-87640000D03*
X151130000Y-89540000D03*
X151130000Y-85740000D03*
X149860000Y-91440000D03*
X149860000Y-87640000D03*
X148590000Y-89540000D03*
X148590000Y-85740000D03*
X147320000Y-91440000D03*
X147320000Y-87640000D03*
X146050000Y-89540000D03*
X146050000Y-85740000D03*
X144780000Y-91440000D03*
X144780000Y-87640000D03*
X143510000Y-89540000D03*
X143510000Y-85740000D03*
X142240000Y-91440000D03*
X142240000Y-87640000D03*
X140970000Y-89540000D03*
X140970000Y-85740000D03*
X139700000Y-91440000D03*
X139700000Y-87640000D03*
X138430000Y-89540000D03*
X138430000Y-85740000D03*
X137160000Y-91440000D03*
X137160000Y-87640000D03*
X135890000Y-89540000D03*
X135890000Y-85740000D03*
X134620000Y-91440000D03*
X134620000Y-87640000D03*
X133350000Y-89540000D03*
X133350000Y-85740000D03*
X132080000Y-91440000D03*
X132080000Y-87640000D03*
X130810000Y-89540000D03*
X130810000Y-85740000D03*
X129540000Y-91440000D03*
X129540000Y-87640000D03*
X128270000Y-89540000D03*
X128270000Y-85740000D03*
X127000000Y-91440000D03*
X127000000Y-87640000D03*
X125730000Y-89540000D03*
X125730000Y-85740000D03*
X124460000Y-91440000D03*
X124460000Y-87640000D03*
X123190000Y-89540000D03*
X123190000Y-85740000D03*
D17*
X182626000Y-97028000D03*
D13*
X185126000Y-97028000D03*
D17*
X182626000Y-102870000D03*
D13*
X185126000Y-102870000D03*
X179070000Y-113030000D03*
X179070000Y-110530000D03*
X177165000Y-107315000D03*
D18*
X179705000Y-107315000D03*
D13*
X158115000Y-111760000D03*
D18*
X160655000Y-111760000D03*
D13*
X177165000Y-116205000D03*
D18*
X179705000Y-116205000D03*
D30*
X154305000Y-114300000D03*
X165100000Y-121920000D03*
X164465000Y-97790000D03*
X176784000Y-123444000D03*
X123190000Y-123444000D03*
X133350000Y-100965000D03*
X146685000Y-125730000D03*
X144103074Y-112136185D03*
X163830000Y-114300000D03*
X166457026Y-109510473D03*
X165735000Y-109855000D03*
X151130000Y-95250000D03*
X140335000Y-95250000D03*
X153670000Y-97790000D03*
X139065000Y-97790000D03*
X154940000Y-101600000D03*
X147955000Y-101600000D03*
X161925000Y-125095000D03*
X193675000Y-125095000D03*
X137795000Y-99060000D03*
X177165000Y-99060000D03*
X177800000Y-90805000D03*
X135255000Y-93345000D03*
X184785000Y-92710000D03*
X180340000Y-104775000D03*
X187435969Y-110509196D03*
D31*
X171450000Y-89540000D02*
X171450000Y-90170000D01*
X171450000Y-90170000D02*
X172720000Y-91440000D01*
X168910000Y-89540000D02*
X168910000Y-90170000D01*
X168910000Y-90170000D02*
X170180000Y-91440000D01*
X166370000Y-89540000D02*
X166370000Y-90170000D01*
X166370000Y-90170000D02*
X167640000Y-91440000D01*
X154305000Y-114300000D02*
X154305000Y-111125000D01*
X154305000Y-111125000D02*
X154305000Y-109855000D01*
X154305000Y-109855000D02*
X156845000Y-107315000D01*
X164465000Y-107315000D02*
X164465000Y-109904078D01*
X164465000Y-109904078D02*
X165100000Y-110539078D01*
X165100000Y-110539078D02*
X165100000Y-121920000D01*
X157480000Y-91440000D02*
X157480000Y-90810000D01*
X157480000Y-90810000D02*
X156210000Y-89540000D01*
X160020000Y-91440000D02*
X160020000Y-90810000D01*
X160020000Y-90810000D02*
X158750000Y-89540000D01*
X162560000Y-91440000D02*
X162560000Y-90810000D01*
X162560000Y-90810000D02*
X161290000Y-89540000D01*
X164465000Y-97790000D02*
X164465000Y-93345000D01*
X164465000Y-93345000D02*
X162560000Y-91440000D01*
X164465000Y-107315000D02*
X164465000Y-97790000D01*
D32*
X179705000Y-107315000D02*
X179705000Y-108446370D01*
X179705000Y-108446370D02*
X180504999Y-109246369D01*
X180504999Y-109246369D02*
X180504999Y-115405001D01*
X180504999Y-115405001D02*
X179705000Y-116205000D01*
X176784000Y-123444000D02*
X176784000Y-119126000D01*
X176784000Y-119126000D02*
X179705000Y-116205000D01*
X124460000Y-91440000D02*
X123124999Y-92775001D01*
X123124999Y-92775001D02*
X123124999Y-123378999D01*
X123124999Y-123378999D02*
X123190000Y-123444000D01*
X124460000Y-91440000D02*
X124460000Y-90810000D01*
X124460000Y-90810000D02*
X125730000Y-89540000D01*
X127000000Y-91440000D02*
X127000000Y-90810000D01*
X127000000Y-90810000D02*
X128270000Y-89540000D01*
X137160000Y-91440000D02*
X137160000Y-90810000D01*
X137160000Y-90810000D02*
X138430000Y-89540000D01*
X134620000Y-91440000D02*
X134620000Y-90810000D01*
X134620000Y-90810000D02*
X135890000Y-89540000D01*
X133350000Y-100965000D02*
X134620000Y-99695000D01*
X134620000Y-99695000D02*
X134620000Y-91440000D01*
X148590000Y-89540000D02*
X148590000Y-90170000D01*
X148590000Y-90170000D02*
X149860000Y-91440000D01*
X147320000Y-91440000D02*
X147320000Y-90810000D01*
X147320000Y-90810000D02*
X146050000Y-89540000D01*
X146685000Y-125730000D02*
X147320000Y-125095000D01*
X147320000Y-125095000D02*
X147320000Y-114695002D01*
X147320000Y-114695002D02*
X146570001Y-113945003D01*
X146570001Y-113945003D02*
X146570001Y-92189999D01*
X146570001Y-92189999D02*
X147320000Y-91440000D01*
X144403073Y-111836186D02*
X144103074Y-112136185D01*
X145415000Y-110824259D02*
X144403073Y-111836186D01*
X145415000Y-106045000D02*
X145415000Y-110824259D01*
D31*
X163830000Y-111125000D02*
X163830000Y-114300000D01*
D32*
X166457026Y-92797026D02*
X166457026Y-109510473D01*
X165100000Y-91440000D02*
X166457026Y-92797026D01*
X165735000Y-109855000D02*
X165735000Y-108830002D01*
X165735000Y-108830002D02*
X165890001Y-108675001D01*
X165890001Y-108675001D02*
X165890001Y-93821003D01*
X165890001Y-93821003D02*
X163830000Y-91761002D01*
X163830000Y-91761002D02*
X163830000Y-89540000D01*
X151130000Y-95250000D02*
X151130000Y-89540000D01*
X140335000Y-106045000D02*
X140335000Y-95250000D01*
X153670000Y-97790000D02*
X153670000Y-89540000D01*
X137795000Y-113665000D02*
X139065000Y-112395000D01*
X139065000Y-112395000D02*
X139065000Y-97790000D01*
X154940000Y-101600000D02*
X154940000Y-91440000D01*
X147955000Y-106045000D02*
X147955000Y-101600000D01*
X161925000Y-125095000D02*
X161925000Y-113030000D01*
X161925000Y-113030000D02*
X160655000Y-111760000D01*
X191008000Y-100132000D02*
X192633001Y-101757001D01*
X192633001Y-101757001D02*
X192633001Y-109848997D01*
X192633001Y-109848997D02*
X190184999Y-112296999D01*
X190184999Y-112296999D02*
X190184999Y-113953001D01*
X190184999Y-113953001D02*
X193675000Y-117443002D01*
X193675000Y-117443002D02*
X193675000Y-125095000D01*
X137795000Y-99060000D02*
X137795000Y-106045000D01*
X177800000Y-90805000D02*
X177165000Y-91440000D01*
X177165000Y-91440000D02*
X177165000Y-99060000D01*
X134129999Y-112539999D02*
X135255000Y-113665000D01*
X134129999Y-100821411D02*
X134129999Y-112539999D01*
X135255000Y-99696410D02*
X134129999Y-100821411D01*
X135255000Y-93345000D02*
X135255000Y-99696410D01*
X184770000Y-88900000D02*
X184770000Y-92695000D01*
X184770000Y-92695000D02*
X184785000Y-92710000D01*
X182626000Y-102870000D02*
X182626000Y-103920000D01*
X182626000Y-103920000D02*
X181771000Y-104775000D01*
X181771000Y-104775000D02*
X180340000Y-104775000D01*
X182626000Y-97028000D02*
X182626000Y-102870000D01*
X187435969Y-110084932D02*
X187435969Y-110509196D01*
X187435969Y-99337969D02*
X187435969Y-110084932D01*
X185126000Y-97028000D02*
X187435969Y-99337969D01*
X177165000Y-116205000D02*
X179070000Y-114300000D01*
X179070000Y-114300000D02*
X179070000Y-113030000D01*
X186410000Y-113125000D02*
X186410000Y-104154000D01*
X186410000Y-104154000D02*
X185126000Y-102870000D01*
D33*
G36*
X194449272Y-84490741D02*
X195105668Y-84929332D01*
X195544259Y-85585728D01*
X195708200Y-86409916D01*
X195708200Y-109592412D01*
X195685590Y-109569802D01*
X195572117Y-109683275D01*
X195424545Y-109374894D01*
X194669969Y-109081595D01*
X193860591Y-109099386D01*
X193195455Y-109374894D01*
X193189801Y-109386709D01*
X193189801Y-101757001D01*
X193147417Y-101543923D01*
X193026718Y-101363284D01*
X192564021Y-100900587D01*
X192739499Y-100477988D01*
X192740100Y-99789035D01*
X192477005Y-99152296D01*
X191990267Y-98664707D01*
X191585982Y-98496833D01*
X192062496Y-98299455D01*
X192197854Y-98001459D01*
X191008000Y-96811605D01*
X189818146Y-98001459D01*
X189953504Y-98299455D01*
X190447644Y-98489724D01*
X190028296Y-98662995D01*
X189540707Y-99149733D01*
X189276501Y-99786012D01*
X189275900Y-100474965D01*
X189538995Y-101111704D01*
X190025733Y-101599293D01*
X190662012Y-101863499D01*
X191350965Y-101864100D01*
X191776740Y-101688174D01*
X191980307Y-101891741D01*
X189708000Y-101891741D01*
X189547985Y-101921850D01*
X189401020Y-102016419D01*
X189302427Y-102160715D01*
X189267741Y-102332000D01*
X189267741Y-104932000D01*
X189297850Y-105092015D01*
X189392419Y-105238980D01*
X189536715Y-105337573D01*
X189708000Y-105372259D01*
X192076201Y-105372259D01*
X192076201Y-109618363D01*
X189791282Y-111903282D01*
X189670583Y-112083921D01*
X189628199Y-112296999D01*
X189628199Y-113953001D01*
X189670583Y-114166079D01*
X189791282Y-114346718D01*
X191208360Y-115763796D01*
X190958409Y-115664044D01*
X190009677Y-115676359D01*
X189190364Y-116015729D01*
X189000077Y-116360472D01*
X190515000Y-117875395D01*
X190529143Y-117861253D01*
X190708748Y-118040858D01*
X190694605Y-118055000D01*
X192209528Y-119569923D01*
X192554271Y-119379636D01*
X192905956Y-118498409D01*
X192893641Y-117549677D01*
X192822506Y-117377942D01*
X193118200Y-117673636D01*
X193118200Y-121471698D01*
X192761095Y-121323415D01*
X192271055Y-121322987D01*
X191818153Y-121510122D01*
X191637419Y-121690541D01*
X191471666Y-121290379D01*
X191137314Y-121112291D01*
X189694605Y-122555000D01*
X191137314Y-123997709D01*
X191471666Y-123819621D01*
X191632333Y-123414341D01*
X191816331Y-123598660D01*
X192268905Y-123786585D01*
X192758945Y-123787013D01*
X193118200Y-123638572D01*
X193118200Y-124616809D01*
X193054972Y-124679927D01*
X192943327Y-124948797D01*
X192943073Y-125239925D01*
X193054248Y-125508990D01*
X193259927Y-125715028D01*
X193528797Y-125826673D01*
X193819925Y-125826927D01*
X194088990Y-125715752D01*
X194295028Y-125510073D01*
X194406673Y-125241203D01*
X194406927Y-124950075D01*
X194295752Y-124681010D01*
X194231800Y-124616946D01*
X194231800Y-117443002D01*
X194189416Y-117229924D01*
X194068717Y-117049285D01*
X191976290Y-114956858D01*
X192272769Y-114957117D01*
X192946276Y-114678830D01*
X193462019Y-114163986D01*
X193741481Y-113490966D01*
X193741833Y-113087480D01*
X193950031Y-113168405D01*
X194759409Y-113150614D01*
X195424545Y-112875106D01*
X195572117Y-112566725D01*
X195685590Y-112680198D01*
X195708200Y-112657588D01*
X195708200Y-126950084D01*
X195544259Y-127774272D01*
X195105668Y-128430668D01*
X194449272Y-128869259D01*
X193625084Y-129033200D01*
X191873345Y-129033200D01*
X192029923Y-128749528D01*
X190515000Y-127234605D01*
X189000077Y-128749528D01*
X189156655Y-129033200D01*
X176540160Y-129033200D01*
X176708782Y-128954522D01*
X176993737Y-128218045D01*
X176975164Y-127428582D01*
X176708782Y-126785478D01*
X176405593Y-126644012D01*
X175179605Y-127870000D01*
X175193748Y-127884143D01*
X175014143Y-128063748D01*
X175000000Y-128049605D01*
X174985858Y-128063748D01*
X174806253Y-127884143D01*
X174820395Y-127870000D01*
X173594407Y-126644012D01*
X173291218Y-126785478D01*
X173006263Y-127521955D01*
X173024836Y-128311418D01*
X173291218Y-128954522D01*
X173459840Y-129033200D01*
X126340160Y-129033200D01*
X126508782Y-128954522D01*
X126793737Y-128218045D01*
X126775164Y-127428582D01*
X126508782Y-126785478D01*
X126205593Y-126644012D01*
X124979605Y-127870000D01*
X124993748Y-127884143D01*
X124814143Y-128063748D01*
X124800000Y-128049605D01*
X124785858Y-128063748D01*
X124606253Y-127884143D01*
X124620395Y-127870000D01*
X123394407Y-126644012D01*
X123091218Y-126785478D01*
X122806263Y-127521955D01*
X122824836Y-128311418D01*
X123091218Y-128954522D01*
X123259840Y-129033200D01*
X121334916Y-129033200D01*
X120510728Y-128869259D01*
X119854332Y-128430668D01*
X119415741Y-127774272D01*
X119251800Y-126950084D01*
X119251800Y-126047337D01*
X119350646Y-126286562D01*
X119781172Y-126717840D01*
X120343969Y-126951534D01*
X120953357Y-126952066D01*
X121516562Y-126719354D01*
X121771954Y-126464407D01*
X123574012Y-126464407D01*
X124800000Y-127690395D01*
X126025988Y-126464407D01*
X173774012Y-126464407D01*
X175000000Y-127690395D01*
X176078804Y-126611591D01*
X188124044Y-126611591D01*
X188136359Y-127560323D01*
X188475729Y-128379636D01*
X188820472Y-128569923D01*
X190335395Y-127055000D01*
X190694605Y-127055000D01*
X192209528Y-128569923D01*
X192554271Y-128379636D01*
X192905956Y-127498409D01*
X192893641Y-126549677D01*
X192554271Y-125730364D01*
X192209528Y-125540077D01*
X190694605Y-127055000D01*
X190335395Y-127055000D01*
X188820472Y-125540077D01*
X188475729Y-125730364D01*
X188124044Y-126611591D01*
X176078804Y-126611591D01*
X176225988Y-126464407D01*
X176084522Y-126161218D01*
X175348045Y-125876263D01*
X174558582Y-125894836D01*
X173915478Y-126161218D01*
X173774012Y-126464407D01*
X126025988Y-126464407D01*
X125884522Y-126161218D01*
X125148045Y-125876263D01*
X124358582Y-125894836D01*
X123715478Y-126161218D01*
X123574012Y-126464407D01*
X121771954Y-126464407D01*
X121947840Y-126288828D01*
X122181534Y-125726031D01*
X122182066Y-125116643D01*
X121949354Y-124553438D01*
X121518828Y-124122160D01*
X120956031Y-123888466D01*
X120346643Y-123887934D01*
X119783438Y-124120646D01*
X119352160Y-124551172D01*
X119251800Y-124792865D01*
X119251800Y-123583800D01*
X119423691Y-123655000D01*
X120364250Y-123655000D01*
X120523000Y-123496250D01*
X120523000Y-122047000D01*
X120777000Y-122047000D01*
X120777000Y-123496250D01*
X120935750Y-123655000D01*
X121876309Y-123655000D01*
X122109698Y-123558327D01*
X122288327Y-123379699D01*
X122385000Y-123146310D01*
X122385000Y-122205750D01*
X122226250Y-122047000D01*
X120777000Y-122047000D01*
X120523000Y-122047000D01*
X120503000Y-122047000D01*
X120503000Y-121793000D01*
X120523000Y-121793000D01*
X120523000Y-120343750D01*
X120777000Y-120343750D01*
X120777000Y-121793000D01*
X122226250Y-121793000D01*
X122385000Y-121634250D01*
X122385000Y-120693690D01*
X122288327Y-120460301D01*
X122109698Y-120281673D01*
X121876309Y-120185000D01*
X120935750Y-120185000D01*
X120777000Y-120343750D01*
X120523000Y-120343750D01*
X120364250Y-120185000D01*
X119423691Y-120185000D01*
X119251800Y-120256200D01*
X119251800Y-116577745D01*
X119901861Y-116577745D01*
X119975995Y-116823864D01*
X120513223Y-117016965D01*
X121083454Y-116989778D01*
X121484005Y-116823864D01*
X121558139Y-116577745D01*
X120730000Y-115749605D01*
X119901861Y-116577745D01*
X119251800Y-116577745D01*
X119251800Y-115353223D01*
X119283035Y-115353223D01*
X119310222Y-115923454D01*
X119476136Y-116324005D01*
X119722255Y-116398139D01*
X120550395Y-115570000D01*
X120909605Y-115570000D01*
X121737745Y-116398139D01*
X121983864Y-116324005D01*
X122176965Y-115786777D01*
X122149778Y-115216546D01*
X121983864Y-114815995D01*
X121737745Y-114741861D01*
X120909605Y-115570000D01*
X120550395Y-115570000D01*
X119722255Y-114741861D01*
X119476136Y-114815995D01*
X119283035Y-115353223D01*
X119251800Y-115353223D01*
X119251800Y-114562255D01*
X119901861Y-114562255D01*
X120730000Y-115390395D01*
X121558139Y-114562255D01*
X121484005Y-114316136D01*
X120946777Y-114123035D01*
X120376546Y-114150222D01*
X119975995Y-114316136D01*
X119901861Y-114562255D01*
X119251800Y-114562255D01*
X119251800Y-101917337D01*
X119350646Y-102156562D01*
X119781172Y-102587840D01*
X120343969Y-102821534D01*
X120953357Y-102822066D01*
X121516562Y-102589354D01*
X121947840Y-102158828D01*
X122181534Y-101596031D01*
X122182066Y-100986643D01*
X121949354Y-100423438D01*
X121518828Y-99992160D01*
X120956031Y-99758466D01*
X120346643Y-99757934D01*
X119783438Y-99990646D01*
X119352160Y-100421172D01*
X119251800Y-100662865D01*
X119251800Y-99453800D01*
X119423691Y-99525000D01*
X120364250Y-99525000D01*
X120523000Y-99366250D01*
X120523000Y-97917000D01*
X120777000Y-97917000D01*
X120777000Y-99366250D01*
X120935750Y-99525000D01*
X121876309Y-99525000D01*
X122109698Y-99428327D01*
X122288327Y-99249699D01*
X122385000Y-99016310D01*
X122385000Y-98075750D01*
X122226250Y-97917000D01*
X120777000Y-97917000D01*
X120523000Y-97917000D01*
X120503000Y-97917000D01*
X120503000Y-97663000D01*
X120523000Y-97663000D01*
X120523000Y-96213750D01*
X120777000Y-96213750D01*
X120777000Y-97663000D01*
X122226250Y-97663000D01*
X122385000Y-97504250D01*
X122385000Y-96563690D01*
X122288327Y-96330301D01*
X122109698Y-96151673D01*
X121876309Y-96055000D01*
X120935750Y-96055000D01*
X120777000Y-96213750D01*
X120523000Y-96213750D01*
X120364250Y-96055000D01*
X119423691Y-96055000D01*
X119251800Y-96126200D01*
X119251800Y-86409916D01*
X119338500Y-85974043D01*
X122007995Y-85974043D01*
X122187534Y-86408561D01*
X122519690Y-86741297D01*
X122953894Y-86921595D01*
X123424043Y-86922005D01*
X123564685Y-86863893D01*
X123458703Y-86969690D01*
X123278405Y-87403894D01*
X123277995Y-87874043D01*
X123457534Y-88308561D01*
X123564769Y-88415983D01*
X123426106Y-88358405D01*
X122955957Y-88357995D01*
X122521439Y-88537534D01*
X122188703Y-88869690D01*
X122008405Y-89303894D01*
X122007995Y-89774043D01*
X122187534Y-90208561D01*
X122519690Y-90541297D01*
X122953894Y-90721595D01*
X123424043Y-90722005D01*
X123564685Y-90663893D01*
X123458703Y-90769690D01*
X123278405Y-91203894D01*
X123277995Y-91674043D01*
X123324930Y-91787636D01*
X122731282Y-92381284D01*
X122610583Y-92561923D01*
X122568199Y-92775001D01*
X122568199Y-123033197D01*
X122458327Y-123297797D01*
X122458073Y-123588925D01*
X122569248Y-123857990D01*
X122774927Y-124064028D01*
X123043797Y-124175673D01*
X123334925Y-124175927D01*
X123603990Y-124064752D01*
X123810028Y-123859073D01*
X123921673Y-123590203D01*
X123921927Y-123299075D01*
X123810752Y-123030010D01*
X123681799Y-122900832D01*
X123681799Y-120875593D01*
X124774012Y-120875593D01*
X124915478Y-121178782D01*
X125651955Y-121463737D01*
X126441418Y-121445164D01*
X127084522Y-121178782D01*
X127225988Y-120875593D01*
X126000000Y-119649605D01*
X124774012Y-120875593D01*
X123681799Y-120875593D01*
X123681799Y-119121955D01*
X124006263Y-119121955D01*
X124024836Y-119911418D01*
X124291218Y-120554522D01*
X124594407Y-120695988D01*
X125820395Y-119470000D01*
X126179605Y-119470000D01*
X127405593Y-120695988D01*
X127708782Y-120554522D01*
X127993737Y-119818045D01*
X127975164Y-119028582D01*
X127708782Y-118385478D01*
X127405593Y-118244012D01*
X126179605Y-119470000D01*
X125820395Y-119470000D01*
X124594407Y-118244012D01*
X124291218Y-118385478D01*
X124006263Y-119121955D01*
X123681799Y-119121955D01*
X123681799Y-118064407D01*
X124774012Y-118064407D01*
X126000000Y-119290395D01*
X127225988Y-118064407D01*
X127084522Y-117761218D01*
X126348045Y-117476263D01*
X125558582Y-117494836D01*
X124915478Y-117761218D01*
X124774012Y-118064407D01*
X123681799Y-118064407D01*
X123681799Y-115813945D01*
X124497987Y-115813945D01*
X124685122Y-116266847D01*
X125031331Y-116613660D01*
X125483905Y-116801585D01*
X125973945Y-116802013D01*
X126426847Y-116614878D01*
X126551191Y-116490750D01*
X127820000Y-116490750D01*
X127820000Y-117081310D01*
X127916673Y-117314699D01*
X128095302Y-117493327D01*
X128328691Y-117590000D01*
X128619250Y-117590000D01*
X128778000Y-117431250D01*
X128778000Y-116332000D01*
X127978750Y-116332000D01*
X127820000Y-116490750D01*
X126551191Y-116490750D01*
X126773660Y-116268669D01*
X126961585Y-115816095D01*
X126962010Y-115328690D01*
X127820000Y-115328690D01*
X127820000Y-115919250D01*
X127978750Y-116078000D01*
X128778000Y-116078000D01*
X128778000Y-114978750D01*
X129032000Y-114978750D01*
X129032000Y-116078000D01*
X129052000Y-116078000D01*
X129052000Y-116332000D01*
X129032000Y-116332000D01*
X129032000Y-117431250D01*
X129190750Y-117590000D01*
X129481309Y-117590000D01*
X129714698Y-117493327D01*
X129860609Y-117347417D01*
X130175000Y-117409953D01*
X130512450Y-117342830D01*
X130798527Y-117151680D01*
X130810000Y-117134509D01*
X130821473Y-117151680D01*
X131107550Y-117342830D01*
X131445000Y-117409953D01*
X131782450Y-117342830D01*
X132068527Y-117151680D01*
X132113785Y-117083945D01*
X134022987Y-117083945D01*
X134210122Y-117536847D01*
X134556331Y-117883660D01*
X135008905Y-118071585D01*
X135498945Y-118072013D01*
X135951847Y-117884878D01*
X135989044Y-117847745D01*
X139426861Y-117847745D01*
X139500995Y-118093864D01*
X140038223Y-118286965D01*
X140608454Y-118259778D01*
X141009005Y-118093864D01*
X141083139Y-117847745D01*
X140255000Y-117019605D01*
X139426861Y-117847745D01*
X135989044Y-117847745D01*
X136298660Y-117538669D01*
X136486585Y-117086095D01*
X136486989Y-116623223D01*
X138808035Y-116623223D01*
X138835222Y-117193454D01*
X139001136Y-117594005D01*
X139247255Y-117668139D01*
X140075395Y-116840000D01*
X140434605Y-116840000D01*
X141262745Y-117668139D01*
X141508864Y-117594005D01*
X141701965Y-117056777D01*
X141674778Y-116486546D01*
X141508864Y-116085995D01*
X141262745Y-116011861D01*
X140434605Y-116840000D01*
X140075395Y-116840000D01*
X139247255Y-116011861D01*
X139001136Y-116085995D01*
X138808035Y-116623223D01*
X136486989Y-116623223D01*
X136487013Y-116596055D01*
X136299878Y-116143153D01*
X135989522Y-115832255D01*
X139426861Y-115832255D01*
X140255000Y-116660395D01*
X141083139Y-115832255D01*
X141009005Y-115586136D01*
X140471777Y-115393035D01*
X139901546Y-115420222D01*
X139500995Y-115586136D01*
X139426861Y-115832255D01*
X135989522Y-115832255D01*
X135953669Y-115796340D01*
X135501095Y-115608415D01*
X135011055Y-115607987D01*
X134558153Y-115795122D01*
X134211340Y-116141331D01*
X134023415Y-116593905D01*
X134022987Y-117083945D01*
X132113785Y-117083945D01*
X132259677Y-116865603D01*
X132326800Y-116528153D01*
X132326800Y-115881847D01*
X132259677Y-115544397D01*
X132068527Y-115258320D01*
X131782450Y-115067170D01*
X131445000Y-115000047D01*
X131107550Y-115067170D01*
X130821473Y-115258320D01*
X130810000Y-115275491D01*
X130798527Y-115258320D01*
X130512450Y-115067170D01*
X130175000Y-115000047D01*
X129860609Y-115062583D01*
X129714698Y-114916673D01*
X129481309Y-114820000D01*
X129190750Y-114820000D01*
X129032000Y-114978750D01*
X128778000Y-114978750D01*
X128619250Y-114820000D01*
X128328691Y-114820000D01*
X128095302Y-114916673D01*
X127916673Y-115095301D01*
X127820000Y-115328690D01*
X126962010Y-115328690D01*
X126962013Y-115326055D01*
X126774878Y-114873153D01*
X126428669Y-114526340D01*
X125976095Y-114338415D01*
X125486055Y-114337987D01*
X125033153Y-114525122D01*
X124686340Y-114871331D01*
X124498415Y-115323905D01*
X124497987Y-115813945D01*
X123681799Y-115813945D01*
X123681799Y-108420000D01*
X127029741Y-108420000D01*
X127029741Y-110020000D01*
X127059850Y-110180015D01*
X127154419Y-110326980D01*
X127298715Y-110425573D01*
X127470000Y-110460259D01*
X129070000Y-110460259D01*
X129230015Y-110430150D01*
X129376980Y-110335581D01*
X129450661Y-110227745D01*
X129941861Y-110227745D01*
X130015995Y-110473864D01*
X130553223Y-110666965D01*
X131123454Y-110639778D01*
X131524005Y-110473864D01*
X131598139Y-110227745D01*
X130770000Y-109399605D01*
X129941861Y-110227745D01*
X129450661Y-110227745D01*
X129475573Y-110191285D01*
X129510259Y-110020000D01*
X129510259Y-109959817D01*
X129516136Y-109974005D01*
X129762255Y-110048139D01*
X130590395Y-109220000D01*
X130949605Y-109220000D01*
X131777745Y-110048139D01*
X132023864Y-109974005D01*
X132216965Y-109436777D01*
X132189778Y-108866546D01*
X132023864Y-108465995D01*
X131777745Y-108391861D01*
X130949605Y-109220000D01*
X130590395Y-109220000D01*
X129762255Y-108391861D01*
X129516136Y-108465995D01*
X129510259Y-108482345D01*
X129510259Y-108420000D01*
X129480150Y-108259985D01*
X129449437Y-108212255D01*
X129941861Y-108212255D01*
X130770000Y-109040395D01*
X131598139Y-108212255D01*
X131524005Y-107966136D01*
X130986777Y-107773035D01*
X130416546Y-107800222D01*
X130015995Y-107966136D01*
X129941861Y-108212255D01*
X129449437Y-108212255D01*
X129385581Y-108113020D01*
X129241285Y-108014427D01*
X129070000Y-107979741D01*
X127470000Y-107979741D01*
X127309985Y-108009850D01*
X127163020Y-108104419D01*
X127064427Y-108248715D01*
X127029741Y-108420000D01*
X123681799Y-108420000D01*
X123681799Y-105376601D01*
X123715478Y-105448782D01*
X124451955Y-105733737D01*
X125241418Y-105715164D01*
X125884522Y-105448782D01*
X126025988Y-105145593D01*
X124800000Y-103919605D01*
X124785858Y-103933748D01*
X124606253Y-103754143D01*
X124620395Y-103740000D01*
X124979605Y-103740000D01*
X126205593Y-104965988D01*
X126508782Y-104824522D01*
X126793737Y-104088045D01*
X126775164Y-103298582D01*
X126508782Y-102655478D01*
X126205593Y-102514012D01*
X124979605Y-103740000D01*
X124620395Y-103740000D01*
X124606253Y-103725858D01*
X124785858Y-103546253D01*
X124800000Y-103560395D01*
X126025988Y-102334407D01*
X125884522Y-102031218D01*
X125148045Y-101746263D01*
X124358582Y-101764836D01*
X123715478Y-102031218D01*
X123681799Y-102103399D01*
X123681799Y-96745593D01*
X124774012Y-96745593D01*
X124915478Y-97048782D01*
X125651955Y-97333737D01*
X126441418Y-97315164D01*
X127084522Y-97048782D01*
X127225988Y-96745593D01*
X126000000Y-95519605D01*
X124774012Y-96745593D01*
X123681799Y-96745593D01*
X123681799Y-94991955D01*
X124006263Y-94991955D01*
X124024836Y-95781418D01*
X124291218Y-96424522D01*
X124594407Y-96565988D01*
X125820395Y-95340000D01*
X126179605Y-95340000D01*
X127405593Y-96565988D01*
X127708782Y-96424522D01*
X127993737Y-95688045D01*
X127975164Y-94898582D01*
X127708782Y-94255478D01*
X127405593Y-94114012D01*
X126179605Y-95340000D01*
X125820395Y-95340000D01*
X124594407Y-94114012D01*
X124291218Y-94255478D01*
X124006263Y-94991955D01*
X123681799Y-94991955D01*
X123681799Y-93934407D01*
X124774012Y-93934407D01*
X126000000Y-95160395D01*
X127225988Y-93934407D01*
X127084522Y-93631218D01*
X126348045Y-93346263D01*
X125558582Y-93364836D01*
X124915478Y-93631218D01*
X124774012Y-93934407D01*
X123681799Y-93934407D01*
X123681799Y-93005635D01*
X124112213Y-92575221D01*
X124223894Y-92621595D01*
X124694043Y-92622005D01*
X125128561Y-92442466D01*
X125461297Y-92110310D01*
X125641595Y-91676106D01*
X125642005Y-91205957D01*
X125462466Y-90771439D01*
X125374307Y-90683127D01*
X125382213Y-90675221D01*
X125493894Y-90721595D01*
X125964043Y-90722005D01*
X126104685Y-90663893D01*
X125998703Y-90769690D01*
X125818405Y-91203894D01*
X125817995Y-91674043D01*
X125997534Y-92108561D01*
X126329690Y-92441297D01*
X126763894Y-92621595D01*
X127234043Y-92622005D01*
X127668561Y-92442466D01*
X128001297Y-92110310D01*
X128181595Y-91676106D01*
X128182005Y-91205957D01*
X128002466Y-90771439D01*
X127914307Y-90683127D01*
X127922213Y-90675221D01*
X128033894Y-90721595D01*
X128504043Y-90722005D01*
X128644685Y-90663893D01*
X128538703Y-90769690D01*
X128358405Y-91203894D01*
X128357995Y-91674043D01*
X128537534Y-92108561D01*
X128869690Y-92441297D01*
X129303894Y-92621595D01*
X129774043Y-92622005D01*
X130208561Y-92442466D01*
X130541297Y-92110310D01*
X130721595Y-91676106D01*
X130722005Y-91205957D01*
X130542466Y-90771439D01*
X130435231Y-90664017D01*
X130573894Y-90721595D01*
X131044043Y-90722005D01*
X131184685Y-90663893D01*
X131078703Y-90769690D01*
X130898405Y-91203894D01*
X130897995Y-91674043D01*
X131077534Y-92108561D01*
X131409690Y-92441297D01*
X131843894Y-92621595D01*
X132314043Y-92622005D01*
X132748561Y-92442466D01*
X133081297Y-92110310D01*
X133261595Y-91676106D01*
X133262005Y-91205957D01*
X133082466Y-90771439D01*
X132975231Y-90664017D01*
X133113894Y-90721595D01*
X133584043Y-90722005D01*
X133724685Y-90663893D01*
X133618703Y-90769690D01*
X133438405Y-91203894D01*
X133437995Y-91674043D01*
X133617534Y-92108561D01*
X133949690Y-92441297D01*
X134063200Y-92488431D01*
X134063200Y-99464366D01*
X133294415Y-100233151D01*
X133205075Y-100233073D01*
X132936010Y-100344248D01*
X132729972Y-100549927D01*
X132618327Y-100818797D01*
X132618073Y-101109925D01*
X132729248Y-101378990D01*
X132934927Y-101585028D01*
X133203797Y-101696673D01*
X133494925Y-101696927D01*
X133573199Y-101664585D01*
X133573199Y-112539999D01*
X133615583Y-112753077D01*
X133736282Y-112933716D01*
X134092921Y-113290355D01*
X134023200Y-113640868D01*
X134023200Y-113689132D01*
X134116965Y-114160521D01*
X134383986Y-114560146D01*
X134783611Y-114827167D01*
X135255000Y-114920932D01*
X135726389Y-114827167D01*
X136126014Y-114560146D01*
X136393035Y-114160521D01*
X136486800Y-113689132D01*
X136486800Y-113640868D01*
X136393035Y-113169479D01*
X136126014Y-112769854D01*
X135726389Y-112502833D01*
X135255000Y-112409068D01*
X134864231Y-112486797D01*
X134686799Y-112309365D01*
X134686799Y-107346130D01*
X134905961Y-107436904D01*
X135128000Y-107314915D01*
X135128000Y-106172000D01*
X135108000Y-106172000D01*
X135108000Y-105918000D01*
X135128000Y-105918000D01*
X135128000Y-104775085D01*
X135382000Y-104775085D01*
X135382000Y-105918000D01*
X135402000Y-105918000D01*
X135402000Y-106172000D01*
X135382000Y-106172000D01*
X135382000Y-107314915D01*
X135604039Y-107436904D01*
X135992423Y-107276041D01*
X136407389Y-106900134D01*
X136633476Y-106422434D01*
X136656965Y-106540521D01*
X136923986Y-106940146D01*
X137323611Y-107207167D01*
X137795000Y-107300932D01*
X138266389Y-107207167D01*
X138508200Y-107045594D01*
X138508200Y-112164366D01*
X138185769Y-112486797D01*
X137795000Y-112409068D01*
X137323611Y-112502833D01*
X136923986Y-112769854D01*
X136656965Y-113169479D01*
X136563200Y-113640868D01*
X136563200Y-113689132D01*
X136656965Y-114160521D01*
X136923986Y-114560146D01*
X137323611Y-114827167D01*
X137795000Y-114920932D01*
X138266389Y-114827167D01*
X138666014Y-114560146D01*
X138933035Y-114160521D01*
X138956524Y-114042434D01*
X139182611Y-114520134D01*
X139597577Y-114896041D01*
X139985961Y-115056904D01*
X140208000Y-114934915D01*
X140208000Y-113792000D01*
X140188000Y-113792000D01*
X140188000Y-113538000D01*
X140208000Y-113538000D01*
X140208000Y-112395085D01*
X139985961Y-112273096D01*
X139615530Y-112426523D01*
X139621800Y-112395000D01*
X139621800Y-107045594D01*
X139863611Y-107207167D01*
X140335000Y-107300932D01*
X140806389Y-107207167D01*
X141206014Y-106940146D01*
X141473035Y-106540521D01*
X141496524Y-106422434D01*
X141722611Y-106900134D01*
X142137577Y-107276041D01*
X142525961Y-107436904D01*
X142748000Y-107314915D01*
X142748000Y-106172000D01*
X142728000Y-106172000D01*
X142728000Y-105918000D01*
X142748000Y-105918000D01*
X142748000Y-104775085D01*
X142525961Y-104653096D01*
X142137577Y-104813959D01*
X141722611Y-105189866D01*
X141496524Y-105667566D01*
X141473035Y-105549479D01*
X141206014Y-105149854D01*
X140891800Y-104939903D01*
X140891800Y-95728191D01*
X140955028Y-95665073D01*
X141066673Y-95396203D01*
X141066927Y-95105075D01*
X140955752Y-94836010D01*
X140750073Y-94629972D01*
X140481203Y-94518327D01*
X140190075Y-94518073D01*
X139921010Y-94629248D01*
X139714972Y-94834927D01*
X139603327Y-95103797D01*
X139603073Y-95394925D01*
X139714248Y-95663990D01*
X139778200Y-95728054D01*
X139778200Y-97599752D01*
X139685752Y-97376010D01*
X139480073Y-97169972D01*
X139211203Y-97058327D01*
X138920075Y-97058073D01*
X138651010Y-97169248D01*
X138444972Y-97374927D01*
X138333327Y-97643797D01*
X138333073Y-97934925D01*
X138444248Y-98203990D01*
X138508200Y-98268054D01*
X138508200Y-98869752D01*
X138415752Y-98646010D01*
X138210073Y-98439972D01*
X137941203Y-98328327D01*
X137650075Y-98328073D01*
X137381010Y-98439248D01*
X137174972Y-98644927D01*
X137063327Y-98913797D01*
X137063073Y-99204925D01*
X137174248Y-99473990D01*
X137238200Y-99538054D01*
X137238200Y-104939903D01*
X136923986Y-105149854D01*
X136656965Y-105549479D01*
X136633476Y-105667566D01*
X136407389Y-105189866D01*
X135992423Y-104813959D01*
X135604039Y-104653096D01*
X135382000Y-104775085D01*
X135128000Y-104775085D01*
X134905961Y-104653096D01*
X134686799Y-104743870D01*
X134686799Y-101052045D01*
X135648717Y-100090127D01*
X135769416Y-99909488D01*
X135811800Y-99696410D01*
X135811800Y-93823191D01*
X135875028Y-93760073D01*
X135986673Y-93491203D01*
X135986927Y-93200075D01*
X135875752Y-92931010D01*
X135670073Y-92724972D01*
X135401203Y-92613327D01*
X135176800Y-92613131D01*
X135176800Y-92488645D01*
X135288561Y-92442466D01*
X135621297Y-92110310D01*
X135801595Y-91676106D01*
X135802005Y-91205957D01*
X135622466Y-90771439D01*
X135534307Y-90683127D01*
X135542213Y-90675221D01*
X135653894Y-90721595D01*
X136124043Y-90722005D01*
X136264685Y-90663893D01*
X136158703Y-90769690D01*
X135978405Y-91203894D01*
X135977995Y-91674043D01*
X136157534Y-92108561D01*
X136489690Y-92441297D01*
X136923894Y-92621595D01*
X137394043Y-92622005D01*
X137828561Y-92442466D01*
X138161297Y-92110310D01*
X138341595Y-91676106D01*
X138342005Y-91205957D01*
X138162466Y-90771439D01*
X138074307Y-90683127D01*
X138082213Y-90675221D01*
X138193894Y-90721595D01*
X138664043Y-90722005D01*
X138804685Y-90663893D01*
X138698703Y-90769690D01*
X138518405Y-91203894D01*
X138517995Y-91674043D01*
X138697534Y-92108561D01*
X139029690Y-92441297D01*
X139463894Y-92621595D01*
X139934043Y-92622005D01*
X140368561Y-92442466D01*
X140701297Y-92110310D01*
X140881595Y-91676106D01*
X140882005Y-91205957D01*
X140702466Y-90771439D01*
X140595231Y-90664017D01*
X140733894Y-90721595D01*
X141204043Y-90722005D01*
X141344685Y-90663893D01*
X141238703Y-90769690D01*
X141058405Y-91203894D01*
X141057995Y-91674043D01*
X141237534Y-92108561D01*
X141569690Y-92441297D01*
X142003894Y-92621595D01*
X142474043Y-92622005D01*
X142908561Y-92442466D01*
X143241297Y-92110310D01*
X143421595Y-91676106D01*
X143422005Y-91205957D01*
X143242466Y-90771439D01*
X143135231Y-90664017D01*
X143273894Y-90721595D01*
X143744043Y-90722005D01*
X143884685Y-90663893D01*
X143778703Y-90769690D01*
X143598405Y-91203894D01*
X143597995Y-91674043D01*
X143777534Y-92108561D01*
X144109690Y-92441297D01*
X144543894Y-92621595D01*
X145014043Y-92622005D01*
X145448561Y-92442466D01*
X145781297Y-92110310D01*
X145961595Y-91676106D01*
X145962005Y-91205957D01*
X145782466Y-90771439D01*
X145675231Y-90664017D01*
X145813894Y-90721595D01*
X146284043Y-90722005D01*
X146397636Y-90675070D01*
X146405555Y-90682989D01*
X146318703Y-90769690D01*
X146138405Y-91203894D01*
X146137995Y-91674043D01*
X146184930Y-91787636D01*
X146176284Y-91796282D01*
X146055585Y-91976921D01*
X146013201Y-92189999D01*
X146013201Y-104967566D01*
X145886389Y-104882833D01*
X145415000Y-104789068D01*
X144943611Y-104882833D01*
X144543986Y-105149854D01*
X144276965Y-105549479D01*
X144253476Y-105667566D01*
X144027389Y-105189866D01*
X143612423Y-104813959D01*
X143224039Y-104653096D01*
X143002000Y-104775085D01*
X143002000Y-105918000D01*
X143022000Y-105918000D01*
X143022000Y-106172000D01*
X143002000Y-106172000D01*
X143002000Y-107314915D01*
X143224039Y-107436904D01*
X143612423Y-107276041D01*
X144027389Y-106900134D01*
X144253476Y-106422434D01*
X144276965Y-106540521D01*
X144543986Y-106940146D01*
X144858200Y-107150097D01*
X144858200Y-110593625D01*
X144047489Y-111404336D01*
X143958149Y-111404258D01*
X143689084Y-111515433D01*
X143483046Y-111721112D01*
X143371401Y-111989982D01*
X143371147Y-112281110D01*
X143482322Y-112550175D01*
X143612687Y-112680768D01*
X143346389Y-112502833D01*
X142875000Y-112409068D01*
X142403611Y-112502833D01*
X142003986Y-112769854D01*
X141736965Y-113169479D01*
X141713476Y-113287566D01*
X141487389Y-112809866D01*
X141072423Y-112433959D01*
X140684039Y-112273096D01*
X140462000Y-112395085D01*
X140462000Y-113538000D01*
X140482000Y-113538000D01*
X140482000Y-113792000D01*
X140462000Y-113792000D01*
X140462000Y-114934915D01*
X140684039Y-115056904D01*
X141072423Y-114896041D01*
X141487389Y-114520134D01*
X141713476Y-114042434D01*
X141736965Y-114160521D01*
X142003986Y-114560146D01*
X142403611Y-114827167D01*
X142875000Y-114920932D01*
X143346389Y-114827167D01*
X143746014Y-114560146D01*
X144013035Y-114160521D01*
X144036524Y-114042434D01*
X144262611Y-114520134D01*
X144677577Y-114896041D01*
X145065961Y-115056904D01*
X145288000Y-114934915D01*
X145288000Y-113792000D01*
X145268000Y-113792000D01*
X145268000Y-113538000D01*
X145288000Y-113538000D01*
X145288000Y-112395085D01*
X145065961Y-112273096D01*
X144791382Y-112386823D01*
X144834747Y-112282388D01*
X144834826Y-112191867D01*
X145808717Y-111217976D01*
X145929416Y-111037337D01*
X145971800Y-110824259D01*
X145971800Y-107150097D01*
X146013201Y-107122434D01*
X146013201Y-112376295D01*
X145764039Y-112273096D01*
X145542000Y-112395085D01*
X145542000Y-113538000D01*
X145562000Y-113538000D01*
X145562000Y-113792000D01*
X145542000Y-113792000D01*
X145542000Y-114934915D01*
X145764039Y-115056904D01*
X146152423Y-114896041D01*
X146457365Y-114619801D01*
X146763200Y-114925636D01*
X146763200Y-115810896D01*
X146748669Y-115796340D01*
X146296095Y-115608415D01*
X145806055Y-115607987D01*
X145353153Y-115795122D01*
X145006340Y-116141331D01*
X144818415Y-116593905D01*
X144817987Y-117083945D01*
X145005122Y-117536847D01*
X145351331Y-117883660D01*
X145803905Y-118071585D01*
X146293945Y-118072013D01*
X146746847Y-117884878D01*
X146763200Y-117868553D01*
X146763200Y-124864366D01*
X146629415Y-124998151D01*
X146540075Y-124998073D01*
X146271010Y-125109248D01*
X146064972Y-125314927D01*
X145953327Y-125583797D01*
X145953073Y-125874925D01*
X146064248Y-126143990D01*
X146269927Y-126350028D01*
X146538797Y-126461673D01*
X146829925Y-126461927D01*
X147098990Y-126350752D01*
X147305028Y-126145073D01*
X147416673Y-125876203D01*
X147416752Y-125785682D01*
X147713717Y-125488717D01*
X147834416Y-125308078D01*
X147876800Y-125095000D01*
X147876800Y-117847745D01*
X150221861Y-117847745D01*
X150295995Y-118093864D01*
X150833223Y-118286965D01*
X151403454Y-118259778D01*
X151804005Y-118093864D01*
X151878139Y-117847745D01*
X151050000Y-117019605D01*
X150221861Y-117847745D01*
X147876800Y-117847745D01*
X147876800Y-116623223D01*
X149603035Y-116623223D01*
X149630222Y-117193454D01*
X149796136Y-117594005D01*
X150042255Y-117668139D01*
X150870395Y-116840000D01*
X151229605Y-116840000D01*
X152057745Y-117668139D01*
X152303864Y-117594005D01*
X152469659Y-117132745D01*
X153476861Y-117132745D01*
X153550995Y-117378864D01*
X154088223Y-117571965D01*
X154658454Y-117544778D01*
X155059005Y-117378864D01*
X155133139Y-117132745D01*
X154305000Y-116304605D01*
X153476861Y-117132745D01*
X152469659Y-117132745D01*
X152496965Y-117056777D01*
X152469778Y-116486546D01*
X152303864Y-116085995D01*
X152057745Y-116011861D01*
X151229605Y-116840000D01*
X150870395Y-116840000D01*
X150042255Y-116011861D01*
X149796136Y-116085995D01*
X149603035Y-116623223D01*
X147876800Y-116623223D01*
X147876800Y-115832255D01*
X150221861Y-115832255D01*
X151050000Y-116660395D01*
X151802171Y-115908223D01*
X152858035Y-115908223D01*
X152885222Y-116478454D01*
X153051136Y-116879005D01*
X153297255Y-116953139D01*
X154125395Y-116125000D01*
X154484605Y-116125000D01*
X155312745Y-116953139D01*
X155558864Y-116879005D01*
X155751965Y-116341777D01*
X155724778Y-115771546D01*
X155558864Y-115370995D01*
X155312745Y-115296861D01*
X154484605Y-116125000D01*
X154125395Y-116125000D01*
X153297255Y-115296861D01*
X153051136Y-115370995D01*
X152858035Y-115908223D01*
X151802171Y-115908223D01*
X151878139Y-115832255D01*
X151804005Y-115586136D01*
X151266777Y-115393035D01*
X150696546Y-115420222D01*
X150295995Y-115586136D01*
X150221861Y-115832255D01*
X147876800Y-115832255D01*
X147876800Y-114695002D01*
X147834416Y-114481924D01*
X147828000Y-114472322D01*
X147828000Y-113792000D01*
X147808000Y-113792000D01*
X147808000Y-113538000D01*
X147828000Y-113538000D01*
X147828000Y-112395085D01*
X148082000Y-112395085D01*
X148082000Y-113538000D01*
X148102000Y-113538000D01*
X148102000Y-113792000D01*
X148082000Y-113792000D01*
X148082000Y-114934915D01*
X148304039Y-115056904D01*
X148692423Y-114896041D01*
X149107389Y-114520134D01*
X149333476Y-114042434D01*
X149356965Y-114160521D01*
X149623986Y-114560146D01*
X150023611Y-114827167D01*
X150495000Y-114920932D01*
X150966389Y-114827167D01*
X151366014Y-114560146D01*
X151633035Y-114160521D01*
X151726800Y-113689132D01*
X151726800Y-113640868D01*
X151633035Y-113169479D01*
X151366014Y-112769854D01*
X150966389Y-112502833D01*
X150495000Y-112409068D01*
X150023611Y-112502833D01*
X149623986Y-112769854D01*
X149356965Y-113169479D01*
X149333476Y-113287566D01*
X149107389Y-112809866D01*
X148692423Y-112433959D01*
X148304039Y-112273096D01*
X148082000Y-112395085D01*
X147828000Y-112395085D01*
X147605961Y-112273096D01*
X147217577Y-112433959D01*
X147126801Y-112516191D01*
X147126801Y-111368945D01*
X153072987Y-111368945D01*
X153260122Y-111821847D01*
X153606331Y-112168660D01*
X153619200Y-112174004D01*
X153619200Y-114043323D01*
X153573327Y-114153797D01*
X153573073Y-114444925D01*
X153684248Y-114713990D01*
X153756249Y-114786117D01*
X153550995Y-114871136D01*
X153476861Y-115117255D01*
X154305000Y-115945395D01*
X155003547Y-115246847D01*
X156852200Y-115246847D01*
X156852200Y-115893153D01*
X156919323Y-116230603D01*
X157110473Y-116516680D01*
X157396550Y-116707830D01*
X157734000Y-116774953D01*
X158071450Y-116707830D01*
X158357527Y-116516680D01*
X158369000Y-116499509D01*
X158380473Y-116516680D01*
X158666550Y-116707830D01*
X159004000Y-116774953D01*
X159318391Y-116712417D01*
X159464302Y-116858327D01*
X159697691Y-116955000D01*
X159988250Y-116955000D01*
X160147000Y-116796250D01*
X160147000Y-115697000D01*
X160401000Y-115697000D01*
X160401000Y-116796250D01*
X160559750Y-116955000D01*
X160850309Y-116955000D01*
X161083698Y-116858327D01*
X161262327Y-116679699D01*
X161359000Y-116446310D01*
X161359000Y-115855750D01*
X161200250Y-115697000D01*
X160401000Y-115697000D01*
X160147000Y-115697000D01*
X160127000Y-115697000D01*
X160127000Y-115443000D01*
X160147000Y-115443000D01*
X160147000Y-114343750D01*
X160401000Y-114343750D01*
X160401000Y-115443000D01*
X161200250Y-115443000D01*
X161359000Y-115284250D01*
X161359000Y-114693690D01*
X161262327Y-114460301D01*
X161083698Y-114281673D01*
X160850309Y-114185000D01*
X160559750Y-114185000D01*
X160401000Y-114343750D01*
X160147000Y-114343750D01*
X159988250Y-114185000D01*
X159697691Y-114185000D01*
X159464302Y-114281673D01*
X159318391Y-114427583D01*
X159004000Y-114365047D01*
X158666550Y-114432170D01*
X158380473Y-114623320D01*
X158369000Y-114640491D01*
X158357527Y-114623320D01*
X158071450Y-114432170D01*
X157734000Y-114365047D01*
X157396550Y-114432170D01*
X157110473Y-114623320D01*
X156919323Y-114909397D01*
X156852200Y-115246847D01*
X155003547Y-115246847D01*
X155133139Y-115117255D01*
X155059005Y-114871136D01*
X154845551Y-114794412D01*
X154925028Y-114715073D01*
X155036673Y-114446203D01*
X155036927Y-114155075D01*
X154990800Y-114043439D01*
X154990800Y-112174443D01*
X155001847Y-112169878D01*
X155168069Y-112003945D01*
X156882987Y-112003945D01*
X157070122Y-112456847D01*
X157416331Y-112803660D01*
X157868905Y-112991585D01*
X158358945Y-112992013D01*
X158811847Y-112804878D01*
X159158660Y-112458669D01*
X159346585Y-112006095D01*
X159346799Y-111760000D01*
X159399068Y-111760000D01*
X159492833Y-112231389D01*
X159759854Y-112631014D01*
X160159479Y-112898035D01*
X160630868Y-112991800D01*
X160679132Y-112991800D01*
X161029645Y-112922079D01*
X161368200Y-113260634D01*
X161368200Y-124616809D01*
X161304972Y-124679927D01*
X161193327Y-124948797D01*
X161193073Y-125239925D01*
X161304248Y-125508990D01*
X161509927Y-125715028D01*
X161778797Y-125826673D01*
X162069925Y-125826927D01*
X162338990Y-125715752D01*
X162545028Y-125510073D01*
X162656673Y-125241203D01*
X162656927Y-124950075D01*
X162545752Y-124681010D01*
X162481800Y-124616946D01*
X162481800Y-116651258D01*
X162576136Y-116879005D01*
X162822255Y-116953139D01*
X163650395Y-116125000D01*
X162822255Y-115296861D01*
X162576136Y-115370995D01*
X162481800Y-115633448D01*
X162481800Y-113030000D01*
X162439416Y-112816922D01*
X162318717Y-112636283D01*
X161833203Y-112150769D01*
X161910932Y-111760000D01*
X161817167Y-111288611D01*
X161550146Y-110888986D01*
X161150521Y-110621965D01*
X160679132Y-110528200D01*
X160630868Y-110528200D01*
X160159479Y-110621965D01*
X159759854Y-110888986D01*
X159492833Y-111288611D01*
X159399068Y-111760000D01*
X159346799Y-111760000D01*
X159347013Y-111516055D01*
X159159878Y-111063153D01*
X158813669Y-110716340D01*
X158361095Y-110528415D01*
X157871055Y-110527987D01*
X157418153Y-110715122D01*
X157071340Y-111061331D01*
X156883415Y-111513905D01*
X156882987Y-112003945D01*
X155168069Y-112003945D01*
X155348660Y-111823669D01*
X155536585Y-111371095D01*
X155537013Y-110881055D01*
X155349878Y-110428153D01*
X155026079Y-110103789D01*
X156371319Y-108758549D01*
X156814990Y-108846800D01*
X156875010Y-108846800D01*
X157461204Y-108730199D01*
X157958156Y-108398146D01*
X158290209Y-107901194D01*
X158406810Y-107315000D01*
X158290209Y-106728806D01*
X157958156Y-106231854D01*
X157461204Y-105899801D01*
X156875010Y-105783200D01*
X156814990Y-105783200D01*
X156228796Y-105899801D01*
X155731844Y-106231854D01*
X155399791Y-106728806D01*
X155283190Y-107315000D01*
X155381399Y-107808733D01*
X153820066Y-109370066D01*
X153671403Y-109592555D01*
X153634611Y-109777523D01*
X153619200Y-109855000D01*
X153619200Y-110075557D01*
X153608153Y-110080122D01*
X153261340Y-110426331D01*
X153073415Y-110878905D01*
X153072987Y-111368945D01*
X147126801Y-111368945D01*
X147126801Y-106968754D01*
X147483611Y-107207167D01*
X147955000Y-107300932D01*
X148426389Y-107207167D01*
X148826014Y-106940146D01*
X149060000Y-106589961D01*
X149060000Y-106971309D01*
X149156673Y-107204698D01*
X149335301Y-107383327D01*
X149568690Y-107480000D01*
X150209250Y-107480000D01*
X150368000Y-107321250D01*
X150368000Y-106172000D01*
X150622000Y-106172000D01*
X150622000Y-107321250D01*
X150780750Y-107480000D01*
X151421310Y-107480000D01*
X151654699Y-107383327D01*
X151833327Y-107204698D01*
X151930000Y-106971309D01*
X151930000Y-106330750D01*
X151771250Y-106172000D01*
X150622000Y-106172000D01*
X150368000Y-106172000D01*
X150348000Y-106172000D01*
X150348000Y-105918000D01*
X150368000Y-105918000D01*
X150368000Y-104768750D01*
X150622000Y-104768750D01*
X150622000Y-105918000D01*
X151771250Y-105918000D01*
X151930000Y-105759250D01*
X151930000Y-105118691D01*
X151833327Y-104885302D01*
X151654699Y-104706673D01*
X151421310Y-104610000D01*
X150780750Y-104610000D01*
X150622000Y-104768750D01*
X150368000Y-104768750D01*
X150209250Y-104610000D01*
X149568690Y-104610000D01*
X149335301Y-104706673D01*
X149156673Y-104885302D01*
X149060000Y-105118691D01*
X149060000Y-105500039D01*
X148826014Y-105149854D01*
X148511800Y-104939903D01*
X148511800Y-102078191D01*
X148575028Y-102015073D01*
X148686673Y-101746203D01*
X148686927Y-101455075D01*
X148575752Y-101186010D01*
X148370073Y-100979972D01*
X148101203Y-100868327D01*
X147810075Y-100868073D01*
X147541010Y-100979248D01*
X147334972Y-101184927D01*
X147223327Y-101453797D01*
X147223073Y-101744925D01*
X147334248Y-102013990D01*
X147398200Y-102078054D01*
X147398200Y-104939903D01*
X147126801Y-105121246D01*
X147126801Y-92621632D01*
X147554043Y-92622005D01*
X147988561Y-92442466D01*
X148321297Y-92110310D01*
X148501595Y-91676106D01*
X148502005Y-91205957D01*
X148322466Y-90771439D01*
X148215231Y-90664017D01*
X148353894Y-90721595D01*
X148354161Y-90721595D01*
X148724779Y-91092213D01*
X148678405Y-91203894D01*
X148677995Y-91674043D01*
X148857534Y-92108561D01*
X149189690Y-92441297D01*
X149623894Y-92621595D01*
X150094043Y-92622005D01*
X150528561Y-92442466D01*
X150573200Y-92397905D01*
X150573200Y-94771809D01*
X150509972Y-94834927D01*
X150398327Y-95103797D01*
X150398073Y-95394925D01*
X150509248Y-95663990D01*
X150714927Y-95870028D01*
X150983797Y-95981673D01*
X151274925Y-95981927D01*
X151543990Y-95870752D01*
X151750028Y-95665073D01*
X151861673Y-95396203D01*
X151861927Y-95105075D01*
X151750752Y-94836010D01*
X151686800Y-94771946D01*
X151686800Y-92398332D01*
X151729690Y-92441297D01*
X152163894Y-92621595D01*
X152634043Y-92622005D01*
X153068561Y-92442466D01*
X153113200Y-92397905D01*
X153113200Y-97311809D01*
X153049972Y-97374927D01*
X152938327Y-97643797D01*
X152938073Y-97934925D01*
X153049248Y-98203990D01*
X153254927Y-98410028D01*
X153523797Y-98521673D01*
X153814925Y-98521927D01*
X154083990Y-98410752D01*
X154290028Y-98205073D01*
X154383200Y-97980691D01*
X154383200Y-101121809D01*
X154319972Y-101184927D01*
X154208327Y-101453797D01*
X154208073Y-101744925D01*
X154319248Y-102013990D01*
X154524927Y-102220028D01*
X154793797Y-102331673D01*
X155084925Y-102331927D01*
X155353990Y-102220752D01*
X155560028Y-102015073D01*
X155671673Y-101746203D01*
X155671927Y-101455075D01*
X155560752Y-101186010D01*
X155496800Y-101121946D01*
X155496800Y-92488645D01*
X155608561Y-92442466D01*
X155941297Y-92110310D01*
X156121595Y-91676106D01*
X156122005Y-91205957D01*
X155942466Y-90771439D01*
X155835231Y-90664017D01*
X155973894Y-90721595D01*
X156422118Y-90721986D01*
X156476097Y-90775965D01*
X156298405Y-91203894D01*
X156297995Y-91674043D01*
X156477534Y-92108561D01*
X156809690Y-92441297D01*
X157243894Y-92621595D01*
X157714043Y-92622005D01*
X158148561Y-92442466D01*
X158481297Y-92110310D01*
X158661595Y-91676106D01*
X158662005Y-91205957D01*
X158482466Y-90771439D01*
X158375231Y-90664017D01*
X158513894Y-90721595D01*
X158962118Y-90721986D01*
X159016097Y-90775965D01*
X158838405Y-91203894D01*
X158837995Y-91674043D01*
X159017534Y-92108561D01*
X159349690Y-92441297D01*
X159783894Y-92621595D01*
X160254043Y-92622005D01*
X160688561Y-92442466D01*
X161021297Y-92110310D01*
X161201595Y-91676106D01*
X161202005Y-91205957D01*
X161022466Y-90771439D01*
X160915231Y-90664017D01*
X161053894Y-90721595D01*
X161502118Y-90721986D01*
X161556097Y-90775965D01*
X161378405Y-91203894D01*
X161377995Y-91674043D01*
X161557534Y-92108561D01*
X161889690Y-92441297D01*
X162323894Y-92621595D01*
X162772118Y-92621986D01*
X163779200Y-93629068D01*
X163779200Y-97533323D01*
X163733327Y-97643797D01*
X163733073Y-97934925D01*
X163779200Y-98046561D01*
X163779200Y-105774741D01*
X163365000Y-105774741D01*
X163204985Y-105804850D01*
X163058020Y-105899419D01*
X162959427Y-106043715D01*
X162924741Y-106215000D01*
X162924741Y-108415000D01*
X162954850Y-108575015D01*
X163049419Y-108721980D01*
X163193715Y-108820573D01*
X163365000Y-108855259D01*
X163779200Y-108855259D01*
X163779200Y-109893156D01*
X163586055Y-109892987D01*
X163133153Y-110080122D01*
X162786340Y-110426331D01*
X162598415Y-110878905D01*
X162597987Y-111368945D01*
X162785122Y-111821847D01*
X163131331Y-112168660D01*
X163144200Y-112174004D01*
X163144200Y-114043323D01*
X163098327Y-114153797D01*
X163098073Y-114444925D01*
X163209248Y-114713990D01*
X163281249Y-114786117D01*
X163075995Y-114871136D01*
X163001861Y-115117255D01*
X163830000Y-115945395D01*
X163844142Y-115931252D01*
X164023748Y-116110858D01*
X164009605Y-116125000D01*
X164023748Y-116139143D01*
X163844142Y-116318748D01*
X163830000Y-116304605D01*
X163001861Y-117132745D01*
X163075995Y-117378864D01*
X163613223Y-117571965D01*
X164183454Y-117544778D01*
X164414200Y-117449200D01*
X164414200Y-121663323D01*
X164368327Y-121773797D01*
X164368073Y-122064925D01*
X164479248Y-122333990D01*
X164684927Y-122540028D01*
X164953797Y-122651673D01*
X165244925Y-122651927D01*
X165513990Y-122540752D01*
X165720028Y-122335073D01*
X165831673Y-122066203D01*
X165831927Y-121775075D01*
X165785800Y-121663439D01*
X165785800Y-120875593D01*
X172574012Y-120875593D01*
X172715478Y-121178782D01*
X173451955Y-121463737D01*
X174241418Y-121445164D01*
X174884522Y-121178782D01*
X175025988Y-120875593D01*
X173800000Y-119649605D01*
X172574012Y-120875593D01*
X165785800Y-120875593D01*
X165785800Y-119121955D01*
X171806263Y-119121955D01*
X171824836Y-119911418D01*
X172091218Y-120554522D01*
X172394407Y-120695988D01*
X173620395Y-119470000D01*
X173979605Y-119470000D01*
X175205593Y-120695988D01*
X175508782Y-120554522D01*
X175793737Y-119818045D01*
X175775164Y-119028582D01*
X175508782Y-118385478D01*
X175205593Y-118244012D01*
X173979605Y-119470000D01*
X173620395Y-119470000D01*
X172394407Y-118244012D01*
X172091218Y-118385478D01*
X171806263Y-119121955D01*
X165785800Y-119121955D01*
X165785800Y-118064407D01*
X172574012Y-118064407D01*
X173800000Y-119290395D01*
X175025988Y-118064407D01*
X174884522Y-117761218D01*
X174148045Y-117476263D01*
X173358582Y-117494836D01*
X172715478Y-117761218D01*
X172574012Y-118064407D01*
X165785800Y-118064407D01*
X165785800Y-116448945D01*
X175932987Y-116448945D01*
X176120122Y-116901847D01*
X176466331Y-117248660D01*
X176918905Y-117436585D01*
X177408945Y-117437013D01*
X177861847Y-117249878D01*
X178208660Y-116903669D01*
X178396585Y-116451095D01*
X178397013Y-115961055D01*
X178338351Y-115819083D01*
X178782480Y-115374954D01*
X178542833Y-115733611D01*
X178449068Y-116205000D01*
X178526797Y-116595769D01*
X176390283Y-118732283D01*
X176269584Y-118912922D01*
X176227200Y-119126000D01*
X176227200Y-122965809D01*
X176163972Y-123028927D01*
X176052327Y-123297797D01*
X176052073Y-123588925D01*
X176163248Y-123857990D01*
X176368927Y-124064028D01*
X176637797Y-124175673D01*
X176928925Y-124175927D01*
X177197990Y-124064752D01*
X177404028Y-123859073D01*
X177515673Y-123590203D01*
X177515927Y-123299075D01*
X177404752Y-123030010D01*
X177340800Y-122965946D01*
X177340800Y-122223357D01*
X177617934Y-122223357D01*
X177850646Y-122786562D01*
X178281172Y-123217840D01*
X178843969Y-123451534D01*
X179453357Y-123452066D01*
X180016562Y-123219354D01*
X180447840Y-122788828D01*
X180681534Y-122226031D01*
X180682066Y-121616643D01*
X180449354Y-121053438D01*
X180018828Y-120622160D01*
X179857089Y-120555000D01*
X181074741Y-120555000D01*
X181074741Y-124555000D01*
X181104850Y-124715015D01*
X181199419Y-124861980D01*
X181343715Y-124960573D01*
X181515000Y-124995259D01*
X185515000Y-124995259D01*
X185675015Y-124965150D01*
X185821980Y-124870581D01*
X185920573Y-124726285D01*
X185955259Y-124555000D01*
X185955259Y-124177314D01*
X188072291Y-124177314D01*
X188250379Y-124511666D01*
X189095426Y-124846673D01*
X189617757Y-124838697D01*
X189190364Y-125015729D01*
X189000077Y-125360472D01*
X190515000Y-126875395D01*
X192029923Y-125360472D01*
X191839636Y-125015729D01*
X190958409Y-124664044D01*
X190394063Y-124671369D01*
X190779621Y-124511666D01*
X190957709Y-124177314D01*
X189515000Y-122734605D01*
X188072291Y-124177314D01*
X185955259Y-124177314D01*
X185955259Y-122135426D01*
X187223327Y-122135426D01*
X187237206Y-123044350D01*
X187558334Y-123819621D01*
X187892686Y-123997709D01*
X189335395Y-122555000D01*
X187892686Y-121112291D01*
X187558334Y-121290379D01*
X187223327Y-122135426D01*
X185955259Y-122135426D01*
X185955259Y-120932686D01*
X188072291Y-120932686D01*
X189515000Y-122375395D01*
X190957709Y-120932686D01*
X190779621Y-120598334D01*
X190384990Y-120441888D01*
X191020323Y-120433641D01*
X191839636Y-120094271D01*
X192029923Y-119749528D01*
X190515000Y-118234605D01*
X189000077Y-119749528D01*
X189190364Y-120094271D01*
X189625787Y-120268042D01*
X189025650Y-120277206D01*
X188250379Y-120598334D01*
X188072291Y-120932686D01*
X185955259Y-120932686D01*
X185955259Y-120555000D01*
X185925150Y-120394985D01*
X185830581Y-120248020D01*
X185686285Y-120149427D01*
X185515000Y-120114741D01*
X181515000Y-120114741D01*
X181354985Y-120144850D01*
X181208020Y-120239419D01*
X181109427Y-120383715D01*
X181074741Y-120555000D01*
X179857089Y-120555000D01*
X179456031Y-120388466D01*
X178846643Y-120387934D01*
X178283438Y-120620646D01*
X177852160Y-121051172D01*
X177618466Y-121613969D01*
X177617934Y-122223357D01*
X177340800Y-122223357D01*
X177340800Y-119356634D01*
X179085843Y-117611591D01*
X188124044Y-117611591D01*
X188136359Y-118560323D01*
X188475729Y-119379636D01*
X188820472Y-119569923D01*
X190335395Y-118055000D01*
X188820472Y-116540077D01*
X188475729Y-116730364D01*
X188124044Y-117611591D01*
X179085843Y-117611591D01*
X179330355Y-117367079D01*
X179680868Y-117436800D01*
X179729132Y-117436800D01*
X180200521Y-117343035D01*
X180600146Y-117076014D01*
X180867167Y-116676389D01*
X180960932Y-116205000D01*
X180883203Y-115814231D01*
X180898716Y-115798718D01*
X181019415Y-115618079D01*
X181061799Y-115405001D01*
X181061799Y-109246369D01*
X181019415Y-109033291D01*
X180898716Y-108852652D01*
X180379505Y-108333441D01*
X180600146Y-108186014D01*
X180867167Y-107786389D01*
X180960932Y-107315000D01*
X180867167Y-106843611D01*
X180600146Y-106443986D01*
X180200521Y-106176965D01*
X179729132Y-106083200D01*
X179680868Y-106083200D01*
X179209479Y-106176965D01*
X178809854Y-106443986D01*
X178542833Y-106843611D01*
X178449068Y-107315000D01*
X178542833Y-107786389D01*
X178809854Y-108186014D01*
X179148200Y-108412090D01*
X179148200Y-108446370D01*
X179190584Y-108659448D01*
X179311283Y-108840087D01*
X179704308Y-109233112D01*
X179286777Y-109083035D01*
X178716546Y-109110222D01*
X178315995Y-109276136D01*
X178241861Y-109522255D01*
X179070000Y-110350395D01*
X179084142Y-110336252D01*
X179263748Y-110515858D01*
X179249605Y-110530000D01*
X179263748Y-110544142D01*
X179084142Y-110723748D01*
X179070000Y-110709605D01*
X178241861Y-111537745D01*
X178315995Y-111783864D01*
X178607046Y-111888479D01*
X178373153Y-111985122D01*
X178026340Y-112331331D01*
X177838415Y-112783905D01*
X177837987Y-113273945D01*
X178025122Y-113726847D01*
X178371331Y-114073660D01*
X178468541Y-114114025D01*
X177551041Y-115031525D01*
X177411095Y-114973415D01*
X176921055Y-114972987D01*
X176468153Y-115160122D01*
X176121340Y-115506331D01*
X175933415Y-115958905D01*
X175932987Y-116448945D01*
X165785800Y-116448945D01*
X165785800Y-112912532D01*
X168017073Y-112912532D01*
X168115736Y-113179387D01*
X168725461Y-113405908D01*
X169375460Y-113381856D01*
X169864264Y-113179387D01*
X169962927Y-112912532D01*
X168990000Y-111939605D01*
X168017073Y-112912532D01*
X165785800Y-112912532D01*
X165785800Y-111495461D01*
X167344092Y-111495461D01*
X167368144Y-112145460D01*
X167570613Y-112634264D01*
X167837468Y-112732927D01*
X168810395Y-111760000D01*
X169169605Y-111760000D01*
X170142532Y-112732927D01*
X170409387Y-112634264D01*
X170635908Y-112024539D01*
X170611856Y-111374540D01*
X170409387Y-110885736D01*
X170142532Y-110787073D01*
X169169605Y-111760000D01*
X168810395Y-111760000D01*
X167837468Y-110787073D01*
X167570613Y-110885736D01*
X167344092Y-111495461D01*
X165785800Y-111495461D01*
X165785800Y-110607468D01*
X168017073Y-110607468D01*
X168990000Y-111580395D01*
X169810395Y-110760000D01*
X172549741Y-110760000D01*
X172549741Y-112760000D01*
X172579850Y-112920015D01*
X172674419Y-113066980D01*
X172818715Y-113165573D01*
X172990000Y-113200259D01*
X174990000Y-113200259D01*
X175150015Y-113170150D01*
X175296980Y-113075581D01*
X175395573Y-112931285D01*
X175430259Y-112760000D01*
X175430259Y-110760000D01*
X175400150Y-110599985D01*
X175305581Y-110453020D01*
X175161285Y-110354427D01*
X174990000Y-110319741D01*
X172990000Y-110319741D01*
X172829985Y-110349850D01*
X172683020Y-110444419D01*
X172584427Y-110588715D01*
X172549741Y-110760000D01*
X169810395Y-110760000D01*
X169962927Y-110607468D01*
X169864264Y-110340613D01*
X169790539Y-110313223D01*
X177623035Y-110313223D01*
X177650222Y-110883454D01*
X177816136Y-111284005D01*
X178062255Y-111358139D01*
X178890395Y-110530000D01*
X178062255Y-109701861D01*
X177816136Y-109775995D01*
X177623035Y-110313223D01*
X169790539Y-110313223D01*
X169254539Y-110114092D01*
X168604540Y-110138144D01*
X168115736Y-110340613D01*
X168017073Y-110607468D01*
X165785800Y-110607468D01*
X165785800Y-110586845D01*
X165879925Y-110586927D01*
X166148990Y-110475752D01*
X166355028Y-110270073D01*
X166366604Y-110242195D01*
X166601951Y-110242400D01*
X166871016Y-110131225D01*
X167077054Y-109925546D01*
X167188699Y-109656676D01*
X167188953Y-109365548D01*
X167077778Y-109096483D01*
X167013826Y-109032419D01*
X167013826Y-107558945D01*
X175932987Y-107558945D01*
X176120122Y-108011847D01*
X176466331Y-108358660D01*
X176918905Y-108546585D01*
X177408945Y-108547013D01*
X177861847Y-108359878D01*
X178208660Y-108013669D01*
X178396585Y-107561095D01*
X178397013Y-107071055D01*
X178209878Y-106618153D01*
X177863669Y-106271340D01*
X177411095Y-106083415D01*
X176921055Y-106082987D01*
X176468153Y-106270122D01*
X176121340Y-106616331D01*
X175933415Y-107068905D01*
X175932987Y-107558945D01*
X167013826Y-107558945D01*
X167013826Y-105145593D01*
X173774012Y-105145593D01*
X173915478Y-105448782D01*
X174651955Y-105733737D01*
X175441418Y-105715164D01*
X176084522Y-105448782D01*
X176225988Y-105145593D01*
X175000000Y-103919605D01*
X173774012Y-105145593D01*
X167013826Y-105145593D01*
X167013826Y-103391955D01*
X173006263Y-103391955D01*
X173024836Y-104181418D01*
X173291218Y-104824522D01*
X173594407Y-104965988D01*
X174820395Y-103740000D01*
X175179605Y-103740000D01*
X176405593Y-104965988D01*
X176504314Y-104919925D01*
X179608073Y-104919925D01*
X179719248Y-105188990D01*
X179924927Y-105395028D01*
X180193797Y-105506673D01*
X180484925Y-105506927D01*
X180753990Y-105395752D01*
X180818054Y-105331800D01*
X181771000Y-105331800D01*
X181984078Y-105289416D01*
X182164717Y-105168717D01*
X183019717Y-104313717D01*
X183140416Y-104133078D01*
X183144955Y-104110259D01*
X183426000Y-104110259D01*
X183586015Y-104080150D01*
X183732980Y-103985581D01*
X183831573Y-103841285D01*
X183866259Y-103670000D01*
X183866259Y-102070000D01*
X183836150Y-101909985D01*
X183741581Y-101763020D01*
X183597285Y-101664427D01*
X183426000Y-101629741D01*
X183182800Y-101629741D01*
X183182800Y-98268259D01*
X183426000Y-98268259D01*
X183586015Y-98238150D01*
X183732980Y-98143581D01*
X183831573Y-97999285D01*
X183866259Y-97828000D01*
X183866259Y-97271945D01*
X183893987Y-97271945D01*
X184081122Y-97724847D01*
X184427331Y-98071660D01*
X184879905Y-98259585D01*
X185369945Y-98260013D01*
X185511917Y-98201351D01*
X186879169Y-99568603D01*
X186879169Y-103873205D01*
X186803717Y-103760283D01*
X186299475Y-103256041D01*
X186357585Y-103116095D01*
X186358013Y-102626055D01*
X186170878Y-102173153D01*
X185824669Y-101826340D01*
X185372095Y-101638415D01*
X184882055Y-101637987D01*
X184429153Y-101825122D01*
X184082340Y-102171331D01*
X183894415Y-102623905D01*
X183893987Y-103113945D01*
X184081122Y-103566847D01*
X184427331Y-103913660D01*
X184879905Y-104101585D01*
X185369945Y-104102013D01*
X185511917Y-104043351D01*
X185853200Y-104384634D01*
X185853200Y-111373055D01*
X185373724Y-111571170D01*
X184857981Y-112086014D01*
X184578519Y-112759034D01*
X184577883Y-113487769D01*
X184856170Y-114161276D01*
X185371014Y-114677019D01*
X186044034Y-114956481D01*
X186772769Y-114957117D01*
X187446276Y-114678830D01*
X187962019Y-114163986D01*
X188241481Y-113490966D01*
X188242117Y-112762231D01*
X187963830Y-112088724D01*
X187448986Y-111572981D01*
X186966800Y-111372760D01*
X186966800Y-111075034D01*
X187020896Y-111129224D01*
X187289766Y-111240869D01*
X187580894Y-111241123D01*
X187849959Y-111129948D01*
X188055997Y-110924269D01*
X188167642Y-110655399D01*
X188167896Y-110364271D01*
X188056721Y-110095206D01*
X187992769Y-110031142D01*
X187992769Y-99337969D01*
X187950385Y-99124891D01*
X187829686Y-98944252D01*
X186299475Y-97414041D01*
X186357585Y-97274095D01*
X186358013Y-96784055D01*
X186170878Y-96331153D01*
X186135667Y-96295880D01*
X189063934Y-96295880D01*
X189083290Y-97065427D01*
X189340545Y-97686496D01*
X189638541Y-97821854D01*
X190828395Y-96632000D01*
X191187605Y-96632000D01*
X192377459Y-97821854D01*
X192675455Y-97686496D01*
X192952066Y-96968120D01*
X192932710Y-96198573D01*
X192675455Y-95577504D01*
X192377459Y-95442146D01*
X191187605Y-96632000D01*
X190828395Y-96632000D01*
X189638541Y-95442146D01*
X189340545Y-95577504D01*
X189063934Y-96295880D01*
X186135667Y-96295880D01*
X185824669Y-95984340D01*
X185372095Y-95796415D01*
X184882055Y-95795987D01*
X184429153Y-95983122D01*
X184082340Y-96329331D01*
X183894415Y-96781905D01*
X183893987Y-97271945D01*
X183866259Y-97271945D01*
X183866259Y-96228000D01*
X183836150Y-96067985D01*
X183741581Y-95921020D01*
X183597285Y-95822427D01*
X183426000Y-95787741D01*
X181826000Y-95787741D01*
X181665985Y-95817850D01*
X181519020Y-95912419D01*
X181420427Y-96056715D01*
X181385741Y-96228000D01*
X181385741Y-97828000D01*
X181415850Y-97988015D01*
X181510419Y-98134980D01*
X181654715Y-98233573D01*
X181826000Y-98268259D01*
X182069200Y-98268259D01*
X182069200Y-101629741D01*
X181826000Y-101629741D01*
X181665985Y-101659850D01*
X181519020Y-101754419D01*
X181420427Y-101898715D01*
X181385741Y-102070000D01*
X181385741Y-103670000D01*
X181415850Y-103830015D01*
X181510419Y-103976980D01*
X181654715Y-104075573D01*
X181678231Y-104080335D01*
X181540366Y-104218200D01*
X180818191Y-104218200D01*
X180755073Y-104154972D01*
X180486203Y-104043327D01*
X180195075Y-104043073D01*
X179926010Y-104154248D01*
X179719972Y-104359927D01*
X179608327Y-104628797D01*
X179608073Y-104919925D01*
X176504314Y-104919925D01*
X176708782Y-104824522D01*
X176993737Y-104088045D01*
X176975164Y-103298582D01*
X176708782Y-102655478D01*
X176405593Y-102514012D01*
X175179605Y-103740000D01*
X174820395Y-103740000D01*
X173594407Y-102514012D01*
X173291218Y-102655478D01*
X173006263Y-103391955D01*
X167013826Y-103391955D01*
X167013826Y-102334407D01*
X173774012Y-102334407D01*
X175000000Y-103560395D01*
X176225988Y-102334407D01*
X176084522Y-102031218D01*
X175348045Y-101746263D01*
X174558582Y-101764836D01*
X173915478Y-102031218D01*
X173774012Y-102334407D01*
X167013826Y-102334407D01*
X167013826Y-99204925D01*
X176433073Y-99204925D01*
X176544248Y-99473990D01*
X176749927Y-99680028D01*
X177018797Y-99791673D01*
X177309925Y-99791927D01*
X177578990Y-99680752D01*
X177785028Y-99475073D01*
X177896673Y-99206203D01*
X177896927Y-98915075D01*
X177785752Y-98646010D01*
X177721800Y-98581946D01*
X177721800Y-98344731D01*
X177850646Y-98656562D01*
X178281172Y-99087840D01*
X178843969Y-99321534D01*
X179453357Y-99322066D01*
X180016562Y-99089354D01*
X180447840Y-98658828D01*
X180681534Y-98096031D01*
X180682066Y-97486643D01*
X180449354Y-96923438D01*
X180018828Y-96492160D01*
X179456031Y-96258466D01*
X178846643Y-96257934D01*
X178283438Y-96490646D01*
X177852160Y-96921172D01*
X177721800Y-97235113D01*
X177721800Y-95262541D01*
X189818146Y-95262541D01*
X191008000Y-96452395D01*
X192197854Y-95262541D01*
X192062496Y-94964545D01*
X191344120Y-94687934D01*
X190574573Y-94707290D01*
X189953504Y-94964545D01*
X189818146Y-95262541D01*
X177721800Y-95262541D01*
X177721800Y-91670634D01*
X177855585Y-91536849D01*
X177944925Y-91536927D01*
X178213990Y-91425752D01*
X178420028Y-91220073D01*
X178531673Y-90951203D01*
X178531927Y-90660075D01*
X178420752Y-90391010D01*
X178299413Y-90269459D01*
X180080146Y-90269459D01*
X180215504Y-90567455D01*
X180933880Y-90844066D01*
X181703427Y-90824710D01*
X182324496Y-90567455D01*
X182459854Y-90269459D01*
X181270000Y-89079605D01*
X180080146Y-90269459D01*
X178299413Y-90269459D01*
X178215073Y-90184972D01*
X177946203Y-90073327D01*
X177655075Y-90073073D01*
X177386010Y-90184248D01*
X177179972Y-90389927D01*
X177068327Y-90658797D01*
X177068248Y-90749318D01*
X176771283Y-91046283D01*
X176650584Y-91226922D01*
X176608200Y-91440000D01*
X176608200Y-98581809D01*
X176544972Y-98644927D01*
X176433327Y-98913797D01*
X176433073Y-99204925D01*
X167013826Y-99204925D01*
X167013826Y-96745593D01*
X172574012Y-96745593D01*
X172715478Y-97048782D01*
X173451955Y-97333737D01*
X174241418Y-97315164D01*
X174884522Y-97048782D01*
X175025988Y-96745593D01*
X173800000Y-95519605D01*
X172574012Y-96745593D01*
X167013826Y-96745593D01*
X167013826Y-94991955D01*
X171806263Y-94991955D01*
X171824836Y-95781418D01*
X172091218Y-96424522D01*
X172394407Y-96565988D01*
X173620395Y-95340000D01*
X173979605Y-95340000D01*
X175205593Y-96565988D01*
X175508782Y-96424522D01*
X175793737Y-95688045D01*
X175775164Y-94898582D01*
X175508782Y-94255478D01*
X175205593Y-94114012D01*
X173979605Y-95340000D01*
X173620395Y-95340000D01*
X172394407Y-94114012D01*
X172091218Y-94255478D01*
X171806263Y-94991955D01*
X167013826Y-94991955D01*
X167013826Y-93934407D01*
X172574012Y-93934407D01*
X173800000Y-95160395D01*
X175025988Y-93934407D01*
X174884522Y-93631218D01*
X174148045Y-93346263D01*
X173358582Y-93364836D01*
X172715478Y-93631218D01*
X172574012Y-93934407D01*
X167013826Y-93934407D01*
X167013826Y-92797026D01*
X166990326Y-92678885D01*
X167435171Y-92837201D01*
X167985448Y-92809230D01*
X168363923Y-92652460D01*
X168431912Y-92411517D01*
X169388088Y-92411517D01*
X169456077Y-92652460D01*
X169975171Y-92837201D01*
X170525448Y-92809230D01*
X170903923Y-92652460D01*
X170971912Y-92411517D01*
X170180000Y-91619605D01*
X169388088Y-92411517D01*
X168431912Y-92411517D01*
X167640000Y-91619605D01*
X167625858Y-91633748D01*
X167446253Y-91454143D01*
X167460395Y-91440000D01*
X167446253Y-91425858D01*
X167625858Y-91246253D01*
X167640000Y-91260395D01*
X167654143Y-91246253D01*
X167833748Y-91425858D01*
X167819605Y-91440000D01*
X168611517Y-92231912D01*
X168852460Y-92163923D01*
X168905642Y-92014489D01*
X168967540Y-92163923D01*
X169208483Y-92231912D01*
X170000395Y-91440000D01*
X169986253Y-91425858D01*
X170165858Y-91246253D01*
X170180000Y-91260395D01*
X170194143Y-91246253D01*
X170373748Y-91425858D01*
X170359605Y-91440000D01*
X171151517Y-92231912D01*
X171335000Y-92180137D01*
X171335000Y-92316310D01*
X171431673Y-92549699D01*
X171610302Y-92728327D01*
X171843691Y-92825000D01*
X172434250Y-92825000D01*
X172593000Y-92666250D01*
X172593000Y-91567000D01*
X172847000Y-91567000D01*
X172847000Y-92666250D01*
X173005750Y-92825000D01*
X173596309Y-92825000D01*
X173829698Y-92728327D01*
X174008327Y-92549699D01*
X174105000Y-92316310D01*
X174105000Y-91725750D01*
X173946250Y-91567000D01*
X172847000Y-91567000D01*
X172593000Y-91567000D01*
X172573000Y-91567000D01*
X172573000Y-91313000D01*
X172593000Y-91313000D01*
X172593000Y-91293000D01*
X172847000Y-91293000D01*
X172847000Y-91313000D01*
X173946250Y-91313000D01*
X174105000Y-91154250D01*
X174105000Y-90563690D01*
X174008327Y-90330301D01*
X173829698Y-90151673D01*
X173596309Y-90055000D01*
X173005750Y-90055000D01*
X172847002Y-90213748D01*
X172847002Y-90055000D01*
X172736814Y-90055000D01*
X172847201Y-89744829D01*
X172819230Y-89194552D01*
X172664811Y-88821753D01*
X172954043Y-88822005D01*
X173388561Y-88642466D01*
X173467284Y-88563880D01*
X179325934Y-88563880D01*
X179345290Y-89333427D01*
X179602545Y-89954496D01*
X179900541Y-90089854D01*
X181090395Y-88900000D01*
X181449605Y-88900000D01*
X182639459Y-90089854D01*
X182937455Y-89954496D01*
X183127724Y-89460356D01*
X183300995Y-89879704D01*
X183787733Y-90367293D01*
X184213200Y-90543962D01*
X184213200Y-92246783D01*
X184164972Y-92294927D01*
X184053327Y-92563797D01*
X184053073Y-92854925D01*
X184164248Y-93123990D01*
X184369927Y-93330028D01*
X184638797Y-93441673D01*
X184929925Y-93441927D01*
X185198990Y-93330752D01*
X185405028Y-93125073D01*
X185516673Y-92856203D01*
X185516927Y-92565075D01*
X185405752Y-92296010D01*
X185326800Y-92216920D01*
X185326800Y-90543745D01*
X185749704Y-90369005D01*
X186237293Y-89882267D01*
X186501499Y-89245988D01*
X186501501Y-89242965D01*
X186537900Y-89242965D01*
X186800995Y-89879704D01*
X187287733Y-90367293D01*
X187924012Y-90631499D01*
X188612965Y-90632100D01*
X189249704Y-90369005D01*
X189737293Y-89882267D01*
X190001499Y-89245988D01*
X190002100Y-88557035D01*
X189739005Y-87920296D01*
X189419269Y-87600000D01*
X190029741Y-87600000D01*
X190029741Y-90200000D01*
X190059850Y-90360015D01*
X190154419Y-90506980D01*
X190298715Y-90605573D01*
X190470000Y-90640259D01*
X193070000Y-90640259D01*
X193230015Y-90610150D01*
X193376980Y-90515581D01*
X193475573Y-90371285D01*
X193510259Y-90200000D01*
X193510259Y-87600000D01*
X193480150Y-87439985D01*
X193385581Y-87293020D01*
X193241285Y-87194427D01*
X193070000Y-87159741D01*
X190470000Y-87159741D01*
X190309985Y-87189850D01*
X190163020Y-87284419D01*
X190064427Y-87428715D01*
X190029741Y-87600000D01*
X189419269Y-87600000D01*
X189252267Y-87432707D01*
X188615988Y-87168501D01*
X187927035Y-87167900D01*
X187290296Y-87430995D01*
X186802707Y-87917733D01*
X186538501Y-88554012D01*
X186537900Y-89242965D01*
X186501501Y-89242965D01*
X186502100Y-88557035D01*
X186239005Y-87920296D01*
X185752267Y-87432707D01*
X185115988Y-87168501D01*
X184427035Y-87167900D01*
X183790296Y-87430995D01*
X183302707Y-87917733D01*
X183134833Y-88322018D01*
X182937455Y-87845504D01*
X182639459Y-87710146D01*
X181449605Y-88900000D01*
X181090395Y-88900000D01*
X179900541Y-87710146D01*
X179602545Y-87845504D01*
X179325934Y-88563880D01*
X173467284Y-88563880D01*
X173721297Y-88310310D01*
X173901595Y-87876106D01*
X173901896Y-87530541D01*
X180080146Y-87530541D01*
X181270000Y-88720395D01*
X182459854Y-87530541D01*
X182324496Y-87232545D01*
X181606120Y-86955934D01*
X180836573Y-86975290D01*
X180215504Y-87232545D01*
X180080146Y-87530541D01*
X173901896Y-87530541D01*
X173902005Y-87405957D01*
X173722466Y-86971439D01*
X173390310Y-86638703D01*
X172956106Y-86458405D01*
X172485957Y-86457995D01*
X172345315Y-86516107D01*
X172451297Y-86410310D01*
X172631595Y-85976106D01*
X172632005Y-85505957D01*
X172452466Y-85071439D01*
X172120310Y-84738703D01*
X171686106Y-84558405D01*
X171215957Y-84557995D01*
X170781439Y-84737534D01*
X170448703Y-85069690D01*
X170268405Y-85503894D01*
X170267995Y-85974043D01*
X170447534Y-86408561D01*
X170554769Y-86515983D01*
X170416106Y-86458405D01*
X169945957Y-86457995D01*
X169805315Y-86516107D01*
X169911297Y-86410310D01*
X170091595Y-85976106D01*
X170092005Y-85505957D01*
X169912466Y-85071439D01*
X169580310Y-84738703D01*
X169146106Y-84558405D01*
X168675957Y-84557995D01*
X168241439Y-84737534D01*
X167908703Y-85069690D01*
X167728405Y-85503894D01*
X167727995Y-85974043D01*
X167907534Y-86408561D01*
X168014769Y-86515983D01*
X167876106Y-86458405D01*
X167405957Y-86457995D01*
X167265315Y-86516107D01*
X167371297Y-86410310D01*
X167551595Y-85976106D01*
X167552005Y-85505957D01*
X167372466Y-85071439D01*
X167040310Y-84738703D01*
X166606106Y-84558405D01*
X166135957Y-84557995D01*
X165701439Y-84737534D01*
X165368703Y-85069690D01*
X165188405Y-85503894D01*
X165187995Y-85974043D01*
X165367534Y-86408561D01*
X165474769Y-86515983D01*
X165336106Y-86458405D01*
X164865957Y-86457995D01*
X164725315Y-86516107D01*
X164831297Y-86410310D01*
X165011595Y-85976106D01*
X165012005Y-85505957D01*
X164832466Y-85071439D01*
X164500310Y-84738703D01*
X164066106Y-84558405D01*
X163595957Y-84557995D01*
X163161439Y-84737534D01*
X162828703Y-85069690D01*
X162648405Y-85503894D01*
X162647995Y-85974043D01*
X162827534Y-86408561D01*
X162934769Y-86515983D01*
X162796106Y-86458405D01*
X162325957Y-86457995D01*
X162185315Y-86516107D01*
X162291297Y-86410310D01*
X162471595Y-85976106D01*
X162472005Y-85505957D01*
X162292466Y-85071439D01*
X161960310Y-84738703D01*
X161526106Y-84558405D01*
X161055957Y-84557995D01*
X160621439Y-84737534D01*
X160288703Y-85069690D01*
X160108405Y-85503894D01*
X160107995Y-85974043D01*
X160287534Y-86408561D01*
X160394769Y-86515983D01*
X160256106Y-86458405D01*
X159785957Y-86457995D01*
X159645315Y-86516107D01*
X159751297Y-86410310D01*
X159931595Y-85976106D01*
X159932005Y-85505957D01*
X159752466Y-85071439D01*
X159420310Y-84738703D01*
X158986106Y-84558405D01*
X158515957Y-84557995D01*
X158081439Y-84737534D01*
X157748703Y-85069690D01*
X157568405Y-85503894D01*
X157567995Y-85974043D01*
X157747534Y-86408561D01*
X157854769Y-86515983D01*
X157716106Y-86458405D01*
X157245957Y-86457995D01*
X157105315Y-86516107D01*
X157211297Y-86410310D01*
X157391595Y-85976106D01*
X157392005Y-85505957D01*
X157212466Y-85071439D01*
X156880310Y-84738703D01*
X156446106Y-84558405D01*
X155975957Y-84557995D01*
X155541439Y-84737534D01*
X155208703Y-85069690D01*
X155028405Y-85503894D01*
X155027995Y-85974043D01*
X155207534Y-86408561D01*
X155314769Y-86515983D01*
X155176106Y-86458405D01*
X154705957Y-86457995D01*
X154565315Y-86516107D01*
X154671297Y-86410310D01*
X154851595Y-85976106D01*
X154852005Y-85505957D01*
X154672466Y-85071439D01*
X154340310Y-84738703D01*
X153906106Y-84558405D01*
X153435957Y-84557995D01*
X153001439Y-84737534D01*
X152668703Y-85069690D01*
X152488405Y-85503894D01*
X152487995Y-85974043D01*
X152667534Y-86408561D01*
X152774769Y-86515983D01*
X152636106Y-86458405D01*
X152165957Y-86457995D01*
X152025315Y-86516107D01*
X152131297Y-86410310D01*
X152311595Y-85976106D01*
X152312005Y-85505957D01*
X152132466Y-85071439D01*
X151800310Y-84738703D01*
X151366106Y-84558405D01*
X150895957Y-84557995D01*
X150461439Y-84737534D01*
X150128703Y-85069690D01*
X149948405Y-85503894D01*
X149947995Y-85974043D01*
X150127534Y-86408561D01*
X150234769Y-86515983D01*
X150096106Y-86458405D01*
X149625957Y-86457995D01*
X149485315Y-86516107D01*
X149591297Y-86410310D01*
X149771595Y-85976106D01*
X149772005Y-85505957D01*
X149592466Y-85071439D01*
X149260310Y-84738703D01*
X148826106Y-84558405D01*
X148355957Y-84557995D01*
X147921439Y-84737534D01*
X147588703Y-85069690D01*
X147408405Y-85503894D01*
X147407995Y-85974043D01*
X147587534Y-86408561D01*
X147694769Y-86515983D01*
X147556106Y-86458405D01*
X147085957Y-86457995D01*
X146945315Y-86516107D01*
X147051297Y-86410310D01*
X147231595Y-85976106D01*
X147232005Y-85505957D01*
X147052466Y-85071439D01*
X146720310Y-84738703D01*
X146286106Y-84558405D01*
X145815957Y-84557995D01*
X145381439Y-84737534D01*
X145048703Y-85069690D01*
X144868405Y-85503894D01*
X144867995Y-85974043D01*
X145047534Y-86408561D01*
X145154769Y-86515983D01*
X145016106Y-86458405D01*
X144545957Y-86457995D01*
X144405315Y-86516107D01*
X144511297Y-86410310D01*
X144691595Y-85976106D01*
X144692005Y-85505957D01*
X144512466Y-85071439D01*
X144180310Y-84738703D01*
X143746106Y-84558405D01*
X143275957Y-84557995D01*
X142841439Y-84737534D01*
X142508703Y-85069690D01*
X142328405Y-85503894D01*
X142327995Y-85974043D01*
X142507534Y-86408561D01*
X142614769Y-86515983D01*
X142476106Y-86458405D01*
X142005957Y-86457995D01*
X141865315Y-86516107D01*
X141971297Y-86410310D01*
X142151595Y-85976106D01*
X142152005Y-85505957D01*
X141972466Y-85071439D01*
X141640310Y-84738703D01*
X141206106Y-84558405D01*
X140735957Y-84557995D01*
X140301439Y-84737534D01*
X139968703Y-85069690D01*
X139788405Y-85503894D01*
X139787995Y-85974043D01*
X139967534Y-86408561D01*
X140074769Y-86515983D01*
X139936106Y-86458405D01*
X139465957Y-86457995D01*
X139325315Y-86516107D01*
X139431297Y-86410310D01*
X139611595Y-85976106D01*
X139612005Y-85505957D01*
X139432466Y-85071439D01*
X139100310Y-84738703D01*
X138666106Y-84558405D01*
X138195957Y-84557995D01*
X137761439Y-84737534D01*
X137428703Y-85069690D01*
X137248405Y-85503894D01*
X137247995Y-85974043D01*
X137427534Y-86408561D01*
X137534769Y-86515983D01*
X137396106Y-86458405D01*
X136925957Y-86457995D01*
X136785315Y-86516107D01*
X136891297Y-86410310D01*
X137071595Y-85976106D01*
X137072005Y-85505957D01*
X136892466Y-85071439D01*
X136560310Y-84738703D01*
X136126106Y-84558405D01*
X135655957Y-84557995D01*
X135221439Y-84737534D01*
X134888703Y-85069690D01*
X134708405Y-85503894D01*
X134707995Y-85974043D01*
X134887534Y-86408561D01*
X134994769Y-86515983D01*
X134856106Y-86458405D01*
X134385957Y-86457995D01*
X134245315Y-86516107D01*
X134351297Y-86410310D01*
X134531595Y-85976106D01*
X134532005Y-85505957D01*
X134352466Y-85071439D01*
X134020310Y-84738703D01*
X133586106Y-84558405D01*
X133115957Y-84557995D01*
X132681439Y-84737534D01*
X132348703Y-85069690D01*
X132168405Y-85503894D01*
X132167995Y-85974043D01*
X132347534Y-86408561D01*
X132454769Y-86515983D01*
X132316106Y-86458405D01*
X131845957Y-86457995D01*
X131705315Y-86516107D01*
X131811297Y-86410310D01*
X131991595Y-85976106D01*
X131992005Y-85505957D01*
X131812466Y-85071439D01*
X131480310Y-84738703D01*
X131046106Y-84558405D01*
X130575957Y-84557995D01*
X130141439Y-84737534D01*
X129808703Y-85069690D01*
X129628405Y-85503894D01*
X129627995Y-85974043D01*
X129807534Y-86408561D01*
X129914769Y-86515983D01*
X129776106Y-86458405D01*
X129305957Y-86457995D01*
X129165315Y-86516107D01*
X129271297Y-86410310D01*
X129451595Y-85976106D01*
X129452005Y-85505957D01*
X129272466Y-85071439D01*
X128940310Y-84738703D01*
X128506106Y-84558405D01*
X128035957Y-84557995D01*
X127601439Y-84737534D01*
X127268703Y-85069690D01*
X127088405Y-85503894D01*
X127087995Y-85974043D01*
X127267534Y-86408561D01*
X127374769Y-86515983D01*
X127236106Y-86458405D01*
X126765957Y-86457995D01*
X126625315Y-86516107D01*
X126731297Y-86410310D01*
X126911595Y-85976106D01*
X126912005Y-85505957D01*
X126732466Y-85071439D01*
X126400310Y-84738703D01*
X125966106Y-84558405D01*
X125495957Y-84557995D01*
X125061439Y-84737534D01*
X124728703Y-85069690D01*
X124548405Y-85503894D01*
X124547995Y-85974043D01*
X124727534Y-86408561D01*
X124834769Y-86515983D01*
X124696106Y-86458405D01*
X124225957Y-86457995D01*
X124085315Y-86516107D01*
X124191297Y-86410310D01*
X124371595Y-85976106D01*
X124372005Y-85505957D01*
X124192466Y-85071439D01*
X123860310Y-84738703D01*
X123426106Y-84558405D01*
X122955957Y-84557995D01*
X122521439Y-84737534D01*
X122188703Y-85069690D01*
X122008405Y-85503894D01*
X122007995Y-85974043D01*
X119338500Y-85974043D01*
X119415741Y-85585728D01*
X119854332Y-84929332D01*
X120510728Y-84490741D01*
X121334916Y-84326800D01*
X193625084Y-84326800D01*
X194449272Y-84490741D01*
X194449272Y-84490741D01*
G37*
X194449272Y-84490741D02*
X195105668Y-84929332D01*
X195544259Y-85585728D01*
X195708200Y-86409916D01*
X195708200Y-109592412D01*
X195685590Y-109569802D01*
X195572117Y-109683275D01*
X195424545Y-109374894D01*
X194669969Y-109081595D01*
X193860591Y-109099386D01*
X193195455Y-109374894D01*
X193189801Y-109386709D01*
X193189801Y-101757001D01*
X193147417Y-101543923D01*
X193026718Y-101363284D01*
X192564021Y-100900587D01*
X192739499Y-100477988D01*
X192740100Y-99789035D01*
X192477005Y-99152296D01*
X191990267Y-98664707D01*
X191585982Y-98496833D01*
X192062496Y-98299455D01*
X192197854Y-98001459D01*
X191008000Y-96811605D01*
X189818146Y-98001459D01*
X189953504Y-98299455D01*
X190447644Y-98489724D01*
X190028296Y-98662995D01*
X189540707Y-99149733D01*
X189276501Y-99786012D01*
X189275900Y-100474965D01*
X189538995Y-101111704D01*
X190025733Y-101599293D01*
X190662012Y-101863499D01*
X191350965Y-101864100D01*
X191776740Y-101688174D01*
X191980307Y-101891741D01*
X189708000Y-101891741D01*
X189547985Y-101921850D01*
X189401020Y-102016419D01*
X189302427Y-102160715D01*
X189267741Y-102332000D01*
X189267741Y-104932000D01*
X189297850Y-105092015D01*
X189392419Y-105238980D01*
X189536715Y-105337573D01*
X189708000Y-105372259D01*
X192076201Y-105372259D01*
X192076201Y-109618363D01*
X189791282Y-111903282D01*
X189670583Y-112083921D01*
X189628199Y-112296999D01*
X189628199Y-113953001D01*
X189670583Y-114166079D01*
X189791282Y-114346718D01*
X191208360Y-115763796D01*
X190958409Y-115664044D01*
X190009677Y-115676359D01*
X189190364Y-116015729D01*
X189000077Y-116360472D01*
X190515000Y-117875395D01*
X190529143Y-117861253D01*
X190708748Y-118040858D01*
X190694605Y-118055000D01*
X192209528Y-119569923D01*
X192554271Y-119379636D01*
X192905956Y-118498409D01*
X192893641Y-117549677D01*
X192822506Y-117377942D01*
X193118200Y-117673636D01*
X193118200Y-121471698D01*
X192761095Y-121323415D01*
X192271055Y-121322987D01*
X191818153Y-121510122D01*
X191637419Y-121690541D01*
X191471666Y-121290379D01*
X191137314Y-121112291D01*
X189694605Y-122555000D01*
X191137314Y-123997709D01*
X191471666Y-123819621D01*
X191632333Y-123414341D01*
X191816331Y-123598660D01*
X192268905Y-123786585D01*
X192758945Y-123787013D01*
X193118200Y-123638572D01*
X193118200Y-124616809D01*
X193054972Y-124679927D01*
X192943327Y-124948797D01*
X192943073Y-125239925D01*
X193054248Y-125508990D01*
X193259927Y-125715028D01*
X193528797Y-125826673D01*
X193819925Y-125826927D01*
X194088990Y-125715752D01*
X194295028Y-125510073D01*
X194406673Y-125241203D01*
X194406927Y-124950075D01*
X194295752Y-124681010D01*
X194231800Y-124616946D01*
X194231800Y-117443002D01*
X194189416Y-117229924D01*
X194068717Y-117049285D01*
X191976290Y-114956858D01*
X192272769Y-114957117D01*
X192946276Y-114678830D01*
X193462019Y-114163986D01*
X193741481Y-113490966D01*
X193741833Y-113087480D01*
X193950031Y-113168405D01*
X194759409Y-113150614D01*
X195424545Y-112875106D01*
X195572117Y-112566725D01*
X195685590Y-112680198D01*
X195708200Y-112657588D01*
X195708200Y-126950084D01*
X195544259Y-127774272D01*
X195105668Y-128430668D01*
X194449272Y-128869259D01*
X193625084Y-129033200D01*
X191873345Y-129033200D01*
X192029923Y-128749528D01*
X190515000Y-127234605D01*
X189000077Y-128749528D01*
X189156655Y-129033200D01*
X176540160Y-129033200D01*
X176708782Y-128954522D01*
X176993737Y-128218045D01*
X176975164Y-127428582D01*
X176708782Y-126785478D01*
X176405593Y-126644012D01*
X175179605Y-127870000D01*
X175193748Y-127884143D01*
X175014143Y-128063748D01*
X175000000Y-128049605D01*
X174985858Y-128063748D01*
X174806253Y-127884143D01*
X174820395Y-127870000D01*
X173594407Y-126644012D01*
X173291218Y-126785478D01*
X173006263Y-127521955D01*
X173024836Y-128311418D01*
X173291218Y-128954522D01*
X173459840Y-129033200D01*
X126340160Y-129033200D01*
X126508782Y-128954522D01*
X126793737Y-128218045D01*
X126775164Y-127428582D01*
X126508782Y-126785478D01*
X126205593Y-126644012D01*
X124979605Y-127870000D01*
X124993748Y-127884143D01*
X124814143Y-128063748D01*
X124800000Y-128049605D01*
X124785858Y-128063748D01*
X124606253Y-127884143D01*
X124620395Y-127870000D01*
X123394407Y-126644012D01*
X123091218Y-126785478D01*
X122806263Y-127521955D01*
X122824836Y-128311418D01*
X123091218Y-128954522D01*
X123259840Y-129033200D01*
X121334916Y-129033200D01*
X120510728Y-128869259D01*
X119854332Y-128430668D01*
X119415741Y-127774272D01*
X119251800Y-126950084D01*
X119251800Y-126047337D01*
X119350646Y-126286562D01*
X119781172Y-126717840D01*
X120343969Y-126951534D01*
X120953357Y-126952066D01*
X121516562Y-126719354D01*
X121771954Y-126464407D01*
X123574012Y-126464407D01*
X124800000Y-127690395D01*
X126025988Y-126464407D01*
X173774012Y-126464407D01*
X175000000Y-127690395D01*
X176078804Y-126611591D01*
X188124044Y-126611591D01*
X188136359Y-127560323D01*
X188475729Y-128379636D01*
X188820472Y-128569923D01*
X190335395Y-127055000D01*
X190694605Y-127055000D01*
X192209528Y-128569923D01*
X192554271Y-128379636D01*
X192905956Y-127498409D01*
X192893641Y-126549677D01*
X192554271Y-125730364D01*
X192209528Y-125540077D01*
X190694605Y-127055000D01*
X190335395Y-127055000D01*
X188820472Y-125540077D01*
X188475729Y-125730364D01*
X188124044Y-126611591D01*
X176078804Y-126611591D01*
X176225988Y-126464407D01*
X176084522Y-126161218D01*
X175348045Y-125876263D01*
X174558582Y-125894836D01*
X173915478Y-126161218D01*
X173774012Y-126464407D01*
X126025988Y-126464407D01*
X125884522Y-126161218D01*
X125148045Y-125876263D01*
X124358582Y-125894836D01*
X123715478Y-126161218D01*
X123574012Y-126464407D01*
X121771954Y-126464407D01*
X121947840Y-126288828D01*
X122181534Y-125726031D01*
X122182066Y-125116643D01*
X121949354Y-124553438D01*
X121518828Y-124122160D01*
X120956031Y-123888466D01*
X120346643Y-123887934D01*
X119783438Y-124120646D01*
X119352160Y-124551172D01*
X119251800Y-124792865D01*
X119251800Y-123583800D01*
X119423691Y-123655000D01*
X120364250Y-123655000D01*
X120523000Y-123496250D01*
X120523000Y-122047000D01*
X120777000Y-122047000D01*
X120777000Y-123496250D01*
X120935750Y-123655000D01*
X121876309Y-123655000D01*
X122109698Y-123558327D01*
X122288327Y-123379699D01*
X122385000Y-123146310D01*
X122385000Y-122205750D01*
X122226250Y-122047000D01*
X120777000Y-122047000D01*
X120523000Y-122047000D01*
X120503000Y-122047000D01*
X120503000Y-121793000D01*
X120523000Y-121793000D01*
X120523000Y-120343750D01*
X120777000Y-120343750D01*
X120777000Y-121793000D01*
X122226250Y-121793000D01*
X122385000Y-121634250D01*
X122385000Y-120693690D01*
X122288327Y-120460301D01*
X122109698Y-120281673D01*
X121876309Y-120185000D01*
X120935750Y-120185000D01*
X120777000Y-120343750D01*
X120523000Y-120343750D01*
X120364250Y-120185000D01*
X119423691Y-120185000D01*
X119251800Y-120256200D01*
X119251800Y-116577745D01*
X119901861Y-116577745D01*
X119975995Y-116823864D01*
X120513223Y-117016965D01*
X121083454Y-116989778D01*
X121484005Y-116823864D01*
X121558139Y-116577745D01*
X120730000Y-115749605D01*
X119901861Y-116577745D01*
X119251800Y-116577745D01*
X119251800Y-115353223D01*
X119283035Y-115353223D01*
X119310222Y-115923454D01*
X119476136Y-116324005D01*
X119722255Y-116398139D01*
X120550395Y-115570000D01*
X120909605Y-115570000D01*
X121737745Y-116398139D01*
X121983864Y-116324005D01*
X122176965Y-115786777D01*
X122149778Y-115216546D01*
X121983864Y-114815995D01*
X121737745Y-114741861D01*
X120909605Y-115570000D01*
X120550395Y-115570000D01*
X119722255Y-114741861D01*
X119476136Y-114815995D01*
X119283035Y-115353223D01*
X119251800Y-115353223D01*
X119251800Y-114562255D01*
X119901861Y-114562255D01*
X120730000Y-115390395D01*
X121558139Y-114562255D01*
X121484005Y-114316136D01*
X120946777Y-114123035D01*
X120376546Y-114150222D01*
X119975995Y-114316136D01*
X119901861Y-114562255D01*
X119251800Y-114562255D01*
X119251800Y-101917337D01*
X119350646Y-102156562D01*
X119781172Y-102587840D01*
X120343969Y-102821534D01*
X120953357Y-102822066D01*
X121516562Y-102589354D01*
X121947840Y-102158828D01*
X122181534Y-101596031D01*
X122182066Y-100986643D01*
X121949354Y-100423438D01*
X121518828Y-99992160D01*
X120956031Y-99758466D01*
X120346643Y-99757934D01*
X119783438Y-99990646D01*
X119352160Y-100421172D01*
X119251800Y-100662865D01*
X119251800Y-99453800D01*
X119423691Y-99525000D01*
X120364250Y-99525000D01*
X120523000Y-99366250D01*
X120523000Y-97917000D01*
X120777000Y-97917000D01*
X120777000Y-99366250D01*
X120935750Y-99525000D01*
X121876309Y-99525000D01*
X122109698Y-99428327D01*
X122288327Y-99249699D01*
X122385000Y-99016310D01*
X122385000Y-98075750D01*
X122226250Y-97917000D01*
X120777000Y-97917000D01*
X120523000Y-97917000D01*
X120503000Y-97917000D01*
X120503000Y-97663000D01*
X120523000Y-97663000D01*
X120523000Y-96213750D01*
X120777000Y-96213750D01*
X120777000Y-97663000D01*
X122226250Y-97663000D01*
X122385000Y-97504250D01*
X122385000Y-96563690D01*
X122288327Y-96330301D01*
X122109698Y-96151673D01*
X121876309Y-96055000D01*
X120935750Y-96055000D01*
X120777000Y-96213750D01*
X120523000Y-96213750D01*
X120364250Y-96055000D01*
X119423691Y-96055000D01*
X119251800Y-96126200D01*
X119251800Y-86409916D01*
X119338500Y-85974043D01*
X122007995Y-85974043D01*
X122187534Y-86408561D01*
X122519690Y-86741297D01*
X122953894Y-86921595D01*
X123424043Y-86922005D01*
X123564685Y-86863893D01*
X123458703Y-86969690D01*
X123278405Y-87403894D01*
X123277995Y-87874043D01*
X123457534Y-88308561D01*
X123564769Y-88415983D01*
X123426106Y-88358405D01*
X122955957Y-88357995D01*
X122521439Y-88537534D01*
X122188703Y-88869690D01*
X122008405Y-89303894D01*
X122007995Y-89774043D01*
X122187534Y-90208561D01*
X122519690Y-90541297D01*
X122953894Y-90721595D01*
X123424043Y-90722005D01*
X123564685Y-90663893D01*
X123458703Y-90769690D01*
X123278405Y-91203894D01*
X123277995Y-91674043D01*
X123324930Y-91787636D01*
X122731282Y-92381284D01*
X122610583Y-92561923D01*
X122568199Y-92775001D01*
X122568199Y-123033197D01*
X122458327Y-123297797D01*
X122458073Y-123588925D01*
X122569248Y-123857990D01*
X122774927Y-124064028D01*
X123043797Y-124175673D01*
X123334925Y-124175927D01*
X123603990Y-124064752D01*
X123810028Y-123859073D01*
X123921673Y-123590203D01*
X123921927Y-123299075D01*
X123810752Y-123030010D01*
X123681799Y-122900832D01*
X123681799Y-120875593D01*
X124774012Y-120875593D01*
X124915478Y-121178782D01*
X125651955Y-121463737D01*
X126441418Y-121445164D01*
X127084522Y-121178782D01*
X127225988Y-120875593D01*
X126000000Y-119649605D01*
X124774012Y-120875593D01*
X123681799Y-120875593D01*
X123681799Y-119121955D01*
X124006263Y-119121955D01*
X124024836Y-119911418D01*
X124291218Y-120554522D01*
X124594407Y-120695988D01*
X125820395Y-119470000D01*
X126179605Y-119470000D01*
X127405593Y-120695988D01*
X127708782Y-120554522D01*
X127993737Y-119818045D01*
X127975164Y-119028582D01*
X127708782Y-118385478D01*
X127405593Y-118244012D01*
X126179605Y-119470000D01*
X125820395Y-119470000D01*
X124594407Y-118244012D01*
X124291218Y-118385478D01*
X124006263Y-119121955D01*
X123681799Y-119121955D01*
X123681799Y-118064407D01*
X124774012Y-118064407D01*
X126000000Y-119290395D01*
X127225988Y-118064407D01*
X127084522Y-117761218D01*
X126348045Y-117476263D01*
X125558582Y-117494836D01*
X124915478Y-117761218D01*
X124774012Y-118064407D01*
X123681799Y-118064407D01*
X123681799Y-115813945D01*
X124497987Y-115813945D01*
X124685122Y-116266847D01*
X125031331Y-116613660D01*
X125483905Y-116801585D01*
X125973945Y-116802013D01*
X126426847Y-116614878D01*
X126551191Y-116490750D01*
X127820000Y-116490750D01*
X127820000Y-117081310D01*
X127916673Y-117314699D01*
X128095302Y-117493327D01*
X128328691Y-117590000D01*
X128619250Y-117590000D01*
X128778000Y-117431250D01*
X128778000Y-116332000D01*
X127978750Y-116332000D01*
X127820000Y-116490750D01*
X126551191Y-116490750D01*
X126773660Y-116268669D01*
X126961585Y-115816095D01*
X126962010Y-115328690D01*
X127820000Y-115328690D01*
X127820000Y-115919250D01*
X127978750Y-116078000D01*
X128778000Y-116078000D01*
X128778000Y-114978750D01*
X129032000Y-114978750D01*
X129032000Y-116078000D01*
X129052000Y-116078000D01*
X129052000Y-116332000D01*
X129032000Y-116332000D01*
X129032000Y-117431250D01*
X129190750Y-117590000D01*
X129481309Y-117590000D01*
X129714698Y-117493327D01*
X129860609Y-117347417D01*
X130175000Y-117409953D01*
X130512450Y-117342830D01*
X130798527Y-117151680D01*
X130810000Y-117134509D01*
X130821473Y-117151680D01*
X131107550Y-117342830D01*
X131445000Y-117409953D01*
X131782450Y-117342830D01*
X132068527Y-117151680D01*
X132113785Y-117083945D01*
X134022987Y-117083945D01*
X134210122Y-117536847D01*
X134556331Y-117883660D01*
X135008905Y-118071585D01*
X135498945Y-118072013D01*
X135951847Y-117884878D01*
X135989044Y-117847745D01*
X139426861Y-117847745D01*
X139500995Y-118093864D01*
X140038223Y-118286965D01*
X140608454Y-118259778D01*
X141009005Y-118093864D01*
X141083139Y-117847745D01*
X140255000Y-117019605D01*
X139426861Y-117847745D01*
X135989044Y-117847745D01*
X136298660Y-117538669D01*
X136486585Y-117086095D01*
X136486989Y-116623223D01*
X138808035Y-116623223D01*
X138835222Y-117193454D01*
X139001136Y-117594005D01*
X139247255Y-117668139D01*
X140075395Y-116840000D01*
X140434605Y-116840000D01*
X141262745Y-117668139D01*
X141508864Y-117594005D01*
X141701965Y-117056777D01*
X141674778Y-116486546D01*
X141508864Y-116085995D01*
X141262745Y-116011861D01*
X140434605Y-116840000D01*
X140075395Y-116840000D01*
X139247255Y-116011861D01*
X139001136Y-116085995D01*
X138808035Y-116623223D01*
X136486989Y-116623223D01*
X136487013Y-116596055D01*
X136299878Y-116143153D01*
X135989522Y-115832255D01*
X139426861Y-115832255D01*
X140255000Y-116660395D01*
X141083139Y-115832255D01*
X141009005Y-115586136D01*
X140471777Y-115393035D01*
X139901546Y-115420222D01*
X139500995Y-115586136D01*
X139426861Y-115832255D01*
X135989522Y-115832255D01*
X135953669Y-115796340D01*
X135501095Y-115608415D01*
X135011055Y-115607987D01*
X134558153Y-115795122D01*
X134211340Y-116141331D01*
X134023415Y-116593905D01*
X134022987Y-117083945D01*
X132113785Y-117083945D01*
X132259677Y-116865603D01*
X132326800Y-116528153D01*
X132326800Y-115881847D01*
X132259677Y-115544397D01*
X132068527Y-115258320D01*
X131782450Y-115067170D01*
X131445000Y-115000047D01*
X131107550Y-115067170D01*
X130821473Y-115258320D01*
X130810000Y-115275491D01*
X130798527Y-115258320D01*
X130512450Y-115067170D01*
X130175000Y-115000047D01*
X129860609Y-115062583D01*
X129714698Y-114916673D01*
X129481309Y-114820000D01*
X129190750Y-114820000D01*
X129032000Y-114978750D01*
X128778000Y-114978750D01*
X128619250Y-114820000D01*
X128328691Y-114820000D01*
X128095302Y-114916673D01*
X127916673Y-115095301D01*
X127820000Y-115328690D01*
X126962010Y-115328690D01*
X126962013Y-115326055D01*
X126774878Y-114873153D01*
X126428669Y-114526340D01*
X125976095Y-114338415D01*
X125486055Y-114337987D01*
X125033153Y-114525122D01*
X124686340Y-114871331D01*
X124498415Y-115323905D01*
X124497987Y-115813945D01*
X123681799Y-115813945D01*
X123681799Y-108420000D01*
X127029741Y-108420000D01*
X127029741Y-110020000D01*
X127059850Y-110180015D01*
X127154419Y-110326980D01*
X127298715Y-110425573D01*
X127470000Y-110460259D01*
X129070000Y-110460259D01*
X129230015Y-110430150D01*
X129376980Y-110335581D01*
X129450661Y-110227745D01*
X129941861Y-110227745D01*
X130015995Y-110473864D01*
X130553223Y-110666965D01*
X131123454Y-110639778D01*
X131524005Y-110473864D01*
X131598139Y-110227745D01*
X130770000Y-109399605D01*
X129941861Y-110227745D01*
X129450661Y-110227745D01*
X129475573Y-110191285D01*
X129510259Y-110020000D01*
X129510259Y-109959817D01*
X129516136Y-109974005D01*
X129762255Y-110048139D01*
X130590395Y-109220000D01*
X130949605Y-109220000D01*
X131777745Y-110048139D01*
X132023864Y-109974005D01*
X132216965Y-109436777D01*
X132189778Y-108866546D01*
X132023864Y-108465995D01*
X131777745Y-108391861D01*
X130949605Y-109220000D01*
X130590395Y-109220000D01*
X129762255Y-108391861D01*
X129516136Y-108465995D01*
X129510259Y-108482345D01*
X129510259Y-108420000D01*
X129480150Y-108259985D01*
X129449437Y-108212255D01*
X129941861Y-108212255D01*
X130770000Y-109040395D01*
X131598139Y-108212255D01*
X131524005Y-107966136D01*
X130986777Y-107773035D01*
X130416546Y-107800222D01*
X130015995Y-107966136D01*
X129941861Y-108212255D01*
X129449437Y-108212255D01*
X129385581Y-108113020D01*
X129241285Y-108014427D01*
X129070000Y-107979741D01*
X127470000Y-107979741D01*
X127309985Y-108009850D01*
X127163020Y-108104419D01*
X127064427Y-108248715D01*
X127029741Y-108420000D01*
X123681799Y-108420000D01*
X123681799Y-105376601D01*
X123715478Y-105448782D01*
X124451955Y-105733737D01*
X125241418Y-105715164D01*
X125884522Y-105448782D01*
X126025988Y-105145593D01*
X124800000Y-103919605D01*
X124785858Y-103933748D01*
X124606253Y-103754143D01*
X124620395Y-103740000D01*
X124979605Y-103740000D01*
X126205593Y-104965988D01*
X126508782Y-104824522D01*
X126793737Y-104088045D01*
X126775164Y-103298582D01*
X126508782Y-102655478D01*
X126205593Y-102514012D01*
X124979605Y-103740000D01*
X124620395Y-103740000D01*
X124606253Y-103725858D01*
X124785858Y-103546253D01*
X124800000Y-103560395D01*
X126025988Y-102334407D01*
X125884522Y-102031218D01*
X125148045Y-101746263D01*
X124358582Y-101764836D01*
X123715478Y-102031218D01*
X123681799Y-102103399D01*
X123681799Y-96745593D01*
X124774012Y-96745593D01*
X124915478Y-97048782D01*
X125651955Y-97333737D01*
X126441418Y-97315164D01*
X127084522Y-97048782D01*
X127225988Y-96745593D01*
X126000000Y-95519605D01*
X124774012Y-96745593D01*
X123681799Y-96745593D01*
X123681799Y-94991955D01*
X124006263Y-94991955D01*
X124024836Y-95781418D01*
X124291218Y-96424522D01*
X124594407Y-96565988D01*
X125820395Y-95340000D01*
X126179605Y-95340000D01*
X127405593Y-96565988D01*
X127708782Y-96424522D01*
X127993737Y-95688045D01*
X127975164Y-94898582D01*
X127708782Y-94255478D01*
X127405593Y-94114012D01*
X126179605Y-95340000D01*
X125820395Y-95340000D01*
X124594407Y-94114012D01*
X124291218Y-94255478D01*
X124006263Y-94991955D01*
X123681799Y-94991955D01*
X123681799Y-93934407D01*
X124774012Y-93934407D01*
X126000000Y-95160395D01*
X127225988Y-93934407D01*
X127084522Y-93631218D01*
X126348045Y-93346263D01*
X125558582Y-93364836D01*
X124915478Y-93631218D01*
X124774012Y-93934407D01*
X123681799Y-93934407D01*
X123681799Y-93005635D01*
X124112213Y-92575221D01*
X124223894Y-92621595D01*
X124694043Y-92622005D01*
X125128561Y-92442466D01*
X125461297Y-92110310D01*
X125641595Y-91676106D01*
X125642005Y-91205957D01*
X125462466Y-90771439D01*
X125374307Y-90683127D01*
X125382213Y-90675221D01*
X125493894Y-90721595D01*
X125964043Y-90722005D01*
X126104685Y-90663893D01*
X125998703Y-90769690D01*
X125818405Y-91203894D01*
X125817995Y-91674043D01*
X125997534Y-92108561D01*
X126329690Y-92441297D01*
X126763894Y-92621595D01*
X127234043Y-92622005D01*
X127668561Y-92442466D01*
X128001297Y-92110310D01*
X128181595Y-91676106D01*
X128182005Y-91205957D01*
X128002466Y-90771439D01*
X127914307Y-90683127D01*
X127922213Y-90675221D01*
X128033894Y-90721595D01*
X128504043Y-90722005D01*
X128644685Y-90663893D01*
X128538703Y-90769690D01*
X128358405Y-91203894D01*
X128357995Y-91674043D01*
X128537534Y-92108561D01*
X128869690Y-92441297D01*
X129303894Y-92621595D01*
X129774043Y-92622005D01*
X130208561Y-92442466D01*
X130541297Y-92110310D01*
X130721595Y-91676106D01*
X130722005Y-91205957D01*
X130542466Y-90771439D01*
X130435231Y-90664017D01*
X130573894Y-90721595D01*
X131044043Y-90722005D01*
X131184685Y-90663893D01*
X131078703Y-90769690D01*
X130898405Y-91203894D01*
X130897995Y-91674043D01*
X131077534Y-92108561D01*
X131409690Y-92441297D01*
X131843894Y-92621595D01*
X132314043Y-92622005D01*
X132748561Y-92442466D01*
X133081297Y-92110310D01*
X133261595Y-91676106D01*
X133262005Y-91205957D01*
X133082466Y-90771439D01*
X132975231Y-90664017D01*
X133113894Y-90721595D01*
X133584043Y-90722005D01*
X133724685Y-90663893D01*
X133618703Y-90769690D01*
X133438405Y-91203894D01*
X133437995Y-91674043D01*
X133617534Y-92108561D01*
X133949690Y-92441297D01*
X134063200Y-92488431D01*
X134063200Y-99464366D01*
X133294415Y-100233151D01*
X133205075Y-100233073D01*
X132936010Y-100344248D01*
X132729972Y-100549927D01*
X132618327Y-100818797D01*
X132618073Y-101109925D01*
X132729248Y-101378990D01*
X132934927Y-101585028D01*
X133203797Y-101696673D01*
X133494925Y-101696927D01*
X133573199Y-101664585D01*
X133573199Y-112539999D01*
X133615583Y-112753077D01*
X133736282Y-112933716D01*
X134092921Y-113290355D01*
X134023200Y-113640868D01*
X134023200Y-113689132D01*
X134116965Y-114160521D01*
X134383986Y-114560146D01*
X134783611Y-114827167D01*
X135255000Y-114920932D01*
X135726389Y-114827167D01*
X136126014Y-114560146D01*
X136393035Y-114160521D01*
X136486800Y-113689132D01*
X136486800Y-113640868D01*
X136393035Y-113169479D01*
X136126014Y-112769854D01*
X135726389Y-112502833D01*
X135255000Y-112409068D01*
X134864231Y-112486797D01*
X134686799Y-112309365D01*
X134686799Y-107346130D01*
X134905961Y-107436904D01*
X135128000Y-107314915D01*
X135128000Y-106172000D01*
X135108000Y-106172000D01*
X135108000Y-105918000D01*
X135128000Y-105918000D01*
X135128000Y-104775085D01*
X135382000Y-104775085D01*
X135382000Y-105918000D01*
X135402000Y-105918000D01*
X135402000Y-106172000D01*
X135382000Y-106172000D01*
X135382000Y-107314915D01*
X135604039Y-107436904D01*
X135992423Y-107276041D01*
X136407389Y-106900134D01*
X136633476Y-106422434D01*
X136656965Y-106540521D01*
X136923986Y-106940146D01*
X137323611Y-107207167D01*
X137795000Y-107300932D01*
X138266389Y-107207167D01*
X138508200Y-107045594D01*
X138508200Y-112164366D01*
X138185769Y-112486797D01*
X137795000Y-112409068D01*
X137323611Y-112502833D01*
X136923986Y-112769854D01*
X136656965Y-113169479D01*
X136563200Y-113640868D01*
X136563200Y-113689132D01*
X136656965Y-114160521D01*
X136923986Y-114560146D01*
X137323611Y-114827167D01*
X137795000Y-114920932D01*
X138266389Y-114827167D01*
X138666014Y-114560146D01*
X138933035Y-114160521D01*
X138956524Y-114042434D01*
X139182611Y-114520134D01*
X139597577Y-114896041D01*
X139985961Y-115056904D01*
X140208000Y-114934915D01*
X140208000Y-113792000D01*
X140188000Y-113792000D01*
X140188000Y-113538000D01*
X140208000Y-113538000D01*
X140208000Y-112395085D01*
X139985961Y-112273096D01*
X139615530Y-112426523D01*
X139621800Y-112395000D01*
X139621800Y-107045594D01*
X139863611Y-107207167D01*
X140335000Y-107300932D01*
X140806389Y-107207167D01*
X141206014Y-106940146D01*
X141473035Y-106540521D01*
X141496524Y-106422434D01*
X141722611Y-106900134D01*
X142137577Y-107276041D01*
X142525961Y-107436904D01*
X142748000Y-107314915D01*
X142748000Y-106172000D01*
X142728000Y-106172000D01*
X142728000Y-105918000D01*
X142748000Y-105918000D01*
X142748000Y-104775085D01*
X142525961Y-104653096D01*
X142137577Y-104813959D01*
X141722611Y-105189866D01*
X141496524Y-105667566D01*
X141473035Y-105549479D01*
X141206014Y-105149854D01*
X140891800Y-104939903D01*
X140891800Y-95728191D01*
X140955028Y-95665073D01*
X141066673Y-95396203D01*
X141066927Y-95105075D01*
X140955752Y-94836010D01*
X140750073Y-94629972D01*
X140481203Y-94518327D01*
X140190075Y-94518073D01*
X139921010Y-94629248D01*
X139714972Y-94834927D01*
X139603327Y-95103797D01*
X139603073Y-95394925D01*
X139714248Y-95663990D01*
X139778200Y-95728054D01*
X139778200Y-97599752D01*
X139685752Y-97376010D01*
X139480073Y-97169972D01*
X139211203Y-97058327D01*
X138920075Y-97058073D01*
X138651010Y-97169248D01*
X138444972Y-97374927D01*
X138333327Y-97643797D01*
X138333073Y-97934925D01*
X138444248Y-98203990D01*
X138508200Y-98268054D01*
X138508200Y-98869752D01*
X138415752Y-98646010D01*
X138210073Y-98439972D01*
X137941203Y-98328327D01*
X137650075Y-98328073D01*
X137381010Y-98439248D01*
X137174972Y-98644927D01*
X137063327Y-98913797D01*
X137063073Y-99204925D01*
X137174248Y-99473990D01*
X137238200Y-99538054D01*
X137238200Y-104939903D01*
X136923986Y-105149854D01*
X136656965Y-105549479D01*
X136633476Y-105667566D01*
X136407389Y-105189866D01*
X135992423Y-104813959D01*
X135604039Y-104653096D01*
X135382000Y-104775085D01*
X135128000Y-104775085D01*
X134905961Y-104653096D01*
X134686799Y-104743870D01*
X134686799Y-101052045D01*
X135648717Y-100090127D01*
X135769416Y-99909488D01*
X135811800Y-99696410D01*
X135811800Y-93823191D01*
X135875028Y-93760073D01*
X135986673Y-93491203D01*
X135986927Y-93200075D01*
X135875752Y-92931010D01*
X135670073Y-92724972D01*
X135401203Y-92613327D01*
X135176800Y-92613131D01*
X135176800Y-92488645D01*
X135288561Y-92442466D01*
X135621297Y-92110310D01*
X135801595Y-91676106D01*
X135802005Y-91205957D01*
X135622466Y-90771439D01*
X135534307Y-90683127D01*
X135542213Y-90675221D01*
X135653894Y-90721595D01*
X136124043Y-90722005D01*
X136264685Y-90663893D01*
X136158703Y-90769690D01*
X135978405Y-91203894D01*
X135977995Y-91674043D01*
X136157534Y-92108561D01*
X136489690Y-92441297D01*
X136923894Y-92621595D01*
X137394043Y-92622005D01*
X137828561Y-92442466D01*
X138161297Y-92110310D01*
X138341595Y-91676106D01*
X138342005Y-91205957D01*
X138162466Y-90771439D01*
X138074307Y-90683127D01*
X138082213Y-90675221D01*
X138193894Y-90721595D01*
X138664043Y-90722005D01*
X138804685Y-90663893D01*
X138698703Y-90769690D01*
X138518405Y-91203894D01*
X138517995Y-91674043D01*
X138697534Y-92108561D01*
X139029690Y-92441297D01*
X139463894Y-92621595D01*
X139934043Y-92622005D01*
X140368561Y-92442466D01*
X140701297Y-92110310D01*
X140881595Y-91676106D01*
X140882005Y-91205957D01*
X140702466Y-90771439D01*
X140595231Y-90664017D01*
X140733894Y-90721595D01*
X141204043Y-90722005D01*
X141344685Y-90663893D01*
X141238703Y-90769690D01*
X141058405Y-91203894D01*
X141057995Y-91674043D01*
X141237534Y-92108561D01*
X141569690Y-92441297D01*
X142003894Y-92621595D01*
X142474043Y-92622005D01*
X142908561Y-92442466D01*
X143241297Y-92110310D01*
X143421595Y-91676106D01*
X143422005Y-91205957D01*
X143242466Y-90771439D01*
X143135231Y-90664017D01*
X143273894Y-90721595D01*
X143744043Y-90722005D01*
X143884685Y-90663893D01*
X143778703Y-90769690D01*
X143598405Y-91203894D01*
X143597995Y-91674043D01*
X143777534Y-92108561D01*
X144109690Y-92441297D01*
X144543894Y-92621595D01*
X145014043Y-92622005D01*
X145448561Y-92442466D01*
X145781297Y-92110310D01*
X145961595Y-91676106D01*
X145962005Y-91205957D01*
X145782466Y-90771439D01*
X145675231Y-90664017D01*
X145813894Y-90721595D01*
X146284043Y-90722005D01*
X146397636Y-90675070D01*
X146405555Y-90682989D01*
X146318703Y-90769690D01*
X146138405Y-91203894D01*
X146137995Y-91674043D01*
X146184930Y-91787636D01*
X146176284Y-91796282D01*
X146055585Y-91976921D01*
X146013201Y-92189999D01*
X146013201Y-104967566D01*
X145886389Y-104882833D01*
X145415000Y-104789068D01*
X144943611Y-104882833D01*
X144543986Y-105149854D01*
X144276965Y-105549479D01*
X144253476Y-105667566D01*
X144027389Y-105189866D01*
X143612423Y-104813959D01*
X143224039Y-104653096D01*
X143002000Y-104775085D01*
X143002000Y-105918000D01*
X143022000Y-105918000D01*
X143022000Y-106172000D01*
X143002000Y-106172000D01*
X143002000Y-107314915D01*
X143224039Y-107436904D01*
X143612423Y-107276041D01*
X144027389Y-106900134D01*
X144253476Y-106422434D01*
X144276965Y-106540521D01*
X144543986Y-106940146D01*
X144858200Y-107150097D01*
X144858200Y-110593625D01*
X144047489Y-111404336D01*
X143958149Y-111404258D01*
X143689084Y-111515433D01*
X143483046Y-111721112D01*
X143371401Y-111989982D01*
X143371147Y-112281110D01*
X143482322Y-112550175D01*
X143612687Y-112680768D01*
X143346389Y-112502833D01*
X142875000Y-112409068D01*
X142403611Y-112502833D01*
X142003986Y-112769854D01*
X141736965Y-113169479D01*
X141713476Y-113287566D01*
X141487389Y-112809866D01*
X141072423Y-112433959D01*
X140684039Y-112273096D01*
X140462000Y-112395085D01*
X140462000Y-113538000D01*
X140482000Y-113538000D01*
X140482000Y-113792000D01*
X140462000Y-113792000D01*
X140462000Y-114934915D01*
X140684039Y-115056904D01*
X141072423Y-114896041D01*
X141487389Y-114520134D01*
X141713476Y-114042434D01*
X141736965Y-114160521D01*
X142003986Y-114560146D01*
X142403611Y-114827167D01*
X142875000Y-114920932D01*
X143346389Y-114827167D01*
X143746014Y-114560146D01*
X144013035Y-114160521D01*
X144036524Y-114042434D01*
X144262611Y-114520134D01*
X144677577Y-114896041D01*
X145065961Y-115056904D01*
X145288000Y-114934915D01*
X145288000Y-113792000D01*
X145268000Y-113792000D01*
X145268000Y-113538000D01*
X145288000Y-113538000D01*
X145288000Y-112395085D01*
X145065961Y-112273096D01*
X144791382Y-112386823D01*
X144834747Y-112282388D01*
X144834826Y-112191867D01*
X145808717Y-111217976D01*
X145929416Y-111037337D01*
X145971800Y-110824259D01*
X145971800Y-107150097D01*
X146013201Y-107122434D01*
X146013201Y-112376295D01*
X145764039Y-112273096D01*
X145542000Y-112395085D01*
X145542000Y-113538000D01*
X145562000Y-113538000D01*
X145562000Y-113792000D01*
X145542000Y-113792000D01*
X145542000Y-114934915D01*
X145764039Y-115056904D01*
X146152423Y-114896041D01*
X146457365Y-114619801D01*
X146763200Y-114925636D01*
X146763200Y-115810896D01*
X146748669Y-115796340D01*
X146296095Y-115608415D01*
X145806055Y-115607987D01*
X145353153Y-115795122D01*
X145006340Y-116141331D01*
X144818415Y-116593905D01*
X144817987Y-117083945D01*
X145005122Y-117536847D01*
X145351331Y-117883660D01*
X145803905Y-118071585D01*
X146293945Y-118072013D01*
X146746847Y-117884878D01*
X146763200Y-117868553D01*
X146763200Y-124864366D01*
X146629415Y-124998151D01*
X146540075Y-124998073D01*
X146271010Y-125109248D01*
X146064972Y-125314927D01*
X145953327Y-125583797D01*
X145953073Y-125874925D01*
X146064248Y-126143990D01*
X146269927Y-126350028D01*
X146538797Y-126461673D01*
X146829925Y-126461927D01*
X147098990Y-126350752D01*
X147305028Y-126145073D01*
X147416673Y-125876203D01*
X147416752Y-125785682D01*
X147713717Y-125488717D01*
X147834416Y-125308078D01*
X147876800Y-125095000D01*
X147876800Y-117847745D01*
X150221861Y-117847745D01*
X150295995Y-118093864D01*
X150833223Y-118286965D01*
X151403454Y-118259778D01*
X151804005Y-118093864D01*
X151878139Y-117847745D01*
X151050000Y-117019605D01*
X150221861Y-117847745D01*
X147876800Y-117847745D01*
X147876800Y-116623223D01*
X149603035Y-116623223D01*
X149630222Y-117193454D01*
X149796136Y-117594005D01*
X150042255Y-117668139D01*
X150870395Y-116840000D01*
X151229605Y-116840000D01*
X152057745Y-117668139D01*
X152303864Y-117594005D01*
X152469659Y-117132745D01*
X153476861Y-117132745D01*
X153550995Y-117378864D01*
X154088223Y-117571965D01*
X154658454Y-117544778D01*
X155059005Y-117378864D01*
X155133139Y-117132745D01*
X154305000Y-116304605D01*
X153476861Y-117132745D01*
X152469659Y-117132745D01*
X152496965Y-117056777D01*
X152469778Y-116486546D01*
X152303864Y-116085995D01*
X152057745Y-116011861D01*
X151229605Y-116840000D01*
X150870395Y-116840000D01*
X150042255Y-116011861D01*
X149796136Y-116085995D01*
X149603035Y-116623223D01*
X147876800Y-116623223D01*
X147876800Y-115832255D01*
X150221861Y-115832255D01*
X151050000Y-116660395D01*
X151802171Y-115908223D01*
X152858035Y-115908223D01*
X152885222Y-116478454D01*
X153051136Y-116879005D01*
X153297255Y-116953139D01*
X154125395Y-116125000D01*
X154484605Y-116125000D01*
X155312745Y-116953139D01*
X155558864Y-116879005D01*
X155751965Y-116341777D01*
X155724778Y-115771546D01*
X155558864Y-115370995D01*
X155312745Y-115296861D01*
X154484605Y-116125000D01*
X154125395Y-116125000D01*
X153297255Y-115296861D01*
X153051136Y-115370995D01*
X152858035Y-115908223D01*
X151802171Y-115908223D01*
X151878139Y-115832255D01*
X151804005Y-115586136D01*
X151266777Y-115393035D01*
X150696546Y-115420222D01*
X150295995Y-115586136D01*
X150221861Y-115832255D01*
X147876800Y-115832255D01*
X147876800Y-114695002D01*
X147834416Y-114481924D01*
X147828000Y-114472322D01*
X147828000Y-113792000D01*
X147808000Y-113792000D01*
X147808000Y-113538000D01*
X147828000Y-113538000D01*
X147828000Y-112395085D01*
X148082000Y-112395085D01*
X148082000Y-113538000D01*
X148102000Y-113538000D01*
X148102000Y-113792000D01*
X148082000Y-113792000D01*
X148082000Y-114934915D01*
X148304039Y-115056904D01*
X148692423Y-114896041D01*
X149107389Y-114520134D01*
X149333476Y-114042434D01*
X149356965Y-114160521D01*
X149623986Y-114560146D01*
X150023611Y-114827167D01*
X150495000Y-114920932D01*
X150966389Y-114827167D01*
X151366014Y-114560146D01*
X151633035Y-114160521D01*
X151726800Y-113689132D01*
X151726800Y-113640868D01*
X151633035Y-113169479D01*
X151366014Y-112769854D01*
X150966389Y-112502833D01*
X150495000Y-112409068D01*
X150023611Y-112502833D01*
X149623986Y-112769854D01*
X149356965Y-113169479D01*
X149333476Y-113287566D01*
X149107389Y-112809866D01*
X148692423Y-112433959D01*
X148304039Y-112273096D01*
X148082000Y-112395085D01*
X147828000Y-112395085D01*
X147605961Y-112273096D01*
X147217577Y-112433959D01*
X147126801Y-112516191D01*
X147126801Y-111368945D01*
X153072987Y-111368945D01*
X153260122Y-111821847D01*
X153606331Y-112168660D01*
X153619200Y-112174004D01*
X153619200Y-114043323D01*
X153573327Y-114153797D01*
X153573073Y-114444925D01*
X153684248Y-114713990D01*
X153756249Y-114786117D01*
X153550995Y-114871136D01*
X153476861Y-115117255D01*
X154305000Y-115945395D01*
X155003547Y-115246847D01*
X156852200Y-115246847D01*
X156852200Y-115893153D01*
X156919323Y-116230603D01*
X157110473Y-116516680D01*
X157396550Y-116707830D01*
X157734000Y-116774953D01*
X158071450Y-116707830D01*
X158357527Y-116516680D01*
X158369000Y-116499509D01*
X158380473Y-116516680D01*
X158666550Y-116707830D01*
X159004000Y-116774953D01*
X159318391Y-116712417D01*
X159464302Y-116858327D01*
X159697691Y-116955000D01*
X159988250Y-116955000D01*
X160147000Y-116796250D01*
X160147000Y-115697000D01*
X160401000Y-115697000D01*
X160401000Y-116796250D01*
X160559750Y-116955000D01*
X160850309Y-116955000D01*
X161083698Y-116858327D01*
X161262327Y-116679699D01*
X161359000Y-116446310D01*
X161359000Y-115855750D01*
X161200250Y-115697000D01*
X160401000Y-115697000D01*
X160147000Y-115697000D01*
X160127000Y-115697000D01*
X160127000Y-115443000D01*
X160147000Y-115443000D01*
X160147000Y-114343750D01*
X160401000Y-114343750D01*
X160401000Y-115443000D01*
X161200250Y-115443000D01*
X161359000Y-115284250D01*
X161359000Y-114693690D01*
X161262327Y-114460301D01*
X161083698Y-114281673D01*
X160850309Y-114185000D01*
X160559750Y-114185000D01*
X160401000Y-114343750D01*
X160147000Y-114343750D01*
X159988250Y-114185000D01*
X159697691Y-114185000D01*
X159464302Y-114281673D01*
X159318391Y-114427583D01*
X159004000Y-114365047D01*
X158666550Y-114432170D01*
X158380473Y-114623320D01*
X158369000Y-114640491D01*
X158357527Y-114623320D01*
X158071450Y-114432170D01*
X157734000Y-114365047D01*
X157396550Y-114432170D01*
X157110473Y-114623320D01*
X156919323Y-114909397D01*
X156852200Y-115246847D01*
X155003547Y-115246847D01*
X155133139Y-115117255D01*
X155059005Y-114871136D01*
X154845551Y-114794412D01*
X154925028Y-114715073D01*
X155036673Y-114446203D01*
X155036927Y-114155075D01*
X154990800Y-114043439D01*
X154990800Y-112174443D01*
X155001847Y-112169878D01*
X155168069Y-112003945D01*
X156882987Y-112003945D01*
X157070122Y-112456847D01*
X157416331Y-112803660D01*
X157868905Y-112991585D01*
X158358945Y-112992013D01*
X158811847Y-112804878D01*
X159158660Y-112458669D01*
X159346585Y-112006095D01*
X159346799Y-111760000D01*
X159399068Y-111760000D01*
X159492833Y-112231389D01*
X159759854Y-112631014D01*
X160159479Y-112898035D01*
X160630868Y-112991800D01*
X160679132Y-112991800D01*
X161029645Y-112922079D01*
X161368200Y-113260634D01*
X161368200Y-124616809D01*
X161304972Y-124679927D01*
X161193327Y-124948797D01*
X161193073Y-125239925D01*
X161304248Y-125508990D01*
X161509927Y-125715028D01*
X161778797Y-125826673D01*
X162069925Y-125826927D01*
X162338990Y-125715752D01*
X162545028Y-125510073D01*
X162656673Y-125241203D01*
X162656927Y-124950075D01*
X162545752Y-124681010D01*
X162481800Y-124616946D01*
X162481800Y-116651258D01*
X162576136Y-116879005D01*
X162822255Y-116953139D01*
X163650395Y-116125000D01*
X162822255Y-115296861D01*
X162576136Y-115370995D01*
X162481800Y-115633448D01*
X162481800Y-113030000D01*
X162439416Y-112816922D01*
X162318717Y-112636283D01*
X161833203Y-112150769D01*
X161910932Y-111760000D01*
X161817167Y-111288611D01*
X161550146Y-110888986D01*
X161150521Y-110621965D01*
X160679132Y-110528200D01*
X160630868Y-110528200D01*
X160159479Y-110621965D01*
X159759854Y-110888986D01*
X159492833Y-111288611D01*
X159399068Y-111760000D01*
X159346799Y-111760000D01*
X159347013Y-111516055D01*
X159159878Y-111063153D01*
X158813669Y-110716340D01*
X158361095Y-110528415D01*
X157871055Y-110527987D01*
X157418153Y-110715122D01*
X157071340Y-111061331D01*
X156883415Y-111513905D01*
X156882987Y-112003945D01*
X155168069Y-112003945D01*
X155348660Y-111823669D01*
X155536585Y-111371095D01*
X155537013Y-110881055D01*
X155349878Y-110428153D01*
X155026079Y-110103789D01*
X156371319Y-108758549D01*
X156814990Y-108846800D01*
X156875010Y-108846800D01*
X157461204Y-108730199D01*
X157958156Y-108398146D01*
X158290209Y-107901194D01*
X158406810Y-107315000D01*
X158290209Y-106728806D01*
X157958156Y-106231854D01*
X157461204Y-105899801D01*
X156875010Y-105783200D01*
X156814990Y-105783200D01*
X156228796Y-105899801D01*
X155731844Y-106231854D01*
X155399791Y-106728806D01*
X155283190Y-107315000D01*
X155381399Y-107808733D01*
X153820066Y-109370066D01*
X153671403Y-109592555D01*
X153634611Y-109777523D01*
X153619200Y-109855000D01*
X153619200Y-110075557D01*
X153608153Y-110080122D01*
X153261340Y-110426331D01*
X153073415Y-110878905D01*
X153072987Y-111368945D01*
X147126801Y-111368945D01*
X147126801Y-106968754D01*
X147483611Y-107207167D01*
X147955000Y-107300932D01*
X148426389Y-107207167D01*
X148826014Y-106940146D01*
X149060000Y-106589961D01*
X149060000Y-106971309D01*
X149156673Y-107204698D01*
X149335301Y-107383327D01*
X149568690Y-107480000D01*
X150209250Y-107480000D01*
X150368000Y-107321250D01*
X150368000Y-106172000D01*
X150622000Y-106172000D01*
X150622000Y-107321250D01*
X150780750Y-107480000D01*
X151421310Y-107480000D01*
X151654699Y-107383327D01*
X151833327Y-107204698D01*
X151930000Y-106971309D01*
X151930000Y-106330750D01*
X151771250Y-106172000D01*
X150622000Y-106172000D01*
X150368000Y-106172000D01*
X150348000Y-106172000D01*
X150348000Y-105918000D01*
X150368000Y-105918000D01*
X150368000Y-104768750D01*
X150622000Y-104768750D01*
X150622000Y-105918000D01*
X151771250Y-105918000D01*
X151930000Y-105759250D01*
X151930000Y-105118691D01*
X151833327Y-104885302D01*
X151654699Y-104706673D01*
X151421310Y-104610000D01*
X150780750Y-104610000D01*
X150622000Y-104768750D01*
X150368000Y-104768750D01*
X150209250Y-104610000D01*
X149568690Y-104610000D01*
X149335301Y-104706673D01*
X149156673Y-104885302D01*
X149060000Y-105118691D01*
X149060000Y-105500039D01*
X148826014Y-105149854D01*
X148511800Y-104939903D01*
X148511800Y-102078191D01*
X148575028Y-102015073D01*
X148686673Y-101746203D01*
X148686927Y-101455075D01*
X148575752Y-101186010D01*
X148370073Y-100979972D01*
X148101203Y-100868327D01*
X147810075Y-100868073D01*
X147541010Y-100979248D01*
X147334972Y-101184927D01*
X147223327Y-101453797D01*
X147223073Y-101744925D01*
X147334248Y-102013990D01*
X147398200Y-102078054D01*
X147398200Y-104939903D01*
X147126801Y-105121246D01*
X147126801Y-92621632D01*
X147554043Y-92622005D01*
X147988561Y-92442466D01*
X148321297Y-92110310D01*
X148501595Y-91676106D01*
X148502005Y-91205957D01*
X148322466Y-90771439D01*
X148215231Y-90664017D01*
X148353894Y-90721595D01*
X148354161Y-90721595D01*
X148724779Y-91092213D01*
X148678405Y-91203894D01*
X148677995Y-91674043D01*
X148857534Y-92108561D01*
X149189690Y-92441297D01*
X149623894Y-92621595D01*
X150094043Y-92622005D01*
X150528561Y-92442466D01*
X150573200Y-92397905D01*
X150573200Y-94771809D01*
X150509972Y-94834927D01*
X150398327Y-95103797D01*
X150398073Y-95394925D01*
X150509248Y-95663990D01*
X150714927Y-95870028D01*
X150983797Y-95981673D01*
X151274925Y-95981927D01*
X151543990Y-95870752D01*
X151750028Y-95665073D01*
X151861673Y-95396203D01*
X151861927Y-95105075D01*
X151750752Y-94836010D01*
X151686800Y-94771946D01*
X151686800Y-92398332D01*
X151729690Y-92441297D01*
X152163894Y-92621595D01*
X152634043Y-92622005D01*
X153068561Y-92442466D01*
X153113200Y-92397905D01*
X153113200Y-97311809D01*
X153049972Y-97374927D01*
X152938327Y-97643797D01*
X152938073Y-97934925D01*
X153049248Y-98203990D01*
X153254927Y-98410028D01*
X153523797Y-98521673D01*
X153814925Y-98521927D01*
X154083990Y-98410752D01*
X154290028Y-98205073D01*
X154383200Y-97980691D01*
X154383200Y-101121809D01*
X154319972Y-101184927D01*
X154208327Y-101453797D01*
X154208073Y-101744925D01*
X154319248Y-102013990D01*
X154524927Y-102220028D01*
X154793797Y-102331673D01*
X155084925Y-102331927D01*
X155353990Y-102220752D01*
X155560028Y-102015073D01*
X155671673Y-101746203D01*
X155671927Y-101455075D01*
X155560752Y-101186010D01*
X155496800Y-101121946D01*
X155496800Y-92488645D01*
X155608561Y-92442466D01*
X155941297Y-92110310D01*
X156121595Y-91676106D01*
X156122005Y-91205957D01*
X155942466Y-90771439D01*
X155835231Y-90664017D01*
X155973894Y-90721595D01*
X156422118Y-90721986D01*
X156476097Y-90775965D01*
X156298405Y-91203894D01*
X156297995Y-91674043D01*
X156477534Y-92108561D01*
X156809690Y-92441297D01*
X157243894Y-92621595D01*
X157714043Y-92622005D01*
X158148561Y-92442466D01*
X158481297Y-92110310D01*
X158661595Y-91676106D01*
X158662005Y-91205957D01*
X158482466Y-90771439D01*
X158375231Y-90664017D01*
X158513894Y-90721595D01*
X158962118Y-90721986D01*
X159016097Y-90775965D01*
X158838405Y-91203894D01*
X158837995Y-91674043D01*
X159017534Y-92108561D01*
X159349690Y-92441297D01*
X159783894Y-92621595D01*
X160254043Y-92622005D01*
X160688561Y-92442466D01*
X161021297Y-92110310D01*
X161201595Y-91676106D01*
X161202005Y-91205957D01*
X161022466Y-90771439D01*
X160915231Y-90664017D01*
X161053894Y-90721595D01*
X161502118Y-90721986D01*
X161556097Y-90775965D01*
X161378405Y-91203894D01*
X161377995Y-91674043D01*
X161557534Y-92108561D01*
X161889690Y-92441297D01*
X162323894Y-92621595D01*
X162772118Y-92621986D01*
X163779200Y-93629068D01*
X163779200Y-97533323D01*
X163733327Y-97643797D01*
X163733073Y-97934925D01*
X163779200Y-98046561D01*
X163779200Y-105774741D01*
X163365000Y-105774741D01*
X163204985Y-105804850D01*
X163058020Y-105899419D01*
X162959427Y-106043715D01*
X162924741Y-106215000D01*
X162924741Y-108415000D01*
X162954850Y-108575015D01*
X163049419Y-108721980D01*
X163193715Y-108820573D01*
X163365000Y-108855259D01*
X163779200Y-108855259D01*
X163779200Y-109893156D01*
X163586055Y-109892987D01*
X163133153Y-110080122D01*
X162786340Y-110426331D01*
X162598415Y-110878905D01*
X162597987Y-111368945D01*
X162785122Y-111821847D01*
X163131331Y-112168660D01*
X163144200Y-112174004D01*
X163144200Y-114043323D01*
X163098327Y-114153797D01*
X163098073Y-114444925D01*
X163209248Y-114713990D01*
X163281249Y-114786117D01*
X163075995Y-114871136D01*
X163001861Y-115117255D01*
X163830000Y-115945395D01*
X163844142Y-115931252D01*
X164023748Y-116110858D01*
X164009605Y-116125000D01*
X164023748Y-116139143D01*
X163844142Y-116318748D01*
X163830000Y-116304605D01*
X163001861Y-117132745D01*
X163075995Y-117378864D01*
X163613223Y-117571965D01*
X164183454Y-117544778D01*
X164414200Y-117449200D01*
X164414200Y-121663323D01*
X164368327Y-121773797D01*
X164368073Y-122064925D01*
X164479248Y-122333990D01*
X164684927Y-122540028D01*
X164953797Y-122651673D01*
X165244925Y-122651927D01*
X165513990Y-122540752D01*
X165720028Y-122335073D01*
X165831673Y-122066203D01*
X165831927Y-121775075D01*
X165785800Y-121663439D01*
X165785800Y-120875593D01*
X172574012Y-120875593D01*
X172715478Y-121178782D01*
X173451955Y-121463737D01*
X174241418Y-121445164D01*
X174884522Y-121178782D01*
X175025988Y-120875593D01*
X173800000Y-119649605D01*
X172574012Y-120875593D01*
X165785800Y-120875593D01*
X165785800Y-119121955D01*
X171806263Y-119121955D01*
X171824836Y-119911418D01*
X172091218Y-120554522D01*
X172394407Y-120695988D01*
X173620395Y-119470000D01*
X173979605Y-119470000D01*
X175205593Y-120695988D01*
X175508782Y-120554522D01*
X175793737Y-119818045D01*
X175775164Y-119028582D01*
X175508782Y-118385478D01*
X175205593Y-118244012D01*
X173979605Y-119470000D01*
X173620395Y-119470000D01*
X172394407Y-118244012D01*
X172091218Y-118385478D01*
X171806263Y-119121955D01*
X165785800Y-119121955D01*
X165785800Y-118064407D01*
X172574012Y-118064407D01*
X173800000Y-119290395D01*
X175025988Y-118064407D01*
X174884522Y-117761218D01*
X174148045Y-117476263D01*
X173358582Y-117494836D01*
X172715478Y-117761218D01*
X172574012Y-118064407D01*
X165785800Y-118064407D01*
X165785800Y-116448945D01*
X175932987Y-116448945D01*
X176120122Y-116901847D01*
X176466331Y-117248660D01*
X176918905Y-117436585D01*
X177408945Y-117437013D01*
X177861847Y-117249878D01*
X178208660Y-116903669D01*
X178396585Y-116451095D01*
X178397013Y-115961055D01*
X178338351Y-115819083D01*
X178782480Y-115374954D01*
X178542833Y-115733611D01*
X178449068Y-116205000D01*
X178526797Y-116595769D01*
X176390283Y-118732283D01*
X176269584Y-118912922D01*
X176227200Y-119126000D01*
X176227200Y-122965809D01*
X176163972Y-123028927D01*
X176052327Y-123297797D01*
X176052073Y-123588925D01*
X176163248Y-123857990D01*
X176368927Y-124064028D01*
X176637797Y-124175673D01*
X176928925Y-124175927D01*
X177197990Y-124064752D01*
X177404028Y-123859073D01*
X177515673Y-123590203D01*
X177515927Y-123299075D01*
X177404752Y-123030010D01*
X177340800Y-122965946D01*
X177340800Y-122223357D01*
X177617934Y-122223357D01*
X177850646Y-122786562D01*
X178281172Y-123217840D01*
X178843969Y-123451534D01*
X179453357Y-123452066D01*
X180016562Y-123219354D01*
X180447840Y-122788828D01*
X180681534Y-122226031D01*
X180682066Y-121616643D01*
X180449354Y-121053438D01*
X180018828Y-120622160D01*
X179857089Y-120555000D01*
X181074741Y-120555000D01*
X181074741Y-124555000D01*
X181104850Y-124715015D01*
X181199419Y-124861980D01*
X181343715Y-124960573D01*
X181515000Y-124995259D01*
X185515000Y-124995259D01*
X185675015Y-124965150D01*
X185821980Y-124870581D01*
X185920573Y-124726285D01*
X185955259Y-124555000D01*
X185955259Y-124177314D01*
X188072291Y-124177314D01*
X188250379Y-124511666D01*
X189095426Y-124846673D01*
X189617757Y-124838697D01*
X189190364Y-125015729D01*
X189000077Y-125360472D01*
X190515000Y-126875395D01*
X192029923Y-125360472D01*
X191839636Y-125015729D01*
X190958409Y-124664044D01*
X190394063Y-124671369D01*
X190779621Y-124511666D01*
X190957709Y-124177314D01*
X189515000Y-122734605D01*
X188072291Y-124177314D01*
X185955259Y-124177314D01*
X185955259Y-122135426D01*
X187223327Y-122135426D01*
X187237206Y-123044350D01*
X187558334Y-123819621D01*
X187892686Y-123997709D01*
X189335395Y-122555000D01*
X187892686Y-121112291D01*
X187558334Y-121290379D01*
X187223327Y-122135426D01*
X185955259Y-122135426D01*
X185955259Y-120932686D01*
X188072291Y-120932686D01*
X189515000Y-122375395D01*
X190957709Y-120932686D01*
X190779621Y-120598334D01*
X190384990Y-120441888D01*
X191020323Y-120433641D01*
X191839636Y-120094271D01*
X192029923Y-119749528D01*
X190515000Y-118234605D01*
X189000077Y-119749528D01*
X189190364Y-120094271D01*
X189625787Y-120268042D01*
X189025650Y-120277206D01*
X188250379Y-120598334D01*
X188072291Y-120932686D01*
X185955259Y-120932686D01*
X185955259Y-120555000D01*
X185925150Y-120394985D01*
X185830581Y-120248020D01*
X185686285Y-120149427D01*
X185515000Y-120114741D01*
X181515000Y-120114741D01*
X181354985Y-120144850D01*
X181208020Y-120239419D01*
X181109427Y-120383715D01*
X181074741Y-120555000D01*
X179857089Y-120555000D01*
X179456031Y-120388466D01*
X178846643Y-120387934D01*
X178283438Y-120620646D01*
X177852160Y-121051172D01*
X177618466Y-121613969D01*
X177617934Y-122223357D01*
X177340800Y-122223357D01*
X177340800Y-119356634D01*
X179085843Y-117611591D01*
X188124044Y-117611591D01*
X188136359Y-118560323D01*
X188475729Y-119379636D01*
X188820472Y-119569923D01*
X190335395Y-118055000D01*
X188820472Y-116540077D01*
X188475729Y-116730364D01*
X188124044Y-117611591D01*
X179085843Y-117611591D01*
X179330355Y-117367079D01*
X179680868Y-117436800D01*
X179729132Y-117436800D01*
X180200521Y-117343035D01*
X180600146Y-117076014D01*
X180867167Y-116676389D01*
X180960932Y-116205000D01*
X180883203Y-115814231D01*
X180898716Y-115798718D01*
X181019415Y-115618079D01*
X181061799Y-115405001D01*
X181061799Y-109246369D01*
X181019415Y-109033291D01*
X180898716Y-108852652D01*
X180379505Y-108333441D01*
X180600146Y-108186014D01*
X180867167Y-107786389D01*
X180960932Y-107315000D01*
X180867167Y-106843611D01*
X180600146Y-106443986D01*
X180200521Y-106176965D01*
X179729132Y-106083200D01*
X179680868Y-106083200D01*
X179209479Y-106176965D01*
X178809854Y-106443986D01*
X178542833Y-106843611D01*
X178449068Y-107315000D01*
X178542833Y-107786389D01*
X178809854Y-108186014D01*
X179148200Y-108412090D01*
X179148200Y-108446370D01*
X179190584Y-108659448D01*
X179311283Y-108840087D01*
X179704308Y-109233112D01*
X179286777Y-109083035D01*
X178716546Y-109110222D01*
X178315995Y-109276136D01*
X178241861Y-109522255D01*
X179070000Y-110350395D01*
X179084142Y-110336252D01*
X179263748Y-110515858D01*
X179249605Y-110530000D01*
X179263748Y-110544142D01*
X179084142Y-110723748D01*
X179070000Y-110709605D01*
X178241861Y-111537745D01*
X178315995Y-111783864D01*
X178607046Y-111888479D01*
X178373153Y-111985122D01*
X178026340Y-112331331D01*
X177838415Y-112783905D01*
X177837987Y-113273945D01*
X178025122Y-113726847D01*
X178371331Y-114073660D01*
X178468541Y-114114025D01*
X177551041Y-115031525D01*
X177411095Y-114973415D01*
X176921055Y-114972987D01*
X176468153Y-115160122D01*
X176121340Y-115506331D01*
X175933415Y-115958905D01*
X175932987Y-116448945D01*
X165785800Y-116448945D01*
X165785800Y-112912532D01*
X168017073Y-112912532D01*
X168115736Y-113179387D01*
X168725461Y-113405908D01*
X169375460Y-113381856D01*
X169864264Y-113179387D01*
X169962927Y-112912532D01*
X168990000Y-111939605D01*
X168017073Y-112912532D01*
X165785800Y-112912532D01*
X165785800Y-111495461D01*
X167344092Y-111495461D01*
X167368144Y-112145460D01*
X167570613Y-112634264D01*
X167837468Y-112732927D01*
X168810395Y-111760000D01*
X169169605Y-111760000D01*
X170142532Y-112732927D01*
X170409387Y-112634264D01*
X170635908Y-112024539D01*
X170611856Y-111374540D01*
X170409387Y-110885736D01*
X170142532Y-110787073D01*
X169169605Y-111760000D01*
X168810395Y-111760000D01*
X167837468Y-110787073D01*
X167570613Y-110885736D01*
X167344092Y-111495461D01*
X165785800Y-111495461D01*
X165785800Y-110607468D01*
X168017073Y-110607468D01*
X168990000Y-111580395D01*
X169810395Y-110760000D01*
X172549741Y-110760000D01*
X172549741Y-112760000D01*
X172579850Y-112920015D01*
X172674419Y-113066980D01*
X172818715Y-113165573D01*
X172990000Y-113200259D01*
X174990000Y-113200259D01*
X175150015Y-113170150D01*
X175296980Y-113075581D01*
X175395573Y-112931285D01*
X175430259Y-112760000D01*
X175430259Y-110760000D01*
X175400150Y-110599985D01*
X175305581Y-110453020D01*
X175161285Y-110354427D01*
X174990000Y-110319741D01*
X172990000Y-110319741D01*
X172829985Y-110349850D01*
X172683020Y-110444419D01*
X172584427Y-110588715D01*
X172549741Y-110760000D01*
X169810395Y-110760000D01*
X169962927Y-110607468D01*
X169864264Y-110340613D01*
X169790539Y-110313223D01*
X177623035Y-110313223D01*
X177650222Y-110883454D01*
X177816136Y-111284005D01*
X178062255Y-111358139D01*
X178890395Y-110530000D01*
X178062255Y-109701861D01*
X177816136Y-109775995D01*
X177623035Y-110313223D01*
X169790539Y-110313223D01*
X169254539Y-110114092D01*
X168604540Y-110138144D01*
X168115736Y-110340613D01*
X168017073Y-110607468D01*
X165785800Y-110607468D01*
X165785800Y-110586845D01*
X165879925Y-110586927D01*
X166148990Y-110475752D01*
X166355028Y-110270073D01*
X166366604Y-110242195D01*
X166601951Y-110242400D01*
X166871016Y-110131225D01*
X167077054Y-109925546D01*
X167188699Y-109656676D01*
X167188953Y-109365548D01*
X167077778Y-109096483D01*
X167013826Y-109032419D01*
X167013826Y-107558945D01*
X175932987Y-107558945D01*
X176120122Y-108011847D01*
X176466331Y-108358660D01*
X176918905Y-108546585D01*
X177408945Y-108547013D01*
X177861847Y-108359878D01*
X178208660Y-108013669D01*
X178396585Y-107561095D01*
X178397013Y-107071055D01*
X178209878Y-106618153D01*
X177863669Y-106271340D01*
X177411095Y-106083415D01*
X176921055Y-106082987D01*
X176468153Y-106270122D01*
X176121340Y-106616331D01*
X175933415Y-107068905D01*
X175932987Y-107558945D01*
X167013826Y-107558945D01*
X167013826Y-105145593D01*
X173774012Y-105145593D01*
X173915478Y-105448782D01*
X174651955Y-105733737D01*
X175441418Y-105715164D01*
X176084522Y-105448782D01*
X176225988Y-105145593D01*
X175000000Y-103919605D01*
X173774012Y-105145593D01*
X167013826Y-105145593D01*
X167013826Y-103391955D01*
X173006263Y-103391955D01*
X173024836Y-104181418D01*
X173291218Y-104824522D01*
X173594407Y-104965988D01*
X174820395Y-103740000D01*
X175179605Y-103740000D01*
X176405593Y-104965988D01*
X176504314Y-104919925D01*
X179608073Y-104919925D01*
X179719248Y-105188990D01*
X179924927Y-105395028D01*
X180193797Y-105506673D01*
X180484925Y-105506927D01*
X180753990Y-105395752D01*
X180818054Y-105331800D01*
X181771000Y-105331800D01*
X181984078Y-105289416D01*
X182164717Y-105168717D01*
X183019717Y-104313717D01*
X183140416Y-104133078D01*
X183144955Y-104110259D01*
X183426000Y-104110259D01*
X183586015Y-104080150D01*
X183732980Y-103985581D01*
X183831573Y-103841285D01*
X183866259Y-103670000D01*
X183866259Y-102070000D01*
X183836150Y-101909985D01*
X183741581Y-101763020D01*
X183597285Y-101664427D01*
X183426000Y-101629741D01*
X183182800Y-101629741D01*
X183182800Y-98268259D01*
X183426000Y-98268259D01*
X183586015Y-98238150D01*
X183732980Y-98143581D01*
X183831573Y-97999285D01*
X183866259Y-97828000D01*
X183866259Y-97271945D01*
X183893987Y-97271945D01*
X184081122Y-97724847D01*
X184427331Y-98071660D01*
X184879905Y-98259585D01*
X185369945Y-98260013D01*
X185511917Y-98201351D01*
X186879169Y-99568603D01*
X186879169Y-103873205D01*
X186803717Y-103760283D01*
X186299475Y-103256041D01*
X186357585Y-103116095D01*
X186358013Y-102626055D01*
X186170878Y-102173153D01*
X185824669Y-101826340D01*
X185372095Y-101638415D01*
X184882055Y-101637987D01*
X184429153Y-101825122D01*
X184082340Y-102171331D01*
X183894415Y-102623905D01*
X183893987Y-103113945D01*
X184081122Y-103566847D01*
X184427331Y-103913660D01*
X184879905Y-104101585D01*
X185369945Y-104102013D01*
X185511917Y-104043351D01*
X185853200Y-104384634D01*
X185853200Y-111373055D01*
X185373724Y-111571170D01*
X184857981Y-112086014D01*
X184578519Y-112759034D01*
X184577883Y-113487769D01*
X184856170Y-114161276D01*
X185371014Y-114677019D01*
X186044034Y-114956481D01*
X186772769Y-114957117D01*
X187446276Y-114678830D01*
X187962019Y-114163986D01*
X188241481Y-113490966D01*
X188242117Y-112762231D01*
X187963830Y-112088724D01*
X187448986Y-111572981D01*
X186966800Y-111372760D01*
X186966800Y-111075034D01*
X187020896Y-111129224D01*
X187289766Y-111240869D01*
X187580894Y-111241123D01*
X187849959Y-111129948D01*
X188055997Y-110924269D01*
X188167642Y-110655399D01*
X188167896Y-110364271D01*
X188056721Y-110095206D01*
X187992769Y-110031142D01*
X187992769Y-99337969D01*
X187950385Y-99124891D01*
X187829686Y-98944252D01*
X186299475Y-97414041D01*
X186357585Y-97274095D01*
X186358013Y-96784055D01*
X186170878Y-96331153D01*
X186135667Y-96295880D01*
X189063934Y-96295880D01*
X189083290Y-97065427D01*
X189340545Y-97686496D01*
X189638541Y-97821854D01*
X190828395Y-96632000D01*
X191187605Y-96632000D01*
X192377459Y-97821854D01*
X192675455Y-97686496D01*
X192952066Y-96968120D01*
X192932710Y-96198573D01*
X192675455Y-95577504D01*
X192377459Y-95442146D01*
X191187605Y-96632000D01*
X190828395Y-96632000D01*
X189638541Y-95442146D01*
X189340545Y-95577504D01*
X189063934Y-96295880D01*
X186135667Y-96295880D01*
X185824669Y-95984340D01*
X185372095Y-95796415D01*
X184882055Y-95795987D01*
X184429153Y-95983122D01*
X184082340Y-96329331D01*
X183894415Y-96781905D01*
X183893987Y-97271945D01*
X183866259Y-97271945D01*
X183866259Y-96228000D01*
X183836150Y-96067985D01*
X183741581Y-95921020D01*
X183597285Y-95822427D01*
X183426000Y-95787741D01*
X181826000Y-95787741D01*
X181665985Y-95817850D01*
X181519020Y-95912419D01*
X181420427Y-96056715D01*
X181385741Y-96228000D01*
X181385741Y-97828000D01*
X181415850Y-97988015D01*
X181510419Y-98134980D01*
X181654715Y-98233573D01*
X181826000Y-98268259D01*
X182069200Y-98268259D01*
X182069200Y-101629741D01*
X181826000Y-101629741D01*
X181665985Y-101659850D01*
X181519020Y-101754419D01*
X181420427Y-101898715D01*
X181385741Y-102070000D01*
X181385741Y-103670000D01*
X181415850Y-103830015D01*
X181510419Y-103976980D01*
X181654715Y-104075573D01*
X181678231Y-104080335D01*
X181540366Y-104218200D01*
X180818191Y-104218200D01*
X180755073Y-104154972D01*
X180486203Y-104043327D01*
X180195075Y-104043073D01*
X179926010Y-104154248D01*
X179719972Y-104359927D01*
X179608327Y-104628797D01*
X179608073Y-104919925D01*
X176504314Y-104919925D01*
X176708782Y-104824522D01*
X176993737Y-104088045D01*
X176975164Y-103298582D01*
X176708782Y-102655478D01*
X176405593Y-102514012D01*
X175179605Y-103740000D01*
X174820395Y-103740000D01*
X173594407Y-102514012D01*
X173291218Y-102655478D01*
X173006263Y-103391955D01*
X167013826Y-103391955D01*
X167013826Y-102334407D01*
X173774012Y-102334407D01*
X175000000Y-103560395D01*
X176225988Y-102334407D01*
X176084522Y-102031218D01*
X175348045Y-101746263D01*
X174558582Y-101764836D01*
X173915478Y-102031218D01*
X173774012Y-102334407D01*
X167013826Y-102334407D01*
X167013826Y-99204925D01*
X176433073Y-99204925D01*
X176544248Y-99473990D01*
X176749927Y-99680028D01*
X177018797Y-99791673D01*
X177309925Y-99791927D01*
X177578990Y-99680752D01*
X177785028Y-99475073D01*
X177896673Y-99206203D01*
X177896927Y-98915075D01*
X177785752Y-98646010D01*
X177721800Y-98581946D01*
X177721800Y-98344731D01*
X177850646Y-98656562D01*
X178281172Y-99087840D01*
X178843969Y-99321534D01*
X179453357Y-99322066D01*
X180016562Y-99089354D01*
X180447840Y-98658828D01*
X180681534Y-98096031D01*
X180682066Y-97486643D01*
X180449354Y-96923438D01*
X180018828Y-96492160D01*
X179456031Y-96258466D01*
X178846643Y-96257934D01*
X178283438Y-96490646D01*
X177852160Y-96921172D01*
X177721800Y-97235113D01*
X177721800Y-95262541D01*
X189818146Y-95262541D01*
X191008000Y-96452395D01*
X192197854Y-95262541D01*
X192062496Y-94964545D01*
X191344120Y-94687934D01*
X190574573Y-94707290D01*
X189953504Y-94964545D01*
X189818146Y-95262541D01*
X177721800Y-95262541D01*
X177721800Y-91670634D01*
X177855585Y-91536849D01*
X177944925Y-91536927D01*
X178213990Y-91425752D01*
X178420028Y-91220073D01*
X178531673Y-90951203D01*
X178531927Y-90660075D01*
X178420752Y-90391010D01*
X178299413Y-90269459D01*
X180080146Y-90269459D01*
X180215504Y-90567455D01*
X180933880Y-90844066D01*
X181703427Y-90824710D01*
X182324496Y-90567455D01*
X182459854Y-90269459D01*
X181270000Y-89079605D01*
X180080146Y-90269459D01*
X178299413Y-90269459D01*
X178215073Y-90184972D01*
X177946203Y-90073327D01*
X177655075Y-90073073D01*
X177386010Y-90184248D01*
X177179972Y-90389927D01*
X177068327Y-90658797D01*
X177068248Y-90749318D01*
X176771283Y-91046283D01*
X176650584Y-91226922D01*
X176608200Y-91440000D01*
X176608200Y-98581809D01*
X176544972Y-98644927D01*
X176433327Y-98913797D01*
X176433073Y-99204925D01*
X167013826Y-99204925D01*
X167013826Y-96745593D01*
X172574012Y-96745593D01*
X172715478Y-97048782D01*
X173451955Y-97333737D01*
X174241418Y-97315164D01*
X174884522Y-97048782D01*
X175025988Y-96745593D01*
X173800000Y-95519605D01*
X172574012Y-96745593D01*
X167013826Y-96745593D01*
X167013826Y-94991955D01*
X171806263Y-94991955D01*
X171824836Y-95781418D01*
X172091218Y-96424522D01*
X172394407Y-96565988D01*
X173620395Y-95340000D01*
X173979605Y-95340000D01*
X175205593Y-96565988D01*
X175508782Y-96424522D01*
X175793737Y-95688045D01*
X175775164Y-94898582D01*
X175508782Y-94255478D01*
X175205593Y-94114012D01*
X173979605Y-95340000D01*
X173620395Y-95340000D01*
X172394407Y-94114012D01*
X172091218Y-94255478D01*
X171806263Y-94991955D01*
X167013826Y-94991955D01*
X167013826Y-93934407D01*
X172574012Y-93934407D01*
X173800000Y-95160395D01*
X175025988Y-93934407D01*
X174884522Y-93631218D01*
X174148045Y-93346263D01*
X173358582Y-93364836D01*
X172715478Y-93631218D01*
X172574012Y-93934407D01*
X167013826Y-93934407D01*
X167013826Y-92797026D01*
X166990326Y-92678885D01*
X167435171Y-92837201D01*
X167985448Y-92809230D01*
X168363923Y-92652460D01*
X168431912Y-92411517D01*
X169388088Y-92411517D01*
X169456077Y-92652460D01*
X169975171Y-92837201D01*
X170525448Y-92809230D01*
X170903923Y-92652460D01*
X170971912Y-92411517D01*
X170180000Y-91619605D01*
X169388088Y-92411517D01*
X168431912Y-92411517D01*
X167640000Y-91619605D01*
X167625858Y-91633748D01*
X167446253Y-91454143D01*
X167460395Y-91440000D01*
X167446253Y-91425858D01*
X167625858Y-91246253D01*
X167640000Y-91260395D01*
X167654143Y-91246253D01*
X167833748Y-91425858D01*
X167819605Y-91440000D01*
X168611517Y-92231912D01*
X168852460Y-92163923D01*
X168905642Y-92014489D01*
X168967540Y-92163923D01*
X169208483Y-92231912D01*
X170000395Y-91440000D01*
X169986253Y-91425858D01*
X170165858Y-91246253D01*
X170180000Y-91260395D01*
X170194143Y-91246253D01*
X170373748Y-91425858D01*
X170359605Y-91440000D01*
X171151517Y-92231912D01*
X171335000Y-92180137D01*
X171335000Y-92316310D01*
X171431673Y-92549699D01*
X171610302Y-92728327D01*
X171843691Y-92825000D01*
X172434250Y-92825000D01*
X172593000Y-92666250D01*
X172593000Y-91567000D01*
X172847000Y-91567000D01*
X172847000Y-92666250D01*
X173005750Y-92825000D01*
X173596309Y-92825000D01*
X173829698Y-92728327D01*
X174008327Y-92549699D01*
X174105000Y-92316310D01*
X174105000Y-91725750D01*
X173946250Y-91567000D01*
X172847000Y-91567000D01*
X172593000Y-91567000D01*
X172573000Y-91567000D01*
X172573000Y-91313000D01*
X172593000Y-91313000D01*
X172593000Y-91293000D01*
X172847000Y-91293000D01*
X172847000Y-91313000D01*
X173946250Y-91313000D01*
X174105000Y-91154250D01*
X174105000Y-90563690D01*
X174008327Y-90330301D01*
X173829698Y-90151673D01*
X173596309Y-90055000D01*
X173005750Y-90055000D01*
X172847002Y-90213748D01*
X172847002Y-90055000D01*
X172736814Y-90055000D01*
X172847201Y-89744829D01*
X172819230Y-89194552D01*
X172664811Y-88821753D01*
X172954043Y-88822005D01*
X173388561Y-88642466D01*
X173467284Y-88563880D01*
X179325934Y-88563880D01*
X179345290Y-89333427D01*
X179602545Y-89954496D01*
X179900541Y-90089854D01*
X181090395Y-88900000D01*
X181449605Y-88900000D01*
X182639459Y-90089854D01*
X182937455Y-89954496D01*
X183127724Y-89460356D01*
X183300995Y-89879704D01*
X183787733Y-90367293D01*
X184213200Y-90543962D01*
X184213200Y-92246783D01*
X184164972Y-92294927D01*
X184053327Y-92563797D01*
X184053073Y-92854925D01*
X184164248Y-93123990D01*
X184369927Y-93330028D01*
X184638797Y-93441673D01*
X184929925Y-93441927D01*
X185198990Y-93330752D01*
X185405028Y-93125073D01*
X185516673Y-92856203D01*
X185516927Y-92565075D01*
X185405752Y-92296010D01*
X185326800Y-92216920D01*
X185326800Y-90543745D01*
X185749704Y-90369005D01*
X186237293Y-89882267D01*
X186501499Y-89245988D01*
X186501501Y-89242965D01*
X186537900Y-89242965D01*
X186800995Y-89879704D01*
X187287733Y-90367293D01*
X187924012Y-90631499D01*
X188612965Y-90632100D01*
X189249704Y-90369005D01*
X189737293Y-89882267D01*
X190001499Y-89245988D01*
X190002100Y-88557035D01*
X189739005Y-87920296D01*
X189419269Y-87600000D01*
X190029741Y-87600000D01*
X190029741Y-90200000D01*
X190059850Y-90360015D01*
X190154419Y-90506980D01*
X190298715Y-90605573D01*
X190470000Y-90640259D01*
X193070000Y-90640259D01*
X193230015Y-90610150D01*
X193376980Y-90515581D01*
X193475573Y-90371285D01*
X193510259Y-90200000D01*
X193510259Y-87600000D01*
X193480150Y-87439985D01*
X193385581Y-87293020D01*
X193241285Y-87194427D01*
X193070000Y-87159741D01*
X190470000Y-87159741D01*
X190309985Y-87189850D01*
X190163020Y-87284419D01*
X190064427Y-87428715D01*
X190029741Y-87600000D01*
X189419269Y-87600000D01*
X189252267Y-87432707D01*
X188615988Y-87168501D01*
X187927035Y-87167900D01*
X187290296Y-87430995D01*
X186802707Y-87917733D01*
X186538501Y-88554012D01*
X186537900Y-89242965D01*
X186501501Y-89242965D01*
X186502100Y-88557035D01*
X186239005Y-87920296D01*
X185752267Y-87432707D01*
X185115988Y-87168501D01*
X184427035Y-87167900D01*
X183790296Y-87430995D01*
X183302707Y-87917733D01*
X183134833Y-88322018D01*
X182937455Y-87845504D01*
X182639459Y-87710146D01*
X181449605Y-88900000D01*
X181090395Y-88900000D01*
X179900541Y-87710146D01*
X179602545Y-87845504D01*
X179325934Y-88563880D01*
X173467284Y-88563880D01*
X173721297Y-88310310D01*
X173901595Y-87876106D01*
X173901896Y-87530541D01*
X180080146Y-87530541D01*
X181270000Y-88720395D01*
X182459854Y-87530541D01*
X182324496Y-87232545D01*
X181606120Y-86955934D01*
X180836573Y-86975290D01*
X180215504Y-87232545D01*
X180080146Y-87530541D01*
X173901896Y-87530541D01*
X173902005Y-87405957D01*
X173722466Y-86971439D01*
X173390310Y-86638703D01*
X172956106Y-86458405D01*
X172485957Y-86457995D01*
X172345315Y-86516107D01*
X172451297Y-86410310D01*
X172631595Y-85976106D01*
X172632005Y-85505957D01*
X172452466Y-85071439D01*
X172120310Y-84738703D01*
X171686106Y-84558405D01*
X171215957Y-84557995D01*
X170781439Y-84737534D01*
X170448703Y-85069690D01*
X170268405Y-85503894D01*
X170267995Y-85974043D01*
X170447534Y-86408561D01*
X170554769Y-86515983D01*
X170416106Y-86458405D01*
X169945957Y-86457995D01*
X169805315Y-86516107D01*
X169911297Y-86410310D01*
X170091595Y-85976106D01*
X170092005Y-85505957D01*
X169912466Y-85071439D01*
X169580310Y-84738703D01*
X169146106Y-84558405D01*
X168675957Y-84557995D01*
X168241439Y-84737534D01*
X167908703Y-85069690D01*
X167728405Y-85503894D01*
X167727995Y-85974043D01*
X167907534Y-86408561D01*
X168014769Y-86515983D01*
X167876106Y-86458405D01*
X167405957Y-86457995D01*
X167265315Y-86516107D01*
X167371297Y-86410310D01*
X167551595Y-85976106D01*
X167552005Y-85505957D01*
X167372466Y-85071439D01*
X167040310Y-84738703D01*
X166606106Y-84558405D01*
X166135957Y-84557995D01*
X165701439Y-84737534D01*
X165368703Y-85069690D01*
X165188405Y-85503894D01*
X165187995Y-85974043D01*
X165367534Y-86408561D01*
X165474769Y-86515983D01*
X165336106Y-86458405D01*
X164865957Y-86457995D01*
X164725315Y-86516107D01*
X164831297Y-86410310D01*
X165011595Y-85976106D01*
X165012005Y-85505957D01*
X164832466Y-85071439D01*
X164500310Y-84738703D01*
X164066106Y-84558405D01*
X163595957Y-84557995D01*
X163161439Y-84737534D01*
X162828703Y-85069690D01*
X162648405Y-85503894D01*
X162647995Y-85974043D01*
X162827534Y-86408561D01*
X162934769Y-86515983D01*
X162796106Y-86458405D01*
X162325957Y-86457995D01*
X162185315Y-86516107D01*
X162291297Y-86410310D01*
X162471595Y-85976106D01*
X162472005Y-85505957D01*
X162292466Y-85071439D01*
X161960310Y-84738703D01*
X161526106Y-84558405D01*
X161055957Y-84557995D01*
X160621439Y-84737534D01*
X160288703Y-85069690D01*
X160108405Y-85503894D01*
X160107995Y-85974043D01*
X160287534Y-86408561D01*
X160394769Y-86515983D01*
X160256106Y-86458405D01*
X159785957Y-86457995D01*
X159645315Y-86516107D01*
X159751297Y-86410310D01*
X159931595Y-85976106D01*
X159932005Y-85505957D01*
X159752466Y-85071439D01*
X159420310Y-84738703D01*
X158986106Y-84558405D01*
X158515957Y-84557995D01*
X158081439Y-84737534D01*
X157748703Y-85069690D01*
X157568405Y-85503894D01*
X157567995Y-85974043D01*
X157747534Y-86408561D01*
X157854769Y-86515983D01*
X157716106Y-86458405D01*
X157245957Y-86457995D01*
X157105315Y-86516107D01*
X157211297Y-86410310D01*
X157391595Y-85976106D01*
X157392005Y-85505957D01*
X157212466Y-85071439D01*
X156880310Y-84738703D01*
X156446106Y-84558405D01*
X155975957Y-84557995D01*
X155541439Y-84737534D01*
X155208703Y-85069690D01*
X155028405Y-85503894D01*
X155027995Y-85974043D01*
X155207534Y-86408561D01*
X155314769Y-86515983D01*
X155176106Y-86458405D01*
X154705957Y-86457995D01*
X154565315Y-86516107D01*
X154671297Y-86410310D01*
X154851595Y-85976106D01*
X154852005Y-85505957D01*
X154672466Y-85071439D01*
X154340310Y-84738703D01*
X153906106Y-84558405D01*
X153435957Y-84557995D01*
X153001439Y-84737534D01*
X152668703Y-85069690D01*
X152488405Y-85503894D01*
X152487995Y-85974043D01*
X152667534Y-86408561D01*
X152774769Y-86515983D01*
X152636106Y-86458405D01*
X152165957Y-86457995D01*
X152025315Y-86516107D01*
X152131297Y-86410310D01*
X152311595Y-85976106D01*
X152312005Y-85505957D01*
X152132466Y-85071439D01*
X151800310Y-84738703D01*
X151366106Y-84558405D01*
X150895957Y-84557995D01*
X150461439Y-84737534D01*
X150128703Y-85069690D01*
X149948405Y-85503894D01*
X149947995Y-85974043D01*
X150127534Y-86408561D01*
X150234769Y-86515983D01*
X150096106Y-86458405D01*
X149625957Y-86457995D01*
X149485315Y-86516107D01*
X149591297Y-86410310D01*
X149771595Y-85976106D01*
X149772005Y-85505957D01*
X149592466Y-85071439D01*
X149260310Y-84738703D01*
X148826106Y-84558405D01*
X148355957Y-84557995D01*
X147921439Y-84737534D01*
X147588703Y-85069690D01*
X147408405Y-85503894D01*
X147407995Y-85974043D01*
X147587534Y-86408561D01*
X147694769Y-86515983D01*
X147556106Y-86458405D01*
X147085957Y-86457995D01*
X146945315Y-86516107D01*
X147051297Y-86410310D01*
X147231595Y-85976106D01*
X147232005Y-85505957D01*
X147052466Y-85071439D01*
X146720310Y-84738703D01*
X146286106Y-84558405D01*
X145815957Y-84557995D01*
X145381439Y-84737534D01*
X145048703Y-85069690D01*
X144868405Y-85503894D01*
X144867995Y-85974043D01*
X145047534Y-86408561D01*
X145154769Y-86515983D01*
X145016106Y-86458405D01*
X144545957Y-86457995D01*
X144405315Y-86516107D01*
X144511297Y-86410310D01*
X144691595Y-85976106D01*
X144692005Y-85505957D01*
X144512466Y-85071439D01*
X144180310Y-84738703D01*
X143746106Y-84558405D01*
X143275957Y-84557995D01*
X142841439Y-84737534D01*
X142508703Y-85069690D01*
X142328405Y-85503894D01*
X142327995Y-85974043D01*
X142507534Y-86408561D01*
X142614769Y-86515983D01*
X142476106Y-86458405D01*
X142005957Y-86457995D01*
X141865315Y-86516107D01*
X141971297Y-86410310D01*
X142151595Y-85976106D01*
X142152005Y-85505957D01*
X141972466Y-85071439D01*
X141640310Y-84738703D01*
X141206106Y-84558405D01*
X140735957Y-84557995D01*
X140301439Y-84737534D01*
X139968703Y-85069690D01*
X139788405Y-85503894D01*
X139787995Y-85974043D01*
X139967534Y-86408561D01*
X140074769Y-86515983D01*
X139936106Y-86458405D01*
X139465957Y-86457995D01*
X139325315Y-86516107D01*
X139431297Y-86410310D01*
X139611595Y-85976106D01*
X139612005Y-85505957D01*
X139432466Y-85071439D01*
X139100310Y-84738703D01*
X138666106Y-84558405D01*
X138195957Y-84557995D01*
X137761439Y-84737534D01*
X137428703Y-85069690D01*
X137248405Y-85503894D01*
X137247995Y-85974043D01*
X137427534Y-86408561D01*
X137534769Y-86515983D01*
X137396106Y-86458405D01*
X136925957Y-86457995D01*
X136785315Y-86516107D01*
X136891297Y-86410310D01*
X137071595Y-85976106D01*
X137072005Y-85505957D01*
X136892466Y-85071439D01*
X136560310Y-84738703D01*
X136126106Y-84558405D01*
X135655957Y-84557995D01*
X135221439Y-84737534D01*
X134888703Y-85069690D01*
X134708405Y-85503894D01*
X134707995Y-85974043D01*
X134887534Y-86408561D01*
X134994769Y-86515983D01*
X134856106Y-86458405D01*
X134385957Y-86457995D01*
X134245315Y-86516107D01*
X134351297Y-86410310D01*
X134531595Y-85976106D01*
X134532005Y-85505957D01*
X134352466Y-85071439D01*
X134020310Y-84738703D01*
X133586106Y-84558405D01*
X133115957Y-84557995D01*
X132681439Y-84737534D01*
X132348703Y-85069690D01*
X132168405Y-85503894D01*
X132167995Y-85974043D01*
X132347534Y-86408561D01*
X132454769Y-86515983D01*
X132316106Y-86458405D01*
X131845957Y-86457995D01*
X131705315Y-86516107D01*
X131811297Y-86410310D01*
X131991595Y-85976106D01*
X131992005Y-85505957D01*
X131812466Y-85071439D01*
X131480310Y-84738703D01*
X131046106Y-84558405D01*
X130575957Y-84557995D01*
X130141439Y-84737534D01*
X129808703Y-85069690D01*
X129628405Y-85503894D01*
X129627995Y-85974043D01*
X129807534Y-86408561D01*
X129914769Y-86515983D01*
X129776106Y-86458405D01*
X129305957Y-86457995D01*
X129165315Y-86516107D01*
X129271297Y-86410310D01*
X129451595Y-85976106D01*
X129452005Y-85505957D01*
X129272466Y-85071439D01*
X128940310Y-84738703D01*
X128506106Y-84558405D01*
X128035957Y-84557995D01*
X127601439Y-84737534D01*
X127268703Y-85069690D01*
X127088405Y-85503894D01*
X127087995Y-85974043D01*
X127267534Y-86408561D01*
X127374769Y-86515983D01*
X127236106Y-86458405D01*
X126765957Y-86457995D01*
X126625315Y-86516107D01*
X126731297Y-86410310D01*
X126911595Y-85976106D01*
X126912005Y-85505957D01*
X126732466Y-85071439D01*
X126400310Y-84738703D01*
X125966106Y-84558405D01*
X125495957Y-84557995D01*
X125061439Y-84737534D01*
X124728703Y-85069690D01*
X124548405Y-85503894D01*
X124547995Y-85974043D01*
X124727534Y-86408561D01*
X124834769Y-86515983D01*
X124696106Y-86458405D01*
X124225957Y-86457995D01*
X124085315Y-86516107D01*
X124191297Y-86410310D01*
X124371595Y-85976106D01*
X124372005Y-85505957D01*
X124192466Y-85071439D01*
X123860310Y-84738703D01*
X123426106Y-84558405D01*
X122955957Y-84557995D01*
X122521439Y-84737534D01*
X122188703Y-85069690D01*
X122008405Y-85503894D01*
X122007995Y-85974043D01*
X119338500Y-85974043D01*
X119415741Y-85585728D01*
X119854332Y-84929332D01*
X120510728Y-84490741D01*
X121334916Y-84326800D01*
X193625084Y-84326800D01*
X194449272Y-84490741D01*
G36*
X169103748Y-89525858D02*
X169089605Y-89540000D01*
X169103748Y-89554143D01*
X168924143Y-89733748D01*
X168910000Y-89719605D01*
X168895858Y-89733748D01*
X168716253Y-89554143D01*
X168730395Y-89540000D01*
X168716253Y-89525858D01*
X168895858Y-89346253D01*
X168910000Y-89360395D01*
X168924143Y-89346253D01*
X169103748Y-89525858D01*
X169103748Y-89525858D01*
G37*
X169103748Y-89525858D02*
X169089605Y-89540000D01*
X169103748Y-89554143D01*
X168924143Y-89733748D01*
X168910000Y-89719605D01*
X168895858Y-89733748D01*
X168716253Y-89554143D01*
X168730395Y-89540000D01*
X168716253Y-89525858D01*
X168895858Y-89346253D01*
X168910000Y-89360395D01*
X168924143Y-89346253D01*
X169103748Y-89525858D01*
G36*
X171643748Y-89525858D02*
X171629605Y-89540000D01*
X171643748Y-89554143D01*
X171464143Y-89733748D01*
X171450000Y-89719605D01*
X171435858Y-89733748D01*
X171256253Y-89554143D01*
X171270395Y-89540000D01*
X171256253Y-89525858D01*
X171435858Y-89346253D01*
X171450000Y-89360395D01*
X171464143Y-89346253D01*
X171643748Y-89525858D01*
X171643748Y-89525858D01*
G37*
X171643748Y-89525858D02*
X171629605Y-89540000D01*
X171643748Y-89554143D01*
X171464143Y-89733748D01*
X171450000Y-89719605D01*
X171435858Y-89733748D01*
X171256253Y-89554143D01*
X171270395Y-89540000D01*
X171256253Y-89525858D01*
X171435858Y-89346253D01*
X171450000Y-89360395D01*
X171464143Y-89346253D01*
X171643748Y-89525858D01*
G36*
X166563748Y-89525858D02*
X166549605Y-89540000D01*
X166563748Y-89554143D01*
X166384143Y-89733748D01*
X166370000Y-89719605D01*
X166355858Y-89733748D01*
X166176253Y-89554143D01*
X166190395Y-89540000D01*
X166176253Y-89525858D01*
X166355858Y-89346253D01*
X166370000Y-89360395D01*
X166384143Y-89346253D01*
X166563748Y-89525858D01*
X166563748Y-89525858D01*
G37*
X166563748Y-89525858D02*
X166549605Y-89540000D01*
X166563748Y-89554143D01*
X166384143Y-89733748D01*
X166370000Y-89719605D01*
X166355858Y-89733748D01*
X166176253Y-89554143D01*
X166190395Y-89540000D01*
X166176253Y-89525858D01*
X166355858Y-89346253D01*
X166370000Y-89360395D01*
X166384143Y-89346253D01*
X166563748Y-89525858D01*
G36*
X194503748Y-111110858D02*
X194489605Y-111125000D01*
X194503748Y-111139142D01*
X194324142Y-111318748D01*
X194310000Y-111304605D01*
X194295858Y-111318748D01*
X194116253Y-111139143D01*
X194130395Y-111125000D01*
X194116252Y-111110858D01*
X194295858Y-110931252D01*
X194310000Y-110945395D01*
X194324142Y-110931252D01*
X194503748Y-111110858D01*
X194503748Y-111110858D01*
G37*
X194503748Y-111110858D02*
X194489605Y-111125000D01*
X194503748Y-111139142D01*
X194324142Y-111318748D01*
X194310000Y-111304605D01*
X194295858Y-111318748D01*
X194116253Y-111139143D01*
X194130395Y-111125000D01*
X194116252Y-111110858D01*
X194295858Y-110931252D01*
X194310000Y-110945395D01*
X194324142Y-110931252D01*
X194503748Y-111110858D01*
M02*
