G04 #@! TF.FileFunction,Legend,Bot*
%FSLAX46Y46*%
G04 Gerber Fmt 4.6, Leading zero omitted, Abs format (unit mm)*
G04 Created by KiCad (PCBNEW 4.0.7) date Monday, September 03, 2018 'PMt' 09:42:47 PM*
%MOMM*%
%LPD*%
G01*
G04 APERTURE LIST*
%ADD10C,0.100000*%
%ADD11C,0.200000*%
%ADD12C,0.300000*%
%ADD13C,0.010000*%
G04 APERTURE END LIST*
D10*
D11*
X185452381Y-86095238D02*
X184452381Y-86095238D01*
X185452381Y-86666667D01*
X184452381Y-86666667D01*
X185404762Y-87523810D02*
X185452381Y-87428572D01*
X185452381Y-87238095D01*
X185404762Y-87142857D01*
X185309524Y-87095238D01*
X184928571Y-87095238D01*
X184833333Y-87142857D01*
X184785714Y-87238095D01*
X184785714Y-87428572D01*
X184833333Y-87523810D01*
X184928571Y-87571429D01*
X185023810Y-87571429D01*
X185119048Y-87095238D01*
X185452381Y-88142857D02*
X185404762Y-88047619D01*
X185357143Y-88000000D01*
X185261905Y-87952381D01*
X184976190Y-87952381D01*
X184880952Y-88000000D01*
X184833333Y-88047619D01*
X184785714Y-88142857D01*
X184785714Y-88285715D01*
X184833333Y-88380953D01*
X184880952Y-88428572D01*
X184976190Y-88476191D01*
X185261905Y-88476191D01*
X185357143Y-88428572D01*
X185404762Y-88380953D01*
X185452381Y-88285715D01*
X185452381Y-88142857D01*
X185452381Y-88904762D02*
X184452381Y-88904762D01*
X184452381Y-89285715D01*
X184500000Y-89380953D01*
X184547619Y-89428572D01*
X184642857Y-89476191D01*
X184785714Y-89476191D01*
X184880952Y-89428572D01*
X184928571Y-89380953D01*
X184976190Y-89285715D01*
X184976190Y-88904762D01*
X185452381Y-89904762D02*
X184785714Y-89904762D01*
X184452381Y-89904762D02*
X184500000Y-89857143D01*
X184547619Y-89904762D01*
X184500000Y-89952381D01*
X184452381Y-89904762D01*
X184547619Y-89904762D01*
X185452381Y-90285714D02*
X184785714Y-90809524D01*
X184785714Y-90285714D02*
X185452381Y-90809524D01*
X185404762Y-91571429D02*
X185452381Y-91476191D01*
X185452381Y-91285714D01*
X185404762Y-91190476D01*
X185309524Y-91142857D01*
X184928571Y-91142857D01*
X184833333Y-91190476D01*
X184785714Y-91285714D01*
X184785714Y-91476191D01*
X184833333Y-91571429D01*
X184928571Y-91619048D01*
X185023810Y-91619048D01*
X185119048Y-91142857D01*
X185452381Y-92190476D02*
X185404762Y-92095238D01*
X185309524Y-92047619D01*
X184452381Y-92047619D01*
X185404762Y-92523810D02*
X185452381Y-92619048D01*
X185452381Y-92809524D01*
X185404762Y-92904763D01*
X185309524Y-92952382D01*
X185261905Y-92952382D01*
X185166667Y-92904763D01*
X185119048Y-92809524D01*
X185119048Y-92666667D01*
X185071429Y-92571429D01*
X184976190Y-92523810D01*
X184928571Y-92523810D01*
X184833333Y-92571429D01*
X184785714Y-92666667D01*
X184785714Y-92809524D01*
X184833333Y-92904763D01*
X184237381Y-109426667D02*
X184237381Y-108950476D01*
X184713571Y-108902857D01*
X184665952Y-108950476D01*
X184618333Y-109045714D01*
X184618333Y-109283810D01*
X184665952Y-109379048D01*
X184713571Y-109426667D01*
X184808810Y-109474286D01*
X185046905Y-109474286D01*
X185142143Y-109426667D01*
X185189762Y-109379048D01*
X185237381Y-109283810D01*
X185237381Y-109045714D01*
X185189762Y-108950476D01*
X185142143Y-108902857D01*
X184237381Y-109760000D02*
X185237381Y-110093333D01*
X184237381Y-110426667D01*
X185237381Y-110760000D02*
X184237381Y-110760000D01*
X184237381Y-110998095D01*
X184285000Y-111140953D01*
X184380238Y-111236191D01*
X184475476Y-111283810D01*
X184665952Y-111331429D01*
X184808810Y-111331429D01*
X184999286Y-111283810D01*
X185094524Y-111236191D01*
X185189762Y-111140953D01*
X185237381Y-110998095D01*
X185237381Y-110760000D01*
X185142143Y-112331429D02*
X185189762Y-112283810D01*
X185237381Y-112140953D01*
X185237381Y-112045715D01*
X185189762Y-111902857D01*
X185094524Y-111807619D01*
X184999286Y-111760000D01*
X184808810Y-111712381D01*
X184665952Y-111712381D01*
X184475476Y-111760000D01*
X184380238Y-111807619D01*
X184285000Y-111902857D01*
X184237381Y-112045715D01*
X184237381Y-112140953D01*
X184285000Y-112283810D01*
X184332619Y-112331429D01*
X185237381Y-113521905D02*
X184237381Y-113521905D01*
X185237381Y-113998095D02*
X184237381Y-113998095D01*
X185237381Y-114569524D01*
X184237381Y-114569524D01*
X183738096Y-91952381D02*
X183738096Y-90952381D01*
X183500001Y-90952381D01*
X183357143Y-91000000D01*
X183261905Y-91095238D01*
X183214286Y-91190476D01*
X183166667Y-91380952D01*
X183166667Y-91523810D01*
X183214286Y-91714286D01*
X183261905Y-91809524D01*
X183357143Y-91904762D01*
X183500001Y-91952381D01*
X183738096Y-91952381D01*
X182785715Y-91666667D02*
X182309524Y-91666667D01*
X182880953Y-91952381D02*
X182547620Y-90952381D01*
X182214286Y-91952381D01*
X182023810Y-90952381D02*
X181452381Y-90952381D01*
X181738096Y-91952381D02*
X181738096Y-90952381D01*
X181166667Y-91666667D02*
X180690476Y-91666667D01*
X181261905Y-91952381D02*
X180928572Y-90952381D01*
X180595238Y-91952381D01*
X182785714Y-89000000D02*
X182880952Y-88952381D01*
X183023809Y-88952381D01*
X183166667Y-89000000D01*
X183261905Y-89095238D01*
X183309524Y-89190476D01*
X183357143Y-89380952D01*
X183357143Y-89523810D01*
X183309524Y-89714286D01*
X183261905Y-89809524D01*
X183166667Y-89904762D01*
X183023809Y-89952381D01*
X182928571Y-89952381D01*
X182785714Y-89904762D01*
X182738095Y-89857143D01*
X182738095Y-89523810D01*
X182928571Y-89523810D01*
X182309524Y-89952381D02*
X182309524Y-88952381D01*
X181738095Y-89952381D01*
X181738095Y-88952381D01*
X181261905Y-89952381D02*
X181261905Y-88952381D01*
X181023810Y-88952381D01*
X180880952Y-89000000D01*
X180785714Y-89095238D01*
X180738095Y-89190476D01*
X180690476Y-89380952D01*
X180690476Y-89523810D01*
X180738095Y-89714286D01*
X180785714Y-89809524D01*
X180880952Y-89904762D01*
X181023810Y-89952381D01*
X181261905Y-89952381D01*
X181595238Y-86952381D02*
X182071429Y-86952381D01*
X182119048Y-87428571D01*
X182071429Y-87380952D01*
X181976191Y-87333333D01*
X181738095Y-87333333D01*
X181642857Y-87380952D01*
X181595238Y-87428571D01*
X181547619Y-87523810D01*
X181547619Y-87761905D01*
X181595238Y-87857143D01*
X181642857Y-87904762D01*
X181738095Y-87952381D01*
X181976191Y-87952381D01*
X182071429Y-87904762D01*
X182119048Y-87857143D01*
X181261905Y-86952381D02*
X180928572Y-87952381D01*
X180595238Y-86952381D01*
D12*
X162225713Y-95831429D02*
X162154284Y-95760000D01*
X162011427Y-95688571D01*
X161654284Y-95688571D01*
X161511427Y-95760000D01*
X161439998Y-95831429D01*
X161368570Y-95974286D01*
X161368570Y-96117143D01*
X161439998Y-96331429D01*
X162297141Y-97188571D01*
X161368570Y-97188571D01*
X160439999Y-95688571D02*
X160297142Y-95688571D01*
X160154285Y-95760000D01*
X160082856Y-95831429D01*
X160011427Y-95974286D01*
X159939999Y-96260000D01*
X159939999Y-96617143D01*
X160011427Y-96902857D01*
X160082856Y-97045714D01*
X160154285Y-97117143D01*
X160297142Y-97188571D01*
X160439999Y-97188571D01*
X160582856Y-97117143D01*
X160654285Y-97045714D01*
X160725713Y-96902857D01*
X160797142Y-96617143D01*
X160797142Y-96260000D01*
X160725713Y-95974286D01*
X160654285Y-95831429D01*
X160582856Y-95760000D01*
X160439999Y-95688571D01*
X158511428Y-97188571D02*
X159368571Y-97188571D01*
X158939999Y-97188571D02*
X158939999Y-95688571D01*
X159082856Y-95902857D01*
X159225714Y-96045714D01*
X159368571Y-96117143D01*
X157654285Y-96331429D02*
X157797143Y-96260000D01*
X157868571Y-96188571D01*
X157940000Y-96045714D01*
X157940000Y-95974286D01*
X157868571Y-95831429D01*
X157797143Y-95760000D01*
X157654285Y-95688571D01*
X157368571Y-95688571D01*
X157225714Y-95760000D01*
X157154285Y-95831429D01*
X157082857Y-95974286D01*
X157082857Y-96045714D01*
X157154285Y-96188571D01*
X157225714Y-96260000D01*
X157368571Y-96331429D01*
X157654285Y-96331429D01*
X157797143Y-96402857D01*
X157868571Y-96474286D01*
X157940000Y-96617143D01*
X157940000Y-96902857D01*
X157868571Y-97045714D01*
X157797143Y-97117143D01*
X157654285Y-97188571D01*
X157368571Y-97188571D01*
X157225714Y-97117143D01*
X157154285Y-97045714D01*
X157082857Y-96902857D01*
X157082857Y-96617143D01*
X157154285Y-96474286D01*
X157225714Y-96402857D01*
X157368571Y-96331429D01*
X156440000Y-96617143D02*
X155297143Y-96617143D01*
X154297143Y-95688571D02*
X154154286Y-95688571D01*
X154011429Y-95760000D01*
X153940000Y-95831429D01*
X153868571Y-95974286D01*
X153797143Y-96260000D01*
X153797143Y-96617143D01*
X153868571Y-96902857D01*
X153940000Y-97045714D01*
X154011429Y-97117143D01*
X154154286Y-97188571D01*
X154297143Y-97188571D01*
X154440000Y-97117143D01*
X154511429Y-97045714D01*
X154582857Y-96902857D01*
X154654286Y-96617143D01*
X154654286Y-96260000D01*
X154582857Y-95974286D01*
X154511429Y-95831429D01*
X154440000Y-95760000D01*
X154297143Y-95688571D01*
X153082858Y-97188571D02*
X152797143Y-97188571D01*
X152654286Y-97117143D01*
X152582858Y-97045714D01*
X152440000Y-96831429D01*
X152368572Y-96545714D01*
X152368572Y-95974286D01*
X152440000Y-95831429D01*
X152511429Y-95760000D01*
X152654286Y-95688571D01*
X152940000Y-95688571D01*
X153082858Y-95760000D01*
X153154286Y-95831429D01*
X153225715Y-95974286D01*
X153225715Y-96331429D01*
X153154286Y-96474286D01*
X153082858Y-96545714D01*
X152940000Y-96617143D01*
X152654286Y-96617143D01*
X152511429Y-96545714D01*
X152440000Y-96474286D01*
X152368572Y-96331429D01*
X151725715Y-96617143D02*
X150582858Y-96617143D01*
X149582858Y-95688571D02*
X149440001Y-95688571D01*
X149297144Y-95760000D01*
X149225715Y-95831429D01*
X149154286Y-95974286D01*
X149082858Y-96260000D01*
X149082858Y-96617143D01*
X149154286Y-96902857D01*
X149225715Y-97045714D01*
X149297144Y-97117143D01*
X149440001Y-97188571D01*
X149582858Y-97188571D01*
X149725715Y-97117143D01*
X149797144Y-97045714D01*
X149868572Y-96902857D01*
X149940001Y-96617143D01*
X149940001Y-96260000D01*
X149868572Y-95974286D01*
X149797144Y-95831429D01*
X149725715Y-95760000D01*
X149582858Y-95688571D01*
X148582858Y-95688571D02*
X147654287Y-95688571D01*
X148154287Y-96260000D01*
X147940001Y-96260000D01*
X147797144Y-96331429D01*
X147725715Y-96402857D01*
X147654287Y-96545714D01*
X147654287Y-96902857D01*
X147725715Y-97045714D01*
X147797144Y-97117143D01*
X147940001Y-97188571D01*
X148368573Y-97188571D01*
X148511430Y-97117143D01*
X148582858Y-97045714D01*
X174940002Y-99738571D02*
X174940002Y-98238571D01*
X174297145Y-99738571D02*
X174297145Y-98952857D01*
X174368574Y-98810000D01*
X174511431Y-98738571D01*
X174725716Y-98738571D01*
X174868574Y-98810000D01*
X174940002Y-98881429D01*
X173797145Y-98738571D02*
X173225716Y-98738571D01*
X173582859Y-98238571D02*
X173582859Y-99524286D01*
X173511431Y-99667143D01*
X173368573Y-99738571D01*
X173225716Y-99738571D01*
X172940002Y-98738571D02*
X172368573Y-98738571D01*
X172725716Y-98238571D02*
X172725716Y-99524286D01*
X172654288Y-99667143D01*
X172511430Y-99738571D01*
X172368573Y-99738571D01*
X171868573Y-98738571D02*
X171868573Y-100238571D01*
X171868573Y-98810000D02*
X171725716Y-98738571D01*
X171440002Y-98738571D01*
X171297145Y-98810000D01*
X171225716Y-98881429D01*
X171154287Y-99024286D01*
X171154287Y-99452857D01*
X171225716Y-99595714D01*
X171297145Y-99667143D01*
X171440002Y-99738571D01*
X171725716Y-99738571D01*
X171868573Y-99667143D01*
X170582859Y-99667143D02*
X170440002Y-99738571D01*
X170154287Y-99738571D01*
X170011430Y-99667143D01*
X169940002Y-99524286D01*
X169940002Y-99452857D01*
X170011430Y-99310000D01*
X170154287Y-99238571D01*
X170368573Y-99238571D01*
X170511430Y-99167143D01*
X170582859Y-99024286D01*
X170582859Y-98952857D01*
X170511430Y-98810000D01*
X170368573Y-98738571D01*
X170154287Y-98738571D01*
X170011430Y-98810000D01*
X169297144Y-99595714D02*
X169225716Y-99667143D01*
X169297144Y-99738571D01*
X169368573Y-99667143D01*
X169297144Y-99595714D01*
X169297144Y-99738571D01*
X169297144Y-98810000D02*
X169225716Y-98881429D01*
X169297144Y-98952857D01*
X169368573Y-98881429D01*
X169297144Y-98810000D01*
X169297144Y-98952857D01*
X167511430Y-98167143D02*
X168797144Y-100095714D01*
X165940001Y-98167143D02*
X167225715Y-100095714D01*
X164797143Y-98738571D02*
X164797143Y-99952857D01*
X164868572Y-100095714D01*
X164940000Y-100167143D01*
X165082857Y-100238571D01*
X165297143Y-100238571D01*
X165440000Y-100167143D01*
X164797143Y-99667143D02*
X164940000Y-99738571D01*
X165225714Y-99738571D01*
X165368572Y-99667143D01*
X165440000Y-99595714D01*
X165511429Y-99452857D01*
X165511429Y-99024286D01*
X165440000Y-98881429D01*
X165368572Y-98810000D01*
X165225714Y-98738571D01*
X164940000Y-98738571D01*
X164797143Y-98810000D01*
X164082857Y-99738571D02*
X164082857Y-98738571D01*
X164082857Y-98238571D02*
X164154286Y-98310000D01*
X164082857Y-98381429D01*
X164011429Y-98310000D01*
X164082857Y-98238571D01*
X164082857Y-98381429D01*
X163582857Y-98738571D02*
X163011428Y-98738571D01*
X163368571Y-98238571D02*
X163368571Y-99524286D01*
X163297143Y-99667143D01*
X163154285Y-99738571D01*
X163011428Y-99738571D01*
X162511428Y-99738571D02*
X162511428Y-98238571D01*
X161868571Y-99738571D02*
X161868571Y-98952857D01*
X161940000Y-98810000D01*
X162082857Y-98738571D01*
X162297142Y-98738571D01*
X162440000Y-98810000D01*
X162511428Y-98881429D01*
X160511428Y-98738571D02*
X160511428Y-99738571D01*
X161154285Y-98738571D02*
X161154285Y-99524286D01*
X161082857Y-99667143D01*
X160939999Y-99738571D01*
X160725714Y-99738571D01*
X160582857Y-99667143D01*
X160511428Y-99595714D01*
X159797142Y-99738571D02*
X159797142Y-98238571D01*
X159797142Y-98810000D02*
X159654285Y-98738571D01*
X159368571Y-98738571D01*
X159225714Y-98810000D01*
X159154285Y-98881429D01*
X159082856Y-99024286D01*
X159082856Y-99452857D01*
X159154285Y-99595714D01*
X159225714Y-99667143D01*
X159368571Y-99738571D01*
X159654285Y-99738571D01*
X159797142Y-99667143D01*
X158439999Y-99595714D02*
X158368571Y-99667143D01*
X158439999Y-99738571D01*
X158511428Y-99667143D01*
X158439999Y-99595714D01*
X158439999Y-99738571D01*
X157082856Y-99667143D02*
X157225713Y-99738571D01*
X157511427Y-99738571D01*
X157654285Y-99667143D01*
X157725713Y-99595714D01*
X157797142Y-99452857D01*
X157797142Y-99024286D01*
X157725713Y-98881429D01*
X157654285Y-98810000D01*
X157511427Y-98738571D01*
X157225713Y-98738571D01*
X157082856Y-98810000D01*
X156225713Y-99738571D02*
X156368571Y-99667143D01*
X156439999Y-99595714D01*
X156511428Y-99452857D01*
X156511428Y-99024286D01*
X156439999Y-98881429D01*
X156368571Y-98810000D01*
X156225713Y-98738571D01*
X156011428Y-98738571D01*
X155868571Y-98810000D01*
X155797142Y-98881429D01*
X155725713Y-99024286D01*
X155725713Y-99452857D01*
X155797142Y-99595714D01*
X155868571Y-99667143D01*
X156011428Y-99738571D01*
X156225713Y-99738571D01*
X155082856Y-99738571D02*
X155082856Y-98738571D01*
X155082856Y-98881429D02*
X155011428Y-98810000D01*
X154868570Y-98738571D01*
X154654285Y-98738571D01*
X154511428Y-98810000D01*
X154439999Y-98952857D01*
X154439999Y-99738571D01*
X154439999Y-98952857D02*
X154368570Y-98810000D01*
X154225713Y-98738571D01*
X154011428Y-98738571D01*
X153868570Y-98810000D01*
X153797142Y-98952857D01*
X153797142Y-99738571D01*
X152011428Y-98167143D02*
X153297142Y-100095714D01*
X151511427Y-98738571D02*
X151511427Y-100238571D01*
X151511427Y-98810000D02*
X151368570Y-98738571D01*
X151082856Y-98738571D01*
X150939999Y-98810000D01*
X150868570Y-98881429D01*
X150797141Y-99024286D01*
X150797141Y-99452857D01*
X150868570Y-99595714D01*
X150939999Y-99667143D01*
X151082856Y-99738571D01*
X151368570Y-99738571D01*
X151511427Y-99667143D01*
X150154284Y-98738571D02*
X150154284Y-100238571D01*
X150154284Y-98810000D02*
X150011427Y-98738571D01*
X149725713Y-98738571D01*
X149582856Y-98810000D01*
X149511427Y-98881429D01*
X149439998Y-99024286D01*
X149439998Y-99452857D01*
X149511427Y-99595714D01*
X149582856Y-99667143D01*
X149725713Y-99738571D01*
X150011427Y-99738571D01*
X150154284Y-99667143D01*
X148225713Y-99667143D02*
X148368570Y-99738571D01*
X148654284Y-99738571D01*
X148797141Y-99667143D01*
X148868570Y-99524286D01*
X148868570Y-98952857D01*
X148797141Y-98810000D01*
X148654284Y-98738571D01*
X148368570Y-98738571D01*
X148225713Y-98810000D01*
X148154284Y-98952857D01*
X148154284Y-99095714D01*
X148868570Y-99238571D01*
X147297141Y-99738571D02*
X147439999Y-99667143D01*
X147511427Y-99524286D01*
X147511427Y-98238571D01*
X146511427Y-99738571D02*
X146654285Y-99667143D01*
X146725713Y-99524286D01*
X146725713Y-98238571D01*
X145368571Y-99667143D02*
X145511428Y-99738571D01*
X145797142Y-99738571D01*
X145939999Y-99667143D01*
X146011428Y-99524286D01*
X146011428Y-98952857D01*
X145939999Y-98810000D01*
X145797142Y-98738571D01*
X145511428Y-98738571D01*
X145368571Y-98810000D01*
X145297142Y-98952857D01*
X145297142Y-99095714D01*
X146011428Y-99238571D01*
X144868571Y-98738571D02*
X144297142Y-98738571D01*
X144654285Y-98238571D02*
X144654285Y-99524286D01*
X144582857Y-99667143D01*
X144439999Y-99738571D01*
X144297142Y-99738571D01*
X143797142Y-99738571D02*
X143797142Y-98738571D01*
X143797142Y-98238571D02*
X143868571Y-98310000D01*
X143797142Y-98381429D01*
X143725714Y-98310000D01*
X143797142Y-98238571D01*
X143797142Y-98381429D01*
X142011428Y-98167143D02*
X143297142Y-100095714D01*
X141511427Y-99738571D02*
X141511427Y-98238571D01*
X140654284Y-99738571D01*
X140654284Y-98238571D01*
X139368570Y-99667143D02*
X139511427Y-99738571D01*
X139797141Y-99738571D01*
X139939998Y-99667143D01*
X140011427Y-99524286D01*
X140011427Y-98952857D01*
X139939998Y-98810000D01*
X139797141Y-98738571D01*
X139511427Y-98738571D01*
X139368570Y-98810000D01*
X139297141Y-98952857D01*
X139297141Y-99095714D01*
X140011427Y-99238571D01*
X138439998Y-99738571D02*
X138582856Y-99667143D01*
X138654284Y-99595714D01*
X138725713Y-99452857D01*
X138725713Y-99024286D01*
X138654284Y-98881429D01*
X138582856Y-98810000D01*
X138439998Y-98738571D01*
X138225713Y-98738571D01*
X138082856Y-98810000D01*
X138011427Y-98881429D01*
X137939998Y-99024286D01*
X137939998Y-99452857D01*
X138011427Y-99595714D01*
X138082856Y-99667143D01*
X138225713Y-99738571D01*
X138439998Y-99738571D01*
X136797141Y-98952857D02*
X136582855Y-99024286D01*
X136511427Y-99095714D01*
X136439998Y-99238571D01*
X136439998Y-99452857D01*
X136511427Y-99595714D01*
X136582855Y-99667143D01*
X136725713Y-99738571D01*
X137297141Y-99738571D01*
X137297141Y-98238571D01*
X136797141Y-98238571D01*
X136654284Y-98310000D01*
X136582855Y-98381429D01*
X136511427Y-98524286D01*
X136511427Y-98667143D01*
X136582855Y-98810000D01*
X136654284Y-98881429D01*
X136797141Y-98952857D01*
X137297141Y-98952857D01*
X135797141Y-99738571D02*
X135797141Y-98738571D01*
X135797141Y-98238571D02*
X135868570Y-98310000D01*
X135797141Y-98381429D01*
X135725713Y-98310000D01*
X135797141Y-98238571D01*
X135797141Y-98381429D01*
X135297141Y-98738571D02*
X134725712Y-98738571D01*
X135082855Y-98238571D02*
X135082855Y-99524286D01*
X135011427Y-99667143D01*
X134868569Y-99738571D01*
X134725712Y-99738571D01*
X170511428Y-102288571D02*
X170511428Y-100788571D01*
X170511428Y-102217143D02*
X170654285Y-102288571D01*
X170939999Y-102288571D01*
X171082857Y-102217143D01*
X171154285Y-102145714D01*
X171225714Y-102002857D01*
X171225714Y-101574286D01*
X171154285Y-101431429D01*
X171082857Y-101360000D01*
X170939999Y-101288571D01*
X170654285Y-101288571D01*
X170511428Y-101360000D01*
X169225714Y-102217143D02*
X169368571Y-102288571D01*
X169654285Y-102288571D01*
X169797142Y-102217143D01*
X169868571Y-102074286D01*
X169868571Y-101502857D01*
X169797142Y-101360000D01*
X169654285Y-101288571D01*
X169368571Y-101288571D01*
X169225714Y-101360000D01*
X169154285Y-101502857D01*
X169154285Y-101645714D01*
X169868571Y-101788571D01*
X168582857Y-102217143D02*
X168440000Y-102288571D01*
X168154285Y-102288571D01*
X168011428Y-102217143D01*
X167940000Y-102074286D01*
X167940000Y-102002857D01*
X168011428Y-101860000D01*
X168154285Y-101788571D01*
X168368571Y-101788571D01*
X168511428Y-101717143D01*
X168582857Y-101574286D01*
X168582857Y-101502857D01*
X168511428Y-101360000D01*
X168368571Y-101288571D01*
X168154285Y-101288571D01*
X168011428Y-101360000D01*
X167297142Y-102288571D02*
X167297142Y-101288571D01*
X167297142Y-100788571D02*
X167368571Y-100860000D01*
X167297142Y-100931429D01*
X167225714Y-100860000D01*
X167297142Y-100788571D01*
X167297142Y-100931429D01*
X165939999Y-101288571D02*
X165939999Y-102502857D01*
X166011428Y-102645714D01*
X166082856Y-102717143D01*
X166225713Y-102788571D01*
X166439999Y-102788571D01*
X166582856Y-102717143D01*
X165939999Y-102217143D02*
X166082856Y-102288571D01*
X166368570Y-102288571D01*
X166511428Y-102217143D01*
X166582856Y-102145714D01*
X166654285Y-102002857D01*
X166654285Y-101574286D01*
X166582856Y-101431429D01*
X166511428Y-101360000D01*
X166368570Y-101288571D01*
X166082856Y-101288571D01*
X165939999Y-101360000D01*
X165225713Y-101288571D02*
X165225713Y-102288571D01*
X165225713Y-101431429D02*
X165154285Y-101360000D01*
X165011427Y-101288571D01*
X164797142Y-101288571D01*
X164654285Y-101360000D01*
X164582856Y-101502857D01*
X164582856Y-102288571D01*
X163297142Y-102217143D02*
X163439999Y-102288571D01*
X163725713Y-102288571D01*
X163868570Y-102217143D01*
X163939999Y-102074286D01*
X163939999Y-101502857D01*
X163868570Y-101360000D01*
X163725713Y-101288571D01*
X163439999Y-101288571D01*
X163297142Y-101360000D01*
X163225713Y-101502857D01*
X163225713Y-101645714D01*
X163939999Y-101788571D01*
X161939999Y-102288571D02*
X161939999Y-100788571D01*
X161939999Y-102217143D02*
X162082856Y-102288571D01*
X162368570Y-102288571D01*
X162511428Y-102217143D01*
X162582856Y-102145714D01*
X162654285Y-102002857D01*
X162654285Y-101574286D01*
X162582856Y-101431429D01*
X162511428Y-101360000D01*
X162368570Y-101288571D01*
X162082856Y-101288571D01*
X161939999Y-101360000D01*
X160082856Y-102288571D02*
X160082856Y-100788571D01*
X160082856Y-101360000D02*
X159939999Y-101288571D01*
X159654285Y-101288571D01*
X159511428Y-101360000D01*
X159439999Y-101431429D01*
X159368570Y-101574286D01*
X159368570Y-102002857D01*
X159439999Y-102145714D01*
X159511428Y-102217143D01*
X159654285Y-102288571D01*
X159939999Y-102288571D01*
X160082856Y-102217143D01*
X158868570Y-101288571D02*
X158511427Y-102288571D01*
X158154285Y-101288571D02*
X158511427Y-102288571D01*
X158654285Y-102645714D01*
X158725713Y-102717143D01*
X158868570Y-102788571D01*
X156439999Y-102288571D02*
X156439999Y-100788571D01*
X155868571Y-100788571D01*
X155725713Y-100860000D01*
X155654285Y-100931429D01*
X155582856Y-101074286D01*
X155582856Y-101288571D01*
X155654285Y-101431429D01*
X155725713Y-101502857D01*
X155868571Y-101574286D01*
X156439999Y-101574286D01*
X154297142Y-102288571D02*
X154297142Y-101502857D01*
X154368571Y-101360000D01*
X154511428Y-101288571D01*
X154797142Y-101288571D01*
X154939999Y-101360000D01*
X154297142Y-102217143D02*
X154439999Y-102288571D01*
X154797142Y-102288571D01*
X154939999Y-102217143D01*
X155011428Y-102074286D01*
X155011428Y-101931429D01*
X154939999Y-101788571D01*
X154797142Y-101717143D01*
X154439999Y-101717143D01*
X154297142Y-101645714D01*
X153797142Y-101288571D02*
X153225713Y-101288571D01*
X153582856Y-100788571D02*
X153582856Y-102074286D01*
X153511428Y-102217143D01*
X153368570Y-102288571D01*
X153225713Y-102288571D01*
X152725713Y-102288571D02*
X152725713Y-101288571D01*
X152725713Y-101574286D02*
X152654285Y-101431429D01*
X152582856Y-101360000D01*
X152439999Y-101288571D01*
X152297142Y-101288571D01*
X151797142Y-102288571D02*
X151797142Y-101288571D01*
X151797142Y-100788571D02*
X151868571Y-100860000D01*
X151797142Y-100931429D01*
X151725714Y-100860000D01*
X151797142Y-100788571D01*
X151797142Y-100931429D01*
X150439999Y-102217143D02*
X150582856Y-102288571D01*
X150868570Y-102288571D01*
X151011428Y-102217143D01*
X151082856Y-102145714D01*
X151154285Y-102002857D01*
X151154285Y-101574286D01*
X151082856Y-101431429D01*
X151011428Y-101360000D01*
X150868570Y-101288571D01*
X150582856Y-101288571D01*
X150439999Y-101360000D01*
X149797142Y-102288571D02*
X149797142Y-100788571D01*
X149654285Y-101717143D02*
X149225714Y-102288571D01*
X149225714Y-101288571D02*
X149797142Y-101860000D01*
X147439999Y-102288571D02*
X147439999Y-100788571D01*
X146868571Y-100788571D01*
X146725713Y-100860000D01*
X146654285Y-100931429D01*
X146582856Y-101074286D01*
X146582856Y-101288571D01*
X146654285Y-101431429D01*
X146725713Y-101502857D01*
X146868571Y-101574286D01*
X147439999Y-101574286D01*
X145368571Y-102217143D02*
X145511428Y-102288571D01*
X145797142Y-102288571D01*
X145939999Y-102217143D01*
X146011428Y-102074286D01*
X146011428Y-101502857D01*
X145939999Y-101360000D01*
X145797142Y-101288571D01*
X145511428Y-101288571D01*
X145368571Y-101360000D01*
X145297142Y-101502857D01*
X145297142Y-101645714D01*
X146011428Y-101788571D01*
X144439999Y-102288571D02*
X144582857Y-102217143D01*
X144654285Y-102074286D01*
X144654285Y-100788571D01*
X143654285Y-102288571D02*
X143797143Y-102217143D01*
X143868571Y-102074286D01*
X143868571Y-100788571D01*
X142511429Y-102217143D02*
X142654286Y-102288571D01*
X142940000Y-102288571D01*
X143082857Y-102217143D01*
X143154286Y-102074286D01*
X143154286Y-101502857D01*
X143082857Y-101360000D01*
X142940000Y-101288571D01*
X142654286Y-101288571D01*
X142511429Y-101360000D01*
X142440000Y-101502857D01*
X142440000Y-101645714D01*
X143154286Y-101788571D01*
X142011429Y-101288571D02*
X141440000Y-101288571D01*
X141797143Y-100788571D02*
X141797143Y-102074286D01*
X141725715Y-102217143D01*
X141582857Y-102288571D01*
X141440000Y-102288571D01*
X140940000Y-102288571D02*
X140940000Y-101288571D01*
X140940000Y-100788571D02*
X141011429Y-100860000D01*
X140940000Y-100931429D01*
X140868572Y-100860000D01*
X140940000Y-100788571D01*
X140940000Y-100931429D01*
X139654286Y-102217143D02*
X139797143Y-102288571D01*
X140082857Y-102288571D01*
X140225714Y-102217143D01*
X140297143Y-102074286D01*
X140297143Y-101502857D01*
X140225714Y-101360000D01*
X140082857Y-101288571D01*
X139797143Y-101288571D01*
X139654286Y-101360000D01*
X139582857Y-101502857D01*
X139582857Y-101645714D01*
X140297143Y-101788571D01*
X138940000Y-102288571D02*
X138940000Y-101288571D01*
X138940000Y-101574286D02*
X138868572Y-101431429D01*
X138797143Y-101360000D01*
X138654286Y-101288571D01*
X138511429Y-101288571D01*
D13*
G36*
X165287474Y-124842699D02*
X165013228Y-124980071D01*
X164780051Y-125209071D01*
X164628370Y-125493218D01*
X164592317Y-125708833D01*
X164639814Y-125868909D01*
X164757533Y-125907107D01*
X164907200Y-125831559D01*
X165050540Y-125650396D01*
X165072943Y-125606722D01*
X165190237Y-125405629D01*
X165301671Y-125282714D01*
X165319786Y-125272933D01*
X165442247Y-125297577D01*
X165642048Y-125404974D01*
X165792713Y-125509854D01*
X166078593Y-125694747D01*
X166267637Y-125740825D01*
X166359969Y-125648098D01*
X166370000Y-125559775D01*
X166304486Y-125413658D01*
X166139183Y-125225023D01*
X165920952Y-125036014D01*
X165696656Y-124888774D01*
X165562362Y-124833439D01*
X165287474Y-124842699D01*
X165287474Y-124842699D01*
G37*
X165287474Y-124842699D02*
X165013228Y-124980071D01*
X164780051Y-125209071D01*
X164628370Y-125493218D01*
X164592317Y-125708833D01*
X164639814Y-125868909D01*
X164757533Y-125907107D01*
X164907200Y-125831559D01*
X165050540Y-125650396D01*
X165072943Y-125606722D01*
X165190237Y-125405629D01*
X165301671Y-125282714D01*
X165319786Y-125272933D01*
X165442247Y-125297577D01*
X165642048Y-125404974D01*
X165792713Y-125509854D01*
X166078593Y-125694747D01*
X166267637Y-125740825D01*
X166359969Y-125648098D01*
X166370000Y-125559775D01*
X166304486Y-125413658D01*
X166139183Y-125225023D01*
X165920952Y-125036014D01*
X165696656Y-124888774D01*
X165562362Y-124833439D01*
X165287474Y-124842699D01*
G36*
X164380742Y-123643794D02*
X164296988Y-123711837D01*
X164275586Y-123856831D01*
X164298546Y-124068686D01*
X164313726Y-124382781D01*
X164239285Y-124652083D01*
X164054589Y-124929649D01*
X163893307Y-125110586D01*
X163729594Y-125326651D01*
X163683832Y-125492370D01*
X163689143Y-125512753D01*
X163788063Y-125629663D01*
X163947473Y-125604829D01*
X164176486Y-125435544D01*
X164278706Y-125337738D01*
X164590208Y-124927163D01*
X164736452Y-124482313D01*
X164735506Y-124101210D01*
X164664370Y-123794038D01*
X164550651Y-123643631D01*
X164387571Y-123641249D01*
X164380742Y-123643794D01*
X164380742Y-123643794D01*
G37*
X164380742Y-123643794D02*
X164296988Y-123711837D01*
X164275586Y-123856831D01*
X164298546Y-124068686D01*
X164313726Y-124382781D01*
X164239285Y-124652083D01*
X164054589Y-124929649D01*
X163893307Y-125110586D01*
X163729594Y-125326651D01*
X163683832Y-125492370D01*
X163689143Y-125512753D01*
X163788063Y-125629663D01*
X163947473Y-125604829D01*
X164176486Y-125435544D01*
X164278706Y-125337738D01*
X164590208Y-124927163D01*
X164736452Y-124482313D01*
X164735506Y-124101210D01*
X164664370Y-123794038D01*
X164550651Y-123643631D01*
X164387571Y-123641249D01*
X164380742Y-123643794D01*
G36*
X164833693Y-121050231D02*
X164520645Y-121221908D01*
X164279407Y-121502555D01*
X164134412Y-121862771D01*
X164110092Y-122273156D01*
X164115162Y-122315275D01*
X164235304Y-122708071D01*
X164487755Y-123163168D01*
X164856584Y-123661029D01*
X165325857Y-124182114D01*
X165879642Y-124706882D01*
X166444261Y-125171660D01*
X166782805Y-125413771D01*
X167016443Y-125534769D01*
X167155752Y-125537383D01*
X167211309Y-125424344D01*
X167213262Y-125370167D01*
X167149105Y-125209388D01*
X166953384Y-125002973D01*
X166697718Y-124798667D01*
X166222664Y-124414029D01*
X165769356Y-123989332D01*
X165357190Y-123548328D01*
X165005563Y-123114768D01*
X164733871Y-122712405D01*
X164561509Y-122364991D01*
X164507333Y-122116353D01*
X164583564Y-121848493D01*
X164778514Y-121629011D01*
X165041574Y-121507153D01*
X165144170Y-121496667D01*
X165377900Y-121550510D01*
X165594714Y-121724072D01*
X165812878Y-122035402D01*
X165950962Y-122293697D01*
X166113110Y-122544298D01*
X166363442Y-122842824D01*
X166673228Y-123163647D01*
X167013739Y-123481141D01*
X167356243Y-123769680D01*
X167672010Y-124003636D01*
X167932312Y-124157384D01*
X168094856Y-124206000D01*
X168220887Y-124153117D01*
X168237369Y-124019908D01*
X168155730Y-123844533D01*
X167987397Y-123665152D01*
X167917380Y-123613333D01*
X167305169Y-123162722D01*
X166829334Y-122721473D01*
X166461277Y-122260789D01*
X166282639Y-121967380D01*
X166029878Y-121552121D01*
X165792163Y-121273853D01*
X165539454Y-121106343D01*
X165241709Y-121023363D01*
X165194118Y-121016925D01*
X164833693Y-121050231D01*
X164833693Y-121050231D01*
G37*
X164833693Y-121050231D02*
X164520645Y-121221908D01*
X164279407Y-121502555D01*
X164134412Y-121862771D01*
X164110092Y-122273156D01*
X164115162Y-122315275D01*
X164235304Y-122708071D01*
X164487755Y-123163168D01*
X164856584Y-123661029D01*
X165325857Y-124182114D01*
X165879642Y-124706882D01*
X166444261Y-125171660D01*
X166782805Y-125413771D01*
X167016443Y-125534769D01*
X167155752Y-125537383D01*
X167211309Y-125424344D01*
X167213262Y-125370167D01*
X167149105Y-125209388D01*
X166953384Y-125002973D01*
X166697718Y-124798667D01*
X166222664Y-124414029D01*
X165769356Y-123989332D01*
X165357190Y-123548328D01*
X165005563Y-123114768D01*
X164733871Y-122712405D01*
X164561509Y-122364991D01*
X164507333Y-122116353D01*
X164583564Y-121848493D01*
X164778514Y-121629011D01*
X165041574Y-121507153D01*
X165144170Y-121496667D01*
X165377900Y-121550510D01*
X165594714Y-121724072D01*
X165812878Y-122035402D01*
X165950962Y-122293697D01*
X166113110Y-122544298D01*
X166363442Y-122842824D01*
X166673228Y-123163647D01*
X167013739Y-123481141D01*
X167356243Y-123769680D01*
X167672010Y-124003636D01*
X167932312Y-124157384D01*
X168094856Y-124206000D01*
X168220887Y-124153117D01*
X168237369Y-124019908D01*
X168155730Y-123844533D01*
X167987397Y-123665152D01*
X167917380Y-123613333D01*
X167305169Y-123162722D01*
X166829334Y-122721473D01*
X166461277Y-122260789D01*
X166282639Y-121967380D01*
X166029878Y-121552121D01*
X165792163Y-121273853D01*
X165539454Y-121106343D01*
X165241709Y-121023363D01*
X165194118Y-121016925D01*
X164833693Y-121050231D01*
G36*
X164812317Y-120262338D02*
X164325173Y-120430067D01*
X163889392Y-120741369D01*
X163709660Y-120936140D01*
X163613601Y-121065497D01*
X163542016Y-121200432D01*
X163492804Y-121365013D01*
X163463861Y-121583311D01*
X163453084Y-121879395D01*
X163458370Y-122277333D01*
X163477616Y-122801196D01*
X163501333Y-123320434D01*
X163501308Y-123776277D01*
X163439304Y-124108903D01*
X163298063Y-124358418D01*
X163060328Y-124564927D01*
X162930640Y-124646664D01*
X162716520Y-124818098D01*
X162651258Y-124967253D01*
X162714398Y-125069218D01*
X162885487Y-125099086D01*
X163144068Y-125031946D01*
X163218861Y-124997645D01*
X163573028Y-124730606D01*
X163821280Y-124343210D01*
X163956330Y-123852743D01*
X163970896Y-123276489D01*
X163966330Y-123223958D01*
X163912460Y-122661065D01*
X163873815Y-122241474D01*
X163850957Y-121939792D01*
X163844447Y-121730626D01*
X163854846Y-121588580D01*
X163882714Y-121488260D01*
X163928612Y-121404274D01*
X163993103Y-121311225D01*
X164009093Y-121288109D01*
X164339890Y-120927615D01*
X164718744Y-120717784D01*
X165123641Y-120655123D01*
X165532568Y-120736140D01*
X165923511Y-120957342D01*
X166274456Y-121315237D01*
X166504738Y-121684041D01*
X166684793Y-121991064D01*
X166897398Y-122292383D01*
X166975642Y-122387509D01*
X167206814Y-122618731D01*
X167479485Y-122845096D01*
X167750670Y-123035666D01*
X167977383Y-123159507D01*
X168090697Y-123190000D01*
X168232560Y-123146706D01*
X168230070Y-123017953D01*
X168084055Y-122805431D01*
X167795346Y-122510831D01*
X167726032Y-122447171D01*
X167426439Y-122149134D01*
X167143777Y-121822639D01*
X166928949Y-121527589D01*
X166891369Y-121464983D01*
X166583655Y-120992575D01*
X166259518Y-120654025D01*
X165884821Y-120414786D01*
X165826370Y-120387244D01*
X165322242Y-120245593D01*
X164812317Y-120262338D01*
X164812317Y-120262338D01*
G37*
X164812317Y-120262338D02*
X164325173Y-120430067D01*
X163889392Y-120741369D01*
X163709660Y-120936140D01*
X163613601Y-121065497D01*
X163542016Y-121200432D01*
X163492804Y-121365013D01*
X163463861Y-121583311D01*
X163453084Y-121879395D01*
X163458370Y-122277333D01*
X163477616Y-122801196D01*
X163501333Y-123320434D01*
X163501308Y-123776277D01*
X163439304Y-124108903D01*
X163298063Y-124358418D01*
X163060328Y-124564927D01*
X162930640Y-124646664D01*
X162716520Y-124818098D01*
X162651258Y-124967253D01*
X162714398Y-125069218D01*
X162885487Y-125099086D01*
X163144068Y-125031946D01*
X163218861Y-124997645D01*
X163573028Y-124730606D01*
X163821280Y-124343210D01*
X163956330Y-123852743D01*
X163970896Y-123276489D01*
X163966330Y-123223958D01*
X163912460Y-122661065D01*
X163873815Y-122241474D01*
X163850957Y-121939792D01*
X163844447Y-121730626D01*
X163854846Y-121588580D01*
X163882714Y-121488260D01*
X163928612Y-121404274D01*
X163993103Y-121311225D01*
X164009093Y-121288109D01*
X164339890Y-120927615D01*
X164718744Y-120717784D01*
X165123641Y-120655123D01*
X165532568Y-120736140D01*
X165923511Y-120957342D01*
X166274456Y-121315237D01*
X166504738Y-121684041D01*
X166684793Y-121991064D01*
X166897398Y-122292383D01*
X166975642Y-122387509D01*
X167206814Y-122618731D01*
X167479485Y-122845096D01*
X167750670Y-123035666D01*
X167977383Y-123159507D01*
X168090697Y-123190000D01*
X168232560Y-123146706D01*
X168230070Y-123017953D01*
X168084055Y-122805431D01*
X167795346Y-122510831D01*
X167726032Y-122447171D01*
X167426439Y-122149134D01*
X167143777Y-121822639D01*
X166928949Y-121527589D01*
X166891369Y-121464983D01*
X166583655Y-120992575D01*
X166259518Y-120654025D01*
X165884821Y-120414786D01*
X165826370Y-120387244D01*
X165322242Y-120245593D01*
X164812317Y-120262338D01*
G36*
X164943419Y-122000188D02*
X164930667Y-122112012D01*
X164995197Y-122343578D01*
X165188202Y-122682976D01*
X165508802Y-123128761D01*
X165686249Y-123353514D01*
X165866906Y-123551943D01*
X166124423Y-123802189D01*
X166430462Y-124080338D01*
X166756687Y-124362473D01*
X167074759Y-124624678D01*
X167356340Y-124843038D01*
X167573094Y-124993635D01*
X167696682Y-125052554D01*
X167699536Y-125052667D01*
X167824050Y-124983782D01*
X167869930Y-124908603D01*
X167858344Y-124780212D01*
X167723510Y-124612479D01*
X167552849Y-124464103D01*
X167060462Y-124043569D01*
X166578818Y-123590053D01*
X166141784Y-123138180D01*
X165783229Y-122722575D01*
X165582000Y-122449167D01*
X165355859Y-122145017D01*
X165165227Y-121964237D01*
X165023336Y-121913678D01*
X164943419Y-122000188D01*
X164943419Y-122000188D01*
G37*
X164943419Y-122000188D02*
X164930667Y-122112012D01*
X164995197Y-122343578D01*
X165188202Y-122682976D01*
X165508802Y-123128761D01*
X165686249Y-123353514D01*
X165866906Y-123551943D01*
X166124423Y-123802189D01*
X166430462Y-124080338D01*
X166756687Y-124362473D01*
X167074759Y-124624678D01*
X167356340Y-124843038D01*
X167573094Y-124993635D01*
X167696682Y-125052554D01*
X167699536Y-125052667D01*
X167824050Y-124983782D01*
X167869930Y-124908603D01*
X167858344Y-124780212D01*
X167723510Y-124612479D01*
X167552849Y-124464103D01*
X167060462Y-124043569D01*
X166578818Y-123590053D01*
X166141784Y-123138180D01*
X165783229Y-122722575D01*
X165582000Y-122449167D01*
X165355859Y-122145017D01*
X165165227Y-121964237D01*
X165023336Y-121913678D01*
X164943419Y-122000188D01*
G36*
X164458193Y-119545189D02*
X163872155Y-119777283D01*
X163365069Y-120146736D01*
X162960116Y-120639338D01*
X162841046Y-120849501D01*
X162736092Y-121071828D01*
X162675370Y-121263284D01*
X162651269Y-121477882D01*
X162656182Y-121769630D01*
X162672585Y-122045278D01*
X162701658Y-122428299D01*
X162735067Y-122782336D01*
X162766950Y-123047464D01*
X162776344Y-123106381D01*
X162790799Y-123298524D01*
X162744547Y-123482115D01*
X162618747Y-123713020D01*
X162521790Y-123861206D01*
X162329961Y-124189125D01*
X162265887Y-124411883D01*
X162329862Y-124527482D01*
X162421572Y-124544667D01*
X162547008Y-124485203D01*
X162721539Y-124335343D01*
X162796267Y-124255595D01*
X163004849Y-123983366D01*
X163135882Y-123709117D01*
X163197669Y-123391875D01*
X163198513Y-122990666D01*
X163151464Y-122502846D01*
X163099898Y-122010155D01*
X163088708Y-121640687D01*
X163124229Y-121351790D01*
X163212795Y-121100811D01*
X163360739Y-120845098D01*
X163408051Y-120774989D01*
X163785688Y-120365461D01*
X164251087Y-120079532D01*
X164771206Y-119923918D01*
X165313002Y-119905336D01*
X165843434Y-120030502D01*
X166192907Y-120208942D01*
X166423074Y-120400427D01*
X166690521Y-120687182D01*
X166947748Y-121017897D01*
X166966221Y-121044367D01*
X167321295Y-121516920D01*
X167636582Y-121852903D01*
X167904035Y-122044695D01*
X168069830Y-122089333D01*
X168202031Y-122033393D01*
X168228390Y-121898800D01*
X168153351Y-121735396D01*
X168028026Y-121620484D01*
X167887406Y-121490703D01*
X167689659Y-121260776D01*
X167469896Y-120972562D01*
X167391152Y-120861152D01*
X166964511Y-120310085D01*
X166541363Y-119910411D01*
X166096341Y-119646667D01*
X165604076Y-119503393D01*
X165100000Y-119464667D01*
X164458193Y-119545189D01*
X164458193Y-119545189D01*
G37*
X164458193Y-119545189D02*
X163872155Y-119777283D01*
X163365069Y-120146736D01*
X162960116Y-120639338D01*
X162841046Y-120849501D01*
X162736092Y-121071828D01*
X162675370Y-121263284D01*
X162651269Y-121477882D01*
X162656182Y-121769630D01*
X162672585Y-122045278D01*
X162701658Y-122428299D01*
X162735067Y-122782336D01*
X162766950Y-123047464D01*
X162776344Y-123106381D01*
X162790799Y-123298524D01*
X162744547Y-123482115D01*
X162618747Y-123713020D01*
X162521790Y-123861206D01*
X162329961Y-124189125D01*
X162265887Y-124411883D01*
X162329862Y-124527482D01*
X162421572Y-124544667D01*
X162547008Y-124485203D01*
X162721539Y-124335343D01*
X162796267Y-124255595D01*
X163004849Y-123983366D01*
X163135882Y-123709117D01*
X163197669Y-123391875D01*
X163198513Y-122990666D01*
X163151464Y-122502846D01*
X163099898Y-122010155D01*
X163088708Y-121640687D01*
X163124229Y-121351790D01*
X163212795Y-121100811D01*
X163360739Y-120845098D01*
X163408051Y-120774989D01*
X163785688Y-120365461D01*
X164251087Y-120079532D01*
X164771206Y-119923918D01*
X165313002Y-119905336D01*
X165843434Y-120030502D01*
X166192907Y-120208942D01*
X166423074Y-120400427D01*
X166690521Y-120687182D01*
X166947748Y-121017897D01*
X166966221Y-121044367D01*
X167321295Y-121516920D01*
X167636582Y-121852903D01*
X167904035Y-122044695D01*
X168069830Y-122089333D01*
X168202031Y-122033393D01*
X168228390Y-121898800D01*
X168153351Y-121735396D01*
X168028026Y-121620484D01*
X167887406Y-121490703D01*
X167689659Y-121260776D01*
X167469896Y-120972562D01*
X167391152Y-120861152D01*
X166964511Y-120310085D01*
X166541363Y-119910411D01*
X166096341Y-119646667D01*
X165604076Y-119503393D01*
X165100000Y-119464667D01*
X164458193Y-119545189D01*
G36*
X162238062Y-120872960D02*
X162117306Y-121052419D01*
X162083936Y-121127492D01*
X162017415Y-121384077D01*
X161973386Y-121749091D01*
X161952197Y-122172968D01*
X161954193Y-122606140D01*
X161979720Y-122999041D01*
X162029125Y-123302101D01*
X162067955Y-123415346D01*
X162181822Y-123586489D01*
X162302018Y-123683643D01*
X162387129Y-123678776D01*
X162402143Y-123641555D01*
X162407766Y-123535014D01*
X162415127Y-123292594D01*
X162423363Y-122947731D01*
X162431610Y-122533858D01*
X162433495Y-122428000D01*
X162443229Y-121986930D01*
X162455752Y-121591636D01*
X162469569Y-121280950D01*
X162483184Y-121093704D01*
X162485519Y-121075975D01*
X162470335Y-120900006D01*
X162367902Y-120836626D01*
X162238062Y-120872960D01*
X162238062Y-120872960D01*
G37*
X162238062Y-120872960D02*
X162117306Y-121052419D01*
X162083936Y-121127492D01*
X162017415Y-121384077D01*
X161973386Y-121749091D01*
X161952197Y-122172968D01*
X161954193Y-122606140D01*
X161979720Y-122999041D01*
X162029125Y-123302101D01*
X162067955Y-123415346D01*
X162181822Y-123586489D01*
X162302018Y-123683643D01*
X162387129Y-123678776D01*
X162402143Y-123641555D01*
X162407766Y-123535014D01*
X162415127Y-123292594D01*
X162423363Y-122947731D01*
X162431610Y-122533858D01*
X162433495Y-122428000D01*
X162443229Y-121986930D01*
X162455752Y-121591636D01*
X162469569Y-121280950D01*
X162483184Y-121093704D01*
X162485519Y-121075975D01*
X162470335Y-120900006D01*
X162367902Y-120836626D01*
X162238062Y-120872960D01*
G36*
X164711391Y-118749449D02*
X164401082Y-118767253D01*
X164162812Y-118806562D01*
X163947986Y-118875149D01*
X163727385Y-118971676D01*
X163453516Y-119128637D01*
X163147329Y-119348631D01*
X162840600Y-119602802D01*
X162565104Y-119862294D01*
X162352616Y-120098255D01*
X162234912Y-120281828D01*
X162221333Y-120339311D01*
X162266118Y-120503586D01*
X162396015Y-120527615D01*
X162604338Y-120413442D01*
X162884403Y-120163115D01*
X162921455Y-120125122D01*
X163262556Y-119818407D01*
X163647277Y-119543896D01*
X163872333Y-119416942D01*
X164146298Y-119292974D01*
X164385218Y-119218477D01*
X164650727Y-119181447D01*
X165004460Y-119169879D01*
X165142333Y-119169587D01*
X165737939Y-119208869D01*
X166238571Y-119336790D01*
X166677294Y-119571697D01*
X167087174Y-119931934D01*
X167501276Y-120435847D01*
X167552967Y-120507045D01*
X167753265Y-120740771D01*
X167936045Y-120876479D01*
X168075194Y-120902928D01*
X168144601Y-120808874D01*
X168148000Y-120763246D01*
X168092273Y-120574616D01*
X167944278Y-120308820D01*
X167732798Y-120007100D01*
X167486611Y-119710702D01*
X167246479Y-119471333D01*
X166867947Y-119165704D01*
X166517261Y-118957043D01*
X166145874Y-118828601D01*
X165705242Y-118763631D01*
X165146818Y-118745382D01*
X165142333Y-118745380D01*
X164711391Y-118749449D01*
X164711391Y-118749449D01*
G37*
X164711391Y-118749449D02*
X164401082Y-118767253D01*
X164162812Y-118806562D01*
X163947986Y-118875149D01*
X163727385Y-118971676D01*
X163453516Y-119128637D01*
X163147329Y-119348631D01*
X162840600Y-119602802D01*
X162565104Y-119862294D01*
X162352616Y-120098255D01*
X162234912Y-120281828D01*
X162221333Y-120339311D01*
X162266118Y-120503586D01*
X162396015Y-120527615D01*
X162604338Y-120413442D01*
X162884403Y-120163115D01*
X162921455Y-120125122D01*
X163262556Y-119818407D01*
X163647277Y-119543896D01*
X163872333Y-119416942D01*
X164146298Y-119292974D01*
X164385218Y-119218477D01*
X164650727Y-119181447D01*
X165004460Y-119169879D01*
X165142333Y-119169587D01*
X165737939Y-119208869D01*
X166238571Y-119336790D01*
X166677294Y-119571697D01*
X167087174Y-119931934D01*
X167501276Y-120435847D01*
X167552967Y-120507045D01*
X167753265Y-120740771D01*
X167936045Y-120876479D01*
X168075194Y-120902928D01*
X168144601Y-120808874D01*
X168148000Y-120763246D01*
X168092273Y-120574616D01*
X167944278Y-120308820D01*
X167732798Y-120007100D01*
X167486611Y-119710702D01*
X167246479Y-119471333D01*
X166867947Y-119165704D01*
X166517261Y-118957043D01*
X166145874Y-118828601D01*
X165705242Y-118763631D01*
X165146818Y-118745382D01*
X165142333Y-118745380D01*
X164711391Y-118749449D01*
G36*
X164375026Y-117979202D02*
X164101556Y-118027426D01*
X163762891Y-118141951D01*
X163389015Y-118305192D01*
X163031439Y-118490821D01*
X162741674Y-118672507D01*
X162591553Y-118799245D01*
X162493677Y-118930504D01*
X162516440Y-119027989D01*
X162582911Y-119100530D01*
X162680188Y-119176967D01*
X162782725Y-119174786D01*
X162944109Y-119084278D01*
X163042918Y-119017183D01*
X163463058Y-118750585D01*
X163844587Y-118572281D01*
X164242305Y-118466353D01*
X164711007Y-118416879D01*
X165142333Y-118407245D01*
X165565938Y-118410378D01*
X165867047Y-118426056D01*
X166092436Y-118462223D01*
X166288881Y-118526823D01*
X166503156Y-118627803D01*
X166534016Y-118643633D01*
X166854198Y-118831157D01*
X167169092Y-119050966D01*
X167317426Y-119172800D01*
X167503722Y-119336597D01*
X167630295Y-119439393D01*
X167661411Y-119457982D01*
X167746682Y-119425202D01*
X167788167Y-119408593D01*
X167892034Y-119302307D01*
X167861431Y-119137944D01*
X167713271Y-118933307D01*
X167464468Y-118706195D01*
X167131935Y-118474408D01*
X166732584Y-118255746D01*
X166660418Y-118221690D01*
X166369115Y-118102364D01*
X166083006Y-118025884D01*
X165742402Y-117980311D01*
X165329223Y-117955400D01*
X164813076Y-117950533D01*
X164375026Y-117979202D01*
X164375026Y-117979202D01*
G37*
X164375026Y-117979202D02*
X164101556Y-118027426D01*
X163762891Y-118141951D01*
X163389015Y-118305192D01*
X163031439Y-118490821D01*
X162741674Y-118672507D01*
X162591553Y-118799245D01*
X162493677Y-118930504D01*
X162516440Y-119027989D01*
X162582911Y-119100530D01*
X162680188Y-119176967D01*
X162782725Y-119174786D01*
X162944109Y-119084278D01*
X163042918Y-119017183D01*
X163463058Y-118750585D01*
X163844587Y-118572281D01*
X164242305Y-118466353D01*
X164711007Y-118416879D01*
X165142333Y-118407245D01*
X165565938Y-118410378D01*
X165867047Y-118426056D01*
X166092436Y-118462223D01*
X166288881Y-118526823D01*
X166503156Y-118627803D01*
X166534016Y-118643633D01*
X166854198Y-118831157D01*
X167169092Y-119050966D01*
X167317426Y-119172800D01*
X167503722Y-119336597D01*
X167630295Y-119439393D01*
X167661411Y-119457982D01*
X167746682Y-119425202D01*
X167788167Y-119408593D01*
X167892034Y-119302307D01*
X167861431Y-119137944D01*
X167713271Y-118933307D01*
X167464468Y-118706195D01*
X167131935Y-118474408D01*
X166732584Y-118255746D01*
X166660418Y-118221690D01*
X166369115Y-118102364D01*
X166083006Y-118025884D01*
X165742402Y-117980311D01*
X165329223Y-117955400D01*
X164813076Y-117950533D01*
X164375026Y-117979202D01*
G36*
X139144186Y-119388931D02*
X139060365Y-119833555D01*
X138751080Y-119961053D01*
X138441794Y-120088551D01*
X138070754Y-119836246D01*
X137966843Y-119765996D01*
X137872913Y-119703272D01*
X137793348Y-119650938D01*
X137732530Y-119611857D01*
X137694843Y-119588893D01*
X137684579Y-119583942D01*
X137666090Y-119596676D01*
X137626580Y-119631882D01*
X137570478Y-119685062D01*
X137502213Y-119751718D01*
X137426214Y-119827354D01*
X137346908Y-119907472D01*
X137268725Y-119987574D01*
X137196093Y-120063164D01*
X137133441Y-120129745D01*
X137085197Y-120182818D01*
X137055790Y-120217887D01*
X137048759Y-120229623D01*
X137058877Y-120251260D01*
X137087241Y-120298662D01*
X137130871Y-120367193D01*
X137186782Y-120452215D01*
X137251994Y-120549093D01*
X137289781Y-120604350D01*
X137358657Y-120705248D01*
X137419860Y-120796299D01*
X137470422Y-120872970D01*
X137507372Y-120930728D01*
X137527742Y-120965043D01*
X137530803Y-120972254D01*
X137523864Y-120992748D01*
X137504949Y-121040513D01*
X137476913Y-121108832D01*
X137442609Y-121190989D01*
X137404891Y-121280270D01*
X137366613Y-121369958D01*
X137330630Y-121453338D01*
X137299794Y-121523694D01*
X137276961Y-121574310D01*
X137264983Y-121598471D01*
X137264276Y-121599422D01*
X137245469Y-121604036D01*
X137195382Y-121614328D01*
X137119207Y-121629287D01*
X137022135Y-121647901D01*
X136909357Y-121669159D01*
X136843558Y-121681418D01*
X136723050Y-121704362D01*
X136614203Y-121726195D01*
X136522524Y-121745722D01*
X136453519Y-121761748D01*
X136412696Y-121773079D01*
X136404489Y-121776674D01*
X136396452Y-121801006D01*
X136389967Y-121855959D01*
X136385030Y-121935108D01*
X136381636Y-122032026D01*
X136379782Y-122140287D01*
X136379462Y-122253465D01*
X136380673Y-122365135D01*
X136383410Y-122468868D01*
X136387669Y-122558241D01*
X136393445Y-122626826D01*
X136400733Y-122668197D01*
X136405105Y-122676810D01*
X136431236Y-122687133D01*
X136486607Y-122701892D01*
X136563893Y-122719352D01*
X136655770Y-122737780D01*
X136687842Y-122743741D01*
X136842476Y-122772066D01*
X136964625Y-122794876D01*
X137058327Y-122813080D01*
X137127616Y-122827583D01*
X137176529Y-122839292D01*
X137209103Y-122849115D01*
X137229372Y-122857956D01*
X137241374Y-122866724D01*
X137243053Y-122868457D01*
X137259816Y-122896371D01*
X137285386Y-122950695D01*
X137317212Y-123024777D01*
X137352740Y-123111965D01*
X137389417Y-123205608D01*
X137424689Y-123299052D01*
X137456004Y-123385647D01*
X137480807Y-123458740D01*
X137496546Y-123511678D01*
X137500668Y-123537811D01*
X137500324Y-123538726D01*
X137486359Y-123560086D01*
X137454678Y-123607084D01*
X137408609Y-123674827D01*
X137351482Y-123758423D01*
X137286627Y-123852982D01*
X137268157Y-123879854D01*
X137202301Y-123977275D01*
X137144350Y-124066163D01*
X137097462Y-124141412D01*
X137064793Y-124197920D01*
X137049500Y-124230581D01*
X137048759Y-124234593D01*
X137061608Y-124255684D01*
X137097112Y-124297464D01*
X137150707Y-124355445D01*
X137217829Y-124425135D01*
X137293913Y-124502045D01*
X137374396Y-124581683D01*
X137454713Y-124659561D01*
X137530301Y-124731186D01*
X137596595Y-124792070D01*
X137649031Y-124837721D01*
X137683045Y-124863650D01*
X137692455Y-124867883D01*
X137714357Y-124857912D01*
X137759200Y-124831020D01*
X137819679Y-124791736D01*
X137866211Y-124760117D01*
X137950525Y-124702098D01*
X138050374Y-124633784D01*
X138150527Y-124565579D01*
X138204373Y-124529075D01*
X138386629Y-124405800D01*
X138539619Y-124488520D01*
X138609318Y-124524759D01*
X138668586Y-124552926D01*
X138708689Y-124568991D01*
X138718897Y-124571226D01*
X138731171Y-124554722D01*
X138755387Y-124508082D01*
X138789737Y-124435609D01*
X138832412Y-124341606D01*
X138881606Y-124230374D01*
X138935510Y-124106215D01*
X138992316Y-123973432D01*
X139050218Y-123836327D01*
X139107407Y-123699202D01*
X139162076Y-123566358D01*
X139212416Y-123442098D01*
X139256620Y-123330725D01*
X139292881Y-123236539D01*
X139319391Y-123163844D01*
X139334342Y-123116941D01*
X139336746Y-123100833D01*
X139317689Y-123080286D01*
X139275964Y-123046933D01*
X139220294Y-123007702D01*
X139215622Y-123004599D01*
X139071736Y-122889423D01*
X138955717Y-122755053D01*
X138868570Y-122605784D01*
X138811301Y-122445913D01*
X138784914Y-122279737D01*
X138790415Y-122111552D01*
X138828810Y-121945655D01*
X138901105Y-121786342D01*
X138922374Y-121751487D01*
X139033004Y-121610737D01*
X139163698Y-121497714D01*
X139309936Y-121413003D01*
X139467192Y-121357194D01*
X139630943Y-121330874D01*
X139796667Y-121334630D01*
X139959838Y-121369050D01*
X140115935Y-121434723D01*
X140260433Y-121532235D01*
X140305131Y-121571813D01*
X140418888Y-121695703D01*
X140501782Y-121826124D01*
X140558644Y-121972315D01*
X140590313Y-122117088D01*
X140598131Y-122279860D01*
X140572062Y-122443440D01*
X140514755Y-122602298D01*
X140428856Y-122750906D01*
X140317014Y-122883735D01*
X140181877Y-122995256D01*
X140164117Y-123007011D01*
X140107850Y-123045508D01*
X140065077Y-123078863D01*
X140044628Y-123100160D01*
X140044331Y-123100833D01*
X140048721Y-123123871D01*
X140066124Y-123176157D01*
X140094732Y-123253390D01*
X140132735Y-123351268D01*
X140178326Y-123465491D01*
X140229697Y-123591758D01*
X140285038Y-123725767D01*
X140342542Y-123863218D01*
X140400399Y-123999808D01*
X140456802Y-124131237D01*
X140509942Y-124253205D01*
X140558010Y-124361409D01*
X140599199Y-124451549D01*
X140631699Y-124519323D01*
X140653703Y-124560430D01*
X140662564Y-124571226D01*
X140689640Y-124562819D01*
X140740303Y-124540272D01*
X140805817Y-124507613D01*
X140841841Y-124488520D01*
X140994832Y-124405800D01*
X141177088Y-124529075D01*
X141270125Y-124592228D01*
X141371985Y-124661727D01*
X141467438Y-124727165D01*
X141515250Y-124760117D01*
X141582495Y-124805273D01*
X141639436Y-124841057D01*
X141678646Y-124862938D01*
X141691381Y-124867563D01*
X141709917Y-124855085D01*
X141750941Y-124820252D01*
X141810475Y-124766678D01*
X141884542Y-124697983D01*
X141969165Y-124617781D01*
X142022685Y-124566286D01*
X142116319Y-124474286D01*
X142197241Y-124391999D01*
X142262177Y-124322945D01*
X142307858Y-124270644D01*
X142331011Y-124238616D01*
X142333232Y-124232116D01*
X142322924Y-124207394D01*
X142294439Y-124157405D01*
X142250937Y-124087212D01*
X142195577Y-124001875D01*
X142131520Y-123906456D01*
X142113303Y-123879854D01*
X142046927Y-123783167D01*
X141987378Y-123696117D01*
X141937984Y-123623595D01*
X141902075Y-123570493D01*
X141882981Y-123541703D01*
X141881136Y-123538726D01*
X141883895Y-123515782D01*
X141898538Y-123465336D01*
X141922513Y-123394041D01*
X141953266Y-123308547D01*
X141988244Y-123215507D01*
X142024893Y-123121574D01*
X142060661Y-123033399D01*
X142092994Y-122957634D01*
X142119338Y-122900931D01*
X142137142Y-122869943D01*
X142138407Y-122868457D01*
X142149294Y-122859601D01*
X142167682Y-122850843D01*
X142197606Y-122841277D01*
X142243103Y-122829996D01*
X142308209Y-122816093D01*
X142396961Y-122798663D01*
X142513393Y-122776798D01*
X142661542Y-122749591D01*
X142693618Y-122743741D01*
X142788686Y-122725374D01*
X142871565Y-122707405D01*
X142934930Y-122691569D01*
X142971458Y-122679600D01*
X142976356Y-122676810D01*
X142984427Y-122652072D01*
X142990987Y-122596790D01*
X142996033Y-122517389D01*
X142999559Y-122420296D01*
X143001561Y-122311938D01*
X143002036Y-122198740D01*
X143000977Y-122087128D01*
X142998382Y-121983529D01*
X142994246Y-121894368D01*
X142988563Y-121826072D01*
X142981331Y-121785066D01*
X142976971Y-121776674D01*
X142952698Y-121768208D01*
X142897426Y-121754435D01*
X142816662Y-121736550D01*
X142715912Y-121715748D01*
X142600683Y-121693223D01*
X142537902Y-121681418D01*
X142418787Y-121659151D01*
X142312565Y-121638979D01*
X142224427Y-121621915D01*
X142159566Y-121608969D01*
X142123174Y-121601155D01*
X142117184Y-121599422D01*
X142107061Y-121579890D01*
X142085662Y-121532843D01*
X142055839Y-121465003D01*
X142020445Y-121383091D01*
X141982332Y-121293828D01*
X141944353Y-121203935D01*
X141909360Y-121120135D01*
X141880206Y-121049147D01*
X141859743Y-120997694D01*
X141850823Y-120972497D01*
X141850657Y-120971396D01*
X141860769Y-120951519D01*
X141889117Y-120905777D01*
X141932723Y-120838717D01*
X141988606Y-120754884D01*
X142053787Y-120658826D01*
X142091679Y-120603650D01*
X142160725Y-120502481D01*
X142222050Y-120410630D01*
X142272663Y-120332744D01*
X142309571Y-120273469D01*
X142329782Y-120237451D01*
X142332701Y-120229377D01*
X142320153Y-120210584D01*
X142285463Y-120170457D01*
X142233063Y-120113493D01*
X142167384Y-120044185D01*
X142092856Y-119967031D01*
X142013913Y-119886525D01*
X141934983Y-119807163D01*
X141860500Y-119733440D01*
X141794894Y-119669852D01*
X141742596Y-119620894D01*
X141708039Y-119591061D01*
X141696478Y-119583942D01*
X141677654Y-119593953D01*
X141632631Y-119622078D01*
X141565787Y-119665454D01*
X141481499Y-119721218D01*
X141384144Y-119786506D01*
X141310707Y-119836246D01*
X140939667Y-120088551D01*
X140321095Y-119833555D01*
X140237275Y-119388931D01*
X140153454Y-118944307D01*
X139228006Y-118944307D01*
X139144186Y-119388931D01*
X139144186Y-119388931D01*
G37*
X139144186Y-119388931D02*
X139060365Y-119833555D01*
X138751080Y-119961053D01*
X138441794Y-120088551D01*
X138070754Y-119836246D01*
X137966843Y-119765996D01*
X137872913Y-119703272D01*
X137793348Y-119650938D01*
X137732530Y-119611857D01*
X137694843Y-119588893D01*
X137684579Y-119583942D01*
X137666090Y-119596676D01*
X137626580Y-119631882D01*
X137570478Y-119685062D01*
X137502213Y-119751718D01*
X137426214Y-119827354D01*
X137346908Y-119907472D01*
X137268725Y-119987574D01*
X137196093Y-120063164D01*
X137133441Y-120129745D01*
X137085197Y-120182818D01*
X137055790Y-120217887D01*
X137048759Y-120229623D01*
X137058877Y-120251260D01*
X137087241Y-120298662D01*
X137130871Y-120367193D01*
X137186782Y-120452215D01*
X137251994Y-120549093D01*
X137289781Y-120604350D01*
X137358657Y-120705248D01*
X137419860Y-120796299D01*
X137470422Y-120872970D01*
X137507372Y-120930728D01*
X137527742Y-120965043D01*
X137530803Y-120972254D01*
X137523864Y-120992748D01*
X137504949Y-121040513D01*
X137476913Y-121108832D01*
X137442609Y-121190989D01*
X137404891Y-121280270D01*
X137366613Y-121369958D01*
X137330630Y-121453338D01*
X137299794Y-121523694D01*
X137276961Y-121574310D01*
X137264983Y-121598471D01*
X137264276Y-121599422D01*
X137245469Y-121604036D01*
X137195382Y-121614328D01*
X137119207Y-121629287D01*
X137022135Y-121647901D01*
X136909357Y-121669159D01*
X136843558Y-121681418D01*
X136723050Y-121704362D01*
X136614203Y-121726195D01*
X136522524Y-121745722D01*
X136453519Y-121761748D01*
X136412696Y-121773079D01*
X136404489Y-121776674D01*
X136396452Y-121801006D01*
X136389967Y-121855959D01*
X136385030Y-121935108D01*
X136381636Y-122032026D01*
X136379782Y-122140287D01*
X136379462Y-122253465D01*
X136380673Y-122365135D01*
X136383410Y-122468868D01*
X136387669Y-122558241D01*
X136393445Y-122626826D01*
X136400733Y-122668197D01*
X136405105Y-122676810D01*
X136431236Y-122687133D01*
X136486607Y-122701892D01*
X136563893Y-122719352D01*
X136655770Y-122737780D01*
X136687842Y-122743741D01*
X136842476Y-122772066D01*
X136964625Y-122794876D01*
X137058327Y-122813080D01*
X137127616Y-122827583D01*
X137176529Y-122839292D01*
X137209103Y-122849115D01*
X137229372Y-122857956D01*
X137241374Y-122866724D01*
X137243053Y-122868457D01*
X137259816Y-122896371D01*
X137285386Y-122950695D01*
X137317212Y-123024777D01*
X137352740Y-123111965D01*
X137389417Y-123205608D01*
X137424689Y-123299052D01*
X137456004Y-123385647D01*
X137480807Y-123458740D01*
X137496546Y-123511678D01*
X137500668Y-123537811D01*
X137500324Y-123538726D01*
X137486359Y-123560086D01*
X137454678Y-123607084D01*
X137408609Y-123674827D01*
X137351482Y-123758423D01*
X137286627Y-123852982D01*
X137268157Y-123879854D01*
X137202301Y-123977275D01*
X137144350Y-124066163D01*
X137097462Y-124141412D01*
X137064793Y-124197920D01*
X137049500Y-124230581D01*
X137048759Y-124234593D01*
X137061608Y-124255684D01*
X137097112Y-124297464D01*
X137150707Y-124355445D01*
X137217829Y-124425135D01*
X137293913Y-124502045D01*
X137374396Y-124581683D01*
X137454713Y-124659561D01*
X137530301Y-124731186D01*
X137596595Y-124792070D01*
X137649031Y-124837721D01*
X137683045Y-124863650D01*
X137692455Y-124867883D01*
X137714357Y-124857912D01*
X137759200Y-124831020D01*
X137819679Y-124791736D01*
X137866211Y-124760117D01*
X137950525Y-124702098D01*
X138050374Y-124633784D01*
X138150527Y-124565579D01*
X138204373Y-124529075D01*
X138386629Y-124405800D01*
X138539619Y-124488520D01*
X138609318Y-124524759D01*
X138668586Y-124552926D01*
X138708689Y-124568991D01*
X138718897Y-124571226D01*
X138731171Y-124554722D01*
X138755387Y-124508082D01*
X138789737Y-124435609D01*
X138832412Y-124341606D01*
X138881606Y-124230374D01*
X138935510Y-124106215D01*
X138992316Y-123973432D01*
X139050218Y-123836327D01*
X139107407Y-123699202D01*
X139162076Y-123566358D01*
X139212416Y-123442098D01*
X139256620Y-123330725D01*
X139292881Y-123236539D01*
X139319391Y-123163844D01*
X139334342Y-123116941D01*
X139336746Y-123100833D01*
X139317689Y-123080286D01*
X139275964Y-123046933D01*
X139220294Y-123007702D01*
X139215622Y-123004599D01*
X139071736Y-122889423D01*
X138955717Y-122755053D01*
X138868570Y-122605784D01*
X138811301Y-122445913D01*
X138784914Y-122279737D01*
X138790415Y-122111552D01*
X138828810Y-121945655D01*
X138901105Y-121786342D01*
X138922374Y-121751487D01*
X139033004Y-121610737D01*
X139163698Y-121497714D01*
X139309936Y-121413003D01*
X139467192Y-121357194D01*
X139630943Y-121330874D01*
X139796667Y-121334630D01*
X139959838Y-121369050D01*
X140115935Y-121434723D01*
X140260433Y-121532235D01*
X140305131Y-121571813D01*
X140418888Y-121695703D01*
X140501782Y-121826124D01*
X140558644Y-121972315D01*
X140590313Y-122117088D01*
X140598131Y-122279860D01*
X140572062Y-122443440D01*
X140514755Y-122602298D01*
X140428856Y-122750906D01*
X140317014Y-122883735D01*
X140181877Y-122995256D01*
X140164117Y-123007011D01*
X140107850Y-123045508D01*
X140065077Y-123078863D01*
X140044628Y-123100160D01*
X140044331Y-123100833D01*
X140048721Y-123123871D01*
X140066124Y-123176157D01*
X140094732Y-123253390D01*
X140132735Y-123351268D01*
X140178326Y-123465491D01*
X140229697Y-123591758D01*
X140285038Y-123725767D01*
X140342542Y-123863218D01*
X140400399Y-123999808D01*
X140456802Y-124131237D01*
X140509942Y-124253205D01*
X140558010Y-124361409D01*
X140599199Y-124451549D01*
X140631699Y-124519323D01*
X140653703Y-124560430D01*
X140662564Y-124571226D01*
X140689640Y-124562819D01*
X140740303Y-124540272D01*
X140805817Y-124507613D01*
X140841841Y-124488520D01*
X140994832Y-124405800D01*
X141177088Y-124529075D01*
X141270125Y-124592228D01*
X141371985Y-124661727D01*
X141467438Y-124727165D01*
X141515250Y-124760117D01*
X141582495Y-124805273D01*
X141639436Y-124841057D01*
X141678646Y-124862938D01*
X141691381Y-124867563D01*
X141709917Y-124855085D01*
X141750941Y-124820252D01*
X141810475Y-124766678D01*
X141884542Y-124697983D01*
X141969165Y-124617781D01*
X142022685Y-124566286D01*
X142116319Y-124474286D01*
X142197241Y-124391999D01*
X142262177Y-124322945D01*
X142307858Y-124270644D01*
X142331011Y-124238616D01*
X142333232Y-124232116D01*
X142322924Y-124207394D01*
X142294439Y-124157405D01*
X142250937Y-124087212D01*
X142195577Y-124001875D01*
X142131520Y-123906456D01*
X142113303Y-123879854D01*
X142046927Y-123783167D01*
X141987378Y-123696117D01*
X141937984Y-123623595D01*
X141902075Y-123570493D01*
X141882981Y-123541703D01*
X141881136Y-123538726D01*
X141883895Y-123515782D01*
X141898538Y-123465336D01*
X141922513Y-123394041D01*
X141953266Y-123308547D01*
X141988244Y-123215507D01*
X142024893Y-123121574D01*
X142060661Y-123033399D01*
X142092994Y-122957634D01*
X142119338Y-122900931D01*
X142137142Y-122869943D01*
X142138407Y-122868457D01*
X142149294Y-122859601D01*
X142167682Y-122850843D01*
X142197606Y-122841277D01*
X142243103Y-122829996D01*
X142308209Y-122816093D01*
X142396961Y-122798663D01*
X142513393Y-122776798D01*
X142661542Y-122749591D01*
X142693618Y-122743741D01*
X142788686Y-122725374D01*
X142871565Y-122707405D01*
X142934930Y-122691569D01*
X142971458Y-122679600D01*
X142976356Y-122676810D01*
X142984427Y-122652072D01*
X142990987Y-122596790D01*
X142996033Y-122517389D01*
X142999559Y-122420296D01*
X143001561Y-122311938D01*
X143002036Y-122198740D01*
X143000977Y-122087128D01*
X142998382Y-121983529D01*
X142994246Y-121894368D01*
X142988563Y-121826072D01*
X142981331Y-121785066D01*
X142976971Y-121776674D01*
X142952698Y-121768208D01*
X142897426Y-121754435D01*
X142816662Y-121736550D01*
X142715912Y-121715748D01*
X142600683Y-121693223D01*
X142537902Y-121681418D01*
X142418787Y-121659151D01*
X142312565Y-121638979D01*
X142224427Y-121621915D01*
X142159566Y-121608969D01*
X142123174Y-121601155D01*
X142117184Y-121599422D01*
X142107061Y-121579890D01*
X142085662Y-121532843D01*
X142055839Y-121465003D01*
X142020445Y-121383091D01*
X141982332Y-121293828D01*
X141944353Y-121203935D01*
X141909360Y-121120135D01*
X141880206Y-121049147D01*
X141859743Y-120997694D01*
X141850823Y-120972497D01*
X141850657Y-120971396D01*
X141860769Y-120951519D01*
X141889117Y-120905777D01*
X141932723Y-120838717D01*
X141988606Y-120754884D01*
X142053787Y-120658826D01*
X142091679Y-120603650D01*
X142160725Y-120502481D01*
X142222050Y-120410630D01*
X142272663Y-120332744D01*
X142309571Y-120273469D01*
X142329782Y-120237451D01*
X142332701Y-120229377D01*
X142320153Y-120210584D01*
X142285463Y-120170457D01*
X142233063Y-120113493D01*
X142167384Y-120044185D01*
X142092856Y-119967031D01*
X142013913Y-119886525D01*
X141934983Y-119807163D01*
X141860500Y-119733440D01*
X141794894Y-119669852D01*
X141742596Y-119620894D01*
X141708039Y-119591061D01*
X141696478Y-119583942D01*
X141677654Y-119593953D01*
X141632631Y-119622078D01*
X141565787Y-119665454D01*
X141481499Y-119721218D01*
X141384144Y-119786506D01*
X141310707Y-119836246D01*
X140939667Y-120088551D01*
X140321095Y-119833555D01*
X140237275Y-119388931D01*
X140153454Y-118944307D01*
X139228006Y-118944307D01*
X139144186Y-119388931D01*
M02*
